<svg xmlns="http://www.w3.org/2000/svg" xmlns:xlink="http://www.w3.org/1999/xlink" width="133.387" height="114.51" viewBox="0 0 133.387 114.51">
  <defs>
    <linearGradient id="linear-gradient" x1="0.5" x2="0.5" y2="1" gradientUnits="objectBoundingBox">
      <stop offset="0" stop-color="#ecb773" stop-opacity="0.278"/>
      <stop offset="1" stop-color="#ecb773" stop-opacity="0"/>
    </linearGradient>
    <linearGradient id="linear-gradient-2" x1="0.5" x2="0.5" y2="1" gradientUnits="objectBoundingBox">
      <stop offset="0" stop-color="#258c93" stop-opacity="0.231"/>
      <stop offset="1" stop-color="#258c93" stop-opacity="0"/>
    </linearGradient>
    <linearGradient id="linear-gradient-3" x1="0.5" x2="0.5" y2="1" gradientUnits="objectBoundingBox">
      <stop offset="0" stop-color="#ecb773"/>
      <stop offset="1" stop-color="#ffd59f"/>
    </linearGradient>
  </defs>
  <g id="change-passt-action-illustration" transform="translate(-390 -607.532)">
    <g id="class-registration-action-illustration">
      <path id="blob_5_" data-name="blob (5)" d="M25.476-53.025c13.17,6.256,26.34,17.2,29.3,30.455S50.417,6.322,41.362,19.985C32.39,33.649,21.69,45.337,8.6,49.864c-13.17,4.445-28.644,1.729-41.814-4.445A79.4,79.4,0,0,1-65.478,17.763c-8.231-12.1-13.993-26.669-12.1-40.415C-75.685-36.48-66.3-49.321-54.366-55.823s26.257-6.585,39.921-5.844C-.7-60.927,12.389-59.28,25.476-53.025Z" transform="translate(467.939 669.981)" fill="rgba(37,140,147,0.04)"/>
      <path id="blob_6_" data-name="blob (6)" d="M-29.36-54.116c3.174,1.2,6.524,2.984,7.692,5.394a5.372,5.372,0,0,1-2.535,6.91c-2.645,1.452-6.9,1.34-10.072,1.229a71.786,71.786,0,0,1-7.56-.511c-2.314-.3-4.871-.814-6.259-2.075-1.389-1.245-1.587-3.224-1.146-5.122a8.731,8.731,0,0,1,3.416-5.123A14.141,14.141,0,0,1-38.4-55.807,22.332,22.332,0,0,1-29.36-54.116Z" transform="translate(443.078 696.036) rotate(133)" fill="rgba(37,140,147,0.41)"/>
      <path id="blob_6_2" data-name="blob (6)" d="M-26.815-53.9c3.576,1.348,7.35,3.362,8.667,6.077A6.052,6.052,0,0,1-21-40.036c-2.98,1.636-7.773,1.51-11.349,1.384a80.882,80.882,0,0,1-8.518-.575c-2.607-.342-5.488-.917-7.052-2.337-1.564-1.4-1.788-3.632-1.291-5.771a9.837,9.837,0,0,1,3.849-5.771A15.933,15.933,0,0,1-37-55.8,25.161,25.161,0,0,1-26.815-53.9Z" transform="translate(464.792 630.855) rotate(-49)" fill="rgba(37,140,147,0.36)"/>
    </g>
    <circle id="Ellipse_221" data-name="Ellipse 221" cx="11" cy="11" r="11" transform="translate(462 668)" fill="url(#linear-gradient)"/>
    <rect id="Rectangle_250" data-name="Rectangle 250" width="17" height="35" rx="8.5" transform="translate(443 639)" fill="url(#linear-gradient-2)"/>
    <g id="timer" transform="translate(428 634)">
      <path id="Path_1220" data-name="Path 1220" d="M27.755,44.51A16.755,16.755,0,1,1,44.51,27.755,16.774,16.774,0,0,1,27.755,44.51Zm0-30.932A14.177,14.177,0,1,0,41.932,27.755,14.192,14.192,0,0,0,27.755,13.578Z" transform="translate(17.355 17.355)" fill="#ecb773"/>
      <path id="Path_1221" data-name="Path 1221" d="M23.444,30.755a1.3,1.3,0,0,1-.913-.376l-5.155-5.155A1.3,1.3,0,0,1,17,24.311V15.289a1.289,1.289,0,1,1,2.578,0v8.488l4.779,4.779a1.288,1.288,0,0,1-.913,2.2Z" transform="translate(26.821 22.088)" fill="url(#linear-gradient-3)"/>
      <path id="Path_1222" data-name="Path 1222" d="M28.488,25.777A1.289,1.289,0,0,1,27.2,24.488v-11.6a10.311,10.311,0,0,0-20.622,0v11.6a1.289,1.289,0,0,1-2.578,0v-11.6a12.888,12.888,0,0,1,25.777,0v11.6A1.289,1.289,0,0,1,28.488,25.777Z" transform="translate(6.311)" fill="#258c93"/>
      <path id="Path_1223" data-name="Path 1223" d="M23.2,42.506A94.532,94.532,0,0,1,5.215,40.828,6.462,6.462,0,0,1,0,34.49V17.013a6.464,6.464,0,0,1,5.215-6.339,98.062,98.062,0,0,1,32.046-.668,1.288,1.288,0,0,1-.374,2.549,95.634,95.634,0,0,0-31.18.647,3.883,3.883,0,0,0-3.129,3.81V34.49A3.883,3.883,0,0,0,5.707,38.3a92.8,92.8,0,0,0,19.248,1.614,1.266,1.266,0,0,1,1.315,1.263,1.291,1.291,0,0,1-1.263,1.315C24.406,42.5,23.805,42.506,23.2,42.506Z" transform="translate(0 14.203)" fill="#258c93"/>
    </g>
  </g>
</svg>
