<svg xmlns="http://www.w3.org/2000/svg" xmlns:xlink="http://www.w3.org/1999/xlink" width="133.387" height="114.095" viewBox="0 0 133.387 114.095">
  <defs>
    <linearGradient id="linear-gradient" x1="0.5" x2="0.5" y2="1" gradientUnits="objectBoundingBox">
      <stop offset="0" stop-color="#258c93" stop-opacity="0.231"/>
      <stop offset="1" stop-color="#258c93" stop-opacity="0"/>
    </linearGradient>
    <linearGradient id="linear-gradient-2" x1="0.5" x2="0.5" y2="1" gradientUnits="objectBoundingBox">
      <stop offset="0" stop-color="#ecb773" stop-opacity="0.278"/>
      <stop offset="1" stop-color="#ecb773" stop-opacity="0"/>
    </linearGradient>
  </defs>
  <g id="class-registration-action-illustration" transform="translate(-390 -608)">
    <path id="blob_5_" data-name="blob (5)" d="M25.476-53.025c13.17,6.256,26.34,17.2,29.3,30.455S50.417,6.322,41.362,19.985C32.39,33.649,21.69,45.337,8.6,49.864c-13.17,4.445-28.644,1.729-41.814-4.445A79.4,79.4,0,0,1-65.478,17.763c-8.231-12.1-13.993-26.669-12.1-40.415C-75.685-36.48-66.3-49.321-54.366-55.823s26.257-6.585,39.921-5.844C-.7-60.927,12.389-59.28,25.476-53.025Z" transform="translate(467.939 669.981)" fill="rgba(37,140,147,0.04)"/>
    <g id="add" transform="translate(428 635)">
      <rect id="Rectangle_250" data-name="Rectangle 250" width="34" height="37" rx="3" transform="translate(5 5)" fill="url(#linear-gradient)"/>
      <circle id="Ellipse_221" data-name="Ellipse 221" cx="11" cy="11" r="11" transform="translate(34 34)" fill="url(#linear-gradient-2)"/>
      <path id="Path_1205" data-name="Path 1205" d="M23.316,54.283H6.462A6.47,6.47,0,0,1,0,47.821V6.462A6.47,6.47,0,0,1,6.462,0H37.481a6.47,6.47,0,0,1,6.462,6.462V22.127a1.292,1.292,0,1,1-2.585,0V6.462a3.882,3.882,0,0,0-3.877-3.877H6.462A3.882,3.882,0,0,0,2.585,6.462V47.821A3.882,3.882,0,0,0,6.462,51.7H23.316a1.292,1.292,0,0,1,0,2.585Z" transform="translate(0)" fill="#258c93"/>
      <path id="Path_1206" data-name="Path 1206" d="M30.142,10.585H4.292A1.292,1.292,0,0,1,4.292,8H30.142a1.292,1.292,0,0,1,0,2.585Z" transform="translate(4.755 12.679)" fill="#258c93"/>
      <path id="Path_1207" data-name="Path 1207" d="M19.8,14.585H4.292a1.292,1.292,0,1,1,0-2.585H19.8a1.292,1.292,0,1,1,0,2.585Z" transform="translate(4.755 19.019)" fill="#258c93"/>
      <path id="Path_1208" data-name="Path 1208" d="M17.217,6.585H4.292A1.292,1.292,0,0,1,4.292,4H17.217a1.292,1.292,0,1,1,0,2.585Z" transform="translate(4.755 6.34)" fill="#258c93"/>
      <path id="Path_1209" data-name="Path 1209" d="M27.8,44.6A16.8,16.8,0,1,1,44.6,27.8,16.821,16.821,0,0,1,27.8,44.6Zm0-31.019A14.217,14.217,0,1,0,42.019,27.8,14.234,14.234,0,0,0,27.8,13.585Z" transform="translate(17.434 17.434)" fill="#ecb773"/>
      <path id="Path_1210" data-name="Path 1210" d="M18.292,32.094A1.293,1.293,0,0,1,17,30.8V15.292a1.292,1.292,0,0,1,2.585,0V30.8A1.293,1.293,0,0,1,18.292,32.094Z" transform="translate(26.944 22.189)" fill="#ecb773"/>
      <path id="Path_1211" data-name="Path 1211" d="M30.8,19.585H15.292a1.292,1.292,0,1,1,0-2.585H30.8a1.292,1.292,0,1,1,0,2.585Z" transform="translate(22.189 26.944)" fill="#ecb773"/>
      <path id="Path_1212" data-name="Path 1212" d="M27.8,44.6A16.8,16.8,0,1,1,44.6,27.8,16.821,16.821,0,0,1,27.8,44.6Zm0-31.019A14.217,14.217,0,1,0,42.019,27.8,14.234,14.234,0,0,0,27.8,13.585Z" transform="translate(17.434 17.434)" fill="#ecb773"/>
    </g>
    <path id="blob_6_" data-name="blob (6)" d="M-29.36-54.116c3.174,1.2,6.524,2.984,7.692,5.394a5.372,5.372,0,0,1-2.535,6.91c-2.645,1.452-6.9,1.34-10.072,1.229a71.786,71.786,0,0,1-7.56-.511c-2.314-.3-4.871-.814-6.259-2.075-1.389-1.245-1.587-3.224-1.146-5.122a8.731,8.731,0,0,1,3.416-5.123A14.141,14.141,0,0,1-38.4-55.807,22.332,22.332,0,0,1-29.36-54.116Z" transform="translate(425.349 647.519) rotate(-139)" fill="rgba(37,140,147,0.41)"/>
    <path id="blob_6_2" data-name="blob (6)" d="M-26.815-53.9c3.576,1.348,7.35,3.362,8.667,6.077A6.052,6.052,0,0,1-21-40.036c-2.98,1.636-7.773,1.51-11.349,1.384a80.882,80.882,0,0,1-8.518-.575c-2.607-.342-5.488-.917-7.052-2.337-1.564-1.4-1.788-3.632-1.291-5.771a9.837,9.837,0,0,1,3.849-5.771A15.933,15.933,0,0,1-37-55.8,25.161,25.161,0,0,1-26.815-53.9Z" transform="translate(518.574 680.529) rotate(22)" fill="rgba(37,140,147,0.36)"/>
  </g>
</svg>
