<svg xmlns="http://www.w3.org/2000/svg" width="606.15" height="354.989" viewBox="0 0 606.15 354.989">
  <g id="Confirmation-Modal-Img" transform="translate(-657 -185.028)">
    <g id="undraw_message_sent_1030" transform="translate(657 121.982)">
      <path id="Path_718" data-name="Path 718" d="M630.414,614.311H366.822a32.592,32.592,0,0,1-32.592-32.592V460.954a12.912,12.912,0,0,1,4.029-9.371l139.678-132.4a30.062,30.062,0,0,1,41.363,0L652.475,445.419a33.75,33.75,0,0,1,10.532,24.494V581.719a32.592,32.592,0,0,1-32.592,32.592Z" transform="translate(-169.188 -197.176)" fill="#258c93"/>
      <path id="Path_719" data-name="Path 719" d="M240.954,387.992H566.991V519.685a19.68,19.68,0,0,1-19.68,19.68H260.634a19.68,19.68,0,0,1-19.68-19.68V387.992Z" transform="translate(-75.912 -122.231)" opacity="0.1"/>
      <path id="Path_720" data-name="Path 720" d="M333.73,521.351" transform="translate(-169.03 -263.467)" fill="none" stroke="#3f3d56" stroke-miterlimit="10" stroke-width="1"/>
      <rect id="Rectangle_98" data-name="Rectangle 98" width="242.473" height="242.473" rx="26.181" transform="translate(207.851 161.991)" fill="#5ab6bc"/>
      <path id="Path_721" data-name="Path 721" d="M545.927,395.942V529.2H303.454V395.942l121.236,58.6Z" transform="translate(-95.603 -124.736)" opacity="0.1"/>
      <path id="Path_722" data-name="Path 722" d="M498.118,602.527,342.775,527.445a6.3,6.3,0,0,0-9.046,5.675V662.3a19.68,19.68,0,0,0,19.68,19.68H642.826a19.68,19.68,0,0,0,19.68-19.68V535.333a7.691,7.691,0,0,0-11.038-6.925Z" transform="translate(-169.03 -265.189)" fill="#258c93"/>
      <rect id="Rectangle_99" data-name="Rectangle 99" width="67.81" height="9.589" transform="translate(228.742 184.252)" fill="#f2f2f2"/>
      <rect id="Rectangle_100" data-name="Rectangle 100" width="201.376" height="5.48" transform="translate(223.263 219.184)" fill="#f2f2f2"/>
      <rect id="Rectangle_101" data-name="Rectangle 101" width="201.376" height="5.48" transform="translate(223.263 237.678)" fill="#f2f2f2"/>
      <rect id="Rectangle_102" data-name="Rectangle 102" width="201.376" height="5.48" transform="translate(223.263 256.172)" fill="#f2f2f2"/>
      <line id="Line_18" data-name="Line 18" x2="564.399" transform="translate(41.751 416.793)" fill="none" stroke="#3f3d56" stroke-miterlimit="10" stroke-width="1"/>
      <path id="Path_723" data-name="Path 723" d="M93.275,630.212c0,40.385,25.335,73.064,56.645,73.064" transform="translate(-93.275 -297.764)" fill="#1f7980"/>
      <path id="Path_724" data-name="Path 724" d="M175.975,702.9c0-40.839,28.273-73.885,63.213-73.885" transform="translate(-119.33 -297.386)" fill="#258c93"/>
      <path id="Path_725" data-name="Path 725" d="M123.239,635.557c0,38.361,16.156,69.4,36.121,69.4" transform="translate(-102.715 -299.448)" fill="#258c93"/>
      <path id="Path_726" data-name="Path 726" d="M175.975,693.459c0-52.183,32.679-94.408,73.064-94.408" transform="translate(-119.33 -287.946)" fill="#1f7980"/>
      <path id="Path_727" data-name="Path 727" d="M158.577,735.638s8.033-.247,10.454-1.971,12.357-3.783,12.958-1.018,12.072,13.751,3,13.824-21.073-1.413-23.49-2.885S158.577,735.638,158.577,735.638Z" transform="translate(-113.849 -329.611)" fill="#258c93"/>
      <path id="Path_728" data-name="Path 728" d="M185.154,747.5c-9.069.073-21.073-1.413-23.49-2.885-1.84-1.121-2.573-5.143-2.819-7l-.268.01s.509,6.479,2.925,7.951,14.42,2.958,23.49,2.885c2.618-.021,3.522-.953,3.473-2.332C188.1,746.967,187.1,747.487,185.154,747.5Z" transform="translate(-113.849 -331.602)" opacity="0.2"/>
      <path id="Path_729" data-name="Path 729" d="M810.828,302.352c-.412,3.668-3.209,6.622-4.246,10.164-1.56,5.331,1.138,11.052,4.828,15.2a33.672,33.672,0,0,0,23.448,11.134,10,10,0,0,0,3.877-.423,8.3,8.3,0,0,0,2.95-2.016,18.854,18.854,0,0,0,4.865-10.55,56.159,56.159,0,0,0,.131-11.791,6.658,6.658,0,0,0-.436-2.378,6.094,6.094,0,0,0-1.531-1.882,35.664,35.664,0,0,0-6.569-4.772,7.541,7.541,0,0,1-2.752-2.106,6.805,6.805,0,0,1-.851-2.522l-.726-3.7a7.268,7.268,0,0,0-1.066-3c-1.282-1.729-3.734-1.965-5.885-2.049l-7.88-.309c-2.451-.1-5.681-.8-8.074-.318-2.235.45-1.492,2.509-1.086,4.384A31.69,31.69,0,0,1,810.828,302.352Z" transform="translate(-317.86 -190.857)" fill="#a0616a"/>
      <path id="Path_730" data-name="Path 730" d="M810.828,302.352c-.412,3.668-3.209,6.622-4.246,10.164-1.56,5.331,1.138,11.052,4.828,15.2a33.672,33.672,0,0,0,23.448,11.134,10,10,0,0,0,3.877-.423,8.3,8.3,0,0,0,2.95-2.016,18.854,18.854,0,0,0,4.865-10.55,56.159,56.159,0,0,0,.131-11.791,6.658,6.658,0,0,0-.436-2.378,6.094,6.094,0,0,0-1.531-1.882,35.664,35.664,0,0,0-6.569-4.772,7.541,7.541,0,0,1-2.752-2.106,6.805,6.805,0,0,1-.851-2.522l-.726-3.7a7.268,7.268,0,0,0-1.066-3c-1.282-1.729-3.734-1.965-5.885-2.049l-7.88-.309c-2.451-.1-5.681-.8-8.074-.318-2.235.45-1.492,2.509-1.086,4.384A31.69,31.69,0,0,1,810.828,302.352Z" transform="translate(-317.86 -190.857)" fill="#fff7ec" opacity="0.8"/>
      <path id="Path_731" data-name="Path 731" d="M867.32,540.29q-1.675,18.362-3.349,36.719c-.874,9.631-1.765,19.3-3.479,28.808-.592,3.276-1.286,6.535-2.109,9.766-2.289,8.971-5.61,17.739-6.682,26.936-.034.265-.062.536-.09.806a23.415,23.415,0,0,1-1.145,5.977c-.536,1.4-1.359,2.684-1.94,4.071-1.156,2.774-1.308,5.842-1.449,8.847a38.138,38.138,0,0,0-13.133-4.488c-2.227-.333-4.708-.57-6.225-2.233-1.68-1.838-1.494-4.652-1.212-7.122q1.328-11.5,2.65-22.995a59.935,59.935,0,0,1,1.675-9.766c.3-1.066.671-2.115,1.043-3.163.513-1.443,1.032-2.887,1.421-4.37a52.625,52.625,0,0,0,1.173-7.279c.908-7.714,2-15.411,2.96-23.119l.051-.406c1.438-11.683,2.532-23.423,2.216-35.191-.045-1.742-.118-3.485-.231-5.233-.158-2.532-.389-3.874,1.709-5.458a39.446,39.446,0,0,1,8.018-4.116c1.427-.62,17.136-6.2,17.5-4.973a30.608,30.608,0,0,1,1.15,8.018A89.2,89.2,0,0,1,867.32,540.29Z" transform="translate(-324.221 -263.714)" fill="#1f7980"/>
      <path id="Path_732" data-name="Path 732" d="M863.045,631.182c-.592,3.276-1.286,6.535-2.109,9.766-2.289,8.971-5.61,17.739-6.682,26.936-.034.265-.062.536-.09.806-7-10-12.9-20.762-19.735-30.872.513-1.443,1.032-2.887,1.421-4.37a52.627,52.627,0,0,0,1.173-7.28c.908-7.714,2-15.41,2.96-23.119l.051-.406a23.957,23.957,0,0,0,1.708,4.742c4.59,9.326,15.5,14.04,20.829,22.966Q862.817,630.768,863.045,631.182Z" transform="translate(-326.775 -289.079)" opacity="0.1"/>
      <path id="Path_733" data-name="Path 733" d="M793.23,503.7a173.533,173.533,0,0,0,2.624,22.281l2.465,15.243c1.349,8.342,2.754,16.855,6.7,24.327,2.953,5.589,7.208,10.359,11.057,15.374,9.463,12.328,16.572,26.293,25.545,38.982,2.608,3.688,6.336,7.677,10.787,6.907,2.921-.505,5.043-2.938,7.339-4.813,2.707-2.211,5.97-3.829,8.1-6.6s2.548-7.378-.338-9.35a15.223,15.223,0,0,0-3.3-1.352c-4.474-1.7-7.369-6.07-9.212-10.488s-2.959-9.168-5.414-13.276c-5.334-8.926-16.24-13.64-20.831-22.969-2.571-5.225-2.816-11.248-3.013-17.069l-.5-14.838a10.835,10.835,0,0,1,.562-4.794c1.756-3.95,7.058-4.318,11.352-4.818a38.832,38.832,0,0,0,13.911-4.389c2.473-1.335,4.889-3.038,6.212-5.517,1.207-2.262,1.373-4.915,1.515-7.476l1.487-26.89a16.839,16.839,0,0,0-.571-6.874c-2.047-5.446-8.924-7.225-14.736-6.965-10.815.484-20.8,5.136-31,8.278a78.82,78.82,0,0,1-7.683,2c-2.289.459-5.058.269-7.241,1-3.882,1.309-3.783,9.8-4.334,13.319A112.116,112.116,0,0,0,793.23,503.7Z" transform="translate(-313.787 -243.607)" fill="#1f7980"/>
      <path id="Path_734" data-name="Path 734" d="M876.508,697.967a6.875,6.875,0,0,1,1.514,3.7,126.437,126.437,0,0,1,2.141,22.393,3.655,3.655,0,0,0,.4,2.029,2.548,2.548,0,0,0,1.053.847c2.756,1.314,5.956-.517,8.253-2.529,4.258-3.73,7.861-8.736,8.1-14.391a33.412,33.412,0,0,1,.153-4.365c.374-2.129,1.617-3.984,2.713-5.848a49.352,49.352,0,0,0,4.483-10.049c.419-1.317.7-2.976-.335-3.9a3.756,3.756,0,0,0-1.227-.638L891.31,680.6c-1.079-.4-3.764,6.5-4.19,7.25a5.7,5.7,0,0,1-4.17,3.317c-2.135.435-4.676-.189-6.668.876C872.912,693.844,874.6,696.043,876.508,697.967Z" transform="translate(-339.354 -313.633)" fill="#258c93"/>
      <path id="Path_735" data-name="Path 735" d="M842.929,711.19a3.818,3.818,0,0,0-.948-1.2,4.287,4.287,0,0,0-1.912-.649c-2.37-.4-5.18-.668-6.816,1.094-1.534,1.652-1.27,4.343-2.553,6.2-.406.587-.956,1.071-1.308,1.691a6.377,6.377,0,0,0-.574,3.034c-.066,2.874-.132,5.752.066,8.619.166,2.4.571,4.921,2.074,6.8,2.412,3.021,6.762,3.456,10.622,3.652l3.127.159a6.105,6.105,0,0,0,2.563-.235,4.219,4.219,0,0,0,2.21-2.432c1.628-4.046-.95-8.4-2.538-12.466C845.118,720.787,845.446,715.6,842.929,711.19Z" transform="translate(-324.987 -322.599)" fill="#258c93"/>
      <path id="Path_736" data-name="Path 736" d="M806.721,267.25a2.585,2.585,0,0,1,.176-1.206c.458-.81,1.654-.589,2.556-.362,3.628.915,7.451.087,11.186.3s7.943,2.081,8.694,5.746a27.277,27.277,0,0,0,6.9-7.086,8.508,8.508,0,0,0,1.8-5.189c-.2-2.684-2.455-4.691-4.54-6.393l-6.215-5.073a9.364,9.364,0,0,0-2.783-1.769,13.868,13.868,0,0,0-4.517-.256c-4.524,0-9.347-2.056-13.371.012a14.433,14.433,0,0,0-4.165,3.788l-5.547,6.566a3.507,3.507,0,0,0-.887,1.5,6.677,6.677,0,0,0,.4,2.4c.262,1.467-.37,3.032.116,4.441.806,2.339,3.646,2.67,5.382,4.01.647.5,1.661,2.193,2.432,2.172C805.723,270.816,806.685,268.331,806.721,267.25Z" transform="translate(-314.659 -176.42)" fill="#3f3d56"/>
      <path id="Path_745" data-name="Path 745" d="M17.762,0A17.762,17.762,0,1,1,0,17.762,17.762,17.762,0,0,1,17.762,0Z" transform="translate(483.712 74.661)" fill="#ecd8d1"/>
      <path id="Path_737" data-name="Path 737" d="M811.822,327.716a8.6,8.6,0,0,0-8.376-5.764,2.554,2.554,0,0,1-1.545-.2,2.13,2.13,0,0,1-.635-.794,31.03,31.03,0,0,1-2.59-6.122c-.283-.94-.671-2.048-1.622-2.293a2.191,2.191,0,0,0-2.067.9,18.213,18.213,0,0,1-1.478,1.857c-2.234,2-6.194.177-8.565,2.009-.387.3-.707.683-1.114.955a5.2,5.2,0,0,1-1.3.559,125.079,125.079,0,0,0-13.443,5.265c1.577,9.5,3.193,19.162,6.89,28.052,1.759,4.231,3.753,8.374,5.162,12.734,3.121,9.66,3.26,20,3.295,30.148.024,6.948-.011,14.045-2.259,20.619a19.459,19.459,0,0,0-1.269,4.529,4.693,4.693,0,0,0,1.59,4.222,5.437,5.437,0,0,0,2.453.862c3.9.572,7.822-.465,11.657-1.353,10.28-2.381,20.764-3.743,31.228-5.1l17.535-2.277a10.179,10.179,0,0,0,3.628-.938c3.209-1.757,3.513-6.583,1.521-9.651-.955-1.471-2.3-2.677-3.106-4.237s-.871-3.74.511-4.82c2.811-2.2,1.972-6.273,2.106-9.838q.562-14.952-.152-29.915a59.551,59.551,0,0,1-.1-6.2,54.94,54.94,0,0,1,1.934-10.353l5.328-20.979a10.931,10.931,0,0,0-6.581-4.229c-2.525-.634-5.154-.82-7.64-1.59-5.094-1.578-9.628-5.584-14.948-5.21a2.714,2.714,0,0,0-1.159.283c-1.2.68-1.01,2.409-1.086,3.785-.17,3.046-2.41,5.592-4.884,7.376s-5.3,3.086-7.572,5.122a3.379,3.379,0,0,0-1.344,2.585Z" transform="translate(-306.188 -196.421)" fill="#ecb773"/>
      <path id="Path_738" data-name="Path 738" d="M724.387,362.563a20.968,20.968,0,0,1-3.736,1.922,12.28,12.28,0,0,0-3.579,1.737,5.61,5.61,0,0,0-1.245,1.538,6.838,6.838,0,0,0,6.305,10.188,13.725,13.725,0,0,0,4.663-1.39l12.528-5.428c2.12-.919,4.411-2,5.413-4.078a.948.948,0,0,0,.122-.647,1.07,1.07,0,0,0-.515-.541,27.992,27.992,0,0,1-7.295-6.879c-.514-.7-1.143-2.346-1.869-2.764C732.529,354.694,726.51,361.186,724.387,362.563Z" transform="translate(-289.132 -211.37)" fill="#fff7ec"/>
      <path id="Path_739" data-name="Path 739" d="M910.5,359.084l4.619,5.276c.992,1.133,1.984,2.267,2.888,3.471a40.5,40.5,0,0,1,5.29,9.966,17.4,17.4,0,0,1,1.486,8.238,20.15,20.15,0,0,1-1.155,4.19,52.149,52.149,0,0,1-3.138,7.559,43.057,43.057,0,0,1-3.532,5.293,123.6,123.6,0,0,1-11.708,13.392c-1.579,1.563-2.241,4.091-2.929,6.2-1.268,3.9-4.285,6.932-7.2,9.811a20.025,20.025,0,0,1-3.092,2.661,10.073,10.073,0,0,1-5.628,1.6,6.176,6.176,0,0,1-2.535-.525c-2-.948-3.011-3.257-3.219-5.457a11.608,11.608,0,0,1,.971-5.836c2.65-5.871,9.456-8.415,14.267-12.7a46.343,46.343,0,0,0,7.106-8.788,30.376,30.376,0,0,0,3.594-6.3c1.074-2.867.656-6.26,1.595-9.174.4-1.232,1.1-2.344,1.529-3.566a4.16,4.16,0,0,0-.212-3.729,5.42,5.42,0,0,0-2.091-1.531c-3.073-1.56-6.515-3.567-7.1-6.963a7.461,7.461,0,0,1,1.376-5.318,22.156,22.156,0,0,1,3.875-4.062C906.9,361.609,909.158,360.272,910.5,359.084Z" transform="translate(-341.321 -212.345)" fill="#fff7ec"/>
      <path id="Path_740" data-name="Path 740" d="M714.6,374.188a8.582,8.582,0,0,0-3.481-4.147,6.414,6.414,0,0,0-5.06-.021,19.022,19.022,0,0,0-4.44,2.685l-3.981,2.935a9.8,9.8,0,0,0-2.363,2.182,9.211,9.211,0,0,0-1.231,3.377,24.145,24.145,0,0,0-.626,8.354c.632,4.489,3.339,8.409,6.318,11.826,1.862,2.135,4.16,4.29,6.991,4.381a3.207,3.207,0,0,0,3.09-1.555,3.876,3.876,0,0,0,.276-1.385c.306-5.007-1.485-9.9-3.574-14.46a9.271,9.271,0,0,1-1.152-3.886,1.066,1.066,0,0,1,.17-.651,1.1,1.1,0,0,1,.68-.332c2.859-.565,7.784,1.656,9.789-1.519C717.309,379.914,715.527,376.055,714.6,374.188Z" transform="translate(-282.313 -215.63)" fill="#fff7ec"/>
      <path id="Path_741" data-name="Path 741" d="M805.361,259.091a2.584,2.584,0,0,1,.176-1.206c.458-.81,1.654-.589,2.556-.362,3.628.915,7.451.087,11.186.3s7.943,2.081,8.694,5.747a27.277,27.277,0,0,0,6.9-7.086,8.508,8.508,0,0,0,1.8-5.189c-.2-2.684-2.455-4.691-4.54-6.393l-6.215-5.073a9.365,9.365,0,0,0-2.783-1.769,13.868,13.868,0,0,0-4.517-.256c-4.524,0-9.347-2.056-13.371.012a14.433,14.433,0,0,0-4.165,3.788l-5.547,6.566a3.507,3.507,0,0,0-.887,1.5,6.677,6.677,0,0,0,.4,2.4c.262,1.467-.37,3.032.116,4.441.806,2.339,3.646,2.67,5.382,4.01.647.5,1.661,2.193,2.432,2.172C804.363,262.656,805.325,260.171,805.361,259.091Z" transform="translate(-314.23 -173.849)" fill="#1d3c4e"/>
      <path id="Path_742" data-name="Path 742" d="M750.86,337.647A7.219,7.219,0,0,0,749,339.378c-.651.985-.784,2.228-1.343,3.267-1.2,2.224-4,3.016-5.744,4.841a1.808,1.808,0,0,0-.552.947,2.11,2.11,0,0,0,.469,1.363l8.423,13.241c2.8.247,5.495-1.51,8.3-1.277a8.339,8.339,0,0,0,3.124.139,8.959,8.959,0,0,0,2-1.226c1.674-1.058,3.9-1.182,5.307-2.578,1.348-1.34,1.52-3.437,1.5-5.337a21.452,21.452,0,0,0-.5-4.91c-1.24-5.082-5.127-8.983-7.564-13.485-1.186-2.192-1.832-3.475-4.343-1.97S753.236,335.91,750.86,337.647Z" transform="translate(-297.455 -203.731)" fill="#ecb773"/>
      <path id="Path_743" data-name="Path 743" d="M897.914,328.532a19.7,19.7,0,0,1,4.237,3.711c1.283,1.654,2.01,3.679,3.242,5.372a59.948,59.948,0,0,0,4.176,4.422,34.147,34.147,0,0,1,4.814,7.843,117.17,117.17,0,0,1-10.895,12.313,3.514,3.514,0,0,1-1.654,1.087,2.669,2.669,0,0,1-2.339-.953c-.607-.636-1.037-1.421-1.616-2.082a8.33,8.33,0,0,0-5.149-2.49,35.364,35.364,0,0,0-5.834-.08,2.306,2.306,0,0,1-1.246-.209,2.093,2.093,0,0,1-.68-.78c-2.28-3.88-1.547-8.752-.742-13.181l1.846-10.161a22.807,22.807,0,0,1,1.536-5.648c.7-1.494,2.263-4.028,4.185-3.581C893.734,324.566,896.284,327.36,897.914,328.532Z" transform="translate(-342.217 -201.312)" fill="#ecb773"/>
      <ellipse id="Ellipse_108" data-name="Ellipse 108" cx="28.083" cy="28.134" rx="28.083" ry="28.134" transform="translate(189.7 137.675)" fill="#fff"/>
      <path id="Path_744" data-name="Path 744" d="M395.793,338.851a33.563,33.563,0,1,0,33.563,33.563A33.563,33.563,0,0,0,395.793,338.851Zm-6.89,51.457-17.2-17.2,4.825-4.825,12.392,12.392,26.156-26.156,4.825,4.825-31,30.965Z" transform="translate(-178.009 -205.971)" fill="#51a4a9"/>
    </g>
  </g>
</svg>
