<svg xmlns="http://www.w3.org/2000/svg" width="18" height="20" viewBox="0 0 18 20">
  <g id="Date-Icon-QZ" transform="translate(-470 -698)">
    <path id="Calendar" d="M16.452,2.735V3.77C19.461,4.062,21,5.725,21,8.714v8.27C21,20.311,19.1,22,15.374,22H8.626C4.9,22,3,20.311,3,16.985V8.714A4.542,4.542,0,0,1,5.07,4.469.686.686,0,0,1,5.8,4.442.713.713,0,0,1,5.73,5.707,3.142,3.142,0,0,0,4.374,8.714V8.98H17.061a.7.7,0,0,1,0,1.4H4.374v6.607c0,2.538,1.235,3.591,4.252,3.609h6.748c2.974,0,4.243-1.079,4.243-3.618V8.706c0-2.211-.965-3.282-3.165-3.538V5.84a.695.695,0,0,1-1.383-.053V2.673a.7.7,0,0,1,.222-.49.68.68,0,0,1,.5-.182A.712.712,0,0,1,16.452,2.735ZM8.709,6.293a.681.681,0,0,1-.491.2.693.693,0,0,1-.67-.708V2.735a.694.694,0,0,1,1.383,0V3.7h3.93a.7.7,0,0,1,0,1.4H8.913v.7A.7.7,0,0,1,8.709,6.293Z" transform="translate(467 696)" fill="#258c93" fill-rule="evenodd"/>
    <g id="Group_347" data-name="Group 347">
      <g id="Ellipse_197" data-name="Ellipse 197" transform="translate(482 712)" fill="none" stroke="#ecb773" stroke-width="1">
        <circle cx="1" cy="1" r="1" stroke="none"/>
        <circle cx="1" cy="1" r="0.5" fill="none"/>
      </g>
      <g id="Ellipse_198" data-name="Ellipse 198" transform="translate(478 712)" fill="none" stroke="#ecb773" stroke-width="1">
        <circle cx="1" cy="1" r="1" stroke="none"/>
        <circle cx="1" cy="1" r="0.5" fill="none"/>
      </g>
      <g id="Ellipse_199" data-name="Ellipse 199" transform="translate(474 712)" fill="none" stroke="#ecb773" stroke-width="1">
        <circle cx="1" cy="1" r="1" stroke="none"/>
        <circle cx="1" cy="1" r="0.5" fill="none"/>
      </g>
      <g id="Ellipse_200" data-name="Ellipse 200" transform="translate(474 708)" fill="none" stroke="#ecb773" stroke-width="1">
        <circle cx="1" cy="1" r="1" stroke="none"/>
        <circle cx="1" cy="1" r="0.5" fill="none"/>
      </g>
      <g id="Ellipse_201" data-name="Ellipse 201" transform="translate(478 708)" fill="none" stroke="#ecb773" stroke-width="1">
        <circle cx="1" cy="1" r="1" stroke="none"/>
        <circle cx="1" cy="1" r="0.5" fill="none"/>
      </g>
      <g id="Ellipse_202" data-name="Ellipse 202" transform="translate(482 708)" fill="none" stroke="#ecb773" stroke-width="1">
        <circle cx="1" cy="1" r="1" stroke="none"/>
        <circle cx="1" cy="1" r="0.5" fill="none"/>
      </g>
    </g>
  </g>
</svg>
