<svg xmlns="http://www.w3.org/2000/svg" width="20" height="20" viewBox="0 0 20 20">
  <g id="Group_346" data-name="Group 346" transform="translate(-444 -713)">
    <path id="Chat" d="M12.007,2A10,10,0,0,1,12,22a9.924,9.924,0,0,1-2.148-.235.749.749,0,1,1,.325-1.462A8.5,8.5,0,1,0,12.006,3.5H12A8.5,8.5,0,0,0,4.46,15.931l.192.375a1.963,1.963,0,0,1,.135,1.483,17.118,17.118,0,0,0-.53,1.632C4.818,19.252,5.5,19,6,18.822l.2-.073a.748.748,0,0,1,.509,1.408l-.2.073-.034.012h0a23.371,23.371,0,0,1-2.407.779.773.773,0,0,1-.178.019A1.207,1.207,0,0,1,3,20.7a1.311,1.311,0,0,1-.336-1,.765.765,0,0,1,.019-.147,17.514,17.514,0,0,1,.69-2.246.47.47,0,0,0-.049-.309l-.193-.374A10,10,0,0,1,12,2Z" transform="translate(442 711)" fill="#258c93" fill-rule="evenodd"/>
    <circle id="Ellipse_206" data-name="Ellipse 206" cx="1" cy="1" r="1" transform="translate(457 722)" fill="#ecb773"/>
    <circle id="Ellipse_207" data-name="Ellipse 207" cx="1" cy="1" r="1" transform="translate(453 722)" fill="#ecb773"/>
    <circle id="Ellipse_208" data-name="Ellipse 208" cx="1" cy="1" r="1" transform="translate(449 722)" fill="#ecb773"/>
  </g>
</svg>
