<svg xmlns="http://www.w3.org/2000/svg" xmlns:xlink="http://www.w3.org/1999/xlink" width="327.174" height="256" viewBox="0 0 327.174 256">
  <defs>
    <linearGradient id="linear-gradient" y1="0.5" x2="1" y2="0.5" gradientUnits="objectBoundingBox">
      <stop offset="0" stop-color="gray" stop-opacity="0.251"/>
      <stop offset="0.54" stop-color="gray" stop-opacity="0.122"/>
      <stop offset="1" stop-color="gray" stop-opacity="0.102"/>
    </linearGradient>
  </defs>
  <g id="No-Quiz-ERR-Illustration-PAGE" transform="translate(0.004 -0.003)">
    <ellipse id="Ellipse_215" data-name="Ellipse 215" cx="57.071" cy="10.811" rx="57.071" ry="10.811" transform="translate(57.693 229.422)" fill="#258c93" opacity="0.1"/>
    <path id="Path_1117" data-name="Path 1117" d="M285.317,91.135c-20.974-.726-40.951-7.5-60.026-14.908s-37.969-15.614-58.441-19.539c-13.167-2.525-28.227-2.884-38.835,4.168-10.212,6.806-13.511,18.521-15.284,29.4-1.335,8.186-2.119,16.8,1.536,24.468,2.541,5.321,7.046,9.794,10.163,14.892,10.847,17.734,3.179,39.6-8.572,56.918-5.509,8.121-11.91,15.88-16.165,24.517s-6.222,18.567-2.5,27.4c3.688,8.75,12.48,15.31,22.005,19.928,19.344,9.382,42.13,12.066,64.366,13.589,49.205,3.364,98.67,1.909,148,.447,18.259-.538,36.6-1.086,54.556-3.908,9.975-1.569,20.271-4.057,27.514-10.066,9.191-7.626,11.469-20.537,5.308-30.1-10.332-16.042-38.89-20.025-46.12-37.237-3.973-9.476.107-20.028,5.885-28.814,12.393-18.852,33.163-35.39,34.255-56.935.752-14.8-9.233-29.618-24.672-36.621-16.181-7.34-38.624-6.417-50.557,5.733C325.441,86.967,303.838,91.78,285.317,91.135Z" transform="translate(-95.23 -55.03)" fill="#258c93" opacity="0.1"/>
    <path id="Path_1118" data-name="Path 1118" d="M419.287,237.229l-9.927-6.692h0l5.007-7.454-26.218-2.09-9.421,7.285-11.793-6.611-9.836,1.183-.117-2.593a73.174,73.174,0,0,0-.813-8.07c.042-.81.071-1.74.068-2.751,0-4.262-.577-9.91-3.111-13.676l.583-5.244-4.732-5.59a35.76,35.76,0,0,1,2.593-4.362c.162-.233.324-.46.5-.681a11.767,11.767,0,0,0,10.986-11.667,7.466,7.466,0,0,0-.032-.852,3.092,3.092,0,0,0-.036-.344c.6.324,1.206.648,1.812.972.113.162.243.324.386.515h0l.029.036.181.224.058.068c.065.078.133.152.2.23l.045.052c.172.191.353.386.548.577a.586.586,0,0,1,.065.062l.243.227.068.062c.207.185.428.363.648.531l.071.052.279.191.091.058c.107.065.217.133.324.194l.039.023c.126.068.256.133.386.194l.065.026q.165.071.324.136l.1.036c.113.039.224.075.34.107l.071.019c.143.036.285.065.431.088h.016a3.521,3.521,0,0,0,.415.042h.094a3.564,3.564,0,0,0,.373,0h.081a3.841,3.841,0,0,0,.463-.055,5.114,5.114,0,0,0,2.042-.732,1.782,1.782,0,0,0,.415-.386,1.528,1.528,0,0,0-.065-1.779h0c-.253-.6-1.893-1.027-1.893-1.027s-5.185-2.165-5.185-3.889-1.3-10.669-14.678-12.714c0,0-8.7-.489-11.152,4.171l-.052.544c-.719.45-1.316,1.355-2.025,1.62a3.309,3.309,0,0,0-.878.324v-.062h0a.836.836,0,0,0-.2.256,2.593,2.593,0,0,0-.269.972,3.661,3.661,0,0,1-.425,1.176,2.618,2.618,0,0,1-.194.3h0l-.055.088a2.366,2.366,0,0,0,1.1-.178,5.488,5.488,0,0,1-.324,1.3,1.076,1.076,0,0,0,1-.6v-.026l.042-.058a2.738,2.738,0,0,0,.2-.47l-.036.039c.065-.211.123-.425.194-.632a.992.992,0,0,1,.159-.324.784.784,0,0,1,.671-.224l-.133,2.81h.058a3.837,3.837,0,0,1-.285.59c-.46.745-1.3,1.254-1.6,2.071a3.047,3.047,0,0,0-.149,1.225c0,.243.029.489.049.732v-.019a2.733,2.733,0,0,1-.292,1.786c-.24.356-.625.625-.758,1.031a1,1,0,0,0-.049.35,3.931,3.931,0,0,0,.22,1.04.045.045,0,0,0,0-.019,1.581,1.581,0,0,1,.055.765c-.146.648-.933,1.189-.894,1.808a.7.7,0,0,0,.036.24,1.312,1.312,0,0,0,.732.648,2.852,2.852,0,0,0,1.646.363,2.165,2.165,0,0,0,.616-.211c-.227.522-.46,1.037-.7,1.526-.036.078-.075.156-.113.233,0,0-2-1.338-3.14,1.39a6.054,6.054,0,0,0-.7,1.828,4.353,4.353,0,0,1-.24.752,4.838,4.838,0,0,1-2.165,1.944c-2.32,1.063-11.693,12.753-11.858,15.779a17.659,17.659,0,0,1-.6,3.494,20.79,20.79,0,0,0-.557,8.261,15.805,15.805,0,0,0,.574,2.635,59.033,59.033,0,0,1,1.659,8.666l1.076,9.794a27.874,27.874,0,0,0,.175,4.048c-1.1,1.254-5.509,6.482-3.824,7.9,1.3,1.121,3.565.937,4.839.706-1.073,2.654-2.761,7.269-2.985,10.439-.324,4.689.554,10.9,1.944,13.287s6.025,8.5,6.025,8.5-.217,8.394,1.439,11.443,2.324,9.376,2.324,9.376,1.546,5.341.771,7.3,1.436,3.6-.885,4.9-5.289,30.742-5.289,30.742-1.2,19.293,0,20.274a1.211,1.211,0,0,0,.2.12v6.482s-.83,1.361,2.544,1.637c2.311.185,8.86.6,12.746.846l3.011.188s7.13,1.419,10.28,0,8.734-1.387,7.9-5.137a10.662,10.662,0,0,0-.441-1.5c-.911-2.327-2.457-2.593-5.305-3.241-.165-.036-.324-.068-.47-.094-3-.522-3.986.875-5.668-.943-1.462-1.572-6.115-3.332-7.7-3.889.039-.117.087-.23.126-.35a2.373,2.373,0,0,1-1.2-.587l4.294.272,2.557.159s6.06,1.209,8.75,0S365.7,352.6,365,349.419a9.136,9.136,0,0,0-.373-1.277c-.775-1.977-2.09-2.194-4.511-2.742-.139-.029-.269-.058-.4-.081-2.551-.444-3.387.742-4.816-.8-1.225-1.316-5.091-2.79-6.482-3.293,0-.719-.972-1.744-1.585-2.771-.719-1.2.609-5.4.609-5.4l.758-17.413a3.363,3.363,0,0,1,.907-.259s3.429-3.273,2.654-6.76a22.408,22.408,0,0,1-.246-3.186,16.368,16.368,0,0,0,3.121-3.545c.719-1.552,0-9.074,0-9.074V264.059l5.736.58,5.2.535,1.585.162,5.2.525,11.962,1.209,10.779-2.042,4.664-.881,9.59-1.815V238.868Zm-78.949-77.75-.668-.071C339.89,159.417,340.124,159.459,340.338,159.478Z" transform="translate(-245.868 -119.993)" fill="url(#linear-gradient)"/>
    <path id="Path_1119" data-name="Path 1119" d="M506.136,439.291c-3.241,4.638-14.892,2.181-14.892,2.181l-9.029-8.449L481,431.88l2.038-4.33s.648.178,1.76.5C490.635,429.741,508.871,435.393,506.136,439.291Z" transform="translate(-355.982 -306.821)" fill="#efb7b9"/>
    <path id="Path_1120" data-name="Path 1120" d="M484.792,428.046a19.013,19.013,0,0,1-2.576,4.978L481,431.88l2.038-4.33S483.693,427.728,484.792,428.046Z" transform="translate(-355.982 -306.821)" opacity="0.1"/>
    <path id="Path_1121" data-name="Path 1121" d="M380.614,278.136s-8.322,3.691-7.914,12.756a149.447,149.447,0,0,0,1.906,17.423s-1.7,13.641,5.383,17.157,13.641,6.407,13.641,6.407,11.084,1.193,12.461,1.685,5.681-7.039,4.887-8.212-10.967-3.633-12.263-5.59a10.822,10.822,0,0,0-4.294-3.166s-3.095-1.873-3.306-3.565a7.7,7.7,0,0,1,.813-3.695c.207-.742.732-7.908.732-7.908S396.153,275.923,380.614,278.136Z" transform="translate(-282.77 -205.737)" fill="#dce6f2"/>
    <path id="Path_1122" data-name="Path 1122" d="M392.435,370.39s-11.417,1.912-10.312,5.908A24.205,24.205,0,0,1,392.435,370.39Z" transform="translate(-289.098 -268.186)" opacity="0.1"/>
    <path id="Path_1123" data-name="Path 1123" d="M403.507,375.38s-6.277,5.124-5.049,5.386S403.507,375.38,403.507,375.38Z" transform="translate(-300.083 -271.558)" opacity="0.1"/>
    <path id="Path_1124" data-name="Path 1124" d="M421.627,380.89s-1.682,3.445-.648,3.212S421.627,380.89,421.627,380.89Z" transform="translate(-315.186 -275.283)" opacity="0.1"/>
    <path id="Path_1125" data-name="Path 1125" d="M412.873,328.085l-.694-.2a1.981,1.981,0,0,0,.091-1.416c-.794-1.173-10.96-3.63-12.253-5.59a10.764,10.764,0,0,0-4.294-3.166s-3.095-1.873-3.306-3.565a7.7,7.7,0,0,1,.813-3.695c.207-.742.732-7.911.732-7.911s3.484-25.5-12.056-23.288c0,0-8.322,3.695-7.917,12.759a149.031,149.031,0,0,0,1.909,17.423s-1.7,13.641,5.383,17.157S394.922,333,394.922,333s11.08,1.189,12.461,1.685c.522.188,1.465-.781,2.388-2.113l.525.489,9.029,8.446s11.651,2.46,14.892-2.178C436.956,335.429,418.723,329.777,412.873,328.085Z" transform="translate(-283.642 -206.494)" opacity="0.1"/>
    <path id="Path_1126" data-name="Path 1126" d="M378.3,169.553a2.755,2.755,0,0,0-.9.347c-.324.269-.324.729-.405,1.131a3.721,3.721,0,0,1-.648,1.549,2.33,2.33,0,0,0,1.079-.178,5.556,5.556,0,0,1-.324,1.3,1.05,1.05,0,0,0,.972-.593,6.243,6.243,0,0,0,.405-1.138.937.937,0,0,1,.156-.324c.3-.353.852-.194,1.313-.149a2.155,2.155,0,0,0,1.97-.946c.489-.742.519-2.641-.648-2.842C380.054,167.5,379.3,169.183,378.3,169.553Z" transform="translate(-285.247 -131.176)" fill="#965d7b"/>
    <g id="Group_349" data-name="Group 349" transform="translate(91.151 38.639)" opacity="0.1">
      <path id="Path_1127" data-name="Path 1127" d="M378.432,174.733c.029-.159.049-.324.084-.483h0a1.9,1.9,0,0,0-.405,1.131,3.563,3.563,0,0,1-.191.684A3.713,3.713,0,0,0,378.432,174.733Z" transform="translate(-377.46 -174.25)"/>
      <path id="Path_1128" data-name="Path 1128" d="M377.576,181.3a5.39,5.39,0,0,0,.324-1.3,2.32,2.32,0,0,1-1.027.178,3.75,3.75,0,0,1-.373.648,2.307,2.307,0,0,0,1.076-.175,5.387,5.387,0,0,1-.324,1.3,1.053,1.053,0,0,0,.972-.593,2.42,2.42,0,0,0,.194-.463A.972.972,0,0,1,377.576,181.3Z" transform="translate(-376.5 -178.137)"/>
      <path id="Path_1129" data-name="Path 1129" d="M385.369,175.544c-.46-.045-1.018-.2-1.316.149a1,1,0,0,0-.156.324c-.029.084-.055.172-.078.259.308-.243.807-.113,1.225-.071a2.165,2.165,0,0,0,1.97-.946,1.8,1.8,0,0,0,.217-.509,2.158,2.158,0,0,1-1.863.794Z" transform="translate(-381.448 -174.588)"/>
    </g>
    <path id="Path_1130" data-name="Path 1130" d="M313.746,201l4.942,5.944-.645,6-5.973-9.35Z" transform="translate(-210.937 -135.857)" fill="#dce6f2"/>
    <path id="Path_1131" data-name="Path 1131" d="M318.685,206.944l-.606,5.642-.039.356L312.65,204.5l-.58-.911.169-.262,1.5-2.33.334.4Z" transform="translate(-210.937 -135.857)" opacity="0.1"/>
    <path id="Path_1132" data-name="Path 1132" d="M392.932,212.984c-1.672.48-3.27,2.126-4.66,4.126a35.205,35.205,0,0,0-2.515,4.323c-.457.914-.859,1.792-1.193,2.557l-.233.544c-.564,1.332-.878,2.223-.878,2.223s-12.8-9.625-10.776-10.273c.681-.217,1.575-1.675,2.46-3.513l.11-.233c.561-1.18,1.112-2.5,1.6-3.733,1-2.544,1.744-4.754,1.744-4.754S398.036,211.526,392.932,212.984Z" transform="translate(-282.618 -155.888)" fill="#efb7b9"/>
    <path id="Path_1133" data-name="Path 1133" d="M459.26,202.58s2.956,5.347,6.926,4.618,2.337-2.871,2.337-2.871Z" transform="translate(-341.288 -154.76)" fill="#444053"/>
    <path id="Path_1134" data-name="Path 1134" d="M391.937,747.41c-2.619,1.2-8.54,0-8.54,0l-2.5-.156c-3.241-.207-8.666-.557-10.584-.713-2.8-.23-2.113-1.377-2.113-1.377v-6.932l13.585-3.442s5.37,1.838,6.841,3.442c1.4,1.53,2.213.353,4.706.794.123.023.253.049.389.081,2.366.541,3.649.755,4.408,2.716a9.11,9.11,0,0,1,.366,1.264C399.2,746.243,394.552,746.22,391.937,747.41Z" transform="translate(-279.691 -514.491)" fill="#3b989e"/>
    <path id="Path_1135" data-name="Path 1135" d="M398.134,750.657a10.153,10.153,0,0,1-1.53.784c-1.782.813-3.477,1.805-5.279,2.573a12.348,12.348,0,0,1-5.694,1.17,8.49,8.49,0,0,0-3.04-.032,7.019,7.019,0,0,0-1.688.937c-3.241-.207-8.666-.557-10.584-.713-2.8-.23-2.113-1.377-2.113-1.377v-.81c.1,0,.214-.029.344-.039a6.118,6.118,0,0,1,1.977.295c1.407.382,2.807.758,4.213,1.134a3.329,3.329,0,0,1,1.62-2.068,5.166,5.166,0,0,1,2.612-.6c2.181.029,4.245,1.063,6.423,1.167a3.539,3.539,0,0,0,1.779-.3c.3-.149.561-.366.852-.531a6.221,6.221,0,0,1,1.468-.5,32.322,32.322,0,0,0,4.2-1.355c.389-.152.843-.428.791-.843-.068-.551-.933-.616-1.16-1.121a.648.648,0,0,1,.026-.574c.123.023.253.049.389.081C396.092,748.482,397.375,748.7,398.134,750.657Z" transform="translate(-279.691 -523.325)" opacity="0.1"/>
    <path id="Path_1136" data-name="Path 1136" d="M374.636,789.553c-3.079,1.407-10.047,0-10.047,0l-2.933-.172c-3.8-.243-10.2-.648-12.454-.839-3.3-.272-2.486-1.62-2.486-1.62v-8.17L362.7,774.7s6.32,2.162,8.05,4.051c1.643,1.8,2.593.415,5.539.933.146.026.3.058.457.094,2.784.648,4.294.891,5.185,3.2a10.4,10.4,0,0,1,.431,1.488C383.169,788.179,377.715,788.149,374.636,789.553Z" transform="translate(-265.158 -541.467)" fill="#3b989e"/>
    <path id="Path_1137" data-name="Path 1137" d="M381.928,793.406a12.071,12.071,0,0,1-1.8.924c-2.1.956-4.093,2.123-6.213,3.027a14.563,14.563,0,0,1-6.7,1.377,9.781,9.781,0,0,0-3.565-.039,8.263,8.263,0,0,0-1.993,1.115c-3.8-.243-10.2-.648-12.454-.839-3.3-.272-2.486-1.62-2.486-1.62V796.4a4.048,4.048,0,0,1,.405-.045,7.11,7.11,0,0,1,2.327.347l4.955,1.335a3.921,3.921,0,0,1,1.922-2.434,6.047,6.047,0,0,1,3.076-.706c2.567.036,4.994,1.251,7.558,1.374a4.185,4.185,0,0,0,2.087-.347c.353-.178.648-.434,1-.625a7.047,7.047,0,0,1,1.727-.583,38.791,38.791,0,0,0,4.913-1.595c.457-.181.992-.506.93-.992-.081-.648-1.1-.726-1.368-1.322a.781.781,0,0,1,.032-.674c.146.026.3.058.457.094C379.526,790.846,381.037,791.1,381.928,793.406Z" transform="translate(-265.158 -551.896)" opacity="0.1"/>
    <path id="Path_1138" data-name="Path 1138" d="M389.4,647.54l-.865,20.362s-1.3,4.158-.593,5.347,1.889,2.376,1.458,3.079-5.616,8.306-7.292,5.389-3.328-15.556-3.328-15.556l1.546-15.611Z" transform="translate(-286.89 -455.517)" fill="#444053"/>
    <path id="Path_1139" data-name="Path 1139" d="M412.991,491l2.4,3.215v27.962s.7,7.454,0,8.993-4.268,4.618-4.268,4.618l-3-15.394.648-16.285Z" transform="translate(-306.728 -349.708)" fill="#444053"/>
    <path id="Path_1140" data-name="Path 1140" d="M389.4,647.54l-.865,20.362s-1.3,4.158-.593,5.347,1.889,2.376,1.458,3.079-5.616,8.306-7.292,5.389-3.328-15.556-3.328-15.556l1.546-15.611Z" transform="translate(-286.89 -455.517)" opacity="0.1"/>
    <path id="Path_1141" data-name="Path 1141" d="M412.991,491l2.4,3.215v27.962s.7,7.454,0,8.993-4.268,4.618-4.268,4.618l-3-15.394.648-16.285Z" transform="translate(-306.728 -349.708)" opacity="0.1"/>
    <path id="Path_1142" data-name="Path 1142" d="M360.559,437.978V453.1l-2.7,11.774s-.865,28.412-.11,31.867-2.593,6.7-2.593,6.7-1.945.217-1.945,1.727S349.971,511,349.971,511l.107,8.426s1.406,15.773-.755,18.8.755,3.458.755,3.458c-2.7,8.857-15.663,6.806-16.833,5.833s0-20.093,0-20.093,2.9-29.167,5.166-30.464.11-2.917.865-4.861-.755-7.237-.755-7.237-.648-6.268-2.269-9.291-1.407-11.343-1.407-11.343-4.537-6.051-5.885-8.426-2.217-8.533-1.893-13.18c.22-3.14,1.87-7.713,2.917-10.345.5-1.261.865-2.077.865-2.077l.308.081,17.7,4.634Z" transform="translate(-251.891 -308.612)" fill="#444053"/>
    <path id="Path_1143" data-name="Path 1143" d="M402.077,212.937c-1.672.48-3.27,2.126-4.66,4.126h-.363a11.576,11.576,0,0,1-10.046-5.811,11.4,11.4,0,0,1-1.018-2.317c1-2.544,1.744-4.754,1.744-4.754S407.182,211.478,402.077,212.937Z" transform="translate(-291.763 -155.841)" opacity="0.1"/>
    <path id="Path_1144" data-name="Path 1144" d="M407.552,182.018a11.586,11.586,0,1,1-21.675-5.678,11.322,11.322,0,0,1,1.225-1.769,11.725,11.725,0,0,1,2.664-2.34,11.586,11.586,0,0,1,17.769,8.938C407.542,181.454,407.552,181.736,407.552,182.018Z" transform="translate(-290.675 -133.024)" fill="#efb7b9"/>
    <path id="Path_1145" data-name="Path 1145" d="M389.759,250.319l-.039.357-5.389-8.426c-.564,1.332-.878,2.223-.878,2.223s-12.8-9.638-10.776-10.286c.681-.217,1.575-1.676,2.46-3.513l.11-.233c.94,2.8,6.4,8.4,8.672,10.64.263.259.48.473.648.629l.347.324.182.181C385.922,243.066,389.409,246.826,389.759,250.319Z" transform="translate(-282.618 -173.591)" opacity="0.1"/>
    <path id="Path_1146" data-name="Path 1146" d="M358.658,278.713l-.59,18.981-.1,3.38s-6.987-.648-13.508-1.361c-5.25-.574-10.2-1.193-10.96-1.556a20.63,20.63,0,0,0-4.7-1.034c-1.27-.172-2.269-.263-2.269-.263s-.373.11-.946.214c-1.251.227-3.448.412-4.728-.7-1.637-1.423,2.664-6.592,3.737-7.833l.237-.269-.405-3.743-1.053-9.706a59.218,59.218,0,0,0-1.62-8.588,15.843,15.843,0,0,1-.561-2.609,20.9,20.9,0,0,1,.544-8.186,17.85,17.85,0,0,0,.583-3.464c.162-3,9.317-14.584,11.586-15.637a4.809,4.809,0,0,0,2.32-2.314,4.42,4.42,0,0,0,.353-1.008c.972-4.213,3.432-2.541,3.432-2.541.593,3.3,9.774,12.02,9.774,12.02l.181.181c.911.933,4.968,5.315,4.68,9.055a10.976,10.976,0,0,0,.612,4.1,69.272,69.272,0,0,1,3.192,18.149Z" transform="translate(-247.488 -173.394)" fill="#dce6f2"/>
    <path id="Path_1147" data-name="Path 1147" d="M389.254,310.45s-2.269,5.509-3.97,6.4S390.064,318.73,389.254,310.45Z" transform="translate(-291.092 -227.671)" opacity="0.1"/>
    <path id="Path_1148" data-name="Path 1148" d="M392.565,342.2s-5.185.648-5.185,1.62S392.565,342.2,392.565,342.2Z" transform="translate(-292.703 -249.131)" opacity="0.1"/>
    <path id="Path_1149" data-name="Path 1149" d="M399.494,361.7s-7.535,16.042-9.641,16.528S399.494,361.7,399.494,361.7Z" transform="translate(-294.203 -262.312)" opacity="0.1"/>
    <path id="Path_1150" data-name="Path 1150" d="M381.754,244.629l-6.232,2.709L368,235.976a4.42,4.42,0,0,0,.353-1.008c.972-4.213,3.432-2.541,3.432-2.541.593,3.3,9.774,12.02,9.774,12.02Z" transform="translate(-279.603 -174.712)" opacity="0.1"/>
    <path id="Path_1151" data-name="Path 1151" d="M382.754,242.629l-6.232,2.709L369,233.976a4.421,4.421,0,0,0,.353-1.008c.972-4.213,3.432-2.541,3.432-2.541.593,3.3,9.774,12.02,9.774,12.02Z" transform="translate(-280.279 -173.361)" fill="#dce6f2"/>
    <path id="Path_1152" data-name="Path 1152" d="M364.988,342.767s-6.987-.648-13.508-1.361l11.7,3.063v3.565c-.512.463-.956.7-1.244.58-1.348-.567-12.351-2.35-12.351-2.35s-6.391-3.241-13.287-7.13a5.331,5.331,0,0,1-.486-.3,7.661,7.661,0,0,1-2.042-2.045,14.513,14.513,0,0,1-2.165-6.537,28.269,28.269,0,0,1-.169-4.012,32.9,32.9,0,0,1,.415-4.534,149.093,149.093,0,0,1-.972-17.5c.081-9.074,8.588-12.315,8.588-12.315,15.637-1.377,10.789,23.9,10.789,23.9s-.9,7.13-1.15,7.859a7.694,7.694,0,0,0-1.011,3.646c.12,1.7,3.108,3.737,3.108,3.737a10.912,10.912,0,0,1,4.119,3.393c.875,1.494,6.559,3.52,9.771,4.965Z" transform="translate(-254.511 -215.087)" opacity="0.1"/>
    <path id="Path_1153" data-name="Path 1153" d="M406.34,171.678a3.668,3.668,0,0,1-.324,1.549,9.577,9.577,0,0,1-.577,1.154,5.315,5.315,0,0,1-1.419,1.763,7.261,7.261,0,0,1-2.593.9,3.752,3.752,0,0,0-2.343,1.329,4.647,4.647,0,0,0-.548,1.588,3.416,3.416,0,0,1-.648,1.536,1.274,1.274,0,0,1-1.517.363,1.533,1.533,0,0,1-.587-.755,10.831,10.831,0,0,1-.613-2.654,5.646,5.646,0,0,0-.911-2.544,2.278,2.278,0,0,0-2.392-.917,2.3,2.3,0,0,0-1.3,1.257,7.21,7.21,0,0,0-.489,1.789q-.6,3.3-1.423,6.559a.6.6,0,0,1-.107.246.467.467,0,0,1-.324.136c-.726.1-1.423-.412-2.155-.356a1.238,1.238,0,0,0-.224.036,11.579,11.579,0,0,1,1.17-13.223l.058-.016a3.494,3.494,0,0,0,1.3-.817,13.681,13.681,0,0,0,1.3-1.5l.259-.324a14.78,14.78,0,0,1,2.528-2.4,2.593,2.593,0,0,1,.862-.467,2.554,2.554,0,0,1,.817-.026,20.6,20.6,0,0,0,3.374.126,21.645,21.645,0,0,1,2.369-.24c2.051.058,3.8,1.507,5.1,3.095A4.794,4.794,0,0,1,406.34,171.678Z" transform="translate(-290.627 -129.879)" opacity="0.1"/>
    <path id="Path_1154" data-name="Path 1154" d="M377.356,172.847c-.45.739-1.264,1.241-1.569,2.051-.447,1.176.308,2.641-.386,3.691-.23.353-.609.616-.739,1.021-.22.684.382,1.413.227,2.116s-1.082,1.3-.836,1.983a1.3,1.3,0,0,0,.713.648,2.787,2.787,0,0,0,1.62.36c.885-.146,1.543-1.014,2.44-1.079.729-.052,1.426.454,2.152.36a.486.486,0,0,0,.324-.139.561.561,0,0,0,.107-.246q.817-3.257,1.426-6.559a7.067,7.067,0,0,1,.486-1.789,2.324,2.324,0,0,1,1.3-1.257,2.286,2.286,0,0,1,2.392.917,5.613,5.613,0,0,1,.914,2.544,10.974,10.974,0,0,0,.609,2.654,1.549,1.549,0,0,0,.59.758,1.269,1.269,0,0,0,1.513-.363,3.38,3.38,0,0,0,.648-1.539,4.628,4.628,0,0,1,.548-1.585,3.76,3.76,0,0,1,2.343-1.329,7.333,7.333,0,0,0,2.593-.9,5.334,5.334,0,0,0,1.419-1.76,5.181,5.181,0,0,0,.888-2.706,4.968,4.968,0,0,0-1.329-2.8c-1.3-1.588-3.05-3.037-5.1-3.092a20.157,20.157,0,0,0-2.369.24,20.278,20.278,0,0,1-3.374-.13,2.651,2.651,0,0,0-.817.029,2.443,2.443,0,0,0-.859.467,14.787,14.787,0,0,0-2.531,2.4,18.579,18.579,0,0,1-1.562,1.815,3.516,3.516,0,0,1-1.3.82c-.324.091-.648.026-.956.126C377.926,170.867,377.8,172.115,377.356,172.847Z" transform="translate(-283.667 -129.223)" fill="#965d7b"/>
    <path id="Path_1155" data-name="Path 1155" d="M466.186,207.195c-2.593.476-4.741-1.62-5.931-3.15a12.712,12.712,0,0,1-.995-1.465l8.9,1.679.36.068S470.156,206.469,466.186,207.195Z" transform="translate(-341.288 -154.76)" opacity="0.1"/>
    <g id="Group_350" data-name="Group 350" transform="translate(90.329 41.151)" opacity="0.1">
      <path id="Path_1156" data-name="Path 1156" d="M376.144,211.574a2.7,2.7,0,0,0-.188-1.244c0,.032-.029.065-.039.1a2.412,2.412,0,0,0,.169,1.335A.971.971,0,0,0,376.144,211.574Z" transform="translate(-375.251 -201.149)"/>
      <path id="Path_1157" data-name="Path 1157" d="M379.059,197.8a7.2,7.2,0,0,0,.026,1.345,7.22,7.22,0,0,0-.026-1.345Z" transform="translate(-377.394 -192.68)"/>
      <path id="Path_1158" data-name="Path 1158" d="M398.136,184.09a5.315,5.315,0,0,1-1.419,1.763,7.24,7.24,0,0,1-2.593.9,3.743,3.743,0,0,0-2.343,1.329,4.67,4.67,0,0,0-.548,1.588,3.393,3.393,0,0,1-.648,1.539,1.265,1.265,0,0,1-1.513.363,1.549,1.549,0,0,1-.59-.758,10.789,10.789,0,0,1-.609-2.654,5.6,5.6,0,0,0-.914-2.544,2.278,2.278,0,0,0-2.392-.917,2.314,2.314,0,0,0-1.3,1.257,7.063,7.063,0,0,0-.486,1.789q-.606,3.3-1.426,6.559a.561.561,0,0,1-.107.246.486.486,0,0,1-.324.139c-.726.094-1.423-.412-2.152-.36-.9.065-1.556.933-2.44,1.076a2.739,2.739,0,0,1-1.62-.36,1.734,1.734,0,0,1-.593-.421.875.875,0,0,0-.12.755,1.264,1.264,0,0,0,.713.648,2.739,2.739,0,0,0,1.62.36c.885-.143,1.543-1.011,2.44-1.076.729-.052,1.426.454,2.152.36a.486.486,0,0,0,.324-.139.561.561,0,0,0,.107-.246q.817-3.241,1.426-6.559a7.067,7.067,0,0,1,.486-1.789,2.314,2.314,0,0,1,1.3-1.257,2.28,2.28,0,0,1,2.392.917,5.613,5.613,0,0,1,.914,2.544,10.974,10.974,0,0,0,.609,2.654,1.549,1.549,0,0,0,.59.758,1.269,1.269,0,0,0,1.513-.363,3.393,3.393,0,0,0,.648-1.539,4.67,4.67,0,0,1,.548-1.588,3.775,3.775,0,0,1,2.343-1.329,7.392,7.392,0,0,0,2.593-.9,5.315,5.315,0,0,0,1.419-1.763,5.16,5.16,0,0,0,.888-2.7,3.472,3.472,0,0,0-.039-.369,6.369,6.369,0,0,1-.849,2.09Z" transform="translate(-373.964 -182)"/>
    </g>
    <path id="Path_1159" data-name="Path 1159" d="M409.18,176.368a11.45,11.45,0,0,1,1.442,4.813c-2.888-1.62-5.6-3.4-6.974-4.019-2.388-1.079-11.32-.917-14.678-.817a11.322,11.322,0,0,1,1.225-1.769,11.726,11.726,0,0,1,2.674-2.34,11.592,11.592,0,0,1,16.327,4.126Z" transform="translate(-293.777 -133.03)" opacity="0.1"/>
    <path id="Path_1160" data-name="Path 1160" d="M467,205.821c-1.559.48-4.1-.447-6.741-1.776a12.712,12.712,0,0,1-.995-1.465l8.9,1.679C468.749,204.661,468.9,205.234,467,205.821Z" transform="translate(-341.288 -154.76)" opacity="0.1"/>
    <path id="Path_1161" data-name="Path 1161" d="M397.1,154.049s-8.507-.486-10.9,4.132l-.386,4.093-.648-.071-.13,2.784s13-.567,15.961.768,12.153,8.063,15.838,6.929-.324-2.188-.324-2.188-5.072-2.149-5.072-3.834S410.185,156.075,397.1,154.049Z" transform="translate(-291.121 -121.947)" fill="#444053"/>
    <path id="Path_1162" data-name="Path 1162" d="M371.63,622.28s5.428,5.266,7.778,4.861C379.408,627.141,372.764,626.574,371.63,622.28Z" transform="translate(-282.057 -438.443)" opacity="0.1"/>
    <path id="Path_1163" data-name="Path 1163" d="M368.13,629.81s.486,2.709,1.782,2.444S368.13,629.81,368.13,629.81Z" transform="translate(-279.691 -443.533)" opacity="0.1"/>
    <path id="Path_1164" data-name="Path 1164" d="M380.709,769.53s-7.707,6-6.407,6.158S380.709,769.53,380.709,769.53Z" transform="translate(-283.763 -537.972)" opacity="0.1"/>
    <path id="Path_1165" data-name="Path 1165" d="M330.96,338.861l24.954-4.061v23.625l-23.71-1.241Z" transform="translate(-223.705 -226.295)" fill="#258c93"/>
    <path id="Path_1166" data-name="Path 1166" d="M330.96,338.861l24.954-4.061v23.625l-23.71-1.241Z" transform="translate(-223.705 -226.295)" opacity="0.05"/>
    <path id="Path_1167" data-name="Path 1167" d="M407.96,334.8l29.926,2.239L436.23,357.6l-28.27.826Z" transform="translate(-275.751 -226.295)" fill="#258c93"/>
    <path id="Path_1168" data-name="Path 1168" d="M407.96,334.8l29.926,2.239L436.23,357.6l-28.27.826Z" transform="translate(-275.751 -226.295)" opacity="0.1"/>
    <path id="Path_1169" data-name="Path 1169" d="M417.161,312.55l-9.2,7.211L437.886,322l4.89-7.379Z" transform="translate(-275.751 -211.256)" fill="#258c93"/>
    <path id="Path_1170" data-name="Path 1170" d="M303.08,317.325l22.465-2.735,11.524,6.55L312.115,325.2Z" transform="translate(-204.86 -212.635)" fill="#258c93"/>
    <path id="Path_1171" data-name="Path 1171" d="M361.385,349.4v32.3l-11.69-1.2-5.085-.518-1.549-.162-5.082-.522-7.02-.719V347.33l24.951,1.7Z" transform="translate(-223.705 -234.765)" fill="#258c93"/>
    <path id="Path_1172" data-name="Path 1172" d="M449.3,341.71v31.5l-9.369,1.8-4.557.875-10.529,2.022v-32.3Z" transform="translate(-287.16 -230.966)" fill="#258c93"/>
    <path id="Path_1173" data-name="Path 1173" d="M449.3,341.71v31.5l-9.369,1.8-4.557.875-10.529,2.022v-32.3Z" transform="translate(-287.16 -230.966)" opacity="0.05"/>
    <path id="Path_1174" data-name="Path 1174" d="M303.08,354.129l9.035-6.8L342.54,349.4l-4.479,7.545Z" transform="translate(-204.86 -234.765)" fill="#258c93"/>
    <path id="Path_1175" data-name="Path 1175" d="M303.08,354.129l9.035-6.8L342.54,349.4l-4.479,7.545Z" transform="translate(-204.86 -234.765)" fill="#fff" opacity="0.1"/>
    <path id="Path_1176" data-name="Path 1176" d="M449.3,341.71l-24.455,3.9,7.959,7.13,26.2-4.395Z" transform="translate(-287.16 -230.966)" fill="#258c93"/>
    <path id="Path_1177" data-name="Path 1177" d="M449.3,341.71l-24.455,3.9,7.959,7.13,26.2-4.395Z" transform="translate(-287.16 -230.966)" fill="#fff" opacity="0.1"/>
    <path id="Path_1178" data-name="Path 1178" d="M461.887,430l-4.557.875v-6.731l4.268-1.076Z" transform="translate(-309.121 -285.959)" fill="#fff" opacity="0.1"/>
    <path id="Path_1179" data-name="Path 1179" d="M378.165,435.96v4.453l-5.085-.518V435.96Z" transform="translate(-252.175 -294.671)" fill="#fff" opacity="0.1"/>
    <path id="Path_1180" data-name="Path 1180" d="M357.7,440.29v2.369l-5.082-.522V440.29Z" transform="translate(-238.345 -297.598)" fill="#fff" opacity="0.1"/>
    <path id="Path_1181" data-name="Path 1181" d="M459.118,456.663c-3.484,4.456-14.989,1.377-14.989,1.377l-8.549-8.919-1.16-1.209,2.269-4.213s.648.214,1.731.59C444.149,446.293,462.051,452.914,459.118,456.663Z" transform="translate(-324.498 -317.737)" opacity="0.1"/>
    <path id="Path_1182" data-name="Path 1182" d="M458.118,454.663c-3.484,4.456-14.989,1.377-14.989,1.377l-8.549-8.919-1.16-1.209,2.269-4.213s.648.214,1.731.59C443.149,444.293,461.051,450.914,458.118,454.663Z" transform="translate(-323.822 -316.385)" fill="#efb7b9"/>
    <path id="Path_1183" data-name="Path 1183" d="M437.379,442.29a19.159,19.159,0,0,1-2.839,4.832l-1.16-1.209,2.269-4.213S436.3,441.914,437.379,442.29Z" transform="translate(-323.795 -316.385)" opacity="0.1"/>
    <path id="Path_1184" data-name="Path 1184" d="M340.466,287.884s-8.507,3.241-8.588,12.315a149.107,149.107,0,0,0,.972,17.5s-2.431,13.53,4.456,17.419,13.287,7.13,13.287,7.13,11,1.782,12.354,2.35,6.047-6.725,5.318-7.94-10.746-4.213-11.936-6.239a10.792,10.792,0,0,0-4.119-3.39s-2.988-2.038-3.108-3.74a7.656,7.656,0,0,1,1.011-3.646c.25-.729,1.154-7.859,1.154-7.859S356.1,286.491,340.466,287.884Z" transform="translate(-255.187 -212.381)" fill="#dce6f2"/>
    <path id="Path_1185" data-name="Path 1185" d="M348.141,380.7s-11.5,1.3-10.614,5.347A24.2,24.2,0,0,1,348.141,380.7Z" transform="translate(-258.973 -275.154)" opacity="0.1"/>
    <path id="Path_1186" data-name="Path 1186" d="M358.955,385.7s-6.53,4.78-5.331,5.1S358.955,385.7,358.955,385.7Z" transform="translate(-269.786 -278.534)" opacity="0.1"/>
    <path id="Path_1187" data-name="Path 1187" d="M377.017,391.7s-1.863,3.351-.81,3.176S377.017,391.7,377.017,391.7Z" transform="translate(-284.933 -282.589)" opacity="0.1"/>
    <path id="Path_1188" data-name="Path 1188" d="M726.072,167.387s-12.315-.742-10.876,7.9a2.108,2.108,0,0,0,1.1,2.22s.023-.648,1.264-.425a5.675,5.675,0,0,0,1.338.065,2.778,2.778,0,0,0,1.64-.677h0s3.464-1.429,4.813-7.094c0,0,1-1.238.972-1.556l-2.081.891a3.728,3.728,0,0,1,.149,2.748s-.065-2.693-.467-2.632c-.081,0-1.079.522-1.079.522s1.222,2.612.3,4.514c0,0,.35-3.221-.681-4.326l-1.465.856s1.429,2.7.46,4.9c0,0,.25-3.38-.768-4.7l-1.329,1.034s1.345,2.664.525,4.492c0,0-.107-3.934-.813-4.232a8.015,8.015,0,0,0-1.335,1.445s.917,1.944.347,2.952c0,0-.35-2.622-.648-2.635a8.723,8.723,0,0,0-1.277,2.917,6.307,6.307,0,0,1,.995-3.092,3.471,3.471,0,0,0-1.769.917s.178-1.228,2.055-1.335a8.863,8.863,0,0,1,1.212-1.4,7.6,7.6,0,0,0-3,.347s.995-1.157,3.341-.648l1.3-1.069a11.182,11.182,0,0,0-3.5.036s1.2-1.024,3.853-.279l1.426-.852a12.8,12.8,0,0,0-3.341-.288,5.126,5.126,0,0,1,3.759.058l1.021-.457s-1.536-.3-1.983-.35-.473-.172-.473-.172a5.3,5.3,0,0,1,2.881.324A12.716,12.716,0,0,0,726.072,167.387Z" transform="translate(-514.201 -130.961)" fill="#258c93"/>
    <path id="Path_1189" data-name="Path 1189" d="M841.532,300.727s-12.315-.742-10.876,7.9a2.108,2.108,0,0,0,1.1,2.22s.023-.648,1.267-.425a5.673,5.673,0,0,0,1.338.065,2.774,2.774,0,0,0,1.62-.674h0s3.468-1.432,4.816-7.1c0,0,.995-1.235.956-1.552l-2.081.888a3.739,3.739,0,0,1,.152,2.748s-.068-2.693-.467-2.632c-.081,0-1.082.522-1.082.522s1.225,2.615.3,4.514c0,0,.35-3.221-.684-4.326l-1.449.846s1.429,2.7.46,4.9c0,0,.25-3.38-.768-4.7l-1.326,1.037s1.342,2.661.525,4.488c0,0-.107-3.934-.813-4.232a8.127,8.127,0,0,0-1.339,1.445s.92,1.944.35,2.952c0,0-.35-2.622-.648-2.635a8.724,8.724,0,0,0-1.277,2.917,6.326,6.326,0,0,1,1-3.092,3.487,3.487,0,0,0-1.773.917s.182-1.228,2.058-1.335a8.092,8.092,0,0,1,1.212-1.4,7.6,7.6,0,0,0-3,.347s.995-1.157,3.338-.632l1.3-1.069a11.185,11.185,0,0,0-3.5.036s1.2-1.024,3.853-.279l1.426-.852a12.987,12.987,0,0,0-3.344-.288,5.137,5.137,0,0,1,3.763.058l1.021-.457s-1.536-.3-1.987-.35-.473-.172-.473-.172a5.312,5.312,0,0,1,2.884.324A13.075,13.075,0,0,0,841.532,300.727Z" transform="translate(-592.242 -221.088)" fill="#258c93" opacity="0.1"/>
    <path id="Path_1190" data-name="Path 1190" d="M616.079,251.685s2.836-12.02-5.927-12.062a2.105,2.105,0,0,0-2.372.7s.625.133.2,1.319a5.769,5.769,0,0,0-.292,1.3,2.784,2.784,0,0,0,.386,1.727h0s.82,3.662,6.158,5.957c0,0,1.05,1.193,1.368,1.206l-.518-2.2a3.724,3.724,0,0,1-2.735-.324s2.667.392,2.67,0c0-.081-.324-1.154-.324-1.154s-2.784.758-4.5-.476c0,0,3.114.894,4.382.068l-.583-1.594s-2.917.95-4.913-.382c0,0,3.289.823,4.761.045l-.794-1.484s-2.852.869-4.514-.25c0,0,3.889.564,4.31-.078a8.051,8.051,0,0,0-1.2-1.565s-2.061.577-2.969-.159c0,0,2.641.1,2.7-.178a8.737,8.737,0,0,0-2.667-1.76,6.352,6.352,0,0,1,2.881,1.51,3.5,3.5,0,0,0-.6-1.9s1.18.389.972,2.269a8.073,8.073,0,0,1,1.17,1.432,7.621,7.621,0,0,0,.169-3.014s.972,1.18.055,3.4l.83,1.475a10.756,10.756,0,0,0,.561-3.455s.807,1.355-.382,3.844l.6,1.552a12.978,12.978,0,0,0,.852-3.241,5.123,5.123,0,0,1-.7,3.7l.279,1.082s.557-1.462.681-1.9.25-.438.25-.438a5.309,5.309,0,0,1-.807,2.787A12.881,12.881,0,0,0,616.079,251.685Z" transform="translate(-441.603 -179.717)" fill="#258c93" opacity="0.1"/>
    <path id="Path_1191" data-name="Path 1191" d="M521.168,283.237s-9.891-7.4-13.427.616a2.109,2.109,0,0,0-.3,2.457s.369-.522,1.3.344a5.675,5.675,0,0,0,1.082.791,2.781,2.781,0,0,0,1.74.324h0s3.682.71,7.921-3.28c0,0,1.513-.486,1.656-.771l-2.233-.392a3.744,3.744,0,0,1-1.384,2.379s1.423-2.288,1.053-2.453c-.075-.036-1.189-.162-1.189-.162s-.415,2.858-2.23,3.938c0,0,2.064-2.5,1.808-3.989l-1.695-.091s-.288,3.043-2.311,4.352c0,0,2.064-2.687,1.944-4.346l-1.679.136s-.34,2.959-2.029,4.035c0,0,2.071-3.345,1.646-3.98a8.146,8.146,0,0,0-1.912.47s-.295,2.12-1.332,2.657c0,0,1.15-2.382.917-2.547a8.712,8.712,0,0,0-2.677,1.74,6.329,6.329,0,0,1,2.534-2.035,3.491,3.491,0,0,0-1.983-.207s.823-.927,2.45.016a8.181,8.181,0,0,1,1.782-.5,7.584,7.584,0,0,0-2.7-1.358s1.471-.421,3.14,1.3l1.682-.172a11.1,11.1,0,0,0-2.943-1.893s1.565-.2,3.37,1.883l1.659.075a12.937,12.937,0,0,0-2.632-2.081A5.124,5.124,0,0,1,517.3,282.6l1.105.178s-1.118-1.1-1.468-1.381-.3-.405-.3-.405a5.324,5.324,0,0,1,2.233,1.854A13.1,13.1,0,0,0,521.168,283.237Z" transform="translate(-373.662 -207.173)" fill="#258c93" opacity="0.1"/>
    <path id="Path_1192" data-name="Path 1192" d="M622.778,71.124s-9.891-7.4-13.427.616a2.109,2.109,0,0,0-.3,2.457s.37-.522,1.3.344a5.766,5.766,0,0,0,1.086.788,2.777,2.777,0,0,0,1.74.324h0s3.682.71,7.921-3.283c0,0,1.513-.483,1.653-.771l-2.233-.386a3.728,3.728,0,0,1-1.384,2.379s1.426-2.288,1.057-2.453c-.075-.036-1.189-.162-1.189-.162s-.428,2.865-2.243,3.938c0,0,2.061-2.5,1.808-3.989l-1.695-.091s-.292,3.043-2.311,4.349c0,0,2.064-2.687,1.945-4.346l-1.676.136s-.344,2.962-2.032,4.038c0,0,2.074-3.345,1.65-3.98a8.147,8.147,0,0,0-1.912.47s-.295,2.119-1.332,2.657c0,0,1.151-2.382.917-2.551a8.744,8.744,0,0,0-2.677,1.744,6.3,6.3,0,0,1,2.534-2.035,3.467,3.467,0,0,0-1.987-.207s.826-.927,2.453.016a8,8,0,0,1,1.782-.5,7.626,7.626,0,0,0-2.7-1.361s1.468-.418,3.137,1.3l1.682-.172a11.111,11.111,0,0,0-2.943-1.9s1.565-.194,3.374,1.886l1.659.071a12.8,12.8,0,0,0-2.635-2.077,5.126,5.126,0,0,1,3.111,2.116l1.1.178s-1.121-1.082-1.471-1.361-.3-.4-.3-.4a5.315,5.315,0,0,1,2.233,1.854A13.991,13.991,0,0,0,622.778,71.124Z" transform="translate(-442.342 -63.801)" fill="#258c93" opacity="0.1"/>
    <path id="Path_1193" data-name="Path 1193" d="M741.394,89.5s-3.954-11.7-11.411-7.1a2.13,2.13,0,0,0-1.643,1.851s.6-.22.865,1.011a5.837,5.837,0,0,0,.444,1.267,2.807,2.807,0,0,0,1.245,1.261h0s2.632,2.674,8.387,1.789c0,0,1.52.46,1.8.3l-1.62-1.591a3.728,3.728,0,0,1-2.489,1.173s2.473-1.076,2.269-1.423c-.042-.068-.888-.8-.888-.8s-1.964,2.116-4.07,1.977c0,0,3.114-.888,3.75-2.269l-1.342-1.034s-1.964,2.34-4.372,2.269c0,0,3.241-1.04,4.061-2.479l-1.458-.839s-1.944,2.246-3.96,2.175c0,0,3.6-1.578,3.614-2.343a8.1,8.1,0,0,0-1.841-.7s-1.445,1.578-2.593,1.436c0,0,2.294-1.313,2.2-1.582a8.7,8.7,0,0,0-3.192-.081,6.316,6.316,0,0,1,3.241-.243,3.5,3.5,0,0,0-1.52-1.3s1.206-.295,2.013,1.4a8.16,8.16,0,0,1,1.75.6,7.616,7.616,0,0,0-1.449-2.648s1.449.489,1.844,2.858l1.484.81A10.937,10.937,0,0,0,735.155,82s1.4.726,1.708,3.464l1.329,1a12.885,12.885,0,0,0-.992-3.208,5.131,5.131,0,0,1,1.361,3.51l.807.771s-.3-1.536-.421-1.97-.023-.463-.023-.463a5.344,5.344,0,0,1,.788,2.794A12.913,12.913,0,0,0,741.394,89.5Z" transform="translate(-523.164 -72.802)" fill="#258c93" opacity="0.1"/>
    <path id="Path_1194" data-name="Path 1194" d="M665.374,108.167s-12.283-1.368-11.268,7.347a2.1,2.1,0,0,0,.972,2.269s.055-.648,1.3-.356a5.963,5.963,0,0,0,1.335.133,2.787,2.787,0,0,0,1.669-.593h0s3.536-1.254,5.185-6.845c0,0,1.057-1.183,1.034-1.5l-2.123.784a3.614,3.614,0,0,1,0,2.751s.068-2.693-.324-2.651c-.081,0-1.105.467-1.105.467s1.089,2.674.071,4.537c0,0,.512-3.2-.463-4.356l-1.507.778s1.3,2.771.211,4.923c0,0,.421-3.364-.528-4.728l-1.377.972s1.206,2.726.295,4.511c0,0,.094-3.934-.6-4.268a8.429,8.429,0,0,0-1.41,1.374s.82,1.977.2,2.965c0,0-.217-2.635-.5-2.661a8.715,8.715,0,0,0-1.426,2.858,6.31,6.31,0,0,1,1.154-3.04,3.487,3.487,0,0,0-1.815.826s.24-1.215,2.119-1.228c0,0,1.021-1.267,1.3-1.335a7.619,7.619,0,0,0-3.014.194s1.053-1.108,3.367-.463l1.364-1a10.51,10.51,0,0,0-3.51-.175s1.251-.972,3.863-.081l1.468-.781a12.9,12.9,0,0,0-3.325-.457,5.09,5.09,0,0,1,3.753.25l1.044-.405s-1.52-.379-1.967-.45-.463-.194-.463-.194a5.331,5.331,0,0,1,2.865.467A13.257,13.257,0,0,0,665.374,108.167Z" transform="translate(-472.947 -90.891)" fill="#258c93" opacity="0.1"/>
    <path id="Path_1195" data-name="Path 1195" d="M996.988,402.337s-12.276-1.368-11.262,7.337a2.1,2.1,0,0,0,.972,2.269s.055-.648,1.3-.36a5.605,5.605,0,0,0,1.335.133,2.764,2.764,0,0,0,1.669-.593h0s3.536-1.254,5.169-6.841c0,0,1.057-1.186,1.034-1.5l-2.123.781a3.624,3.624,0,0,1,0,2.755s.068-2.7-.324-2.651c-.081,0-1.105.463-1.105.463s1.089,2.674.071,4.537c0,0,.512-3.2-.463-4.356l-1.507.781s1.3,2.771.214,4.923c0,0,.418-3.364-.531-4.732l-1.377.972s1.206,2.726.295,4.508c0,0,.094-3.934-.6-4.265a8.557,8.557,0,0,0-1.41,1.374s.823,1.977.2,2.965c0,0-.217-2.635-.5-2.661a8.716,8.716,0,0,0-1.426,2.858,6.31,6.31,0,0,1,1.154-3.04,3.458,3.458,0,0,0-1.815.826s.24-1.219,2.12-1.232c0,0,1.024-1.267,1.3-1.332a7.593,7.593,0,0,0-3.014.191s1.053-1.105,3.37-.46l1.361-1a10.83,10.83,0,0,0-3.5-.143s1.251-.972,3.863-.084l1.468-.778a12.9,12.9,0,0,0-3.325-.457,5.09,5.09,0,0,1,3.753.25l1.044-.408s-1.52-.379-1.967-.447-.463-.194-.463-.194a5.312,5.312,0,0,1,2.865.463A12.7,12.7,0,0,0,996.988,402.337Z" transform="translate(-697.096 -289.726)" fill="#258c93" opacity="0.1"/>
    <path id="Path_1196" data-name="Path 1196" d="M1054.9,437.718s-12.276-1.364-11.262,7.337a2.109,2.109,0,0,0,.972,2.269s.055-.648,1.3-.356a5.72,5.72,0,0,0,1.332.13,2.8,2.8,0,0,0,1.663-.59h0s3.532-1.254,5.166-6.845c0,0,1.06-1.183,1.034-1.5l-2.123.781a3.623,3.623,0,0,1,0,2.755s.068-2.693-.324-2.651c-.081,0-1.105.463-1.105.463s1.089,2.674.071,4.537c0,0,.512-3.2-.463-4.352l-1.507.778s1.3,2.771.214,4.923c0,0,.418-3.364-.531-4.728l-1.377.972s1.206,2.725.3,4.511c0,0,.091-3.938-.6-4.268a8.557,8.557,0,0,0-1.41,1.374s.823,1.977.2,2.965c0,0-.217-2.635-.5-2.661a8.664,8.664,0,0,0-1.423,2.858,6.326,6.326,0,0,1,1.151-3.04,3.487,3.487,0,0,0-1.815.826s.243-1.219,2.123-1.228c0,0,1.021-1.267,1.3-1.335a7.62,7.62,0,0,0-3.014.194s1.053-1.108,3.37-.463l1.361-1a10.831,10.831,0,0,0-3.5-.143s1.251-.972,3.863-.081l1.468-.781a12.9,12.9,0,0,0-3.325-.457,5.09,5.09,0,0,1,3.753.25l1.044-.405s-1.52-.379-1.964-.451-.467-.194-.467-.194a5.331,5.331,0,0,1,2.865.467A12.821,12.821,0,0,0,1054.9,437.718Z" transform="translate(-736.238 -313.641)" fill="#258c93" opacity="0.1"/>
    <path id="Path_1197" data-name="Path 1197" d="M920.718,133.377s-9.891-7.4-13.427.616a2.109,2.109,0,0,0-.3,2.457s.369-.522,1.3.344a5.674,5.674,0,0,0,1.082.791,2.784,2.784,0,0,0,1.74.324h0s3.682.71,7.924-3.28c0,0,1.51-.486,1.653-.771l-2.226-.4a3.744,3.744,0,0,1-1.384,2.379s1.423-2.288,1.053-2.453c-.075-.036-1.186-.162-1.186-.162s-.418,2.858-2.233,3.938c0,0,2.064-2.5,1.808-3.989l-1.695-.091s-.288,3.043-2.311,4.352c0,0,2.068-2.687,1.944-4.346l-1.679.136s-.324,2.959-2.029,4.035c0,0,2.074-3.345,1.646-3.98a8.147,8.147,0,0,0-1.912.47s-.292,2.119-1.329,2.657c0,0,1.147-2.382.914-2.547a8.712,8.712,0,0,0-2.677,1.74,6.329,6.329,0,0,1,2.534-2.035,3.49,3.49,0,0,0-1.983-.207s.826-.927,2.453.016a8.148,8.148,0,0,1,1.779-.5,7.584,7.584,0,0,0-2.7-1.358s1.471-.421,3.14,1.3l1.682-.172a11.042,11.042,0,0,0-2.943-1.893s1.565-.2,3.37,1.883l1.663.075a12.992,12.992,0,0,0-2.635-2.081,5.116,5.116,0,0,1,3.108,2.116l1.105.178s-1.118-1.1-1.468-1.381-.3-.379-.3-.379A5.328,5.328,0,0,1,918.43,133,13.014,13.014,0,0,0,920.718,133.377Z" transform="translate(-643.725 -105.88)" fill="#258c93" opacity="0.1"/>
    <path id="Path_1198" data-name="Path 1198" d="M946.814,286.893s-3.409-11.871-11.077-7.609a2.105,2.105,0,0,0-1.727,1.773s.609-.191.82,1.05a5.744,5.744,0,0,0,.389,1.3,2.784,2.784,0,0,0,1.186,1.322h0s2.508,2.787,8.3,2.165c0,0,1.5.525,1.782.382l-1.533-1.666a3.726,3.726,0,0,1-2.538,1.063s2.515-.972,2.32-1.319c-.039-.071-.849-.846-.849-.846s-2.055,2.029-4.155,1.792c0,0,3.153-.745,3.847-2.087l-1.3-1.1s-2.068,2.249-4.469,2.074c0,0,3.267-.9,4.168-2.294l-1.419-.9s-2.058,2.155-4.054,1.993c0,0,3.672-1.416,3.717-2.178a8.09,8.09,0,0,0-1.812-.778s-1.513,1.51-2.664,1.316c0,0,2.353-1.209,2.269-1.481a8.752,8.752,0,0,0-3.186-.227,6.323,6.323,0,0,1,3.241-.094,3.477,3.477,0,0,0-1.458-1.361s1.219-.243,1.945,1.491a8.087,8.087,0,0,1,1.721.674,7.58,7.58,0,0,0-1.329-2.709s1.426.551,1.714,2.936l1.445.878a10.779,10.779,0,0,0-1.206-3.286s1.368.788,1.552,3.536l1.3,1.06a12.853,12.853,0,0,0-.846-3.241,5.121,5.121,0,0,1,1.2,3.565l.771.81s-.227-1.549-.324-1.99,0-.5,0-.5a5.312,5.312,0,0,1,.664,2.826A12.862,12.862,0,0,0,946.814,286.893Z" transform="translate(-662.18 -205.981)" fill="#258c93" opacity="0.1"/>
    <path id="Path_1199" data-name="Path 1199" d="M709.989,374.345s-6.621-10.429-12.769-4.187a2.1,2.1,0,0,0-1.16,2.188s.535-.357,1.086.778a5.547,5.547,0,0,0,.732,1.121,2.768,2.768,0,0,0,1.507.933h0s3.192,1.97,8.572-.259c0,0,1.585.084,1.818-.133l-1.944-1.167a3.726,3.726,0,0,1-2.139,1.734s2.145-1.62,1.857-1.919c-.055-.058-1.053-.57-1.053-.57s-1.4,2.521-3.484,2.888c0,0,2.816-1.6,3.108-3.088l-1.552-.684s-1.351,2.738-3.7,3.241c0,0,2.884-1.779,3.354-3.374l-1.62-.467s-1.368,2.648-3.328,3.053c0,0,3.124-2.392,2.952-3.137a8.05,8.05,0,0,0-1.944-.237s-1.027,1.876-2.188,2.013c0,0,1.919-1.821,1.76-2.061a8.733,8.733,0,0,0-3.121.681,6.307,6.307,0,0,1,3.092-1,3.478,3.478,0,0,0-1.779-.9s1.1-.574,2.269.885a8,8,0,0,1,1.844.162,7.46,7.46,0,0,0-2.038-2.226s1.523.13,2.469,2.337l1.637.434a10.835,10.835,0,0,0-2.081-2.813s1.533.369,2.482,2.959l1.53.648a12.915,12.915,0,0,0-1.727-2.878,5.106,5.106,0,0,1,2.155,3.082l.972.561s-.648-1.423-.878-1.815-.139-.483-.139-.483a5.314,5.314,0,0,1,1.429,2.525A13.179,13.179,0,0,0,709.989,374.345Z" transform="translate(-501.326 -266.683)" fill="#258c93" opacity="0.1"/>
    <path id="Path_1200" data-name="Path 1200" d="M844.414,209.378s-6.3-10.627-12.639-4.579a2.107,2.107,0,0,0-1.225,2.152s.541-.344,1.06.807a5.6,5.6,0,0,0,.7,1.147,2.751,2.751,0,0,0,1.478.972h0s3.127,2.068,8.575,0c0,0,1.581.133,1.821-.078l-1.9-1.225a3.726,3.726,0,0,1-2.191,1.666s2.194-1.565,1.919-1.86c-.058-.062-1.037-.606-1.037-.606s-1.481,2.479-3.565,2.781c0,0,2.865-1.517,3.2-2.988l-1.53-.719s-1.436,2.7-3.8,3.131c0,0,2.939-1.688,3.458-3.267l-1.6-.519s-1.452,2.593-3.422,2.949c0,0,3.2-2.294,3.046-3.043a8,8,0,0,0-1.944-.3s-1.086,1.844-2.249,1.944c0,0,1.974-1.757,1.825-2a8.724,8.724,0,0,0-3.14.583,6.326,6.326,0,0,1,3.121-.907,3.484,3.484,0,0,0-1.753-.953s1.118-.541,2.269.953a8.21,8.21,0,0,1,1.838.22,7.751,7.751,0,0,0-1.967-2.288s1.517.175,2.395,2.411l1.62.486a10.772,10.772,0,0,0-1.993-2.878s1.523.418,2.392,3.033l1.507.7a13.021,13.021,0,0,0-1.62-2.917,5.126,5.126,0,0,1,2.061,3.147l.95.59s-.609-1.442-.823-1.841-.123-.486-.123-.486a5.324,5.324,0,0,1,1.351,2.567A12.548,12.548,0,0,0,844.414,209.378Z" transform="translate(-592.236 -155.001)" fill="#258c93"/>
    <path id="Path_1201" data-name="Path 1201" d="M728.669,269.287s.324-12.347-8.254-10.607a2.112,2.112,0,0,0-2.184,1.17s.648,0,.467,1.248a5.69,5.69,0,0,0-.019,1.342,2.771,2.771,0,0,0,.729,1.62h0s1.546,3.416,7.253,4.576c0,0,1.267.956,1.585.9l-.972-2.048a3.741,3.741,0,0,1-2.742.243s2.69-.159,2.615-.554c0-.081-.557-1.066-.557-1.066s-2.573,1.313-4.5.451c0,0,3.241.243,4.3-.823l-.9-1.436s-2.651,1.517-4.887.622c0,0,3.387.136,4.67-.924l-1.079-1.3s-2.615,1.432-4.469.674c0,0,3.928-.237,4.213-.953a8.4,8.4,0,0,0-1.491-1.3s-1.9.972-2.936.447c0,0,2.593-.434,2.609-.723a8.7,8.7,0,0,0-2.969-1.18,6.31,6.31,0,0,1,3.127.894,3.484,3.484,0,0,0-.972-1.74s1.235.139,1.4,2.009a8.055,8.055,0,0,1,1.439,1.167,7.579,7.579,0,0,0-.447-2.985s1.193.956.745,3.315l1.112,1.277a10.85,10.85,0,0,0-.152-3.5s1.063,1.163.408,3.84l.9,1.4a12.923,12.923,0,0,0,.178-3.351,5.143,5.143,0,0,1,.065,3.763l.493,1s.25-1.546.282-2,.156-.48.156-.48a5.321,5.321,0,0,1-.224,2.894A12.351,12.351,0,0,0,728.669,269.287Z" transform="translate(-516.331 -192.565)" fill="#258c93"/>
    <ellipse id="Ellipse_216" data-name="Ellipse 216" cx="8.727" cy="1.475" rx="8.727" ry="1.475" transform="translate(217.792 230.667)" fill="#258c93" opacity="0.1"/>
    <ellipse id="Ellipse_217" data-name="Ellipse 217" cx="8.727" cy="1.475" rx="8.727" ry="1.475" transform="translate(185.977 253.054)" fill="#258c93" opacity="0.1"/>
    <ellipse id="Ellipse_218" data-name="Ellipse 218" cx="8.727" cy="1.475" rx="8.727" ry="1.475" transform="translate(21.455 241.585)" fill="#258c93" opacity="0.1"/>
    <ellipse id="Ellipse_219" data-name="Ellipse 219" cx="8.727" cy="1.475" rx="8.727" ry="1.475" transform="translate(252.174 251.58)" fill="#258c93" opacity="0.1"/>
    <ellipse id="Ellipse_220" data-name="Ellipse 220" cx="13.031" cy="2.204" rx="13.031" ry="2.204" transform="translate(256.958 232.141)" fill="#258c93"/>
    <path id="Path_1202" data-name="Path 1202" d="M919.859,754.482a3.763,3.763,0,0,0,1.241-1.873,1.665,1.665,0,0,0-.865-1.909,2.447,2.447,0,0,0-2.3.8,3.079,3.079,0,0,1-2.23,1.079,3.4,3.4,0,0,0,1.05-3.179,1.332,1.332,0,0,0-.292-.648c-.444-.473-1.244-.269-1.776.1-1.685,1.186-2.155,3.474-2.165,5.535a10.4,10.4,0,0,1-.029-2.269,2.328,2.328,0,0,0-.859-2.016,2.563,2.563,0,0,0-1.3-.324,2.707,2.707,0,0,0-2.12.6,2.089,2.089,0,0,0,.081,2.593,8.381,8.381,0,0,0,2.194,1.756,4.9,4.9,0,0,1,1.569,1.494,1.52,1.52,0,0,1,.113.266h4.751a13.105,13.105,0,0,0,2.93-2.016Z" transform="translate(-644.468 -523.744)" fill="#258c93"/>
    <path id="Path_1203" data-name="Path 1203" d="M170.29,778.261s4.975-.152,6.482-1.222,7.658-2.343,8.031-.629,7.48,8.52,1.86,8.565-13.057-.875-14.554-1.789S170.29,778.261,170.29,778.261Z" transform="translate(-145.967 -542.055)" fill="#a8a8a8"/>
    <path id="Path_1204" data-name="Path 1204" d="M186.757,789.975c-5.62.045-13.057-.875-14.554-1.789-1.141-.693-1.594-3.186-1.747-4.336h-.165s.324,4.015,1.812,4.926,8.935,1.834,14.554,1.789c1.62,0,2.181-.59,2.152-1.445C188.581,789.641,187.962,789.965,186.757,789.975Z" transform="translate(-145.967 -547.651)" opacity="0.2"/>
  </g>
</svg>
