<svg xmlns="http://www.w3.org/2000/svg" width="56" height="39.718" viewBox="0 0 56 39.718"><g transform="translate(-286 -110)"><g transform="translate(286 39)"><g transform="translate(0 80)"><path d="M42.237,80H3.84A3.844,3.844,0,0,0,0,83.84v23.039a3.844,3.844,0,0,0,3.84,3.84h38.4a3.844,3.844,0,0,0,3.84-3.84V83.84A3.844,3.844,0,0,0,42.237,80Zm2.3,26.878a2.3,2.3,0,0,1-2.3,2.3H3.84a2.3,2.3,0,0,1-2.3-2.3V83.84a2.3,2.3,0,0,1,2.3-2.3h38.4a2.3,2.3,0,0,1,2.3,2.3Z" transform="translate(0 -80)" fill="#ecb773"/></g><g transform="translate(3.084 85.875)"><path d="M71.934,112.373a.768.768,0,0,0-1.054-.263l-16.828,10.1a3.828,3.828,0,0,1-3.95,0l-16.828-10.1a.768.768,0,0,0-.791,1.316l16.83,10.1a5.366,5.366,0,0,0,5.529,0l16.83-10.1A.768.768,0,0,0,71.934,112.373Z" transform="translate(-32.122 -112)" fill="#ecb773"/></g></g><circle cx="10.5" cy="10.5" r="10.5" transform="translate(321 110)" fill="#36a5ac"/><text transform="translate(332 123)" fill="#ecb773" font-size="14" font-family="YekanBakh-Light, Yekan Bakh" font-weight="300"><tspan x="-4.277" y="0">۵</tspan></text></g></svg>