<svg xmlns="http://www.w3.org/2000/svg" width="38.296" height="40" viewBox="0 0 38.296 40">
  <g id="Panel-Messsage" transform="translate(-359.704 -116)">
    <circle id="Ellipse_144" data-name="Ellipse 144" cx="12" cy="12" r="12" transform="translate(374 132)" fill="#f8e6ce"/>
    <path id="Notification" d="M35.575,20.29A7.975,7.975,0,0,1,36.9,24.318l-.052.363A8.134,8.134,0,0,1,35,30.092a9.6,9.6,0,0,1-6.136,3.025,79.887,79.887,0,0,1-17.431,0A9.493,9.493,0,0,1,5.4,30.092a8.015,8.015,0,0,1-1.9-5.376v-.242a8.253,8.253,0,0,1,1.429-4.132l.139-.173a7.531,7.531,0,0,0,1.743-3.457V13.15a1.5,1.5,0,0,1,2.876.311v3.561a.892.892,0,0,1,0,.19,10.34,10.34,0,0,1-2.405,4.806,4.967,4.967,0,0,0-.767,2.455v.38a5.056,5.056,0,0,0,1.15,3.371,6.524,6.524,0,0,0,4.079,1.936,78.64,78.64,0,0,0,16.873,0,6.54,6.54,0,0,0,4.166-2.023,5,5,0,0,0,1.1-3.267v-.4A5.154,5.154,0,0,0,33.135,22,10.346,10.346,0,0,1,30.59,17.2a.9.9,0,0,1,0-.19V13.427c-.506-5.221-5.752-8.453-10.319-8.453a11.316,11.316,0,0,0-5.543,1.435,1.51,1.51,0,0,1-1.526.011,1.481,1.481,0,0,1,.061-2.6A14.245,14.245,0,0,1,20.131,2c6.031,0,12.794,4.253,13.561,11.081v3.561A7.376,7.376,0,0,0,35.436,20.1,1.319,1.319,0,0,1,35.575,20.29ZM20.694,38.211a3.893,3.893,0,0,0,2.557-1.533h.017a1.513,1.513,0,0,1,2.118-.2,1.483,1.483,0,0,1,.2,2.1,6.858,6.858,0,0,1-10.929,0,1.484,1.484,0,0,1,.2-2.1,1.513,1.513,0,0,1,2.118.2,4.038,4.038,0,0,0,.819.812A3.911,3.911,0,0,0,20.694,38.211Z" transform="translate(356.204 114)" fill="#258c93" fill-rule="evenodd"/>
  </g>
</svg>
