<svg xmlns="http://www.w3.org/2000/svg" width="42" height="39.953" viewBox="0 0 42 39.953">
  <g id="Panel-Classes-Registration-icon" transform="translate(-1773 -505)">
    <g id="Group_337" data-name="Group 337" transform="translate(70 75)">
      <g id="Group_334" data-name="Group 334">
        <path id="blob_1_" data-name="blob (1)" d="M-57.279-70.451A11.794,11.794,0,0,1-52.835-62.6a16.505,16.505,0,0,1-1.7,9.414c-1.459,3.036-3.715,5.852-6.649,7.022s-6.564.712-9.787-.594a14.166,14.166,0,0,1-7.48-6.191,13.453,13.453,0,0,1-.78-9.329,13.3,13.3,0,0,1,4.7-7.6,15.2,15.2,0,0,1,8.464-2.544C-62.944-72.554-59.687-72.147-57.279-70.451Z" transform="translate(1797.702 515.442)" fill="#f8e6ce"/>
        <path id="Chat" d="M20.512,2a18.5,18.5,0,0,1-.021,37,18.36,18.36,0,0,1-3.974-.435,1.386,1.386,0,1,1,.6-2.705A15.729,15.729,0,1,0,20.511,4.771h-.018a15.732,15.732,0,0,0-13.943,23l.355.694a3.632,3.632,0,0,1,.249,2.743,31.668,31.668,0,0,0-.981,3.02c1.039-.313,2.309-.774,3.226-1.108l.376-.135a1.385,1.385,0,0,1,.942,2.6l-.371.135-.063.023h0A43.236,43.236,0,0,1,5.83,37.189a1.43,1.43,0,0,1-.329.034,2.232,2.232,0,0,1-1.654-.634,2.425,2.425,0,0,1-.622-1.855,1.414,1.414,0,0,1,.036-.272,32.4,32.4,0,0,1,1.276-4.154.869.869,0,0,0-.091-.572l-.357-.693A18.5,18.5,0,0,1,20.491,2Z" transform="translate(1701 428)" fill="#258c93" fill-rule="evenodd"/>
        <g id="Group_334-2" data-name="Group 334" transform="translate(-1 1)">
          <line id="Line_25" data-name="Line 25" x1="14" transform="translate(1715.5 448.5)" fill="none" stroke="#258c93" stroke-linecap="round" stroke-width="2.5"/>
          <line id="Line_26" data-name="Line 26" y2="12" transform="translate(1722.5 442.5)" fill="none" stroke="#258c93" stroke-linecap="round" stroke-width="2.5"/>
        </g>
      </g>
    </g>
  </g>
</svg>
