<svg xmlns="http://www.w3.org/2000/svg" width="33.83" height="31.376" viewBox="0 0 33.83 31.376">
  <g id="Panel-Students-list" transform="translate(-1703 -563)">
    <path id="blob_1_" data-name="blob (1)" d="M-61.64-70.838a9.5,9.5,0,0,1,3.579,6.326,13.3,13.3,0,0,1-1.366,7.582c-1.175,2.446-2.992,4.713-5.356,5.656a10.876,10.876,0,0,1-7.883-.478,11.41,11.41,0,0,1-6.025-4.987,10.836,10.836,0,0,1-.628-7.514,10.711,10.711,0,0,1,3.784-6.121,12.239,12.239,0,0,1,6.817-2.049A11.488,11.488,0,0,1-61.64-70.838Z" transform="translate(1794.784 645.108)" fill="#f8e6ce"/>
    <path id="_2_User" data-name="2 User" d="M7.9,10.127a1.118,1.118,0,0,1-2.235,0,7.62,7.62,0,1,1,2.944,6.025,1.115,1.115,0,1,1,1.372-1.759A5.4,5.4,0,1,0,7.9,10.127ZM21.773,15a1.116,1.116,0,0,1,1.118-1.114,3.783,3.783,0,1,0,0-7.567,1.114,1.114,0,1,1,0-2.228,6.011,6.011,0,1,1,0,12.022A1.116,1.116,0,0,1,21.773,15ZM27.8,19.58c1.885.37,3.126,1.13,3.666,2.259a3.416,3.416,0,0,1,0,2.956c-.532,1.119-1.772,1.884-3.684,2.274a1.167,1.167,0,0,1-.227.022,1.113,1.113,0,0,1-.222-2.2c1.137-.232,1.907-.613,2.113-1.047a1.213,1.213,0,0,0,0-1.043c-.21-.437-.978-.816-2.107-1.037a15.126,15.126,0,0,0-2.269-.328,1.114,1.114,0,0,1-1.037-1.187,1.129,1.129,0,0,1,1.19-1.037A17.544,17.544,0,0,1,27.8,19.58Zm-14.489.68c-2.8,0-11.313,0-11.313,5.292A4.256,4.256,0,0,0,4.718,29.49a10.967,10.967,0,0,0,2.5.817,1.114,1.114,0,1,0,.465-2.179,8.615,8.615,0,0,1-1.979-.64c-1.3-.636-1.466-1.368-1.466-1.935,0-2.534,4.937-3.064,9.077-3.064,6.023,0,9.076,1.022,9.076,3.035,0,2.533-4.935,3.063-9.076,3.063a1.114,1.114,0,1,0,0,2.228c2.8,0,11.311,0,11.311-5.291C24.624,20.8,18.169,20.259,13.313,20.259Z" transform="translate(1701 560.5)" fill="#258c93" fill-rule="evenodd"/>
  </g>
</svg>
