<svg xmlns="http://www.w3.org/2000/svg" width="37.225" height="49" viewBox="0 0 37.225 49"><g transform="translate(-1786.775 -420)"><circle cx="12" cy="12" r="12" transform="translate(1800 445)" fill="#ecb773" opacity="0.35"/><g transform="translate(1714.775 420)"><path d="M73.347,38.382A1.347,1.347,0,0,1,72,37.036V5.555A5.562,5.562,0,0,1,77.555,0h24.073a1.347,1.347,0,0,1,1.347,1.347V32.322a1.347,1.347,0,0,1-2.694,0V2.694H77.555a2.865,2.865,0,0,0-2.862,2.862v31.48A1.347,1.347,0,0,1,73.347,38.382Z" fill="#258c93"/><path d="M101.629,380.121H78.06a6.06,6.06,0,0,1,0-12.121h23.568a1.347,1.347,0,0,1,0,2.694H78.06a3.367,3.367,0,1,0,0,6.734h23.568a1.347,1.347,0,0,1,0,2.694Z" transform="translate(0 -337.025)" fill="#258c93"/><path d="M152.915,426.694H129.347a1.347,1.347,0,1,1,0-2.694h23.568a1.347,1.347,0,1,1,0,2.694Z" transform="translate(-51.286 -388.311)" fill="#258c93"/><path d="M145.347,33.669A1.347,1.347,0,0,1,144,32.322V1.347a1.347,1.347,0,1,1,2.693,0V32.322A1.347,1.347,0,0,1,145.347,33.669Z" transform="translate(-65.94)" fill="#258c93"/></g></g></svg>