<svg xmlns="http://www.w3.org/2000/svg" width="47" height="43" viewBox="0 0 47 43">
  <g id="Panel-report-card-icon" transform="translate(-1768 -592)">
    <circle id="Ellipse_145" data-name="Ellipse 145" cx="12" cy="12" r="12" transform="translate(1791 611)" fill="#f8e6ce"/>
    <path id="Folder" d="M40.895,23.59a1.547,1.547,0,0,0,1.546-1.547V19.98c0-8.181-3.644-12.164-11.11-12.164H25.82A2.879,2.879,0,0,1,23.527,6.7L21.75,4.33A6.043,6.043,0,0,0,16.968,2H13.093C5.733,2,2,6.25,2,14.645v15.17C2,37.6,6.835,42.441,14.639,42.441H29.785c7.786,0,12.639-4.837,12.639-12.627a1.564,1.564,0,0,0-3.111,0c0,6.136-3.377,9.532-9.528,9.532H14.621c-6.151,0-9.528-3.379-9.528-9.532V28.339H29.98a1.547,1.547,0,0,0,0-3.094H5.093V14.573c0-6.687,2.382-9.55,7.982-9.55h3.911a2.968,2.968,0,0,1,2.293,1.138l1.778,2.348a5.99,5.99,0,0,0,4.764,2.383h5.493c5.777,0,8.017,2.579,8.017,9.088v2.063a1.547,1.547,0,0,0,1.564,1.547Z" transform="translate(1766 590)" fill="#258c93"/>
  </g>
</svg>
