<svg xmlns="http://www.w3.org/2000/svg" width="43" height="41.953" viewBox="0 0 43 41.953">
  <g id="Panel-Home-Icon" transform="translate(-1773 -331)">
    <g id="Group_335" data-name="Group 335" transform="translate(70 28)">
      <path id="blob_1_" data-name="blob (1)" d="M-57.279-70.451A11.794,11.794,0,0,1-52.835-62.6a16.505,16.505,0,0,1-1.7,9.414c-1.459,3.036-3.715,5.852-6.649,7.022s-6.564.712-9.787-.594a14.166,14.166,0,0,1-7.48-6.191,13.453,13.453,0,0,1-.78-9.329,13.3,13.3,0,0,1,4.7-7.6,15.2,15.2,0,0,1,8.464-2.544C-62.944-72.554-59.687-72.147-57.279-70.451Z" transform="translate(1798.702 390.442)" fill="#f8e6ce"/>
      <path id="Home" d="M35.621,12.424A5.679,5.679,0,0,1,37.758,16.8l-.016,14.871a7.336,7.336,0,0,1-7.358,7.314H27.12a3.563,3.563,0,0,1-3.573-3.535V28.738A.943.943,0,0,0,22.6,27.8H17.706a.949.949,0,0,0-.675.281.939.939,0,0,0-.271.676v2.562a1.468,1.468,0,0,1-2.937,0V28.755a3.864,3.864,0,0,1,1.142-2.741,3.911,3.911,0,0,1,2.757-1.135h4.895A3.887,3.887,0,0,1,26.5,28.755v6.7a.618.618,0,0,0,.62.616h3.345A4.392,4.392,0,0,0,34.87,31.69V16.835a2.735,2.735,0,0,0-1.044-2.108L22.552,5.791a3.869,3.869,0,0,0-4.895,0L14.035,8.483a1.5,1.5,0,0,1-2.088-.341,1.482,1.482,0,0,1,.343-2.076l3.573-2.578a6.8,6.8,0,0,1,8.484,0ZM9.858,36.052h7.505v.032a1.46,1.46,0,1,1,0,2.919H9.858A7.353,7.353,0,0,1,2.5,31.69V16.835a5.632,5.632,0,0,1,2.2-4.379l1.354-1.005a1.474,1.474,0,0,1,1.814.462,1.453,1.453,0,0,1-.117,1.857l-1.322.973a2.734,2.734,0,0,0-1,2.092V31.674A4.425,4.425,0,0,0,9.858,36.052Z" transform="translate(1700.5 300.996)" fill="#258c93" fill-rule="evenodd"/>
    </g>
  </g>
</svg>
