<svg xmlns="http://www.w3.org/2000/svg" width="43" height="41.953" viewBox="0 0 43 41.953">
  <g id="Panel-Classes-Icon" transform="translate(-1702 -372)">
    <path id="blob_1_" data-name="blob (1)" d="M-57.279-70.451A11.794,11.794,0,0,1-52.835-62.6a16.505,16.505,0,0,1-1.7,9.414c-1.459,3.036-3.715,5.852-6.649,7.022s-6.564.712-9.787-.594a14.166,14.166,0,0,1-7.48-6.191,13.453,13.453,0,0,1-.78-9.329,13.3,13.3,0,0,1,4.7-7.6,15.2,15.2,0,0,1,8.464-2.544C-62.944-72.554-59.687-72.147-57.279-70.451Z" transform="translate(1797.702 459.442)" fill="#f8e6ce"/>
    <path id="Chart" d="M39.619,18.13a1.439,1.439,0,0,1-1.439,1.439h-.017a1.423,1.423,0,0,1-1.423-1.456V13.762c0-5.724-3.16-8.884-8.884-8.884H13.762c-5.741,0-8.884,3.16-8.884,8.884V27.874c0,5.724,3.16,8.867,8.884,8.867H27.857c5.741,0,8.884-3.16,8.884-8.867a1.439,1.439,0,1,1,2.878,0c0,7.246-4.5,11.746-11.746,11.746H13.762C6.5,39.619,2,35.12,2,27.874V13.762C2,6.5,6.5,2,13.762,2H27.857c7.23,0,11.762,4.5,11.762,11.762ZM11.33,29.627V17.584a1.423,1.423,0,0,1,1.489-1.373,1.439,1.439,0,0,1,1.39,1.489V29.726a1.44,1.44,0,0,1-2.879-.1Zm8.106-17.619V29.644a1.439,1.439,0,0,0,2.879,0V12.009a1.439,1.439,0,0,0-2.879,0ZM27.41,29.627V24a1.439,1.439,0,0,1,2.879,0v5.625a1.439,1.439,0,0,1-2.879,0Z" transform="translate(1700 370)" fill="#258c93" fill-rule="evenodd"/>
  </g>
</svg>
