<svg xmlns="http://www.w3.org/2000/svg" width="42.631" height="50.015" viewBox="0 0 42.631 50.015"><g transform="translate(-431.369 -106.361)"><g transform="translate(431.369 106.361)"><path d="M45.719,13.646H60.042a15.239,15.239,0,0,1,4.241-1.884,4.032,4.032,0,0,1,8.047.006,15.472,15.472,0,0,1,11.3,14.924V45.22a1.614,1.614,0,0,0,.245.855l1.351,2.162a3.226,3.226,0,0,1-2.736,4.937h-8.6a5.646,5.646,0,0,1-11.177,0h-8.6a3.226,3.226,0,0,1-2.736-4.937l1.351-2.162a1.614,1.614,0,0,0,.245-.855V32.2h-7.26a2.423,2.423,0,0,1-2.42-2.42V16.066A2.423,2.423,0,0,1,45.719,13.646ZM68.306,9.613a2.425,2.425,0,0,0-2.337,1.793,15.43,15.43,0,0,1,2.339-.179h.005a15.191,15.191,0,0,1,2.333.18A2.425,2.425,0,0,0,68.306,9.613Zm0,46.788a4.04,4.04,0,0,0,3.953-3.227H64.353A4.04,4.04,0,0,0,68.306,56.4ZM52.75,49.092a1.613,1.613,0,0,0,1.368,2.468H82.494a1.613,1.613,0,0,0,1.368-2.468L82.511,46.93a3.215,3.215,0,0,1-.491-1.71V26.692A13.8,13.8,0,0,0,68.313,12.839h-.005a13.716,13.716,0,0,0-4.64.807h1.411a2.423,2.423,0,0,1,2.42,2.42V29.78a2.423,2.423,0,0,1-2.42,2.42h-.807v4.84a.807.807,0,0,1-1.377.571L57.485,32.2H54.592V45.22a3.215,3.215,0,0,1-.491,1.71ZM44.912,29.78a.808.808,0,0,0,.807.807h12.1a.807.807,0,0,1,.571.236l4.269,4.27v-3.7a.807.807,0,0,1,.807-.807h1.613a.808.808,0,0,0,.807-.807V16.066a.808.808,0,0,0-.807-.807H45.719a.808.808,0,0,0-.807.807Z" transform="translate(-43.299 -7.999)" fill="#ecb773"/></g><circle cx="5" cy="5" r="5" transform="translate(464 115)" fill="#36a5ac"/></g></svg>