<svg xmlns="http://www.w3.org/2000/svg" width="41" height="40.953" viewBox="0 0 41 40.953">
  <g id="Panel-Placemennt-list-icon" transform="translate(-1705 -491)">
    <path id="blob_1_" data-name="blob (1)" d="M-57.279-70.451A11.794,11.794,0,0,1-52.835-62.6a16.505,16.505,0,0,1-1.7,9.414c-1.459,3.036-3.715,5.852-6.649,7.022s-6.564.712-9.787-.594a14.166,14.166,0,0,1-7.48-6.191,13.453,13.453,0,0,1-.78-9.329,13.3,13.3,0,0,1,4.7-7.6,15.2,15.2,0,0,1,8.464-2.544C-62.944-72.554-59.687-72.147-57.279-70.451Z" transform="translate(1798.702 577.442)" fill="#f8e6ce"/>
    <path id="Paper" d="M35.4,12.557,25.81,2.465a1.412,1.412,0,0,0-1.025-.442H24.4a.256.256,0,0,1-.049-.011h0A.2.2,0,0,0,24.287,2a.213.213,0,0,0-.062.012.254.254,0,0,1-.048.011H12.183A8.741,8.741,0,0,0,3.5,10.591v7.9a1.421,1.421,0,1,0,2.841,0v-7.9a5.848,5.848,0,0,1,5.842-5.7H22.866V9a6.338,6.338,0,0,0,6.283,6.36h0a1.435,1.435,0,0,0,0-2.869A3.478,3.478,0,0,1,25.708,9V6.5l7.251,7.627V31.086a6.008,6.008,0,0,1-5.643,6.045H12.183a5.883,5.883,0,0,1-5.842-6.045V26.292a1.421,1.421,0,1,0-2.841,0v4.794A8.708,8.708,0,0,0,12.183,40H27.316A8.824,8.824,0,0,0,35.8,31.086V13.552A1.446,1.446,0,0,0,35.4,12.557ZM13.7,29.37H23.928a1.435,1.435,0,0,0,0-2.869H13.7a1.435,1.435,0,0,0,0,2.869ZM20.06,19.9H13.7a1.435,1.435,0,0,1,0-2.869H20.06a1.435,1.435,0,0,1,0,2.869Z" transform="translate(1701.5 489)" fill="#258c93" fill-rule="evenodd"/>
  </g>
</svg>
