<svg xmlns="http://www.w3.org/2000/svg" xmlns:xlink="http://www.w3.org/1999/xlink" width="133.387" height="114.095" viewBox="0 0 133.387 114.095">
  <defs>
    <linearGradient id="linear-gradient" x1="0.5" x2="0.5" y2="1" gradientUnits="objectBoundingBox">
      <stop offset="0" stop-color="#ecb773" stop-opacity="0.278"/>
      <stop offset="1" stop-color="#ecb773" stop-opacity="0"/>
    </linearGradient>
    <linearGradient id="linear-gradient-2" x1="0.5" x2="0.5" y2="1" gradientUnits="objectBoundingBox">
      <stop offset="0" stop-color="#258c93" stop-opacity="0.231"/>
      <stop offset="1" stop-color="#258c93" stop-opacity="0"/>
    </linearGradient>
    <linearGradient id="linear-gradient-3" x1="0.5" x2="0.5" y2="1" gradientUnits="objectBoundingBox">
      <stop offset="0" stop-color="#258c93"/>
      <stop offset="1" stop-color="#258c93" stop-opacity="0.941"/>
    </linearGradient>
    <linearGradient id="linear-gradient-5" x1="0.5" y1="0.247" x2="0.5" y2="1" gradientUnits="objectBoundingBox">
      <stop offset="0" stop-color="#ecb773"/>
      <stop offset="1" stop-color="#e9d2b4"/>
    </linearGradient>
    <linearGradient id="linear-gradient-7" x1="1.169" y1="0.5" x2="0" y2="0.644" gradientUnits="objectBoundingBox">
      <stop offset="0" stop-color="#258c93" stop-opacity="0.341"/>
      <stop offset="1" stop-color="#258c93" stop-opacity="0.631"/>
    </linearGradient>
  </defs>
  <g id="placementtest-action-illustration" transform="translate(-390 -608)">
    <g id="class-registration-action-illustration">
      <path id="blob_5_" data-name="blob (5)" d="M25.476-53.025c13.17,6.256,26.34,17.2,29.3,30.455S50.417,6.322,41.362,19.985C32.39,33.649,21.69,45.337,8.6,49.864c-13.17,4.445-28.644,1.729-41.814-4.445A79.4,79.4,0,0,1-65.478,17.763c-8.231-12.1-13.993-26.669-12.1-40.415C-75.685-36.48-66.3-49.321-54.366-55.823s26.257-6.585,39.921-5.844C-.7-60.927,12.389-59.28,25.476-53.025Z" transform="translate(467.939 669.981)" fill="rgba(37,140,147,0.04)"/>
      <path id="blob_6_" data-name="blob (6)" d="M-29.36-54.116c3.174,1.2,6.524,2.984,7.692,5.394a5.372,5.372,0,0,1-2.535,6.91c-2.645,1.452-6.9,1.34-10.072,1.229a71.786,71.786,0,0,1-7.56-.511c-2.314-.3-4.871-.814-6.259-2.075-1.389-1.245-1.587-3.224-1.146-5.122a8.731,8.731,0,0,1,3.416-5.123A14.141,14.141,0,0,1-38.4-55.807,22.332,22.332,0,0,1-29.36-54.116Z" transform="translate(425.349 647.519) rotate(-139)" fill="rgba(37,140,147,0.41)"/>
      <path id="blob_6_2" data-name="blob (6)" d="M-26.815-53.9c3.576,1.348,7.35,3.362,8.667,6.077A6.052,6.052,0,0,1-21-40.036c-2.98,1.636-7.773,1.51-11.349,1.384a80.882,80.882,0,0,1-8.518-.575c-2.607-.342-5.488-.917-7.052-2.337-1.564-1.4-1.788-3.632-1.291-5.771a9.837,9.837,0,0,1,3.849-5.771A15.933,15.933,0,0,1-37-55.8,25.161,25.161,0,0,1-26.815-53.9Z" transform="translate(518.574 680.529) rotate(22)" fill="rgba(37,140,147,0.36)"/>
    </g>
    <circle id="Ellipse_221" data-name="Ellipse 221" cx="11" cy="11" r="11" transform="translate(462 669)" fill="url(#linear-gradient)"/>
    <rect id="Rectangle_250" data-name="Rectangle 250" width="41" height="35" rx="3" transform="translate(433 646)" fill="url(#linear-gradient-2)"/>
    <g id="add_1_" data-name="add (1)" transform="translate(428 636)">
      <g id="Group_352" data-name="Group 352" transform="translate(0 5.147)">
        <path id="Path_1213" data-name="Path 1213" d="M21.875,45.75H6.434A6.441,6.441,0,0,1,0,39.316V8.434A6.441,6.441,0,0,1,6.434,2h38.6a6.441,6.441,0,0,1,6.434,6.434V18.728a1.287,1.287,0,0,1-2.574,0V8.434a3.865,3.865,0,0,0-3.86-3.86H6.434a3.865,3.865,0,0,0-3.86,3.86V39.316a3.865,3.865,0,0,0,3.86,3.86H21.875a1.287,1.287,0,0,1,0,2.574Z" transform="translate(0 -2)" fill="#258c93"/>
      </g>
      <g id="Group_353" data-name="Group 353" transform="translate(0 15.441)">
        <path id="Path_1214" data-name="Path 1214" d="M50.184,8.574H1.287A1.287,1.287,0,1,1,1.287,6h48.9a1.287,1.287,0,1,1,0,2.574Z" transform="translate(0 -6)" fill="#258c93"/>
      </g>
      <g id="Group_354" data-name="Group 354" transform="translate(10.294)">
        <path id="Path_1215" data-name="Path 1215" d="M5.287,12.868A1.287,1.287,0,0,1,4,11.581V1.287a1.287,1.287,0,0,1,2.574,0V11.581A1.287,1.287,0,0,1,5.287,12.868Z" transform="translate(-4)" fill="url(#linear-gradient-3)"/>
      </g>
      <g id="Group_355" data-name="Group 355" transform="translate(38.603)">
        <path id="Path_1216" data-name="Path 1216" d="M16.287,12.868A1.287,1.287,0,0,1,15,11.581V1.287a1.287,1.287,0,0,1,2.574,0V11.581A1.287,1.287,0,0,1,16.287,12.868Z" transform="translate(-15)" fill="url(#linear-gradient-3)"/>
      </g>
      <g id="Group_356" data-name="Group 356" transform="translate(28.309 28.309)">
        <path id="Path_1217" data-name="Path 1217" d="M27.728,44.456A16.728,16.728,0,1,1,44.456,27.728,16.747,16.747,0,0,1,27.728,44.456Zm0-30.882A14.154,14.154,0,1,0,41.882,27.728,14.171,14.171,0,0,0,27.728,13.574Z" transform="translate(-11 -11)" fill="#ecb773"/>
      </g>
      <g id="Group_357" data-name="Group 357" transform="translate(43.75 36.03)">
        <path id="Path_1218" data-name="Path 1218" d="M18.287,32.015A1.287,1.287,0,0,1,17,30.728V15.287a1.287,1.287,0,1,1,2.574,0V30.728A1.287,1.287,0,0,1,18.287,32.015Z" transform="translate(-17 -14)" fill="url(#linear-gradient-5)"/>
      </g>
      <g id="Group_358" data-name="Group 358" transform="translate(36.03 43.75)">
        <path id="Path_1219" data-name="Path 1219" d="M30.728,19.574H15.287a1.287,1.287,0,1,1,0-2.574H30.728a1.287,1.287,0,1,1,0,2.574Z" transform="translate(-14 -17)" fill="url(#linear-gradient-5)"/>
      </g>
    </g>
    <circle id="Ellipse_222" data-name="Ellipse 222" cx="2.5" cy="2.5" r="2.5" transform="translate(438 664)" fill="url(#linear-gradient-7)"/>
    <circle id="Ellipse_223" data-name="Ellipse 223" cx="2.5" cy="2.5" r="2.5" transform="translate(445 664)" fill="url(#linear-gradient-7)"/>
    <circle id="Ellipse_224" data-name="Ellipse 224" cx="2.5" cy="2.5" r="2.5" transform="translate(452 664)" fill="url(#linear-gradient-7)"/>
  </g>
</svg>
