<svg xmlns="http://www.w3.org/2000/svg" xmlns:xlink="http://www.w3.org/1999/xlink" width="80.164" height="80.164" viewBox="0 0 80.164 80.164">
  <defs>
    <clipPath id="clip-path">
      <path id="squircle" d="M0,39.4C0,5.122,5.122,0,39.4,0S78.8,5.122,78.8,39.4,73.678,78.8,39.4,78.8,0,73.678,0,39.4" transform="translate(520 410.844) rotate(-1)" fill="#57c3c3" opacity="0.09"/>
    </clipPath>
  </defs>
  <g id="Quiz_Teacher-Icon" transform="translate(-597 -331)">
    <g id="Quiz-Avatar" transform="translate(0 25.531)">
      <path id="squircle-2" data-name="squircle" d="M0,39.4C0,5.122,5.122,0,39.4,0S78.8,5.122,78.8,39.4,73.678,78.8,39.4,78.8,0,73.678,0,39.4" transform="translate(597 306.844) rotate(-1)" fill="#57c3c3"/>
    </g>
    <g id="promotion" transform="translate(613 351)">
      <path id="Path_9" data-name="Path 9" d="M123.349,291.3a.923.923,0,1,0-1.261-.338A.924.924,0,0,0,123.349,291.3Zm0,0" transform="translate(-110.701 -262.834)" fill="#fff"/>
      <path id="Path_10" data-name="Path 10" d="M8.864,55.129l4.65,8.055a3.694,3.694,0,1,0,6.4-3.693l-2.77-4.8,2.4-1.385a.924.924,0,0,0,.338-1.261l-1.2-2.08L36.366,46.5a2.77,2.77,0,0,0,2.246-4.151l-3.069-5.316L37.5,34.059a.924.924,0,0,0,.029-.971l-1.847-3.2a.925.925,0,0,0-.855-.46l-3.553.213-3.407-5.9a2.746,2.746,0,0,0-2.365-1.385h-.035a2.746,2.746,0,0,0-2.332,1.277L11.075,39,3.232,43.528a6.464,6.464,0,0,0,5.631,11.6Zm9.449,5.286a1.847,1.847,0,0,1-3.2,1.847l-4.617-8,3.2-1.847,4.618,8Zm-2.095-7.323-.923-1.6,1.6-.923.923,1.6ZM34.372,31.307l1.276,2.211L34.51,35.241l-2.2-3.81Zm-9.689-6.661a.923.923,0,0,1,1.588.018l10.741,18.6a.923.923,0,0,1-.777,1.384,3.39,3.39,0,0,0-.506.086L24.367,25.059c.238-.307.269-.336.316-.414Zm-1.545,1.979,10.675,18.49L17.7,48.274,12.8,39.79ZM2.466,51.435a4.614,4.614,0,0,1,1.69-6.307l7.2-4.156,4.617,8-7.2,4.156a4.623,4.623,0,0,1-6.307-1.69Zm0,0" transform="translate(0 -20.291)" fill="#fff"/>
      <path id="Path_11" data-name="Path 11" d="M48.527,310.034a.924.924,0,0,0-1.261-.338l-1.6.923a.925.925,0,0,1-1.261-.338.923.923,0,0,0-1.6.923,2.774,2.774,0,0,0,3.784,1.014l1.6-.923a.924.924,0,0,0,.338-1.261Zm0,0" transform="translate(-38.74 -280.985)" fill="#fff"/>
      <path id="Path_12" data-name="Path 12" d="M441.9,42.6l-5.146,2.863a.924.924,0,0,0,.9,1.614l5.145-2.863a.923.923,0,0,0-.9-1.614Zm0,0" transform="translate(-395.987 -38.558)" fill="#fff"/>
      <path id="Path_13" data-name="Path 13" d="M444.794,137.609l-3.568-.956a.923.923,0,1,0-.478,1.784l3.568.956a.923.923,0,1,0,.478-1.784Zm0,0" transform="translate(-399.425 -124.004)" fill="#fff"/>
      <path id="Path_14" data-name="Path 14" d="M384.481.685l-.957,3.568a.924.924,0,1,0,1.784.478l.957-3.568a.923.923,0,1,0-1.784-.478Zm0,0" transform="translate(-348.079 0)" fill="#fff"/>
    </g>
  </g>
</svg>
