<svg xmlns="http://www.w3.org/2000/svg" xmlns:xlink="http://www.w3.org/1999/xlink" width="80.164" height="80.164" viewBox="0 0 80.164 80.164">
  <defs>
    <clipPath id="clip-path">
      <path id="squircle" d="M0,39.4C0,5.122,5.122,0,39.4,0S78.8,5.122,78.8,39.4,73.678,78.8,39.4,78.8,0,73.678,0,39.4" transform="translate(520 410.844) rotate(-1)" fill="#258c93" opacity="0.09"/>
    </clipPath>
  </defs>
  <g id="Quiz-Avatar" transform="translate(-597 -305.469)">
    <path id="squircle-2" data-name="squircle" d="M0,39.4C0,5.122,5.122,0,39.4,0S78.8,5.122,78.8,39.4,73.678,78.8,39.4,78.8,0,73.678,0,39.4" transform="translate(597 306.844) rotate(-1)" fill="#ebf5f5"/>
    <g id="Mask_Group_1" data-name="Mask Group 1" transform="translate(77 -104)" clip-path="url(#clip-path)">
      <g id="man" transform="translate(520 409.469)">
        <g id="Group_3" data-name="Group 3" transform="translate(5.72 7.619)">
          <path id="Path_3" data-name="Path 3" d="M26.968,47.023H56.878v7.8H26.968Z" transform="translate(-5.018 1.336)" fill="#ffe4c0"/>
          <path id="Path_5" data-name="Path 5" d="M31.309,40.785H51.318V62H31.309Z" transform="translate(-4.408 1.46)" fill="#edf3b4"/>
          <path id="Path_9" data-name="Path 9" d="M81.532,65.377a45.714,45.714,0,0,1-73.811,0A13.785,13.785,0,0,1,21.5,52.027H34.622l10,9.59,10-9.59H67.756A13.779,13.779,0,0,1,81.532,65.377Z" transform="translate(-7.72 2.038)" fill="#258c93"/>
          <path id="Path_11" data-name="Path 11" d="M59.233,25.473C58.527,14.752,49.855,10.79,42.516,10.79S26.506,14.752,25.8,25.473c-1.9.367-3.246,2.856-3.033,4.868l.325,4.58a3.788,3.788,0,0,0,4.127,3.426l.353-.038C31.766,49.57,38.342,50.744,42.516,51.4c4.174-.659,10.751-1.833,14.944-13.094l.353.038a3.788,3.788,0,0,0,4.127-3.426l.325-4.58c.212-2.012-1.136-4.5-3.033-4.868Z" transform="translate(-5.611 -3.752)" fill="#ffd4a6"/>
          <path id="Path_13" data-name="Path 13" d="M45.462,32.182a5.465,5.465,0,0,0-7.08,0,13.372,13.372,0,0,1-8.12,3.173l-3.284.133.22,1.324A14.926,14.926,0,0,0,41.922,49.29,15.965,15.965,0,0,0,56.786,35.969l.08-.48-3.284-.133a13.371,13.371,0,0,1-8.12-3.173Z" transform="translate(-5.016 -0.931)" fill="#ffeed6"/>
          <path id="Path_14" data-name="Path 14" d="M55.025,35.489l-.079.48a15.962,15.962,0,0,1-14.865,13.32V30.88a5.452,5.452,0,0,1,3.541,1.3,13.354,13.354,0,0,0,8.119,3.173Z" transform="translate(-3.176 -0.931)" fill="#ece4c1"/>
          <path id="Path_15" data-name="Path 15" d="M27.622,47.023l14.955,15.3L35.1,70.354,22.311,52.73Z" transform="translate(-5.672 1.336)" fill="#ebb772"/>
          <path id="Path_16" data-name="Path 16" d="M55.037,47.023l-14.955,15.3,7.477,8.035L60.348,52.73Z" transform="translate(-3.176 1.336)" fill="#ebb772"/>
          <path id="Path_17" data-name="Path 17" d="M32.174,4.619s-9.668,9.424-7.666,18.724l1.4,9.265h3.839l1.835-6.832a4.544,4.544,0,0,1,5.582-3.227q.35.1.7.221l.671.238a10.84,10.84,0,0,0,7.569-.161,10.681,10.681,0,0,1,1.492-.459A4.561,4.561,0,0,1,53,25.656l1.868,6.951H58.71L60.1,22.961C60.4,14.692,53.754,4.619,32.174,4.619Z" transform="translate(-5.401 -4.619)" fill="#268289"/>
          <path id="Path_18" data-name="Path 18" d="M57.877,22.853,56.486,32.5H52.647l-1.868-6.951a4.561,4.561,0,0,0-5.417-3.268,10.469,10.469,0,0,0-1.491.459,11.142,11.142,0,0,1-3.789.762V5.4c13.59,2.635,18.04,10.656,17.795,17.456Z" transform="translate(-3.176 -4.51)" fill="#258c93"/>
        </g>
      </g>
    </g>
  </g>
</svg>
