<svg xmlns="http://www.w3.org/2000/svg" width="100.225" height="92.077" viewBox="0 0 100.225 92.077">
  <g id="study" transform="translate(0 -20.812)">
    <path id="Path_29" data-name="Path 29" d="M0,55.291v59.483a3.259,3.259,0,0,0,3.259,3.259H96.965a3.259,3.259,0,0,0,3.259-3.259V55.291a3.259,3.259,0,0,0-3.259-3.259H3.259A3.259,3.259,0,0,0,0,55.291Z" transform="translate(0 -25.109)" fill="#fad59a"/>
    <path id="Path_30" data-name="Path 30" d="M33.3,80.3H70.783a6.111,6.111,0,0,1,6.111,6.111V26.923a6.111,6.111,0,0,0-6.111-6.111H35.318A2.017,2.017,0,0,0,33.3,22.829Z" transform="translate(-26.782 0)" fill="#f4fbff"/>
    <path id="Path_31" data-name="Path 31" d="M33.3,324.683H70.783a6.111,6.111,0,0,1,6.111,6.111H35.318a2.017,2.017,0,0,1-2.017-2.017Z" transform="translate(-26.782 -244.388)" fill="#d3effb"/>
    <path id="Path_32" data-name="Path 32" d="M299.594,80.3H262.111A6.111,6.111,0,0,0,256,86.407V26.923a6.111,6.111,0,0,1,6.111-6.111h35.466a2.017,2.017,0,0,1,2.017,2.017Z" transform="translate(-205.888 0)" fill="#f4fbff"/>
    <path id="Path_33" data-name="Path 33" d="M281.574,58.615V56.13a2.017,2.017,0,0,1,2.017-2.017h29.548a2.017,2.017,0,0,1,2.017,2.017v2.485a2.017,2.017,0,0,1-2.017,2.017H283.591A2.017,2.017,0,0,1,281.574,58.615Z" transform="translate(-226.455 -26.782)" fill="#dd636e"/>
    <path id="Path_34" data-name="Path 34" d="M457.886,20.812V80.3h4.074V22.829a2.017,2.017,0,0,0-2.017-2.017Z" transform="translate(-368.254)" fill="#e4f6ff"/>
    <path id="Path_35" data-name="Path 35" d="M299.594,324.683H262.111A6.111,6.111,0,0,0,256,330.794h41.577a2.017,2.017,0,0,0,2.017-2.017Z" transform="translate(-205.888 -244.388)" fill="#d3effb"/>
    <path id="Path_36" data-name="Path 36" d="M92.456,58.615V56.13a2.017,2.017,0,0,0-2.017-2.017H60.892a2.017,2.017,0,0,0-2.017,2.017v2.485a2.017,2.017,0,0,0,2.017,2.017H90.44A2.017,2.017,0,0,0,92.456,58.615Z" transform="translate(-47.35 -26.782)" fill="#f6e781"/>
    <g id="Group_43" data-name="Group 43" transform="translate(48.6 22.903)">
      <path id="Path_37" data-name="Path 37" d="M251.3,31.492V58.736a1.512,1.512,0,0,1-3.025,0V31.492a6.065,6.065,0,0,1,1.512,4.021A6.065,6.065,0,0,1,251.3,31.492Z" transform="translate(-248.274 -31.492)" fill="#e4f6ff"/>
    </g>
    <g id="Group_44" data-name="Group 44" transform="translate(61.841 45.375)">
      <path id="Path_38" data-name="Path 38" d="M341.262,149.315H317.428a1.512,1.512,0,0,1,0-3.025h23.834a1.512,1.512,0,1,1,0,3.025Z" transform="translate(-315.916 -146.29)" fill="#9d66d5"/>
    </g>
    <g id="Group_45" data-name="Group 45" transform="translate(55.119 38.856)">
      <path id="Path_39" data-name="Path 39" d="M313.644,116.014H283.087a1.512,1.512,0,1,1,0-3.025h30.556a1.512,1.512,0,1,1,0,3.025Z" transform="translate(-281.575 -112.989)" fill="#9d66d5"/>
    </g>
    <g id="Group_46" data-name="Group 46" transform="translate(71.212 51.893)">
      <path id="Path_40" data-name="Path 40" d="M379.762,182.616H365.3a1.512,1.512,0,1,1,0-3.025h14.463a1.512,1.512,0,1,1,0,3.025Z" transform="translate(-363.786 -179.591)" fill="#9d66d5"/>
    </g>
    <g id="Group_47" data-name="Group 47" transform="translate(76.101 58.412)">
      <path id="Path_41" data-name="Path 41" d="M399.849,215.917h-9.574a1.512,1.512,0,1,1,0-3.025h9.574a1.512,1.512,0,1,1,0,3.025Z" transform="translate(-388.762 -212.892)" fill="#9d66d5"/>
    </g>
    <g id="Group_48" data-name="Group 48" transform="translate(78.341 64.931)">
      <path id="Path_42" data-name="Path 42" d="M409.258,249.218H401.72a1.512,1.512,0,1,1,0-3.025h7.537a1.512,1.512,0,1,1,0,3.025Z" transform="translate(-400.208 -246.193)" fill="#9d66d5"/>
    </g>
    <g id="Group_49" data-name="Group 49" transform="translate(79.564 71.449)">
      <path id="Path_43" data-name="Path 43" d="M414.077,282.518h-6.111a1.512,1.512,0,0,1,0-3.025h6.111a1.512,1.512,0,0,1,0,3.025Z" transform="translate(-406.453 -279.493)" fill="#9d66d5"/>
    </g>
    <g id="Group_50" data-name="Group 50" transform="translate(11.525 45.375)">
      <path id="Path_44" data-name="Path 44" d="M84.222,149.315H60.387a1.512,1.512,0,0,1,0-3.025H84.222a1.512,1.512,0,0,1,0,3.025Z" transform="translate(-58.875 -146.29)" fill="#9d66d5"/>
    </g>
    <g id="Group_51" data-name="Group 51" transform="translate(11.525 38.856)">
      <path id="Path_45" data-name="Path 45" d="M90.944,116.014H60.387a1.512,1.512,0,1,1,0-3.025H90.944a1.512,1.512,0,1,1,0,3.025Z" transform="translate(-58.875 -112.989)" fill="#9d66d5"/>
    </g>
    <g id="Group_52" data-name="Group 52" transform="translate(11.525 51.893)">
      <path id="Path_46" data-name="Path 46" d="M74.851,182.616H60.387a1.512,1.512,0,0,1,0-3.025H74.851a1.512,1.512,0,0,1,0,3.025Z" transform="translate(-58.875 -179.591)" fill="#9d66d5"/>
    </g>
    <g id="Group_53" data-name="Group 53" transform="translate(11.525 58.412)">
      <path id="Path_47" data-name="Path 47" d="M69.963,215.917H60.388a1.512,1.512,0,1,1,0-3.025h9.574a1.512,1.512,0,0,1,0,3.025Z" transform="translate(-58.876 -212.892)" fill="#9d66d5"/>
    </g>
    <g id="Group_54" data-name="Group 54" transform="translate(11.321 64.931)">
      <path id="Path_48" data-name="Path 48" d="M66.885,249.218H59.347a1.512,1.512,0,1,1,0-3.025h7.537a1.512,1.512,0,0,1,0,3.025Z" transform="translate(-57.835 -246.193)" fill="#9d66d5"/>
    </g>
    <g id="Group_55" data-name="Group 55" transform="translate(11.525 71.449)">
      <path id="Path_49" data-name="Path 49" d="M66.5,282.518H60.387a1.512,1.512,0,0,1,0-3.025H66.5a1.512,1.512,0,0,1,0,3.025Z" transform="translate(-58.875 -279.493)" fill="#9d66d5"/>
    </g>
    <g id="Group_56" data-name="Group 56" transform="translate(25.667 50.146)">
      <path id="Path_50" data-name="Path 50" d="M234.986,423.594H226.8a2.017,2.017,0,0,1-2.017-2.017V416.26H237v5.317A2.017,2.017,0,0,1,234.986,423.594Z" transform="translate(-206.446 -368.185)" fill="#2b4d66"/>
      <path id="Path_51" data-name="Path 51" d="M242.585,461.057h-3.3a2.017,2.017,0,0,1-2.017-2.017v-5.317H244.6v5.317A2.017,2.017,0,0,1,242.585,461.057Z" transform="translate(-216.49 -398.314)" fill="#4a80aa"/>
      <circle id="Ellipse_15" data-name="Ellipse 15" cx="24.445" cy="24.445" r="24.445" fill="#407093"/>
      <path id="Path_52" data-name="Path 52" d="M190.8,196.09a24.445,24.445,0,0,1-34.251,34.251A24.445,24.445,0,1,0,190.8,196.09Z" transform="translate(-151.569 -191.113)" fill="#365e7d"/>
      <circle id="Ellipse_16" data-name="Ellipse 16" cx="17.926" cy="17.926" r="17.926" transform="translate(6.519 6.519)" fill="#e4f6ff"/>
      <path id="Path_53" data-name="Path 53" d="M208.121,222.551a17.926,17.926,0,0,1-25.114,25.114,17.926,17.926,0,1,0,25.114-25.114Z" transform="translate(-172.85 -212.394)" fill="#d3effb"/>
    </g>
  </g>
</svg>
