<svg xmlns="http://www.w3.org/2000/svg" width="19.381" height="19.381" viewBox="0 0 19.381 19.381">
  <path id="Search" d="M21.144,20.031l-3.331-3.257-.078-.119a.785.785,0,0,0-1.1,0,7.862,7.862,0,0,1-10.193.33A7.442,7.442,0,0,1,4.787,7.146,7.826,7.826,0,0,1,14.552,4.27a7.5,7.5,0,0,1,4.181,9.1.755.755,0,0,0,.176.748.8.8,0,0,0,.75.225.778.778,0,0,0,.574-.523,9.045,9.045,0,0,0-4.845-10.9A9.452,9.452,0,0,0,3.637,5.959,8.969,8.969,0,0,0,4.955,17.776a9.486,9.486,0,0,0,12.147.5l2.949,2.884a.793.793,0,0,0,1.1,0,.76.76,0,0,0,0-1.086Z" transform="translate(-2 -2)" fill="#1d3c4e"/>
</svg>
