<svg xmlns="http://www.w3.org/2000/svg" width="15.843" height="20" viewBox="0 0 15.843 20">
  <g id="Teacher-Icon-QZ" transform="translate(-507 -698)">
    <path id="Add_User" data-name="Add User" d="M9.921,2Zm0,12.64c-3.4,0-7.921.38-7.921,3.67,0,.985.456,2.315,2.631,3.054A.718.718,0,0,0,5.09,20C3.6,19.5,3.431,18.8,3.431,18.31c0-1.482,2.184-2.234,6.491-2.234s6.491.758,6.491,2.254-2.184,2.234-6.491,2.234c-.329,0-.653,0-.97-.014a.734.734,0,0,0-.735.7.717.717,0,0,0,.694.74c.332.008.67.013,1.012.013,3.4,0,7.921-.381,7.921-3.67C17.843,14.64,11.88,14.64,9.921,14.64Z" transform="translate(505 696)" fill="#258c93" fill-rule="evenodd"/>
    <g id="Ellipse_196" data-name="Ellipse 196" transform="translate(510 698)" fill="none" stroke="#ecb773" stroke-width="1.3">
      <circle cx="5" cy="5" r="5" stroke="none"/>
      <circle cx="5" cy="5" r="4.35" fill="none"/>
    </g>
  </g>
</svg>
