<svg xmlns="http://www.w3.org/2000/svg" width="75" height="95.542" viewBox="0 0 75 95.542">
  <g id="Group_293" data-name="Group 293" transform="translate(-1478 -1390)">
    <g id="write" transform="translate(1422.959 1390)">
      <path id="Path_74" data-name="Path 74" d="M240.641,7.169c-.2,4.729-2.848,11.629-7.434,18.677-1.166,1.791-2.458,3.594-3.866,5.372a70.51,70.51,0,0,1-9.646,10.01c-6.58,5.576-12.521,8.4-17.683,8.4q-.658,0-1.3-.062a11.28,11.28,0,0,1-4.361-1.3,8.92,8.92,0,0,1-2.254-1.706c-.045-.041-.093-.088-.147-.14a9.144,9.144,0,0,1-1.558-2.114,11.28,11.28,0,0,1-1.3-4.361c-.522-5.456,2.282-11.844,8.334-18.985q.7-.831,1.431-1.633a69.03,69.03,0,0,1,5.163-5.134,72.011,72.011,0,0,1,8.27-6.406c1.819-1.207,3.631-2.286,5.4-3.23,5.264-2.8,10.166-4.395,13.79-4.544,2.418-.1,4.26.467,5.477,1.681a4.994,4.994,0,0,1,.582.7A7.748,7.748,0,0,1,240.641,7.169Z" transform="translate(-110.611 0)" fill="#ffc400"/>
      <path id="Path_75" data-name="Path 75" d="M253.362,14.546c-.2,4.729-2.848,11.629-7.434,18.677-1.166,1.791-2.458,3.594-3.866,5.372a70.514,70.514,0,0,1-9.646,10.01c-6.58,5.576-12.521,8.4-17.683,8.4q-.658,0-1.3-.062a11.28,11.28,0,0,1-4.361-1.3,8.92,8.92,0,0,1-2.254-1.706c-.045-.041-.093-.088-.147-.14L251.681,9.069l.582.7A7.748,7.748,0,0,1,253.362,14.546Z" transform="translate(-123.332 -7.377)" fill="#ffa700"/>
      <path id="Path_76" data-name="Path 76" d="M184.066,36.834l13.611.83c-1.166,1.791-2.458,3.594-3.866,5.372l-15.031-.918L151.308,69.593l-3.96-3.96,19.327-19.325v0l-1.349-15.164a69.023,69.023,0,0,1,5.163-5.134l1.347,15.137,7.795-7.795v0L178.759,19.6c1.819-1.207,3.631-2.286,5.4-3.23l.743,11.7,13.548-13.548,1.969,1.969,1.989,1.989Z" transform="translate(-75.082 -11.818)" fill="#dd864d"/>
      <path id="Path_77" data-name="Path 77" d="M191.94,45.415l13.611.83c-1.166,1.791-2.458,3.594-3.866,5.372L186.654,50.7,159.181,78.174l-2.153-2.153L208.3,25.079l1.989,1.989Z" transform="translate(-82.955 -20.399)" fill="#d36836"/>
      <path id="Path_78" data-name="Path 78" d="M91.813,351.827c-2.129,11.331-12.95,15.087-13.41,15.242l-.435.146h-8.8l-.433-.146c-.461-.155-11.28-3.911-13.411-15.242a15.046,15.046,0,0,1,3.917-13.355,19.63,19.63,0,0,1,5.469-4.2l.577-.276H81.852l.575.276a19.625,19.625,0,0,1,5.471,4.2A15.045,15.045,0,0,1,91.813,351.827Z" transform="translate(0 -271.673)" fill="#00f8fe"/>
      <path id="Path_79" data-name="Path 79" d="M172,351.827c-2.129,11.331-12.95,15.087-13.409,15.242l-.435.146h-4.531V334h8.414l.575.276a19.626,19.626,0,0,1,5.471,4.2A15.045,15.045,0,0,1,172,351.827Z" transform="translate(-80.19 -271.673)" fill="#00cfff"/>
      <rect id="Rectangle_18" data-name="Rectangle 18" width="19.905" height="9.983" transform="translate(63.485 52.716)" fill="#005ed3"/>
      <rect id="Rectangle_19" data-name="Rectangle 19" width="9.952" height="9.983" transform="translate(73.439 52.716)" fill="#00459f"/>
    </g>
  </g>
</svg>
