<svg xmlns="http://www.w3.org/2000/svg" xmlns:xlink="http://www.w3.org/1999/xlink" width="585.664" height="431.998" viewBox="0 0 585.664 431.998">
  <defs>
    <linearGradient id="linear-gradient" x1="0.5" y1="1" x2="0.5" gradientUnits="objectBoundingBox">
      <stop offset="0" stop-color="gray" stop-opacity="0.251"/>
      <stop offset="0.54" stop-color="gray" stop-opacity="0.122"/>
      <stop offset="1" stop-color="gray" stop-opacity="0.102"/>
    </linearGradient>
  </defs>
  <g id="undraw_feeling_blue_4b7q_1_" data-name="undraw_feeling_blue_4b7q (1)" transform="translate(0.009 -0.004)">
    <path id="Path_1050" data-name="Path 1050" d="M61.83,433.31c9.248,35.74,28.809,66.636,59.72,81.613C185.812,546.047,330.738,530,438.9,511.569c55.951-9.53,105.129-35.831,140.854-72.844Z" transform="translate(-55.53 -226.191)" fill="#258c93" opacity="0.1"/>
    <path id="Path_1051" data-name="Path 1051" d="M642.16,83.174H582.813a4.663,4.663,0,1,1,0-9.28h10.265a4.663,4.663,0,1,1,0-9.28h-7.326a4.664,4.664,0,1,1,0-9.28h30.975a88.766,88.766,0,0,0-24.166-6.027C508.1,39.5,477.94,45.985,467.3,52.656A124.86,124.86,0,0,1,423.89,69.874C371.778,79.6,274.32,91.3,185.989,66.147,142.087,53.62,109.455,74.762,89.9,110.1H652.468c-.735-10.27-2.934-19.758-6.969-28.058a5.414,5.414,0,0,1-3.338,1.129Z" transform="translate(-68.656 -44.29)" fill="#258c93" opacity="0.1"/>
    <path id="Path_1052" data-name="Path 1052" d="M51.258,293.19a214.311,214.311,0,0,0,2.3,62.355L574.614,372.79a221.057,221.057,0,0,0,36.2-49.95Zm206.084,44.483H247.083a4.664,4.664,0,1,1,0,9.28H187.736a4.663,4.663,0,1,1,0-9.28H198a4.663,4.663,0,1,1,0-9.28h-7.331a4.664,4.664,0,1,1,0-9.28h59.347a4.663,4.663,0,1,1,0,9.28h7.326a4.663,4.663,0,1,1,0,9.28Z" transform="translate(-49.99 -160.672)" fill="#258c93" opacity="0.1"/>
    <path id="Path_1053" data-name="Path 1053" d="M635.011,168.5,66.144,181.012a188.739,188.739,0,0,0-13.624,53.15H625.044a201.941,201.941,0,0,0,8.263-33.877A145.022,145.022,0,0,0,635.011,168.5ZM168.02,209.522H157.761a4.666,4.666,0,1,1,0,9.285H98.413a4.665,4.665,0,1,1,0-9.285h10.265a4.663,4.663,0,1,1,0-9.28h-7.331a4.664,4.664,0,1,1,0-9.28h59.347a4.663,4.663,0,1,1,0,9.28h7.326a4.663,4.663,0,1,1,0,9.28Z" transform="translate(-51.177 -102.368)" fill="#258c93" opacity="0.1"/>
    <ellipse id="Ellipse_164" data-name="Ellipse 164" cx="237.975" cy="21.893" rx="237.975" ry="21.893" transform="translate(52.225 372.069)" fill="#258c93" opacity="0.1"/>
    <path id="Path_1054" data-name="Path 1054" d="M949.182,380.839a.813.813,0,0,1,0-.112v-.165h0a4.547,4.547,0,0,0-.676-1.709,13.465,13.465,0,0,0-4.93-4.664c-3.514-1.927-8.343-2.753-9.748-6.431a19.648,19.648,0,0,1-.655-3.572,10.8,10.8,0,0,0-7.129-8.109c-1.672-.559-3.477-.713-5.1-1.406-3.631-1.544-5.548-5.351-7.172-8.87q-3.152-6.815-6.3-13.635a5.3,5.3,0,0,1-5.159-.58,10.7,10.7,0,0,1-3.338-4.126c-2.167-4.206-3.1-8.971-5.644-12.975s-7.629-7.166-12.123-5.425a20.693,20.693,0,0,1-2.715,1.123c-3.849.9-8.109-3.5-11.4-1.363a3.728,3.728,0,0,0-1.294,1.416.626.626,0,0,1,0-.106,6.809,6.809,0,0,0-.7,2.779h0v.671c0,.767.048,1.544.059,2.321A10.339,10.339,0,0,1,865,317.85V317.8a6.573,6.573,0,0,1-.277,1.065c-.857,2.3-3.232,3.807-4.344,5.968v-.106a5.621,5.621,0,0,0-.325.729,5.431,5.431,0,0,0-.3,1.762c-.1,4.062,4.211,7.885,4.712,12.245.357,3.088,1.065,4.078,3.69,5.825l.575.383c-.229,0-.463.032-.724.037a1.769,1.769,0,0,0-.3.032,3.247,3.247,0,0,0-2.737.479c-2.013,1.6-6.772.367-8.886,0s-9.354.623-10.366,4.637-2.747,12.3-2.747,12.3,0,5.255-.644,6.234a.314.314,0,0,0,0,.213c0,1.475.053,10.339-1.374,12.623a5.158,5.158,0,0,0-.064,3.157c-1.5,1.933-2.912,4.19-2.662,5.67.458,3.029,6.6,12.554,15.408,7.454,0,0,5.01-9.163-1.294-14.034l.272-1.065c1.906,2.343,3.317,4.025,3.317,4.025s.075.2.192.532h-.192a25.025,25.025,0,0,1,1.48,6.964,8.519,8.519,0,0,1-.468,2.561h.165c-.048.181-.1.362-.165.532a4.642,4.642,0,0,1-1.656,2.241c-4.4,3.12-9.445,25.4-9.445,25.4s-9.988,36.017-11.984,38.067c-1.651,1.682,8.721,6.421,16.5,5.856a12.7,12.7,0,0,0,3.194-.607c.048.532.1,1.065.154,1.549.165,1.6.335,3.077.442,3.54.277,1.161.825,13.012.825,13.012a83.619,83.619,0,0,0-.852,13.055c0,.367.048.719.08,1.065l-.969.149c-1.469,3.3,4.584,30.842,5.409,33.158a22.054,22.054,0,0,1,.916,5.617,6.124,6.124,0,0,0-.091,3.029,7.366,7.366,0,0,1,.532,2.05,5.643,5.643,0,0,0,.186,2.939,5.562,5.562,0,0,1-.091,3.194s-.181,8.023-1.831,12.389a7.134,7.134,0,0,0,1.145,7.07,4.356,4.356,0,0,0,.373.431s9.1.075,10.707,0h.208c.644-.09,2.295-7.31.825-10.787s-.181-7.757-.181-7.757v-6.325s1.65-1.523,0-4.792-1.379-4.259-1.379-4.259,1.837-5.26-.09-6.953.367-8.114.367-8.114l.65-21.4a8.409,8.409,0,0,0-1.038-.266c-.037-.351-.075-.713-.112-1.1-.378-3.876-.7-9.147.138-10.648s1.246-14.609,1.379-23.719l8.391.319c.176,4.259.362,8.146.479,8.641.277,1.161.831,13.012.831,13.012a83.335,83.335,0,0,0-.857,13.055c0,.367.048.719.08,1.065l-.969.149c-1.469,3.3,4.584,30.842,5.409,33.158a22.176,22.176,0,0,1,.921,5.617,6.17,6.17,0,0,0-.1,3.029,7.37,7.37,0,0,1,.532,2.05,5.644,5.644,0,0,0,.186,2.939,5.562,5.562,0,0,1-.09,3.194s-.181,8.023-1.832,12.389a7.134,7.134,0,0,0,1.182,7.06,4.363,4.363,0,0,0,.373.431s9.1.075,10.707,0h.208c.644-.091,2.295-7.31.825-10.787s-.181-7.757-.181-7.757v-6.314s1.651-1.523,0-4.792-1.379-4.259-1.379-4.259,1.837-5.26-.091-6.953.367-8.114.367-8.114l.66-21.4a8.178,8.178,0,0,0-1.065-.266c-.037-.351-.075-.713-.112-1.1-.378-3.876-.7-9.147.138-10.648.676-1.23,1.065-9.152,1.241-16.888,0-.532,0-1.065.043-1.6a82.568,82.568,0,0,0,11.489-1.288s-4.488-15.871-3.115-18.453c.591-1.113-.261-7.038-1.427-13.422a9.328,9.328,0,0,0,5.739,2.076c2.007,3.86,8.114,12.741,11.553,14.109,4.036,1.6,1.006-12.565-.916-14.615a17.249,17.249,0,0,1-2.279-3.658c.053-.064.112-.117.165-.176s.1-15.067-.825-14.8-2.018-2.231-2.018-2.231l-2.843-24.954-1.193-10.446h0c1,.735,2.178,1.2,3.194,1.933,2.769,2.028,3.674,5.59,4.887,8.742a14.36,14.36,0,0,0,4.712,6.794c2.305,1.629,5.686,2.06,7.986.41,2.13-1.549,2.758-4.344,3.226-6.895,3.865,1.358,8.556-2.273,8.055-6.24-.122-.98-.485-2.05.027-2.907,1.022-1.693,4.259-.708,5.324-2.38a1.778,1.778,0,0,0,.266-.964A.661.661,0,0,0,949.182,380.839Zm-51.7,13.725c-.059.953,1.251,8.609,2.316,14.668-.873-3.775-2.625-7.805-6.075-10.568a4.782,4.782,0,0,0-.043-.532h.043s-.144-1.523-.165-3.69a40.643,40.643,0,0,1,.426-5.739v-.048h-.069a3.036,3.036,0,0,1,.069-.484,17.306,17.306,0,0,1,1.294-4.653,12.9,12.9,0,0,1,.985-1.672c.57,5.148,1.272,11.756,1.219,12.719Zm2.864,17.74c.469,2.614.8,4.451.8,4.451l2.827,19.412v.09c-1.523-8.194-3.466-16.829-3.466-16.829a33.538,33.538,0,0,0-.165-7.124Z" transform="translate(-416.438 -167.704)" fill="url(#linear-gradient)"/>
    <path id="Path_1055" data-name="Path 1055" d="M889.818,341.564c-.532-4.919-5.856-9.163-4.259-13.843.868-2.55,3.583-4.11,4.5-6.644.607-1.672.335-3.509.341-5.287s.421-3.764,1.9-4.749c3.194-2.13,7.3,2.252,11.031,1.358a19.519,19.519,0,0,0,2.625-1.118c4.35-1.73,9.269,1.422,11.713,5.4s3.359,8.731,5.457,12.916a10.6,10.6,0,0,0,3.226,4.1,5.015,5.015,0,0,0,4.994.58l6.1,13.576c1.6,3.5,3.429,7.289,6.921,8.827,1.565.687,3.312.841,4.93,1.4a10.648,10.648,0,0,1,6.921,8.066,19.884,19.884,0,0,0,.634,3.562c1.358,3.663,6.027,4.483,9.429,6.389a13.188,13.188,0,0,1,4.792,4.637c.532.921.99,2.13.421,3.035-1.028,1.661-4.153.681-5.143,2.369-.5.852-.149,1.917,0,2.9.484,3.945-4.057,7.56-7.794,6.208-.453,2.54-1.065,5.324-3.12,6.863-2.209,1.65-5.484,1.214-7.715-.4a14.27,14.27,0,0,1-4.552-6.762c-1.177-3.141-2.055-6.687-4.733-8.7-.969-.724-2.13-1.193-3.077-1.922-2.13-1.629-3.194-4.318-3.956-6.921a72.439,72.439,0,0,0-3.194-9.653,14.529,14.529,0,0,0-6.778-7.321c-2.9-1.3-6.245-1.219-9.243-2.279-5.159-1.821-8.976-6.16-14.109-8.2a22.836,22.836,0,0,1-4.632-2.619C890.861,345.626,890.159,344.641,889.818,341.564Z" transform="translate(-440.561 -168.743)" fill="#16666c"/>
    <g id="Group_374" data-name="Group 374" transform="translate(444.737 143.592)" opacity="0.1">
      <path id="Path_1056" data-name="Path 1056" d="M894.72,321.689a5.39,5.39,0,0,0,.287-.644c.6-1.672.335-3.509.341-5.287a9.5,9.5,0,0,1,.165-1.768,7.456,7.456,0,0,0-.7,3.365A24.5,24.5,0,0,1,894.72,321.689Z" transform="translate(-889.721 -313.99)"/>
      <path id="Path_1057" data-name="Path 1057" d="M955.965,414.887c-2.209,1.645-5.484,1.214-7.715-.41a14.034,14.034,0,0,1-4.531-6.767c-1.177-3.141-2.05-6.687-4.733-8.7-.964-.724-2.13-1.2-3.072-1.922-2.13-1.629-3.194-4.318-3.961-6.895a71.665,71.665,0,0,0-3.194-9.653,14.528,14.528,0,0,0-6.778-7.321c-2.9-1.3-6.24-1.219-9.237-2.279-5.164-1.821-8.982-6.16-14.109-8.2A23.133,23.133,0,0,1,894,360.113c-2.524-1.741-3.194-2.726-3.567-5.8-.532-4.611-5.218-8.63-4.488-12.975a6.758,6.758,0,0,0-.314.724c-1.6,4.685,3.727,8.928,4.259,13.843.346,3.072,1.065,4.057,3.567,5.8a23.133,23.133,0,0,0,4.637,2.619c5.127,2.044,8.944,6.389,14.109,8.2,3,1.065,6.341.974,9.237,2.279,3.1,1.4,5.324,4.259,6.778,7.321a65.29,65.29,0,0,1,3.194,9.653c.783,2.577,1.81,5.266,3.961,6.895.964.724,2.13,1.2,3.072,1.922,2.662,2.018,3.557,5.564,4.733,8.7a14.265,14.265,0,0,0,4.557,6.756c2.231,1.618,5.505,2.055,7.715.41a7.863,7.863,0,0,0,2.6-4.43,6.538,6.538,0,0,1-2.087,2.848Z" transform="translate(-885.331 -326.779)"/>
      <path id="Path_1058" data-name="Path 1058" d="M1038.318,447.713a2.242,2.242,0,0,0-.255,1.246c1.2-1.187,3.918-.49,4.866-2.018a1.944,1.944,0,0,0,.245-1.251C1041.939,446.861,1039.224,446.164,1038.318,447.713Z" transform="translate(-956.743 -375.572)"/>
      <path id="Path_1059" data-name="Path 1059" d="M1023.57,463.742c-.1.532-.2,1.1-.33,1.656,3.258,1.017,7.023-1.6,7.555-4.9C1029.5,463.04,1026.307,464.738,1023.57,463.742Z" transform="translate(-949.816 -382.497)"/>
    </g>
    <path id="Path_1060" data-name="Path 1060" d="M902.218,371.017s1.773,3.578-3.461,3.652,3.37,23.234,3.37,23.234l8.7,11.074,10.824-5.857.623-16.153.8-9.759s-10.116-3.285-8.252-7.629S902.218,371.017,902.218,371.017Z" transform="translate(-446.082 -195.635)" fill="#fbbebe"/>
    <path id="Path_1061" data-name="Path 1061" d="M965.75,543.92s6.389,6.288,13.843-2.055l-5.723-6.075h-7.241Z" transform="translate(-478.197 -274.11)" fill="#575a89"/>
    <path id="Path_1062" data-name="Path 1062" d="M966.278,535.79l-.879,8.13s6.389,6.288,13.843-2.055" transform="translate(-478.033 -274.11)" opacity="0.1"/>
    <path id="Path_1063" data-name="Path 1063" d="M981.007,537.87s2.572,6.746,4.435,8.785,4.792,16.148.889,14.551-11.356-13.486-11.8-15.525a69.031,69.031,0,0,1-.618-7.81Z" transform="translate(-482.013 -275.083)" fill="#fbbebe"/>
    <path id="Path_1064" data-name="Path 1064" d="M832.42,546.656l34.426,1.331-3.993-14.556-17.341-.351Z" transform="translate(-389.238 -249.262)" fill="#575a89"/>
    <path id="Path_1065" data-name="Path 1065" d="M841.41,546.656l34.431,1.331-3.993-14.556L854.5,533.08Z" transform="translate(-393.441 -249.262)" opacity="0.1"/>
    <path id="Path_1066" data-name="Path 1066" d="M889.388,619.5c-.815,1.517-.5,6.767-.133,10.648.234,2.47.49,4.371.49,4.371s-12.868,3.993-14.817.532a10.525,10.525,0,0,1-.825-4.222,85.148,85.148,0,0,1,.825-13s-.532-11.8-.8-12.953c-.107-.463-.272-1.933-.431-3.525-.234-2.364-.458-4.994-.458-4.994l17.569-9.317s0,1.746-.032,4.435C890.682,599.919,890.4,617.632,889.388,619.5Z" transform="translate(-434.94 -298.074)" fill="#fbbebe"/>
    <path id="Path_1067" data-name="Path 1067" d="M890.5,672.1s-12.868,3.993-14.817.532a10.525,10.525,0,0,1-.825-4.222c2.662-.4,10.765-1.523,15.152-.682C890.247,670.2,890.5,672.1,890.5,672.1Z" transform="translate(-435.698 -335.662)" opacity="0.1"/>
    <path id="Path_1068" data-name="Path 1068" d="M889.992,740.12h-.2c-1.549.059-10.355,0-10.355,0a4.8,4.8,0,0,1-.362-.426,7.262,7.262,0,0,1-1.145-7.028c1.6-4.35,1.773-12.336,1.773-12.336a5.717,5.717,0,0,0,.09-3.194,5.766,5.766,0,0,1-.181-2.928,7.588,7.588,0,0,0-.532-2.039,6.083,6.083,0,0,1,.091-3.019,22.6,22.6,0,0,0-.889-5.59c-.8-2.305-6.655-29.724-5.234-33.009,0,0,12.421-2.13,17.128-.532l-.623,21.3s-2.22,6.389-.357,8.077.09,6.921.09,6.921-.266.974,1.331,4.259,0,4.792,0,4.792v6.3s-1.241,4.259.176,7.72S890.615,740.009,889.992,740.12Z" transform="translate(-434.746 -336.596)" fill="#16666c"/>
    <path id="Path_1069" data-name="Path 1069" d="M936.678,617.111c-.815,1.517-.5,6.767-.133,10.648.234,2.47.49,4.371.49,4.371s-12.868,3.993-14.817.532a10.526,10.526,0,0,1-.825-4.222,85.143,85.143,0,0,1,.825-13s-.532-11.8-.8-12.953c-.144-.623-.394-6.565-.591-11.894-.165-4.547-.3-8.657-.3-8.657l17.569,2.715s0,7.725-.218,15.663C937.689,608.017,937.333,615.908,936.678,617.111Z" transform="translate(-457.052 -295.689)" fill="#fbbebe"/>
    <path id="Path_1070" data-name="Path 1070" d="M937.792,672.1s-12.868,3.993-14.817.532a10.525,10.525,0,0,1-.825-4.222c2.662-.4,10.765-1.523,15.152-.682C937.536,670.2,937.792,672.1,937.792,672.1Z" transform="translate(-457.81 -335.662)" opacity="0.1"/>
    <path id="Path_1071" data-name="Path 1071" d="M937.268,740.1h-.2c-1.549.059-10.355,0-10.355,0a4.8,4.8,0,0,1-.362-.426,7.262,7.262,0,0,1-1.145-7.028c1.6-4.371,1.757-12.357,1.757-12.357a5.717,5.717,0,0,0,.09-3.194,5.766,5.766,0,0,1-.181-2.928,7.584,7.584,0,0,0-.532-2.039,6.083,6.083,0,0,1,.09-3.019,22.6,22.6,0,0,0-.889-5.59c-.8-2.305-6.655-29.724-5.234-33.009,0,0,12.421-2.13,17.128-.532l-.623,21.3s-2.22,6.389-.357,8.077.09,6.921.09,6.921-.266.974,1.331,4.259,0,4.792,0,4.792v6.3s-1.241,4.259.176,7.72S937.891,739.99,937.268,740.1Z" transform="translate(-456.844 -336.578)" fill="#16666c"/>
    <circle id="Ellipse_165" data-name="Ellipse 165" cx="12.512" cy="12.512" r="12.512" transform="translate(450.545 154.544)" opacity="0.1"/>
    <circle id="Ellipse_166" data-name="Ellipse 166" cx="12.512" cy="12.512" r="12.512" transform="translate(450.545 154.011)" fill="#fbbebe"/>
    <path id="Path_1072" data-name="Path 1072" d="M873.24,596.357l17.569-9.317s0,1.746-.032,4.435c-2.566,1.533-6.437,3.839-10.158,6.016-2.023,1.187-4,2.337-5.691,3.3a7.566,7.566,0,0,1-1.23.532C873.464,598.987,873.24,596.357,873.24,596.357Z" transform="translate(-434.94 -298.074)" opacity="0.1"/>
    <path id="Path_1073" data-name="Path 1073" d="M938.118,584.615s0,7.725-.218,15.663h-.064a29.545,29.545,0,0,1-3.934-.122c-2.295-.245-4.132-.852-4.792-2.055-1.336-2.343-5.079-5.324-8.242-7.544-.165-4.547-.3-8.657-.3-8.657Z" transform="translate(-457.071 -295.671)" opacity="0.1"/>
    <path id="Path_1074" data-name="Path 1074" d="M896.119,422.026a50.669,50.669,0,0,0-.256,10.451c8.071,6.655,6.565,20.673,6.565,20.673s6.213,28.4,4.882,30.97,3.013,18.368,3.013,18.368a77.466,77.466,0,0,1-11.218,1.288,29.534,29.534,0,0,1-3.934-.122c-2.295-.245-4.131-.852-4.792-2.055-2.481-4.344-13.22-10.824-13.22-10.824s-6.8,4.078-13.14,7.789c-2.023,1.187-4,2.337-5.691,3.3a10.563,10.563,0,0,1-4.446,1.219c-7.534.559-17.569-4.158-15.972-5.83,1.954-2.044,11.628-37.891,11.628-37.891s4.877-22.185,9.136-25.289a4.606,4.606,0,0,0,1.6-2.231c1.459-4.052-.98-10.547-.98-10.547s-13.752-16.947-13.135-17.926.623-6.208.623-6.208,1.688-8.252,2.662-12.245,7.986-4.973,10.025-4.616,6.65,1.6,8.6,0,5.239.623,5.239.623l8.082,2.225,7.267-4.259s7.283.373,7.906,1.347,10.206,2.843,10.206,2.843c4.877,3.28,4.7,18.9,4.7,18.9s-11.713,10.2-14.109,15.44a17.6,17.6,0,0,0-1.24,4.605Z" transform="translate(-418.341 -200.745)" fill="#258c93"/>
    <path id="Path_1075" data-name="Path 1075" d="M961.416,418.2l2.662,2.13,2.753,24.757,2.747,24.847s1.065,2.486,1.954,2.22.8,14.726.8,14.726-10.19-6.266-13.843,2.055l-2.843-20.066s-3.642-20.5-3.551-22.095-1.863-18.9-1.863-18.9Z" transform="translate(-470.94 -219.126)" fill="#258c93"/>
    <path id="Path_1076" data-name="Path 1076" d="M854.133,420.37l-1.954,2.4s.181,10.291-1.331,12.778,4.174,17.037,6.3,16.148,6.921-23.6,6.921-23.868S854.133,420.37,854.133,420.37Z" transform="translate(-424.352 -220.14)" fill="#575a89"/>
    <path id="Path_1077" data-name="Path 1077" d="M851.822,447.87s-6.213,6.3-5.771,9.317,6.389,12.5,14.907,7.406C860.958,464.593,868.859,449.733,851.822,447.87Z" transform="translate(-422.216 -232.999)" fill="#575a89"/>
    <path id="Path_1078" data-name="Path 1078" d="M895.277,801.016c-1.549.059-10.355,0-10.355,0a4.777,4.777,0,0,1-.362-.426C886.812,799.823,891.678,798.673,895.277,801.016Z" transform="translate(-440.233 -397.476)" opacity="0.1"/>
    <path id="Path_1079" data-name="Path 1079" d="M942.587,801.016c-1.549.059-10.355,0-10.355,0a4.778,4.778,0,0,1-.362-.426C934.111,799.823,938.978,798.673,942.587,801.016Z" transform="translate(-462.355 -397.476)" opacity="0.1"/>
    <path id="Path_1080" data-name="Path 1080" d="M878.8,509.11c-1.358,13.023-.91,38.866-.628,50.344-2.023,1.187-4,2.337-5.691,3.3a10.563,10.563,0,0,1-4.446,1.219C867.47,560.5,875.286,524.848,878.8,509.11Z" transform="translate(-432.492 -261.635)" opacity="0.1"/>
    <path id="Path_1081" data-name="Path 1081" d="M889.941,495.23c-.037.186-.681,3.019-1.661,7.39C888.663,498.888,889.2,496.21,889.941,495.23Z" transform="translate(-441.973 -255.144)" opacity="0.1"/>
    <path id="Path_1082" data-name="Path 1082" d="M919.006,492.59s7.544,47.384-14.8,53.241C904.2,545.809,919.666,543.461,919.006,492.59Z" transform="translate(-449.421 -253.91)" opacity="0.1"/>
    <path id="Path_1083" data-name="Path 1083" d="M944.251,556.451a29.535,29.535,0,0,1-3.935-.122L934.29,491.54C938.134,494.053,942.734,540.032,944.251,556.451Z" transform="translate(-463.487 -253.419)" opacity="0.1"/>
    <path id="Path_1084" data-name="Path 1084" d="M899.776,336.336a3.3,3.3,0,0,1,1.187.122,5.18,5.18,0,0,1,1.5,1.129,5.351,5.351,0,0,0,5.079.985,6.7,6.7,0,0,1,1.911-.532,3.045,3.045,0,0,1,2.422,1.6c.527.852.8,1.863,1.251,2.774a3.486,3.486,0,0,0,2.172,2,3.8,3.8,0,0,1,1.384.319,1.959,1.959,0,0,1,.6.825c.831,1.794,1.491,3.913,3.264,4.792a4.882,4.882,0,0,0,2.082.453,4.35,4.35,0,0,0,2.13-.383,4.078,4.078,0,0,0,1.565-1.56,9.729,9.729,0,0,0,.974-6.224,17.122,17.122,0,0,0-2.785-7.486,15.626,15.626,0,0,0-14.3-6.6,19.92,19.92,0,0,0-2.848.532c-3.386.905-6.708,2.6-8.763,5.436a18.452,18.452,0,0,1-1.635,2.012C897.9,336.437,898.839,336.358,899.776,336.336Z" transform="translate(-446.036 -177.171)" opacity="0.1"/>
    <path id="Path_1085" data-name="Path 1085" d="M899.776,335.336a3.3,3.3,0,0,1,1.187.122,5.18,5.18,0,0,1,1.5,1.129,5.351,5.351,0,0,0,5.079.985,6.7,6.7,0,0,1,1.911-.532,3.045,3.045,0,0,1,2.422,1.6c.527.852.8,1.863,1.251,2.774a3.486,3.486,0,0,0,2.172,2,3.8,3.8,0,0,1,1.384.319,1.96,1.96,0,0,1,.6.825c.831,1.794,1.491,3.913,3.264,4.792a4.882,4.882,0,0,0,2.082.453,4.35,4.35,0,0,0,2.13-.383,4.079,4.079,0,0,0,1.565-1.56,9.73,9.73,0,0,0,.974-6.224,17.122,17.122,0,0,0-2.785-7.486,15.626,15.626,0,0,0-14.3-6.6,19.923,19.923,0,0,0-2.848.532c-3.386.905-6.708,2.6-8.763,5.436a18.449,18.449,0,0,1-1.635,2.012C897.9,335.437,898.839,335.358,899.776,335.336Z" transform="translate(-446.036 -176.704)" fill="#16666c"/>
    <path id="Path_1086" data-name="Path 1086" d="M874.829,398.2s.623,4.973-1.507,6.213S874.829,398.2,874.829,398.2Z" transform="translate(-434.666 -209.774)" opacity="0.1"/>
    <path id="Path_1087" data-name="Path 1087" d="M961.57,465.528s5.058-7.454,5.771-5.324S961.57,465.528,961.57,465.528Z" transform="translate(-476.243 -238.587)" opacity="0.1"/>
    <path id="Path_1088" data-name="Path 1088" d="M962.24,471.439s4.989-6.123,5.468-3.727S962.24,471.439,962.24,471.439Z" transform="translate(-476.556 -242.017)" opacity="0.1"/>
    <path id="Path_1089" data-name="Path 1089" d="M908.31,459.663a8.1,8.1,0,0,1-5.015-1.651h-.437a7.88,7.88,0,0,1-5.478,2.06,7.773,7.773,0,0,1-5.681-2.279h-.58a8.364,8.364,0,0,1-10.8-.2l-2.082-.037s2.438,6.5.98,10.547l35.581.634a50.669,50.669,0,0,1,.255-10.451v-.048L913.1,458.2a8.189,8.189,0,0,1-4.792,1.459Z" transform="translate(-437.278 -237.53)" opacity="0.1"/>
    <path id="Path_1090" data-name="Path 1090" d="M908.31,461.663a8.1,8.1,0,0,1-5.015-1.651h-.437a7.88,7.88,0,0,1-5.478,2.06,7.773,7.773,0,0,1-5.681-2.279h-.58a8.364,8.364,0,0,1-10.8-.2l-2.082-.037s2.438,6.5.98,10.547l35.581.634a50.669,50.669,0,0,1,.255-10.451v-.048L913.1,460.2a8.189,8.189,0,0,1-4.792,1.459Z" transform="translate(-437.278 -238.465)" opacity="0.1"/>
    <path id="Path_1091" data-name="Path 1091" d="M908.31,460.663a8.1,8.1,0,0,1-5.015-1.651h-.437a7.88,7.88,0,0,1-5.478,2.06,7.773,7.773,0,0,1-5.681-2.279h-.58a8.364,8.364,0,0,1-10.8-.2l-2.082-.037s2.438,6.5.98,10.547l35.581.634a50.669,50.669,0,0,1,.255-10.451v-.048L913.1,459.2a8.189,8.189,0,0,1-4.792,1.459Z" transform="translate(-437.278 -237.998)" fill="#16666c"/>
    <path id="Path_1092" data-name="Path 1092" d="M931.75,395.83s7.491.479,7.539,1.544S931.75,395.83,931.75,395.83Z" transform="translate(-462.299 -208.666)" opacity="0.1"/>
    <path id="Path_1093" data-name="Path 1093" d="M890.949,387.3s-7.491.479-7.539,1.544S890.949,387.3,890.949,387.3Z" transform="translate(-439.695 -204.677)" opacity="0.1"/>
    <path id="Path_1094" data-name="Path 1094" d="M943.368,428.064c-.075-.053-.149-.1-.224-.144,1.917,1.725,1.6,5.494-.756,8.6s-5.926,4.4-8.1,3.008c.069.059.128.122.2.181,2.13,1.629,5.857.351,8.316-2.864S945.508,429.7,943.368,428.064Z" transform="translate(-463.487 -223.671)" opacity="0.1"/>
    <path id="Path_1095" data-name="Path 1095" d="M872.52,435.755c-1.9-3.418-1.65-7.193.5-8.625-.08.037-.165.069-.245.112-2.353,1.31-2.662,5.234-.713,8.769s5.462,5.324,7.816,4.036a2.049,2.049,0,0,0,.224-.149C877.748,440.962,874.415,439.173,872.52,435.755Z" transform="translate(-433.788 -223.301)" opacity="0.1"/>
    <path id="Path_1096" data-name="Path 1096" d="M876.668,388.063h0l-.687,1.065-1.752-.932.921-1.416A3.86,3.86,0,0,1,876.668,388.063Z" transform="translate(-435.403 -204.434)" opacity="0.1"/>
    <path id="Path_1097" data-name="Path 1097" d="M856.387,442.155s1.56-7.337-.532-9.669-1.422-14.556,1.773-14.29,7.986,9.935,7.188,11.979S861,442.687,861,442.687Z" transform="translate(-426.249 -219.122)" fill="#fbbebe"/>
    <path id="Path_1098" data-name="Path 1098" d="M926.282,352.768a4.078,4.078,0,0,1-1.565,1.56,4.35,4.35,0,0,1-2.13.383,4.882,4.882,0,0,1-2.082-.453c-1.773-.884-2.433-3-3.264-4.792a1.959,1.959,0,0,0-.543-.841,3.8,3.8,0,0,0-1.368-.335,3.514,3.514,0,0,1-2.172-2c-.458-.905-.729-1.906-1.251-2.774a2.932,2.932,0,0,0-2.422-1.6,6.544,6.544,0,0,0-1.911.559,5.367,5.367,0,0,1-5.079-.99,5.181,5.181,0,0,0-1.5-1.129,3.3,3.3,0,0,0-1.187-.122c-.612,0-1.219.059-1.831.106a13.379,13.379,0,0,1-.974,1.139c.932-.08,1.869-.16,2.806-.181a3.3,3.3,0,0,1,1.187.122,5.18,5.18,0,0,1,1.5,1.129,5.367,5.367,0,0,0,5.079.99,6.544,6.544,0,0,1,1.911-.559,3.045,3.045,0,0,1,2.422,1.6c.527.852.8,1.863,1.251,2.774a3.486,3.486,0,0,0,2.172,2,3.8,3.8,0,0,1,1.368.335,1.959,1.959,0,0,1,.6.825c.831,1.794,1.491,3.913,3.264,4.792a4.882,4.882,0,0,0,2.082.453,4.35,4.35,0,0,0,2.13-.383,4.079,4.079,0,0,0,1.565-1.56,8.832,8.832,0,0,0,1.065-4.93A8.134,8.134,0,0,1,926.282,352.768Z" transform="translate(-446.05 -182.668)" opacity="0.1"/>
    <ellipse id="Ellipse_167" data-name="Ellipse 167" cx="4.792" cy="3.248" rx="4.792" ry="3.248" transform="translate(427.705 222.357)" fill="#575a89"/>
    <circle id="Ellipse_168" data-name="Ellipse 168" cx="164.248" cy="164.248" r="164.248" transform="translate(112.062 77.888)" fill="#258c93"/>
    <path id="Path_1099" data-name="Path 1099" d="M579.471,592.126c0,25.928-40.761,2.215-84.461,2.215s-87.9,22.734-87.9-3.194c0-14.785,14.087-35.346,34.3-50.281h0c15.227-11.255,33.925-19.316,52.708-19.316,19.316,0,38.237,8.726,53.331,20.705C566.5,557.36,579.471,577.655,579.471,592.126Z" transform="translate(-216.981 -267.451)" fill="#444053"/>
    <path id="Path_1100" data-name="Path 1100" d="M577.564,542.235c-23.229-3.5-65.241-7.763-106.034-1.39,15.227-11.255,33.925-19.316,52.708-19.316C543.549,521.53,562.47,530.256,577.564,542.235Z" transform="translate(-247.103 -267.442)" fill="#f6f8fb"/>
    <path id="Path_1101" data-name="Path 1101" d="M364.01,281.31s-49.477,31.63-49.072,81.107S364.01,281.31,364.01,281.31Z" transform="translate(-173.881 -155.117)" opacity="0.05"/>
    <path id="Path_1102" data-name="Path 1102" d="M842.251,113.469s-44.829-2.7-39.542,28.713c0,0-1.065,5.548,3.982,8.071,0,0,.08-2.327,4.595-1.539a20.763,20.763,0,0,0,4.871.234,10.116,10.116,0,0,0,5.952-2.46h0s12.6-5.2,17.505-25.8c0,0,3.626-4.494,3.482-5.644l-7.566,3.226s2.582,5.457.532,9.993c0,0-.245-9.791-1.7-9.583-.293.048-3.929,1.89-3.929,1.89s4.446,9.509,1.065,16.414c0,0,1.272-11.713-2.481-15.727l-5.324,3.109s5.2,9.818,1.672,17.83c0,0,.905-12.288-2.79-17.074l-4.829,3.764s4.882,9.679,1.906,16.324c0,0-.389-14.306-2.949-15.387,0,0-4.222,3.727-4.866,5.255,0,0,3.344,7.022,1.272,10.728,0,0-1.272-9.53-2.316-9.583,0,0-4.206,6.314-4.648,10.648,0,0,.186-6.442,3.626-11.25,0,0-4.068.7-6.437,3.338,0,0,.655-4.467,7.454-4.856,0,0,3.477-4.792,4.408-5.079,0,0-6.788-.57-10.9,1.256,0,0,3.62-4.211,12.144-2.3l4.792-3.887s-8.934-1.225-12.725.128c0,0,4.36-3.727,14.008-1.012l5.191-3.1s-7.619-1.64-12.16-1.065c0,0,4.792-2.582,13.677.218l3.727-1.666s-5.585-1.1-7.219-1.267-1.72-.628-1.72-.628a19.353,19.353,0,0,1,10.5,1.219S842.384,113.964,842.251,113.469Z" transform="translate(-401.758 -76.608)" fill="#258c93"/>
    <path id="Path_1103" data-name="Path 1103" d="M775.139,87.267s-20.232-1.225-17.868,12.969a3.462,3.462,0,0,0,1.8,3.647s.032-1.065,2.076-.692a9.616,9.616,0,0,0,2.2.106,4.627,4.627,0,0,0,2.694-1.113h0s5.691-2.353,7.906-11.66c0,0,1.64-2.028,1.6-2.55l-3.418,1.459a6.114,6.114,0,0,1,.25,4.515s-.112-4.424-.767-4.318c-.133,0-1.778.852-1.778.852s2.013,4.3.5,7.416c0,0,.575-5.292-1.118-7.108L766.8,92.2s2.348,4.44.756,8.061c0,0,.4-5.553-1.262-7.715l-2.183,1.7s2.2,4.371.863,7.374c0,0-.176-6.463-1.336-6.953a13.351,13.351,0,0,0-2.2,2.375s1.512,3.194.575,4.85c0,0-.575-4.307-1.065-4.323,0,0-1.9,2.848-2.1,4.792a10.372,10.372,0,0,1,1.634-5.084,5.7,5.7,0,0,0-2.907,1.507s.293-2.018,3.375-2.194a13.281,13.281,0,0,1,1.991-2.295,12.484,12.484,0,0,0-4.925.57s1.635-1.906,5.489-1.065l2.13-1.752s-4.036-.532-5.75.053c0,0,1.97-1.682,6.33-.453l2.343-1.406a21.3,21.3,0,0,0-5.494-.474s2.167-1.166,6.181.1l1.677-.756s-2.524-.5-3.258-.57-.783-.282-.783-.282a8.726,8.726,0,0,1,4.738.532S775.2,87.49,775.139,87.267Z" transform="translate(-380.624 -64.371)" fill="#258c93"/>
    <ellipse id="Ellipse_169" data-name="Ellipse 169" cx="14.338" cy="2.422" rx="14.338" ry="2.422" transform="translate(556.979 383.82)" fill="#258c93" opacity="0.1"/>
    <ellipse id="Ellipse_170" data-name="Ellipse 170" cx="14.338" cy="2.422" rx="14.338" ry="2.422" transform="translate(10.559 424.117)" fill="#258c93" opacity="0.1"/>
    <ellipse id="Ellipse_171" data-name="Ellipse 171" cx="14.338" cy="2.422" rx="14.338" ry="2.422" transform="translate(93.79 427.158)" fill="#258c93" opacity="0.1"/>
    <ellipse id="Ellipse_172" data-name="Ellipse 172" cx="21.408" cy="3.62" rx="21.408" ry="3.62" transform="translate(518.528 408.582)" fill="#258c93"/>
    <path id="Path_1104" data-name="Path 1104" d="M1063.373,798.734a6.244,6.244,0,0,0,2.044-3.083,2.747,2.747,0,0,0-1.427-3.136c-1.31-.5-2.71.41-3.77,1.326s-2.279,1.959-3.668,1.768a5.574,5.574,0,0,0,1.725-5.223,2.195,2.195,0,0,0-.479-1.065c-.729-.777-2.044-.447-2.918.165-2.768,1.949-3.541,5.707-3.556,9.094a17.088,17.088,0,0,1-.048-3.727,3.85,3.85,0,0,0-1.406-3.317,4.259,4.259,0,0,0-2.13-.5,4.431,4.431,0,0,0-3.482.985c-1.065,1.134-.783,3.029.138,4.259a13.81,13.81,0,0,0,3.6,2.886,7.984,7.984,0,0,1,2.577,2.454,2.568,2.568,0,0,1,.192.442h7.8a21.7,21.7,0,0,0,4.808-3.328Z" transform="translate(-514.588 -392.447)" fill="#258c93"/>
    <path id="Path_1105" data-name="Path 1105" d="M102.254,723.55s2.923,3.823-1.352,9.583-7.8,10.648-6.389,14.247c0,0,6.447-10.723,11.713-10.877S108.025,730,102.254,723.55Z" transform="translate(-70.665 -361.905)" fill="#258c93"/>
    <path id="Path_1106" data-name="Path 1106" d="M102.4,723.55a4.792,4.792,0,0,1,.6,1.2c5.122,6.016,7.848,11.633,2.928,11.771-4.589.133-10.116,8.332-11.409,10.4a4.951,4.951,0,0,0,.16.474s6.447-10.723,11.713-10.877S108.176,730,102.4,723.55Z" transform="translate(-70.816 -361.905)" opacity="0.1"/>
    <path id="Path_1107" data-name="Path 1107" d="M118.946,731.934c0,1.347-.154,2.438-.341,2.438s-.335-1.065-.335-2.438.186-.713.378-.713S118.946,730.587,118.946,731.934Z" transform="translate(-81.921 -365.418)" fill="#ffd037"/>
    <path id="Path_1108" data-name="Path 1108" d="M120.974,734.911c-1.182.644-2.209,1.033-2.3.868s.8-.815,1.981-1.459.713-.176.8,0S122.178,734.267,120.974,734.911Z" transform="translate(-82.108 -366.787)" fill="#ffd037"/>
    <path id="Path_1109" data-name="Path 1109" d="M74.539,723.55s-2.923,3.823,1.347,9.583,7.8,10.648,6.389,14.247c0,0-6.453-10.723-11.713-10.877S68.763,730,74.539,723.55Z" transform="translate(-58.401 -361.905)" fill="#258c93"/>
    <path id="Path_1110" data-name="Path 1110" d="M74.533,723.55a4.594,4.594,0,0,0-.6,1.2c-5.122,6.016-7.853,11.633-2.928,11.771,4.584.133,10.116,8.332,11.4,10.4a4.92,4.92,0,0,1-.154.474s-6.453-10.723-11.713-10.877S68.756,730,74.533,723.55Z" transform="translate(-58.394 -361.905)" opacity="0.1"/>
    <path id="Path_1111" data-name="Path 1111" d="M70.1,731.934c0,1.347.149,2.438.335,2.438s.335-1.065.335-2.438-.186-.713-.373-.713S70.1,730.587,70.1,731.934Z" transform="translate(-59.397 -365.418)" fill="#ffd037"/>
    <path id="Path_1112" data-name="Path 1112" d="M65.961,734.911c1.182.644,2.215,1.033,2.305.868s-.8-.815-1.981-1.459-.719-.176-.8,0S64.779,734.267,65.961,734.911Z" transform="translate(-57.127 -366.787)" fill="#ffd037"/>
    <path id="Path_1113" data-name="Path 1113" d="M71.85,763.512s8.178-.25,10.648-2.007,12.581-3.849,13.193-1.065,12.288,14,3.056,14.077-21.451-1.443-23.91-2.939S71.85,763.512,71.85,763.512Z" transform="translate(-60.216 -378.521)" fill="#a8a8a8"/>
    <path id="Path_1114" data-name="Path 1114" d="M98.9,777.443c-9.232.075-21.451-1.443-23.91-2.939-1.874-1.139-2.619-5.234-2.87-7.124H71.85s.532,6.6,2.976,8.093,14.678,3.013,23.91,2.939c2.662,0,3.583-.974,3.535-2.375C101.9,776.894,100.887,777.427,98.9,777.443Z" transform="translate(-60.216 -382.4)" opacity="0.2"/>
    <path id="Path_1115" data-name="Path 1115" d="M425.568,449.621c3.125-.176,17.836-1.283,27.179-6.612a10.589,10.589,0,0,1,4.935-1.453c2.971-.085,6.389,1.155,4.2,8.1-3.546,11.356-24.134,24.134-36.912,23.426-12.288-.681-26.865-5.633-36.491-23.043a10.649,10.649,0,0,1-1.315-5.478c.112-3.514,1.39-7.917,7.986-3.008,8.913,6.628,25.822,7.885,29.213,8.071a11.232,11.232,0,0,0,1.2,0Z" transform="translate(-207.652 -229.022)" fill="#444053"/>
    <path id="Path_1116" data-name="Path 1116" d="M647.568,449.621c3.125-.176,17.836-1.283,27.179-6.612a10.589,10.589,0,0,1,4.935-1.453c2.971-.085,6.389,1.155,4.2,8.1-3.546,11.356-24.134,24.134-36.912,23.426-12.288-.681-26.865-5.633-36.491-23.043a10.648,10.648,0,0,1-1.315-5.478c.112-3.514,1.39-7.917,7.986-3.008,8.912,6.628,25.822,7.885,29.213,8.071a11.232,11.232,0,0,0,1.2,0Z" transform="translate(-311.458 -229.022)" fill="#444053"/>
  </g>
</svg>
