<svg xmlns="http://www.w3.org/2000/svg" xmlns:xlink="http://www.w3.org/1999/xlink" width="624.691" height="483.542" viewBox="0 0 624.691 483.542">
  <defs>
    <linearGradient id="linear-gradient" x1="0.5" y1="1" x2="0.5" gradientUnits="objectBoundingBox">
      <stop offset="0" stop-color="gray" stop-opacity="0.251"/>
      <stop offset="0.54" stop-color="gray" stop-opacity="0.122"/>
      <stop offset="1" stop-color="gray" stop-opacity="0.102"/>
    </linearGradient>
    <linearGradient id="linear-gradient-2" x1="0.5" y1="1" x2="0.5" y2="0" xlink:href="#linear-gradient"/>
  </defs>
  <g id="Group_354" data-name="Group 354" transform="translate(-80 -10)">
    <g id="undraw_report_mx0a" transform="translate(80 10.021)">
      <path id="Path_835" data-name="Path 835" d="M194.987,32.005c-20.087-.74-41.07-1.26-59.233,7.351S103.549,68.828,109.64,88.008c1.988,6.253,5.86,11.7,9.125,17.394,16.325,28.466,17.082,65.26,1.947,94.379-11.65,22.416-31.4,39.475-45.612,60.36s-22.295,49.831-8.31,70.871c9.575,14.407,27.345,21.416,44.56,23.115s34.528-.977,51.819-1.664a223.205,223.205,0,0,1,98,18.533c42.468,18.619,79.054,50.472,123.77,62.764,5.368,1.474,10.98,2.664,16.47,1.664,9.737-1.774,16.816-9.824,24.439-16.181,24.335-20.151,58.025-23.913,89.612-24.849s64.486-.214,93.039-13.777c24.93-11.841,44.121-33.87,56.054-58.753s17.117-52.535,19.07-80.071c1.156-16.389,1.115-33.309-4.75-48.652-6.594-17.25-19.966-30.986-33.991-42.994-14.655-12.552-30.628-23.924-48.721-30.7-21.613-8.09-45.075-9.246-68.086-11.165A935.3,935.3,0,0,1,388.017,85.795c-43.705-10.448-91.692-21.861-131.5-43.145C236.542,31.965,217.507,32.814,194.987,32.005Z" transform="translate(-59.52 -31.65)" fill="#258c93" opacity="0.1"/>
      <g id="Group_326" data-name="Group 326" transform="translate(401.961 263.671)" opacity="0.1">
        <path id="Path_836" data-name="Path 836" d="M773.4,601.4s2.046-28.669,18.18-44.3a43.533,43.533,0,0,0,12.864-24.358,73.613,73.613,0,0,0,.867-13.366" transform="translate(-762.823 -501.21)" fill="#258c93"/>
        <path id="Path_837" data-name="Path 837" d="M837.488,496.2c-1.185,3.167-10.344,10.205-10.344,10.205s-2.312-11.321-1.115-14.487a6.117,6.117,0,1,1,11.459,4.282Z" transform="translate(-784.894 -487.938)" fill="#258c93"/>
        <path id="Path_838" data-name="Path 838" d="M840.777,530.709c-2.716,2.011-14.227,2.941-14.227,2.941s4.219-10.754,6.935-12.771a6.12,6.12,0,0,1,7.293,9.824Z" transform="translate(-785.259 -501.375)" fill="#258c93"/>
        <path id="Path_839" data-name="Path 839" d="M821.021,581.4c-3.363.37-13.771-4.623-13.771-4.623s9.073-7.154,12.43-7.512a6.114,6.114,0,0,1,1.341,12.135Z" transform="translate(-777.112 -522.263)" fill="#258c93"/>
        <path id="Path_840" data-name="Path 840" d="M796.6,617.069c-3.248.93-14.355-2.248-14.355-2.248s7.732-8.582,10.98-9.512a6.12,6.12,0,1,1,3.375,11.76Z" transform="translate(-766.559 -537.361)" fill="#258c93"/>
        <path id="Path_841" data-name="Path 841" d="M804.952,530.8c1.445,3.051,11.165,9.286,11.165,9.286s1.341-11.471-.11-14.528a6.12,6.12,0,0,0-11.055,5.241Z" transform="translate(-775.923 -502.408)" fill="#258c93"/>
        <path id="Path_842" data-name="Path 842" d="M776.612,571.555c2.312,2.479,13.436,5.525,13.436,5.525s-2.156-11.35-4.45-13.834a6.12,6.12,0,1,0-8.986,8.31Z" transform="translate(-763.492 -518.897)" fill="#258c93"/>
        <path id="Path_843" data-name="Path 843" d="M755.995,616.74c1.838,2.832,12.309,7.715,12.309,7.715s-.208-11.558-2.052-14.383a6.12,6.12,0,0,0-10.257,6.669Z" transform="translate(-755.097 -538.378)" fill="#258c93"/>
        <path id="Path_844" data-name="Path 844" d="M837.488,496.2c-1.185,3.167-10.344,10.205-10.344,10.205s-2.312-11.321-1.115-14.487a6.117,6.117,0,1,1,11.459,4.282Z" transform="translate(-784.894 -487.938)" fill="#258c93"/>
        <path id="Path_845" data-name="Path 845" d="M840.777,530.709c-2.716,2.011-14.227,2.941-14.227,2.941s4.219-10.754,6.935-12.771a6.12,6.12,0,0,1,7.293,9.824Z" transform="translate(-785.259 -501.375)" fill="#258c93"/>
        <path id="Path_846" data-name="Path 846" d="M821.021,581.4c-3.363.37-13.771-4.623-13.771-4.623s9.073-7.154,12.43-7.512a6.114,6.114,0,0,1,1.341,12.135Z" transform="translate(-777.112 -522.263)" fill="#258c93"/>
        <path id="Path_847" data-name="Path 847" d="M796.6,617.069c-3.248.93-14.355-2.248-14.355-2.248s7.732-8.582,10.98-9.512a6.12,6.12,0,1,1,3.375,11.76Z" transform="translate(-766.559 -537.361)" fill="#258c93"/>
        <path id="Path_848" data-name="Path 848" d="M804.952,530.8c1.445,3.051,11.165,9.286,11.165,9.286s1.341-11.471-.11-14.528a6.12,6.12,0,0,0-11.055,5.241Z" transform="translate(-775.923 -502.408)" fill="#258c93"/>
        <path id="Path_849" data-name="Path 849" d="M776.612,571.555c2.312,2.479,13.436,5.525,13.436,5.525s-2.156-11.35-4.45-13.834a6.12,6.12,0,1,0-8.986,8.31Z" transform="translate(-763.492 -518.897)" fill="#258c93"/>
        <path id="Path_850" data-name="Path 850" d="M755.995,616.74c1.838,2.832,12.309,7.715,12.309,7.715s-.208-11.558-2.052-14.383a6.12,6.12,0,0,0-10.257,6.669Z" transform="translate(-755.097 -538.378)" fill="#258c93"/>
      </g>
      <g id="Group_327" data-name="Group 327" transform="translate(407.436 155.157)" opacity="0.1">
        <path id="Path_851" data-name="Path 851" d="M783.2,413.624s2.046-28.669,18.18-44.3a43.572,43.572,0,0,0,12.864-24.358,72.625,72.625,0,0,0,.867-13.366" transform="translate(-772.435 -313.43)" fill="#258c93"/>
        <path id="Path_852" data-name="Path 852" d="M847.291,308.417c-1.156,3.161-10.338,10.2-10.338,10.2s-2.312-11.321-1.121-14.482a6.117,6.117,0,1,1,11.459,4.282Z" transform="translate(-794.508 -300.158)" fill="#258c93"/>
        <path id="Path_853" data-name="Path 853" d="M850.607,342.779c-2.71,2.017-14.227,2.941-14.227,2.941s4.219-10.749,6.935-12.765a6.12,6.12,0,1,1,7.293,9.824Z" transform="translate(-794.883 -313.451)" fill="#258c93"/>
        <path id="Path_854" data-name="Path 854" d="M830.825,393.6c-3.357.37-13.765-4.623-13.765-4.623s9.073-7.148,12.43-7.512a6.119,6.119,0,1,1,1.335,12.165Z" transform="translate(-786.728 -334.462)" fill="#258c93"/>
        <path id="Path_855" data-name="Path 855" d="M806.4,429.322c-3.248.93-14.355-2.248-14.355-2.248s7.738-8.582,10.98-9.518a6.119,6.119,0,1,1,3.369,11.766Z" transform="translate(-776.171 -349.613)" fill="#258c93"/>
        <path id="Path_856" data-name="Path 856" d="M814.7,342.9c1.445,3.057,11.17,9.292,11.17,9.292s1.335-11.477-.11-14.528A6.119,6.119,0,1,0,814.7,342.9Z" transform="translate(-785.482 -314.51)" fill="#258c93"/>
        <path id="Path_857" data-name="Path 857" d="M786.49,383.851c2.312,2.485,13.442,5.525,13.442,5.525s-2.161-11.35-4.456-13.829a6.12,6.12,0,0,0-8.986,8.3Z" transform="translate(-773.182 -331.199)" fill="#258c93"/>
        <path id="Path_858" data-name="Path 858" d="M765.657,428.748c1.843,2.832,12.309,7.715,12.309,7.715s-.208-11.558-2.052-14.383a6.12,6.12,0,1,0-10.257,6.669Z" transform="translate(-764.572 -350.386)" fill="#258c93"/>
        <path id="Path_859" data-name="Path 859" d="M847.291,308.417c-1.156,3.161-10.338,10.2-10.338,10.2s-2.312-11.321-1.121-14.482a6.117,6.117,0,1,1,11.459,4.282Z" transform="translate(-794.508 -300.158)" fill="#258c93"/>
        <path id="Path_860" data-name="Path 860" d="M850.607,342.779c-2.71,2.017-14.227,2.941-14.227,2.941s4.219-10.749,6.935-12.765a6.12,6.12,0,1,1,7.293,9.824Z" transform="translate(-794.883 -313.451)" fill="#258c93"/>
        <path id="Path_861" data-name="Path 861" d="M830.825,393.6c-3.357.37-13.765-4.623-13.765-4.623s9.073-7.148,12.43-7.512a6.119,6.119,0,1,1,1.335,12.165Z" transform="translate(-786.728 -334.462)" fill="#258c93"/>
        <path id="Path_862" data-name="Path 862" d="M806.4,429.322c-3.248.93-14.355-2.248-14.355-2.248s7.738-8.582,10.98-9.518a6.119,6.119,0,1,1,3.369,11.766Z" transform="translate(-776.171 -349.613)" fill="#258c93"/>
        <path id="Path_863" data-name="Path 863" d="M814.7,342.9c1.445,3.057,11.17,9.292,11.17,9.292s1.335-11.477-.11-14.528A6.119,6.119,0,1,0,814.7,342.9Z" transform="translate(-785.482 -314.51)" fill="#258c93"/>
        <path id="Path_864" data-name="Path 864" d="M786.49,383.851c2.312,2.485,13.442,5.525,13.442,5.525s-2.161-11.35-4.456-13.829a6.12,6.12,0,0,0-8.986,8.3Z" transform="translate(-773.182 -331.199)" fill="#258c93"/>
        <path id="Path_865" data-name="Path 865" d="M765.657,428.748c1.843,2.832,12.309,7.715,12.309,7.715s-.208-11.558-2.052-14.383a6.12,6.12,0,1,0-10.257,6.669Z" transform="translate(-764.572 -350.386)" fill="#258c93"/>
      </g>
      <g id="Group_328" data-name="Group 328" transform="translate(37.911 212.211)" opacity="0.1">
        <path id="Path_866" data-name="Path 866" d="M209.662,490.794s-24.681-14.713-31.4-36.141a43.491,43.491,0,0,0-15.973-22.439,72.86,72.86,0,0,0-11.558-6.784" transform="translate(-135.932 -410.092)" fill="#258c93"/>
        <path id="Path_867" data-name="Path 867" d="M135.616,400.727c2.312,2.479,4.467,13.829,4.467,13.829s-11.147-3.034-13.442-5.513a6.12,6.12,0,0,1,8.974-8.316Z" transform="translate(-125.123 -398.889)" fill="#258c93"/>
        <path id="Path_868" data-name="Path 868" d="M169.238,410.187c.578,3.329-3.768,14.031-3.768,14.031s-7.709-8.6-8.287-11.933a6.12,6.12,0,1,1,12.055-2.1Z" transform="translate(-138.606 -401.454)" fill="#258c93"/>
        <path id="Path_869" data-name="Path 869" d="M206.548,448.932c-1.156,3.167-10.338,10.211-10.338,10.211s-2.312-11.321-1.127-14.482a6.12,6.12,0,1,1,11.465,4.271Z" transform="translate(-154.512 -416.46)" fill="#258c93"/>
        <path id="Path_870" data-name="Path 870" d="M227.353,487.233c-.624,3.323-8.46,11.841-8.46,11.841s-4.19-10.766-3.56-14.083a6.116,6.116,0,0,1,12.02,2.271Z" transform="translate(-163.175 -433.131)" fill="#258c93"/>
        <path id="Path_871" data-name="Path 871" d="M151.705,445.235c3.375.081,13.32-5.779,13.32-5.779s-9.651-6.357-13.031-6.438a6.119,6.119,0,1,0-.289,12.235Z" transform="translate(-133.821 -413.295)" fill="#258c93"/>
        <path id="Path_872" data-name="Path 872" d="M175.6,488.914c3.248-.936,10.98-9.523,10.98-9.523s-11.107-3.173-14.355-2.236a6.12,6.12,0,0,0,3.381,11.76Z" transform="translate(-143.193 -431.853)" fill="#258c93"/>
        <path id="Path_873" data-name="Path 873" d="M206.219,527.64c3.363-.37,12.43-7.512,12.43-7.512s-10.4-5-13.771-4.623a6.114,6.114,0,1,0,1.341,12.135Z" transform="translate(-156.35 -448.106)" fill="#258c93"/>
        <path id="Path_874" data-name="Path 874" d="M135.616,400.727c2.312,2.479,4.467,13.829,4.467,13.829s-11.147-3.034-13.442-5.513a6.12,6.12,0,0,1,8.974-8.316Z" transform="translate(-125.123 -398.889)" fill="#258c93"/>
        <path id="Path_875" data-name="Path 875" d="M169.238,410.187c.578,3.329-3.768,14.031-3.768,14.031s-7.709-8.6-8.287-11.933a6.12,6.12,0,1,1,12.055-2.1Z" transform="translate(-138.606 -401.454)" fill="#258c93"/>
        <path id="Path_876" data-name="Path 876" d="M206.548,448.932c-1.156,3.167-10.338,10.211-10.338,10.211s-2.312-11.321-1.127-14.482a6.12,6.12,0,1,1,11.465,4.271Z" transform="translate(-154.512 -416.46)" fill="#258c93"/>
        <path id="Path_877" data-name="Path 877" d="M227.353,487.233c-.624,3.323-8.46,11.841-8.46,11.841s-4.19-10.766-3.56-14.083a6.116,6.116,0,0,1,12.02,2.271Z" transform="translate(-163.175 -433.131)" fill="#258c93"/>
        <path id="Path_878" data-name="Path 878" d="M151.705,445.235c3.375.081,13.32-5.779,13.32-5.779s-9.651-6.357-13.031-6.438a6.119,6.119,0,1,0-.289,12.235Z" transform="translate(-133.821 -413.295)" fill="#258c93"/>
        <path id="Path_879" data-name="Path 879" d="M175.6,488.914c3.248-.936,10.98-9.523,10.98-9.523s-11.107-3.173-14.355-2.236a6.12,6.12,0,0,0,3.381,11.76Z" transform="translate(-143.193 -431.853)" fill="#258c93"/>
        <path id="Path_880" data-name="Path 880" d="M206.219,527.64c3.363-.37,12.43-7.512,12.43-7.512s-10.4-5-13.771-4.623a6.114,6.114,0,1,0,1.341,12.135Z" transform="translate(-156.35 -448.106)" fill="#258c93"/>
      </g>
      <path id="Path_881" data-name="Path 881" d="M776.25,821.84c16.591,7.218,36.834,2.826,55.661,3.334,2.572.069,5.3.283,7.368,1.531s3.086,3.265,4.5,5c5.276,6.438,16.088,8.506,25.537,7.414s18.111-4.71,27.027-7.46c15.412-4.762,33.026-6.935,48.23-1.734a9.961,9.961,0,0,0,4.357.832c3.334-.422,4.328-3.878,6.657-5.848,4.207-3.566,13.349-2.595,15.2-7.293,1.081-2.751-1.41-5.571-4.126-7.449-10.4-7.189-25.253-8.373-38.851-7.264s-26.964,4.167-40.631,4.178c-17.03,0-33.482-4.692-50.345-6.617-11.679-1.329-24.427-1.156-35.378,2.757C789.588,807.451,786.975,816.98,776.25,821.84Z" transform="translate(-362.066 -355.875)" fill="#258c93" opacity="0.1"/>
      <path id="Path_882" data-name="Path 882" d="M232.93,781.431c28.316,8.154,62.873,3.19,95,3.768,4.4.081,9.055.318,12.586,1.734s5.264,3.7,7.686,5.652c9,7.276,27.455,9.616,43.578,8.379s30.917-5.322,46.138-8.431c26.305-5.38,56.378-7.83,82.325-1.965a24.6,24.6,0,0,0,7.443.942c5.686-.48,7.38-4.38,11.361-6.611,7.183-4.045,22.78-2.93,25.935-8.235,1.849-3.109-2.4-6.3-7.039-8.42-17.729-8.119-43.1-9.46-66.312-8.206s-46.028,4.7-69.346,4.721c-29.067,0-57.152-5.3-85.937-7.478-19.937-1.5-41.694-1.318-60.389,3.121C255.7,765.192,251.231,775.958,232.93,781.431Z" transform="translate(-132.72 -337.604)" fill="#258c93" opacity="0.1"/>
      <path id="Path_883" data-name="Path 883" d="M101.77,823.35c8.09,4.866,17.914,1.907,27.079,2.248a5.756,5.756,0,0,1,3.589,1.029c1.006.838,1.5,2.208,2.19,3.375,2.566,4.34,7.824,5.738,12.419,5s8.813-3.173,13.153-5.033c7.512-3.207,16.071-4.669,23.462-1.156a3.686,3.686,0,0,0,2.127.578c1.618-.289,2.1-2.618,3.236-3.947,2.046-2.4,6.5-1.734,7.391-4.918.526-1.855-.688-3.756-2.005-5.022-5.051-4.848-12.286-5.646-18.9-4.9s-13.118,2.768-19.769,2.768c-8.281,0-16.285-3.161-24.491-4.461-5.686-.9-11.887-.786-17.215,1.861C108.26,813.659,106.988,820.085,101.77,823.35Z" transform="translate(-77.354 -359.541)" fill="#258c93" opacity="0.1"/>
      <path id="Path_884" data-name="Path 884" d="M540.884,67.32H272.389A24.589,24.589,0,0,0,247.76,91.874v372a24.589,24.589,0,0,0,24.629,24.537H540.884a24.589,24.589,0,0,0,24.629-24.554V91.874A24.589,24.589,0,0,0,540.884,67.32Z" transform="translate(-138.98 -46.716)" fill="url(#linear-gradient)"/>
      <rect id="Rectangle_182" data-name="Rectangle 182" width="310.16" height="412.283" rx="20" transform="translate(112.566 25.649)" fill="#22868d"/>
      <rect id="Rectangle_183" data-name="Rectangle 183" width="278.642" height="334.286" transform="translate(128.324 64.645)" fill="#f6f7f9"/>
      <circle id="Ellipse_138" data-name="Ellipse 138" cx="3.785" cy="3.785" r="3.785" transform="translate(262.601 40.772)" fill="#f6f7f9"/>
      <circle id="Ellipse_139" data-name="Ellipse 139" cx="11.35" cy="11.35" r="11.35" transform="translate(255.036 406.409)" fill="#f6f7f9"/>
      <g id="Group_329" data-name="Group 329" transform="translate(128.324 64.645)" opacity="0.2">
        <rect id="Rectangle_184" data-name="Rectangle 184" width="278.642" height="16.66" fill="#258c93"/>
      </g>
      <circle id="Ellipse_140" data-name="Ellipse 140" cx="3.554" cy="3.554" r="3.554" transform="translate(133.485 69.424)" fill="#f6f7f9"/>
      <circle id="Ellipse_141" data-name="Ellipse 141" cx="3.554" cy="3.554" r="3.554" transform="translate(142.54 69.424)" fill="#f6f7f9"/>
      <circle id="Ellipse_142" data-name="Ellipse 142" cx="3.554" cy="3.554" r="3.554" transform="translate(151.59 69.424)" fill="#f6f7f9"/>
      <rect id="Rectangle_185" data-name="Rectangle 185" width="259.474" height="0.867" transform="translate(136.646 162.913)" fill="#dce0ed"/>
      <rect id="Rectangle_186" data-name="Rectangle 186" width="259.474" height="0.867" transform="translate(136.646 183.041)" fill="#dce0ed"/>
      <rect id="Rectangle_187" data-name="Rectangle 187" width="259.474" height="0.867" transform="translate(136.646 203.174)" fill="#dce0ed"/>
      <rect id="Rectangle_188" data-name="Rectangle 188" width="259.474" height="0.867" transform="translate(136.646 223.302)" fill="#dce0ed"/>
      <rect id="Rectangle_189" data-name="Rectangle 189" width="259.474" height="0.867" transform="translate(136.646 243.429)" fill="#dce0ed"/>
      <g id="Group_330" data-name="Group 330" transform="translate(136.328 175.193)" opacity="0.2">
        <path id="Path_885" data-name="Path 885" d="M495.7,372.283H235.91V332.7l23.826,11.743,24.658,3.346,21.636-6.524,26.1-20.243,13.129-7.582,9.6-1.849,9.183.491,15.1,7.46,20.532,13.077,16.111,2.069,12.771-4.4,27.079-22.173,13.823-4.929,14.464,2.236,11.777,6.8Z" transform="translate(-235.91 -303.18)" fill="#258c93"/>
      </g>
      <path id="Path_886" data-name="Path 886" d="M340.708,379.318c-23.4,0-45.017-14.308-45.288-14.493l.647-.959c.335.225,33.61,22.237,61.885,11.211,10.309-4.045,17.648-10.275,24.751-16.325,7.414-6.316,14.412-12.28,23.959-14.869a35.837,35.837,0,0,1,32,7.189c7.772,6.386,23.248,16.637,39.6,13.574,8.333-1.566,15.354-7.651,22.792-14.095,14.256-12.355,29-25.132,54.512-6.8l-.676.936c-24.768-17.8-39.157-5.322-53.078,6.738-7.559,6.547-14.7,12.713-23.335,14.355-16.816,3.155-32.616-7.3-40.544-13.817A34.712,34.712,0,0,0,406.963,345c-9.292,2.52-16.181,8.4-23.514,14.632-7.171,6.114-14.586,12.43-25.074,16.522a48.38,48.38,0,0,1-17.666,3.167Z" transform="translate(-159.098 -159.53)" fill="#258c93"/>
      <circle id="Ellipse_143" data-name="Ellipse 143" cx="6.432" cy="6.432" r="6.432" transform="translate(255.071 177.112)" fill="#258c93"/>
      <g id="Group_331" data-name="Group 331" transform="translate(262.947 98.433)" opacity="0.2">
        <path id="Path_887" data-name="Path 887" d="M596.992,202H515.858a1.318,1.318,0,0,0-1.318,1.318v54.87a1.318,1.318,0,0,0,2.277.9l14.06-15a1.312,1.312,0,0,1,.959-.416h65.156a1.318,1.318,0,0,0,1.318-1.318V203.306A1.318,1.318,0,0,0,596.992,202Z" transform="translate(-514.54 -202)" fill="#258c93"/>
      </g>
      <rect id="Rectangle_190" data-name="Rectangle 190" width="46.202" height="5.779" transform="translate(281.728 108.592)" fill="#f6f7f9"/>
      <rect id="Rectangle_191" data-name="Rectangle 191" width="12.684" height="5.779" transform="translate(281.728 121.398)" fill="#f6f7f9"/>
      <g id="Group_332" data-name="Group 332" transform="translate(158.559 285.649)" opacity="0.2">
        <rect id="Rectangle_192" data-name="Rectangle 192" width="12.684" height="5.779" fill="#258c93"/>
      </g>
      <g id="Group_333" data-name="Group 333" transform="translate(158.559 296.82)" opacity="0.2">
        <rect id="Rectangle_193" data-name="Rectangle 193" width="12.684" height="5.779" fill="#258c93"/>
      </g>
      <g id="Group_334" data-name="Group 334" transform="translate(158.559 307.99)" opacity="0.2">
        <rect id="Rectangle_194" data-name="Rectangle 194" width="12.684" height="5.779" fill="#258c93"/>
      </g>
      <g id="Group_335" data-name="Group 335" transform="translate(158.559 319.166)" opacity="0.2">
        <rect id="Rectangle_195" data-name="Rectangle 195" width="12.684" height="5.779" fill="#258c93"/>
      </g>
      <g id="Group_336" data-name="Group 336" transform="translate(158.559 330.337)" opacity="0.2">
        <rect id="Rectangle_196" data-name="Rectangle 196" width="12.684" height="5.779" fill="#258c93"/>
      </g>
      <g id="Group_337" data-name="Group 337" transform="translate(158.559 341.507)" opacity="0.2">
        <rect id="Rectangle_197" data-name="Rectangle 197" width="12.684" height="5.779" fill="#258c93"/>
      </g>
      <g id="Group_338" data-name="Group 338" transform="translate(158.559 352.683)" opacity="0.2">
        <rect id="Rectangle_198" data-name="Rectangle 198" width="12.684" height="5.779" fill="#258c93"/>
      </g>
      <g id="Group_339" data-name="Group 339" transform="translate(158.559 363.854)" opacity="0.2">
        <rect id="Rectangle_199" data-name="Rectangle 199" width="12.684" height="5.779" fill="#258c93"/>
      </g>
      <g id="Group_340" data-name="Group 340" transform="translate(182.443 369.633)" opacity="0.2">
        <rect id="Rectangle_200" data-name="Rectangle 200" width="12.684" height="5.779" fill="#258c93"/>
      </g>
      <g id="Group_341" data-name="Group 341" transform="translate(204.789 369.633)" opacity="0.2">
        <rect id="Rectangle_201" data-name="Rectangle 201" width="12.684" height="5.779" fill="#258c93"/>
      </g>
      <g id="Group_342" data-name="Group 342" transform="translate(227.136 369.633)" opacity="0.2">
        <rect id="Rectangle_202" data-name="Rectangle 202" width="12.684" height="5.779" fill="#258c93"/>
      </g>
      <g id="Group_343" data-name="Group 343" transform="translate(249.477 369.633)" opacity="0.2">
        <rect id="Rectangle_203" data-name="Rectangle 203" width="12.684" height="5.779" fill="#258c93"/>
      </g>
      <g id="Group_344" data-name="Group 344" transform="translate(271.824 369.633)" opacity="0.2">
        <rect id="Rectangle_204" data-name="Rectangle 204" width="12.684" height="5.779" fill="#258c93"/>
      </g>
      <g id="Group_345" data-name="Group 345" transform="translate(294.17 369.633)" opacity="0.2">
        <rect id="Rectangle_205" data-name="Rectangle 205" width="12.684" height="5.779" fill="#258c93"/>
      </g>
      <g id="Group_346" data-name="Group 346" transform="translate(316.511 369.633)" opacity="0.2">
        <rect id="Rectangle_206" data-name="Rectangle 206" width="12.684" height="5.779" fill="#258c93"/>
      </g>
      <g id="Group_347" data-name="Group 347" transform="translate(338.858 369.633)" opacity="0.2">
        <rect id="Rectangle_207" data-name="Rectangle 207" width="12.684" height="5.779" fill="#258c93"/>
      </g>
      <g id="Group_348" data-name="Group 348" transform="translate(361.204 369.633)" opacity="0.2">
        <rect id="Rectangle_208" data-name="Rectangle 208" width="12.684" height="5.779" fill="#258c93"/>
      </g>
      <rect id="Rectangle_209" data-name="Rectangle 209" width="19.261" height="5.779" transform="translate(308.669 121.398)" fill="#f6f7f9"/>
      <rect id="Rectangle_210" data-name="Rectangle 210" width="12.684" height="36.216" transform="translate(182.443 327.638)" fill="#258c93"/>
      <rect id="Rectangle_211" data-name="Rectangle 211" width="12.684" height="52.974" transform="translate(204.789 310.879)" fill="#258c93"/>
      <rect id="Rectangle_212" data-name="Rectangle 212" width="12.684" height="67.034" transform="translate(227.136 296.82)" fill="#258c93"/>
      <rect id="Rectangle_213" data-name="Rectangle 213" width="12.684" height="59.741" transform="translate(249.477 304.107)" fill="#258c93"/>
      <rect id="Rectangle_214" data-name="Rectangle 214" width="12.684" height="72.426" transform="translate(271.824 291.428)" fill="#258c93"/>
      <g id="Group_349" data-name="Group 349" transform="translate(294.17 319.166)" opacity="0.2">
        <rect id="Rectangle_215" data-name="Rectangle 215" width="12.684" height="44.687" fill="#258c93"/>
      </g>
      <g id="Group_350" data-name="Group 350" transform="translate(316.511 319.166)" opacity="0.2">
        <rect id="Rectangle_216" data-name="Rectangle 216" width="12.684" height="44.687" fill="#258c93"/>
      </g>
      <g id="Group_351" data-name="Group 351" transform="translate(338.858 319.166)" opacity="0.2">
        <rect id="Rectangle_217" data-name="Rectangle 217" width="12.684" height="44.687" fill="#258c93"/>
      </g>
      <g id="Group_352" data-name="Group 352" transform="translate(361.204 319.166)" opacity="0.2">
        <rect id="Rectangle_218" data-name="Rectangle 218" width="12.684" height="44.687" fill="#258c93"/>
      </g>
      <path id="Path_888" data-name="Path 888" d="M958.219,250.845c-13.736-7.9-18.926-9.859-18.954-9.87l-.277-.2a11.477,11.477,0,0,1-3.467-4.375v-.849c.22-4.184,3.2-7.992,6.021-11.315l7.218-8.495a8.247,8.247,0,0,0,1.861-2.947,6.582,6.582,0,0,0,.2-1.809v-.74c-.035-2.109-.1-4.224-.173-6.357-.069-1.843-.543-4.167-2.387-4.548-.959-.2-2.225.15-2.733-.676a1.572,1.572,0,0,1-.121-1.092.478.478,0,0,0,0,.087v-.1a24.474,24.474,0,0,0,.688-4.34,6.033,6.033,0,0,0-.3-2.2c-1.069-3.063-4.745-4.317-8-4.895s-6.894-1.075-8.934-3.618a26.633,26.633,0,0,0-1.774-2.444,7.045,7.045,0,0,0-3.323-1.641,18.775,18.775,0,0,0-12.089,1.052c-1.572.7-3.149,1.647-4.872,1.543s-3.323-1.346-5.091-1.647c-2.855-.485-5.588,1.612-6.992,4.091a9.991,9.991,0,0,0-1.294,4.831c0,.092,0,.191,0,.283h0a7.045,7.045,0,0,0,1.855,4.929c1.231,1.277,3.068,2.156,3.577,3.837.208.682.156,1.422.341,2.115a.818.818,0,0,0,.081.254l-.092.121a21.411,21.411,0,0,0-4.531,13.222,21.9,21.9,0,0,0,15.389,20.769v.647a9.3,9.3,0,0,1-2.988,7.27L887.6,249.562s-11.725-1.393-15.955,15.747a28.965,28.965,0,0,0-.728,8.7c.156,2.583-.2,7.137-3.207,13.025-4.814,9.419-3.716,31.044,6.12,33.188,9.286,2.023,12.921,1.156,13.291,1.081v.376c-.15,4.045-1.624,39.059-6.981,43.295-1.479,1.156-1.2,1.965,0,2.5,0,0,0,.225-.035.63-.162,2.56-.988,12.309-4.571,17.857-4.155,6.42-3.722,43.468-3.722,43.468l-2.791,21.861s1.734,13.488,0,15.846c-1.56,2.1-3.641,52.009-4.045,62.821h-.185a5.253,5.253,0,0,0-4.2,2.56c-2.312,3.733-10.344,10.627-10.344,10.627-1.734,2.479-8.2,4.848-11.615,5.97a7.043,7.043,0,0,0-1.318.578,6.934,6.934,0,0,0-2.93,3.086,3.34,3.34,0,0,0-.318,2.577c.878,2.138,19.024,3.635,23.612,1.5,3.612-1.687,17.914-3.9,23.849-4.768a4.906,4.906,0,0,0,4.247-4.242,2.8,2.8,0,0,0-.578-2.127h0c-1.156-1.41-1.734-5.253-1.982-7.761a5.125,5.125,0,0,0,1.335-.792,56.936,56.936,0,0,1,3.276-22.907c4.375-11.558,5.686-32.98,4.623-46.9,0,0,13.337-57.384,23.832-62.74h0c.162.2,5.253,6.744,5.9,26.975.659,20.555,8.09,34.043,8.09,34.043s-3.282,34.9,0,47.964L925.979,534.2c-.312-.272-.514-.48-.514-.48s.127.578.306,1.491l-.092.433.185.046c.485,2.577,1.208,7.068.913,9.7-.173,1.5-.578,3.554-.878,5.571-.451,3.173-.578,6.247,1.092,6.935,2.733,1.1,18.8,2.6,21.538-.93a5.074,5.074,0,0,0,.8-5.293,5.4,5.4,0,0,0-.8-1.346s-4.265-6.975-3.063-11.893a3.6,3.6,0,0,0-.509-2.826,143.831,143.831,0,0,1,3.681-23.075c2.733-10.3,8.506-32.893,4.259-47.75h0c-.162-.578-.347-1.156-.543-1.734A64.016,64.016,0,0,1,949.95,438a51.023,51.023,0,0,1,0-21.844c2.624-11.991,4.455-23.768,4.455-23.768s1.451-15.84.185-25.554l-.087-.624.693-.156s-3.716-16.487-5.027-26.975c-.312-2.479-.717-5.617-1.156-8.969a21.735,21.735,0,0,0,3.566-.884c11.766-4.086,15.464-40.908,15.464-40.908V276.648S972,258.768,958.219,250.845ZM870.266,535.2c-.364-.185-.578-.306-.578-.306h0Z" transform="translate(-386.418 -93.381)" fill="url(#linear-gradient-2)"/>
      <path id="Path_889" data-name="Path 889" d="M974.336,595.466c5.12,14.724-.855,38.62-3.629,49.287a149.224,149.224,0,0,0-3.629,23.479A49.391,49.391,0,0,1,948.3,667.8l4.479-21.959c-3.2-13.014,0-47.8,0-47.8s-7.252-13.442-7.894-33.927c-.63-20.168-5.6-26.681-5.779-26.883h0c-10.24,5.334-23.26,62.527-23.26,62.527,1.069,13.869-.214,35.2-4.479,46.727a57.909,57.909,0,0,0-3.2,22.832c-1.491,1.26-3.566,1.474-5.808,1.115-6.073-1.011-13.361-6.258-13.361-6.258s2.312-62.3,4.045-64.653,0-15.793,0-15.793l2.768-21.763s-.422-36.921,3.629-43.341c3.5-5.53,4.305-15.244,4.461-17.793a4.6,4.6,0,0,1,.035-.63l6.172-7.4s59.753-4.479,64.231,0c1.1,1.1,1.78,3.6,2.184,6.75,1.231,9.68-.179,25.467-.179,25.467S974.555,536.76,972,548.716a51.772,51.772,0,0,0,0,21.763,65.029,65.029,0,0,0,2.34,24.987Z" transform="translate(-409.66 -225.481)" fill="#16666c"/>
      <path id="Path_890" data-name="Path 890" d="M1013.764,814.558c-2.67,3.519-18.354,2.023-21.023.93-1.63-.676-1.5-3.739-1.063-6.9.277-2.011.688-4.045.855-5.553.428-3.843-1.283-11.633-1.283-11.633s3.525,3.733,4.375,0a4.074,4.074,0,0,1,3.045-2.889,8,8,0,0,1,5.542.347c2.768,1.2,7.4,3.768,6.565,7.235-1.156,4.9,2.988,11.852,2.988,11.852a5.413,5.413,0,0,1,.774,1.341A5.132,5.132,0,0,1,1013.764,814.558Z" transform="translate(-452.821 -351.003)" fill="#22868d"/>
      <path id="Path_891" data-name="Path 891" d="M1013.867,829.469c-2.67,3.519-18.354,2.023-21.023.93-1.63-.676-1.5-3.739-1.063-6.9,1.682.786,4.548,1.445,9.321,1a27.124,27.124,0,0,1,3.357-.1,77.473,77.473,0,0,0,10.182-.2,5.132,5.132,0,0,1-.774,5.276Z" transform="translate(-452.924 -365.914)" opacity="0.1"/>
      <path id="Path_892" data-name="Path 892" d="M925.638,630.63c1.069,13.869-.214,35.2-4.479,46.727a57.909,57.909,0,0,0-3.2,22.832c-1.491,1.26-3.566,1.474-5.808,1.115,1.289-9.015,6.773-47.779,10.315-78.413,3.976-34.887,22.7-58.892,22.7-58.892l3.733,4.109C938.646,573.437,925.638,630.63,925.638,630.63Z" transform="translate(-419.432 -256.374)" opacity="0.1"/>
      <path id="Path_893" data-name="Path 893" d="M987.368,272.485l-2.606,12.8L972,306.73l-15.736-6.721s-21.382-22.4-7.946-25.606a11.784,11.784,0,0,0,4.461-1.988,9.167,9.167,0,0,0,3.467-7.715,24.126,24.126,0,0,0-2.184-9.183l27.524-8.668A43.966,43.966,0,0,0,979.613,258c-.208,7.512,2.577,11.188,4.86,12.95a8.345,8.345,0,0,0,2.9,1.531Z" transform="translate(-432.828 -122.499)" fill="#fbbebe"/>
      <path id="Path_894" data-name="Path 894" d="M989.054,246.9a43.966,43.966,0,0,0-1.976,11.153,20.178,20.178,0,0,1-1.6,1.7,21.769,21.769,0,0,1-21.763,4.97,24.128,24.128,0,0,0-2.184-9.183Z" transform="translate(-440.276 -122.52)" opacity="0.1"/>
      <path id="Path_895" data-name="Path 895" d="M982.826,224.909a21.67,21.67,0,1,1-6.337-15.412A21.763,21.763,0,0,1,982.826,224.909Z" transform="translate(-430.892 -104.048)" fill="#fbbebe"/>
      <path id="Path_896" data-name="Path 896" d="M987.368,290.112l-2.606,12.8L972,324.358l-15.736-6.721s-21.382-22.4-7.946-25.606a11.783,11.783,0,0,0,4.461-1.988c-2.427,6.675,7.593,20.555,7.593,20.555,1.156,1.734,3.843.636,3.843.636,6.449-.971,18.336-19.538,20.272-22.624A8.344,8.344,0,0,0,987.368,290.112Z" transform="translate(-432.828 -140.127)" opacity="0.1"/>
      <path id="Path_897" data-name="Path 897" d="M987.4,499.616c-3.785.861-24.751,5.507-32.7,4.346-8.743-1.283-25.756-2.132-25.756-2.132s-10.829.578-14.164-.936a4.6,4.6,0,0,1,.035-.63l6.172-7.4s59.753-4.479,64.231,0C986.322,493.958,987,496.455,987.4,499.616Z" transform="translate(-420.542 -225.507)" opacity="0.1"/>
      <path id="Path_898" data-name="Path 898" d="M937.222,311.4s-11.257-15.6-7.016-21.665l-19.018,7.8s-11.448-1.387-15.6,15.7a29.545,29.545,0,0,0-.711,8.668c.15,2.577-.2,7.114-3.132,12.979-4.7,9.391-3.629,30.94,5.975,33.078s13.014,1.063,13.014,1.063-1.277,39.053-6.825,43.532,14.141,3.415,14.141,3.415,17.013.855,25.762,2.132,33.286-4.479,33.286-4.479-3.629-16.435-4.906-26.889-4.271-32.72-4.271-32.72l21.769-29.472s3.837-17.816-9.6-25.71S961.592,289,961.592,289s-13.488,21.959-20.526,23.04C941.065,312.04,938.39,313.115,937.222,311.4Z" transform="translate(-409.675 -140.291)" fill="#218088"/>
      <path id="Path_899" data-name="Path 899" d="M926.569,338.47s-.214,7.044,1.063,9.824,5.975,18.14,5.975,18.14H922.94s5.779-6.189,5.334-9.177S926.569,338.47,926.569,338.47Z" transform="translate(-423.986 -161.173)" opacity="0.1"/>
      <path id="Path_900" data-name="Path 900" d="M959.02,408.571s-23.566-5.779-25.762-10.673S925,382.012,925,382.012l2.485-3.352,11.465,9s13.655,10.882,20.058,11.951S959.02,408.571,959.02,408.571Z" transform="translate(-424.856 -178.138)" fill="#fbbebe"/>
      <path id="Path_901" data-name="Path 901" d="M959.02,408.571s-23.566-5.779-25.762-10.673S925,382.012,925,382.012l2.485-3.352,11.465,9s13.655,10.882,20.058,11.951S959.02,408.571,959.02,408.571Z" transform="translate(-424.856 -178.138)" opacity="0.05"/>
      <path id="Path_902" data-name="Path 902" d="M988.032,382.34v12.783h-2.057a59.823,59.823,0,0,0-29.005,7.507l-3.859,2.144-1.034.578-6.617-14.9,6.189-5.548h.318c1.514.144,8.061.693,10.835-.243,2.635-.9,5.906-3.733,13.667-1.734,3.826.977,7.091,5.264,10.8,3.924Z" transform="translate(-433.492 -179.646)" fill="#fbbebe"/>
      <path id="Path_903" data-name="Path 903" d="M1020.82,331.564l4.271,4.8v11.633s-3.629,36.7-15.152,40.758-32.09-2.352-32.09-2.352-5.317-14.083-2.832-14.932,21.959-6,21.959-6-.272-21.532,3.993-27.935c0,0-2.774-20.052,6.831-20.48S1020.82,331.564,1020.82,331.564Z" transform="translate(-445.69 -152.129)" opacity="0.1"/>
      <path id="Path_904" data-name="Path 904" d="M1021.912,331.564l4.271,4.8v11.633s-3.618,36.7-15.175,40.758-32.1-2.352-32.1-2.352-5.311-14.083-2.826-14.932,21.959-6,21.959-6-.277-21.532,3.993-27.935c0,0-2.774-20.052,6.831-20.48S1021.912,331.564,1021.912,331.564Z" transform="translate(-446.141 -152.129)" fill="#218088"/>
      <path id="Path_905" data-name="Path 905" d="M980.107,234.158a8.473,8.473,0,0,0-.485-4.155,3.218,3.218,0,0,0-3.386-1.953c-1.826.428-2.612,2.8-4.4,3.375a3.467,3.467,0,0,1-3.872-2,10.234,10.234,0,0,1-.745-4.623v-5.345c0-1.942-.064-4.045-1.26-5.559-1.485-1.9-4.981-2.728-7.316-2.652a6.2,6.2,0,0,0-4.178,1.687,5.391,5.391,0,0,1-4.4,1.56A3.8,3.8,0,0,1,947,211.846v-.069a21.763,21.763,0,1,1,32.361,28.894,58.19,58.19,0,0,0,.745-6.513Z" transform="translate(-434.143 -104.051)" opacity="0.1"/>
      <path id="Path_906" data-name="Path 906" d="M945.939,204.126a3.8,3.8,0,0,1-3.063-2.652c-.179-.688-.133-1.422-.335-2.109-.5-1.676-2.312-2.548-3.467-3.82-2.4-2.554-2.248-6.75-.543-9.824,1.375-2.473,4.045-4.559,6.825-4.08,1.734.3,3.219,1.531,4.97,1.641s3.219-.838,4.756-1.537a17.914,17.914,0,0,1,11.794-1.046,6.859,6.859,0,0,1,3.248,1.635,28.9,28.9,0,0,1,1.734,2.433c1.994,2.537,5.553,3.034,8.726,3.606s6.755,1.826,7.8,4.877c.688,2.023,0,4.219-.376,6.322a1.826,1.826,0,0,0,.081,1.3c.5.821,1.734.48,2.67.676,1.8.376,2.265,2.693,2.312,4.531q.116,3.155.173,6.31a6.2,6.2,0,0,1-2.005,5.276l-7.044,8.466c-3.126,3.756-6.443,8.131-5.813,12.973-1.479.665-3.236-.618-3.722-2.167a9.707,9.707,0,0,1,.231-4.8,58.794,58.794,0,0,0,1.115-8.333,8.465,8.465,0,0,0-.485-4.155,3.186,3.186,0,0,0-3.386-1.959c-1.826.428-2.612,2.8-4.4,3.375a3.47,3.47,0,0,1-3.872-2,10.234,10.234,0,0,1-.745-4.623V209.09c0-1.936-.064-4.045-1.26-5.559-1.485-1.9-4.981-2.728-7.316-2.652a6.206,6.206,0,0,0-4.178,1.687A5.485,5.485,0,0,1,945.939,204.126Z" transform="translate(-430.03 -94.343)" fill="#3f3d56"/>
      <path id="Path_907" data-name="Path 907" d="M960.79,337.55,967.47,365S972.741,364.97,960.79,337.55Z" transform="translate(-439.964 -160.785)" opacity="0.1"/>
      <path id="Path_908" data-name="Path 908" d="M995.826,329.61s-8.749,14.331-5.334,29.143l1.63.121S989.209,352.014,995.826,329.61Z" transform="translate(-452.167 -157.433)" opacity="0.1"/>
      <path id="Path_909" data-name="Path 909" d="M1009.9,469.374s10.743-3.554,11.523,4.692C1021.423,474.066,1019.395,468.414,1009.9,469.374Z" transform="translate(-460.694 -216.109)" opacity="0.1"/>
      <path id="Path_910" data-name="Path 910" d="M942.768,388s-2.132,14.938,1.734,20.914a46.85,46.85,0,0,1-18.781,2.56L924.42,388Z" transform="translate(-424.611 -182.081)" opacity="0.1"/>
      <path id="Path_911" data-name="Path 911" d="M953.111,406.718l-1.034.578-6.617-14.9,6.189-5.548h.318C951.869,387.567,950.147,400.4,953.111,406.718Z" transform="translate(-433.492 -181.596)" opacity="0.1"/>
      <path id="Path_912" data-name="Path 912" d="M938.264,386.85s-2.132,14.932,1.734,20.908a46.851,46.851,0,0,1-18.781,2.56L913.75,386.85Z" transform="translate(-420.107 -181.596)" fill="#218088"/>
      <path id="Path_913" data-name="Path 913" d="M887.275,805.08a4.825,4.825,0,0,1-4.143,4.224c-5.779.867-19.752,3.074-23.277,4.75-4.479,2.132-22.191.641-23.046-1.491a3.386,3.386,0,0,1,.306-2.566,6.883,6.883,0,0,1,2.889-3.08,7.091,7.091,0,0,1,1.283-.578c3.334-1.115,9.633-3.467,11.338-5.952,0,0,7.853-6.871,10.09-10.587a5.137,5.137,0,0,1,4.1-2.554c1.872-.087,3.953.855,4.8,4.952,0,0,10.24,5.842,13.008.717,0,0,.428,7.871,2.127,10.02h0a2.855,2.855,0,0,1,.52,2.144Z" transform="translate(-387.576 -350.608)" fill="#22868d"/>
      <path id="Path_914" data-name="Path 914" d="M887.275,816.552a4.825,4.825,0,0,1-4.143,4.224c-5.779.867-19.752,3.074-23.277,4.75-4.479,2.132-22.191.641-23.046-1.491a3.386,3.386,0,0,1,.306-2.566A6.883,6.883,0,0,1,840,818.39c2.889,1.919,9.3,3.791,23.4,1.589,13.447-2.1,20.1-4.155,23.352-5.559h0A2.855,2.855,0,0,1,887.275,816.552Z" transform="translate(-387.576 -362.081)" opacity="0.1"/>
      <g id="Group_353" data-name="Group 353" transform="translate(507.228 95.943)" opacity="0.1">
        <path id="Path_915" data-name="Path 915" d="M1024.956,210.682v-.1a19.748,19.748,0,0,0,.659-4.848,31.084,31.084,0,0,1-.659,3.889,2.362,2.362,0,0,0,0,1.063Z" transform="translate(-974.252 -201.084)"/>
        <path id="Path_916" data-name="Path 916" d="M975.5,227.26a6.287,6.287,0,0,1,.526,2.439,7.269,7.269,0,0,0-.526-3.4,3.185,3.185,0,0,0-3.381-1.959c-1.826.428-2.612,2.8-4.4,3.375a3.477,3.477,0,0,1-3.878-2,10.152,10.152,0,0,1-.74-4.623v-5.351c0-1.936-.064-4.045-1.26-5.559-1.485-1.9-4.987-2.728-7.316-2.652a6.2,6.2,0,0,0-4.178,1.687,5.4,5.4,0,0,1-4.4,1.566,3.8,3.8,0,0,1-3.063-2.652c-.179-.688-.133-1.422-.335-2.109-.5-1.676-2.312-2.548-3.467-3.82a6.934,6.934,0,0,1-1.8-4.513,7.27,7.27,0,0,0,1.8,5.473c1.2,1.271,2.988,2.15,3.467,3.826.2.682.156,1.416.335,2.1a3.8,3.8,0,0,0,3.063,2.652,5.369,5.369,0,0,0,4.4-1.566,6.2,6.2,0,0,1,4.178-1.687c2.312-.075,5.831.757,7.316,2.652,1.2,1.526,1.254,3.623,1.26,5.559v5.351a9.749,9.749,0,0,0,.74,4.623c.74,1.393,2.369,2.479,3.878,2,1.791-.578,2.577-2.947,4.4-3.375A3.192,3.192,0,0,1,975.5,227.26Z" transform="translate(-937.259 -197.69)"/>
        <path id="Path_917" data-name="Path 917" d="M1023.017,237.7a8.188,8.188,0,0,1-1.815,2.936q-3.519,4.236-7.044,8.466c-2.965,3.566-6.108,7.692-5.877,12.24.214-4.172,3.121-7.969,5.877-11.28l7.044-8.46a8.263,8.263,0,0,0,1.815-2.941,7.939,7.939,0,0,0,.185-2.312,5.556,5.556,0,0,1-.185,1.352Z" transform="translate(-967.234 -214.009)"/>
        <path id="Path_918" data-name="Path 918" d="M1001.833,276.276a5.066,5.066,0,0,1-.208-1.156,5.776,5.776,0,0,0,.208,2.1c.485,1.549,2.248,2.826,3.727,2.161-.041-.312-.064-.624-.075-.936C1003.994,279.061,1002.283,277.8,1001.833,276.276Z" transform="translate(-964.42 -230.375)"/>
      </g>
      <path id="Path_919" data-name="Path 919" d="M879.26,795s2.231,3.924,10.309.468" transform="translate(-405.548 -353.884)" opacity="0.1"/>
      <path id="Path_920" data-name="Path 920" d="M997.5,796.67s6.969,8.206,15.753,2.687" transform="translate(-455.46 -354.589)" opacity="0.1"/>
      <path id="Path_921" data-name="Path 921" d="M1028.891,628.7s-4.929,3.08-5.085,4.843,2.543-1.283,2.543-1.283Z" transform="translate(-466.561 -283.685)" opacity="0.1"/>
      <path id="Path_922" data-name="Path 922" d="M1029.541,669.53a10.292,10.292,0,0,1-6.068,2.369c-3.681.162-3.375,4.964-.971,3.519A61.388,61.388,0,0,0,1029.541,669.53Z" transform="translate(-465.252 -300.92)" opacity="0.1"/>
      <path id="Path_923" data-name="Path 923" d="M1034.462,674.86s-2.364,11.615-4.282,9.373" transform="translate(-469.254 -303.17)" opacity="0.1"/>
      <path id="Path_924" data-name="Path 924" d="M189.892,768.36s3.173,4.149-1.468,10.4-8.466,11.558-6.935,15.464c0,0,7-11.639,12.713-11.8S196.162,775.358,189.892,768.36Z" transform="translate(-110.861 -342.638)" fill="#258c93"/>
      <path id="Path_925" data-name="Path 925" d="M190.033,768.36a4.986,4.986,0,0,1,.647,1.3c5.559,6.53,8.524,12.627,3.178,12.783-4.976.139-10.98,9.044-12.378,11.292a5.243,5.243,0,0,0,.168.509s7-11.639,12.713-11.8S196.3,775.358,190.033,768.36Z" transform="translate(-111.002 -342.638)" opacity="0.1"/>
      <path id="Path_926" data-name="Path 926" d="M205.954,776.829c0,1.462-.162,2.647-.364,2.647s-.37-1.185-.37-2.647.208-.769.41-.769S205.954,775.378,205.954,776.829Z" transform="translate(-121.023 -345.819)" fill="#ffd037"/>
      <path id="Path_927" data-name="Path 927" d="M208.167,779.8c-1.283.7-2.4,1.121-2.5.948s.867-.89,2.15-1.589.774-.191.873,0S209.45,779.1,208.167,779.8Z" transform="translate(-121.208 -347.046)" fill="#ffd037"/>
      <path id="Path_928" data-name="Path 928" d="M162.053,768.36s-3.173,4.149,1.468,10.4,8.466,11.558,6.935,15.464c0,0-7-11.639-12.713-11.8S155.789,775.358,162.053,768.36Z" transform="translate(-99.792 -342.638)" fill="#258c93"/>
      <path id="Path_929" data-name="Path 929" d="M162.044,768.36a5.2,5.2,0,0,0-.647,1.3c-5.559,6.53-8.524,12.627-3.178,12.783,4.981.139,10.98,9.044,12.378,11.292a4.051,4.051,0,0,1-.168.509s-7-11.639-12.713-11.8S155.779,775.358,162.044,768.36Z" transform="translate(-99.783 -342.638)" opacity="0.1"/>
      <path id="Path_930" data-name="Path 930" d="M157.05,776.829c0,1.462.162,2.647.364,2.647s.37-1.185.37-2.647-.208-.769-.41-.769S157.05,775.378,157.05,776.829Z" transform="translate(-100.689 -345.819)" fill="#ffd037"/>
      <path id="Path_931" data-name="Path 931" d="M152.979,779.8c1.283.7,2.4,1.121,2.5.948s-.867-.89-2.15-1.589-.774-.191-.873,0S151.7,779.1,152.979,779.8Z" transform="translate(-98.64 -347.046)" fill="#ffd037"/>
      <path id="Path_932" data-name="Path 932" d="M158.8,808.707s8.876-.272,11.558-2.179,13.65-4.178,14.314-1.121,13.337,15.192,3.317,15.273-23.283-1.56-25.953-3.19S158.8,808.707,158.8,808.707Z" transform="translate(-101.428 -357.645)" fill="#a8a8a8"/>
      <path id="Path_933" data-name="Path 933" d="M188.162,823.112c-10.02.081-23.283-1.56-25.953-3.19-2.034-1.237-2.843-5.681-3.115-7.732H158.8s.578,7.16,3.23,8.784,15.932,3.271,25.953,3.19c2.889,0,3.895-1.052,3.837-2.577C191.421,822.517,190.318,823.095,188.162,823.112Z" transform="translate(-101.428 -361.14)" opacity="0.2"/>
    </g>
  </g>
</svg>
