<svg xmlns="http://www.w3.org/2000/svg" xmlns:xlink="http://www.w3.org/1999/xlink" width="483.76" height="356" viewBox="0 0 483.76 356"><defs><linearGradient id="a" x1="0.5" y1="1" x2="0.5" gradientUnits="objectBoundingBox"><stop offset="0" stop-color="gray" stop-opacity="0.251"/><stop offset="0.54" stop-color="gray" stop-opacity="0.122"/><stop offset="1" stop-color="gray" stop-opacity="0.102"/></linearGradient></defs><g transform="translate(-145 -166)"><g transform="translate(145 166)"><path d="M316.074,87.6c-31.013-1.075-60.552-11.092-88.756-22.044S171.171,42.473,140.9,36.667c-19.471-3.733-41.737-4.251-57.423,6.178-15.1,10.044-19.976,27.4-22.6,43.475-1.974,12.107-3.134,24.831,2.269,36.18,3.755,7.864,10.42,14.479,15.031,22.014,16.033,26.226,4.709,58.562-12.681,84.163-8.134,12.013-17.608,23.469-23.9,36.257s-9.2,27.434-3.7,40.474c5.458,12.929,18.456,22.639,32.537,29.467,28.6,13.871,62.308,17.844,95.174,20.091,72.758,4.958,145.9,2.817,218.847.676,27-.8,54.109-1.61,80.669-5.784,14.744-2.316,29.968-5.994,40.671-14.877,13.593-11.277,16.962-30.37,7.852-44.524-15.275-23.713-57.517-29.6-68.194-55.055-5.878-14.008.158-29.613,8.7-42.606,18.323-27.874,49.036-52.324,50.654-84.184,1.113-21.881-13.653-43.8-36.48-54.148-23.932-10.853-57.11-9.487-74.766,8.477C375.4,81.44,343.456,88.555,316.074,87.6Z" transform="translate(-35.001 -34.225)" fill="#258c93" opacity="0.1"/><path d="M552.662,704.42l-83.482-1.07.244-2.141,4.037-35.319h73.314l5.394,35.319.411,2.676Z" transform="translate(-268.318 -380.816)" fill="#d0d2d5"/><path d="M552.581,751.066h-41.66l-41.741-.535.244-2.141H552.17Z" transform="translate(-268.318 -427.996)" opacity="0.1"/><rect width="110.774" height="2.676" transform="translate(186.948 320.929)" fill="#d0d2d5"/><path d="M545.526,195.24a6.965,6.965,0,0,0-6.931-7H229.235a6.965,6.965,0,0,0-6.935,7V382.753H545.526Z" transform="translate(-142.115 -122.304)" fill="#16666c"/><path d="M222.3,638.24V660.2a6.935,6.935,0,0,0,6.935,6.935H538.595a6.935,6.935,0,0,0,6.931-6.935V638.24Z" transform="translate(-142.115 -379.653)" fill="#d0d2d5"/><rect width="298.074" height="168.57" transform="translate(93.564 77.709)" fill="#258c93" opacity="0.85"/><path d="M593.923,667.018a7.231,7.231,0,0,0,5.685-2.757h0a7.366,7.366,0,0,0,.561-.826l-3.964-.651,4.281.034a7.214,7.214,0,0,0,.137-5.728l-5.75,3,5.3-3.9a7.222,7.222,0,1,0-11.932,8.083h0A7.222,7.222,0,0,0,593.923,667.018Z" transform="translate(-350.519 -387.869)" fill="#258c93"/><path d="M585.43,671.52l33.3,33.444-5.107-33.444Z" transform="translate(-334.8 -384.035)" opacity="0.1"/><rect width="195.648" height="117.303" rx="2.6" transform="translate(102.319 108.122)" fill="#fff"/><rect width="297.967" height="9.847" transform="translate(93.757 77.726)" fill="#fff"/><rect width="8.562" height="5.994" rx="0.78" transform="translate(95.041 79.439)" fill="#258c93"/><rect width="89.904" height="5.994" rx="0.58" transform="translate(196.932 79.439)" fill="#258c93" opacity="0.3"/><path d="M694.206,224.223h-.218l-.081-.068a1.819,1.819,0,0,0,.428-1.164,1.772,1.772,0,1,0-1.768,1.785,1.828,1.828,0,0,0,1.164-.428l.081.068v.223l1.37,1.37.428-.428Zm-1.644,0a1.237,1.237,0,1,1,1.233-1.233,1.225,1.225,0,0,1-1.233,1.233Z" transform="translate(-410.038 -141.171)" fill="#444053"/><circle cx="2.997" cy="2.997" r="2.997" transform="translate(384.446 79.439)" fill="#258c93"/><rect width="27.827" height="18.837" rx="2.43" transform="translate(312.094 98.276)" fill="#fff"/><rect width="35.962" height="2.997" rx="0.61" transform="translate(347.2 98.276)" fill="#fff"/><rect width="35.962" height="2.997" rx="0.61" transform="translate(347.2 104.697)" fill="#fff"/><rect width="35.962" height="2.997" rx="0.61" transform="translate(347.2 111.119)" fill="#fff"/><rect width="27.827" height="18.837" rx="2.43" transform="translate(312.094 127.815)" fill="#fff"/><rect width="35.962" height="2.997" rx="0.61" transform="translate(347.2 127.815)" fill="#fff"/><rect width="35.962" height="2.997" rx="0.61" transform="translate(347.2 134.237)" fill="#fff"/><rect width="35.962" height="2.997" rx="0.66" transform="translate(347.2 140.659)" fill="#fff"/><rect width="27.827" height="18.837" rx="2.43" transform="translate(312.094 157.355)" fill="#fff"/><rect width="35.962" height="2.997" rx="0.66" transform="translate(347.2 157.355)" fill="#fff"/><rect width="35.962" height="2.997" rx="0.66" transform="translate(347.2 163.777)" fill="#fff"/><rect width="35.962" height="2.997" rx="0.66" transform="translate(347.2 170.199)" fill="#fff"/><rect width="27.827" height="18.837" rx="2.43" transform="translate(312.094 186.895)" fill="#fff"/><rect width="35.962" height="2.997" rx="0.66" transform="translate(347.2 186.895)" fill="#fff"/><rect width="35.962" height="2.997" rx="0.66" transform="translate(347.2 193.317)" fill="#fff"/><rect width="35.962" height="2.997" rx="0.66" transform="translate(347.2 199.739)" fill="#fff"/><rect width="27.827" height="18.837" rx="2.43" transform="translate(312.094 216.435)" fill="#fff"/><rect width="35.962" height="2.997" rx="0.66" transform="translate(347.2 216.435)" fill="#fff"/><rect width="35.962" height="2.997" rx="0.66" transform="translate(347.2 222.857)" fill="#fff"/><rect width="35.962" height="2.997" rx="0.66" transform="translate(347.2 229.278)" fill="#fff"/><rect width="44.023" height="2.282" transform="translate(130.54 139.208)" fill="#258c93" opacity="0.1"/><rect width="4.238" height="12.064" transform="translate(134.453 127.143)" fill="#258c93" opacity="0.1"/><rect width="4.238" height="12.064" transform="translate(140.648 127.143)" fill="#258c93" opacity="0.1"/><rect width="4.238" height="12.064" transform="translate(146.843 127.143)" fill="#258c93" opacity="0.1"/><rect width="4.238" height="12.064" transform="translate(153.037 127.143)" fill="#258c93" opacity="0.1"/><rect width="4.238" height="12.064" transform="translate(159.232 127.143)" fill="#258c93" opacity="0.1"/><rect width="4.238" height="12.064" transform="translate(165.431 127.143)" fill="#258c93" opacity="0.1"/><rect width="4.238" height="1.306" transform="translate(134.453 129.425)" fill="#258c93" opacity="0.1"/><rect width="4.238" height="1.306" transform="translate(140.648 129.425)" fill="#258c93" opacity="0.1"/><rect width="4.238" height="1.306" transform="translate(146.843 129.425)" fill="#258c93" opacity="0.1"/><rect width="4.238" height="1.306" transform="translate(153.037 129.425)" fill="#258c93" opacity="0.1"/><rect width="4.238" height="1.306" transform="translate(159.232 129.425)" fill="#258c93" opacity="0.1"/><rect width="4.238" height="1.306" transform="translate(165.431 129.425)" fill="#258c93" opacity="0.1"/><rect width="4.238" height="1.306" transform="translate(134.453 135.295)" fill="#258c93" opacity="0.1"/><rect width="4.238" height="1.306" transform="translate(140.648 135.295)" fill="#258c93" opacity="0.1"/><rect width="4.238" height="1.306" transform="translate(146.843 135.295)" fill="#258c93" opacity="0.1"/><rect width="4.238" height="1.306" transform="translate(153.037 135.295)" fill="#258c93" opacity="0.1"/><rect width="4.238" height="1.306" transform="translate(159.232 135.295)" fill="#258c93" opacity="0.1"/><rect width="4.238" height="1.306" transform="translate(165.431 135.295)" fill="#258c93" opacity="0.1"/><rect width="44.023" height="2.282" transform="translate(227.058 145.077)" fill="#258c93" opacity="0.1"/><rect width="4.238" height="12.064" transform="translate(230.971 133.013)" fill="#258c93" opacity="0.1"/><rect width="4.238" height="12.064" transform="translate(237.166 133.013)" fill="#258c93" opacity="0.1"/><rect width="4.238" height="12.064" transform="translate(243.361 133.013)" fill="#258c93" opacity="0.1"/><rect width="4.238" height="12.064" transform="translate(249.56 133.013)" fill="#258c93" opacity="0.1"/><rect width="4.238" height="12.064" transform="translate(255.755 133.013)" fill="#258c93" opacity="0.1"/><rect width="4.238" height="12.064" transform="translate(261.95 133.013)" fill="#258c93" opacity="0.1"/><rect width="4.238" height="1.306" transform="translate(230.971 135.295)" fill="#258c93" opacity="0.1"/><rect width="4.238" height="1.306" transform="translate(237.166 135.295)" fill="#258c93" opacity="0.1"/><rect width="4.238" height="1.306" transform="translate(243.361 135.295)" fill="#258c93" opacity="0.1"/><rect width="4.238" height="1.306" transform="translate(249.56 135.295)" fill="#258c93" opacity="0.1"/><rect width="4.238" height="1.306" transform="translate(255.755 135.295)" fill="#258c93" opacity="0.1"/><rect width="4.238" height="1.306" transform="translate(261.95 135.295)" fill="#258c93" opacity="0.1"/><rect width="4.238" height="1.306" transform="translate(230.971 141.164)" fill="#258c93" opacity="0.1"/><rect width="4.238" height="1.306" transform="translate(237.166 141.164)" fill="#258c93" opacity="0.1"/><rect width="4.238" height="1.306" transform="translate(243.361 141.164)" fill="#258c93" opacity="0.1"/><rect width="4.238" height="1.306" transform="translate(249.56 141.164)" fill="#258c93" opacity="0.1"/><rect width="4.238" height="1.306" transform="translate(255.755 141.164)" fill="#258c93" opacity="0.1"/><rect width="4.238" height="1.306" transform="translate(261.95 141.164)" fill="#258c93" opacity="0.1"/><rect width="44.023" height="2.282" transform="translate(227.058 161.705)" fill="#258c93" opacity="0.1"/><rect width="4.238" height="12.064" transform="translate(230.971 149.641)" fill="#258c93" opacity="0.1"/><rect width="4.238" height="12.064" transform="translate(237.166 149.641)" fill="#258c93" opacity="0.1"/><rect width="4.238" height="12.064" transform="translate(243.361 149.641)" fill="#258c93" opacity="0.1"/><rect width="4.238" height="12.064" transform="translate(249.56 149.641)" fill="#258c93" opacity="0.1"/><rect width="4.238" height="12.064" transform="translate(255.755 149.641)" fill="#258c93" opacity="0.1"/><rect width="4.238" height="12.064" transform="translate(261.95 149.641)" fill="#258c93" opacity="0.1"/><rect width="4.238" height="1.306" transform="translate(230.971 151.923)" fill="#258c93" opacity="0.1"/><rect width="4.238" height="1.306" transform="translate(237.166 151.923)" fill="#258c93" opacity="0.1"/><rect width="4.238" height="1.306" transform="translate(243.361 151.923)" fill="#258c93" opacity="0.1"/><rect width="4.238" height="1.306" transform="translate(249.56 151.923)" fill="#258c93" opacity="0.1"/><rect width="4.238" height="1.306" transform="translate(255.755 151.923)" fill="#258c93" opacity="0.1"/><rect width="4.238" height="1.306" transform="translate(261.95 151.923)" fill="#258c93" opacity="0.1"/><rect width="4.238" height="1.306" transform="translate(230.971 157.792)" fill="#258c93" opacity="0.1"/><rect width="4.238" height="1.306" transform="translate(237.166 157.792)" fill="#258c93" opacity="0.1"/><rect width="4.238" height="1.306" transform="translate(243.361 157.792)" fill="#258c93" opacity="0.1"/><rect width="4.238" height="1.306" transform="translate(249.56 157.792)" fill="#258c93" opacity="0.1"/><rect width="4.238" height="1.306" transform="translate(255.755 157.792)" fill="#258c93" opacity="0.1"/><rect width="4.238" height="1.306" transform="translate(261.95 157.792)" fill="#258c93" opacity="0.1"/><path d="M399.683,394.583a12.181,12.181,0,0,1-.9-1.323l6.34-1.04-6.85.051a11.585,11.585,0,0,1-.223-9.153l9.183,4.761-8.481-6.233a11.559,11.559,0,1,1,19.081,12.929,11.233,11.233,0,0,1,1.319,2.106l-8.228,4.281,8.772-2.941a11.559,11.559,0,0,1-1.862,10.836,11.559,11.559,0,1,1-18.152,0,11.559,11.559,0,0,1,0-14.286Z" transform="translate(-242.137 -229.573)" fill="#258c93" opacity="0.1"/><path d="M420.308,436.112a11.513,11.513,0,0,1-2.475,7.134,11.559,11.559,0,1,1-18.151,0C398.128,441.288,420.308,434.815,420.308,436.112Z" transform="translate(-242.136 -263.962)" fill="#258c93" opacity="0.1"/><path d="M422.755,499.482a1.089,1.089,0,0,1,.056.094h-3.922c.021-.03.034-.064.056-.094a3.8,3.8,0,0,1-.505-1.931,3.965,3.965,0,0,1,.235-1.361h0c.218.034.488.073.8.107a13.74,13.74,0,0,0,2.736,0q.394-.038.809-.1a.039.039,0,0,0,0,.021,3.852,3.852,0,0,1,.231,1.34A3.8,3.8,0,0,1,422.755,499.482Z" transform="translate(-254.284 -298.417)" fill="#3f3d56" opacity="0.2"/><path d="M354.308,447H332.474c-.047-.124-.09-.257-.128-.385a11.5,11.5,0,0,1,.253-7.552,11.559,11.559,0,0,1-4.217-13.653,11.061,11.061,0,0,1-1.246-1l5.745-2.864-6.533,2.072a11.559,11.559,0,0,1-2.911-8.678l10.193,1.841-9.941-3.455a11.559,11.559,0,1,1,22.044,6.721,11.71,11.71,0,0,1,1.9,1.648l-6.6,6.512,7.513-5.4a11.559,11.559,0,0,1,1.421,10.917A11.559,11.559,0,0,1,354.308,447Z" transform="translate(-199.93 -245.839)" fill="#258c93" opacity="0.1"/><path d="M365.57,476.13H343.736c-.047-.124-.09-.257-.128-.385a11.5,11.5,0,0,1,.253-7.552c-2.055-1.421,17.223-14.158,17.6-12.916a11.508,11.508,0,0,1-.253,7.556A11.559,11.559,0,0,1,365.57,476.13Z" transform="translate(-211.192 -274.97)" fill="#258c93" opacity="0.1"/><path d="M578.46,444.218a11.516,11.516,0,0,1-5.784,4.863,11.731,11.731,0,0,1,.047,2.483l-9.252-.557,9.038,1.961a11.558,11.558,0,0,1-1.379,3.493,11.375,11.375,0,0,1-3.082,3.382h-12.6v.33H542.61c.026-.111.051-.218.081-.33a11.559,11.559,0,0,1,7.042-7.839,11.559,11.559,0,0,1,7.334-12.261,11.707,11.707,0,0,1-.094-1.6l5.972,2.359-5.908-3.472a11.559,11.559,0,0,1,4.534-7.954l5.441,8.811-4.08-9.7a11.559,11.559,0,0,1,15.528,16.029Z" transform="translate(-325.296 -258.701)" fill="#258c93" opacity="0.1"/><path d="M571.131,489.424a11.376,11.376,0,0,1-3.082,3.382h-12.6v.33H542.61c.026-.111.051-.218.081-.33a11.559,11.559,0,0,1,7.042-7.839c-.107-.856,2.38-.728,5.7-.171C561.935,485.888,571.572,488.688,571.131,489.424Z" transform="translate(-325.296 -291.647)" fill="#258c93" opacity="0.1"/><path d="M477.812,423.321s1.584,8.562-1.952,11.358,3,19.552,13.777,17.6,15.172-16.011,15.172-16.011-10.8-2.235-6.794-13.593Z" transform="translate(-286.57 -256.371)" fill="#ee8e9e"/><path d="M477.812,423.321s1.584,8.562-1.952,11.358,3,19.552,13.777,17.6,15.172-16.011,15.172-16.011-10.8-2.235-6.794-13.593Z" transform="translate(-286.57 -256.371)" fill="#efb7b9" opacity="0.7"/><circle cx="17.874" cy="17.874" r="17.874" transform="translate(182.911 137.487)" fill="#efb7b9"/><path d="M493.77,459.419v12.15H434.75v-11.6a7.484,7.484,0,0,1,4.568-6.893l1.691-.719c4.281-1.824,9.483-4.089,11.182-5.03a2.8,2.8,0,0,0,.522-.338c.929-.929.745.278.745.278s-.026.231-.043.629c-.1,2.736.291,13.486,12.891,12.591,12.291-.856,12.843-9.17,12.719-11.615a6.611,6.611,0,0,0-.056-.676,15.879,15.879,0,0,1,2.487.813,52.152,52.152,0,0,1,7.376,3.194c.317.223.7.454,1.122.689a7.378,7.378,0,0,1,1.327.946A7.5,7.5,0,0,1,493.77,459.419Z" transform="translate(-263.612 -270.079)" fill="#ddab6b"/><path d="M504.743,449.011c-1.04,4.821-4.307,13.849-16.08,14.085-12.544.248-13.272-12.227-13.19-15.767a2.53,2.53,0,0,0,.527-.338c.933-.929.745.278.745.278s-1.58,14.243,12.843,13.22S502.239,448.2,502.239,448.2A17.583,17.583,0,0,1,504.743,449.011Z" transform="translate(-286.898 -270.079)" opacity="0.1"/><path d="M452.965,360.215a3.061,3.061,0,0,1,3.224,1.177,5.842,5.842,0,0,1,.831,3.065c.775.163,1.212-.715,1.284-1.379.287-2.7.308-5.454,1.216-8.066a9.628,9.628,0,0,1,5.934-6.135,6.884,6.884,0,0,1,3.241-.308c.646.107,1.254.334,1.9.428,2.226.368,4.645-.685,6.73.047a5.367,5.367,0,0,1,2.753,2.594,5.6,5.6,0,0,0,1.07,1.554,7.414,7.414,0,0,0,3.545,1.25c1.272.248,2.659.681,3.2,1.661.488.886.128,1.909-.034,2.868a7.03,7.03,0,0,0,.724,4.44c.235.428.715.946,1.284.8a1.126,1.126,0,0,0,.608-.492c1.46-2.046,1.421-4.709,3.254-6.554.612-.616,1.4-1.1,2-1.712a3.887,3.887,0,0,0,1.036-3.528c-.33-1.413-1.46-2.569-2.372-3.81a14.983,14.983,0,0,1-2.539-5.27.955.955,0,0,1,0-.689,1.836,1.836,0,0,1,.651-.531,2.457,2.457,0,0,0,.831-3.138,5.232,5.232,0,0,0-2.941-2.342,19.178,19.178,0,0,0-4.011-.856,2.182,2.182,0,0,1-2.23-1.1c-.124-.321-.124-.668-.248-.989a2.269,2.269,0,0,0-1.712-1.2,5.009,5.009,0,0,0-2.29.163c-.856.24-1.828.6-2.569.18-.39-.218-.6-.616-1.023-.8-.856-.36-1.738.368-2.35.968a5.72,5.72,0,0,1-2.119,1.426,3.155,3.155,0,0,1-2.629-.175,8.3,8.3,0,0,1-1.349-1.447,5.077,5.077,0,0,0-3.189-1.284,11.229,11.229,0,0,0-3.6.394,21.741,21.741,0,0,0-6.323,2.654,6.8,6.8,0,0,0-2.427,2.256,5.138,5.138,0,0,0-.544,2.325,8.39,8.39,0,0,0,2.933,6.965c-1.336.557-1.785,1.922-2.1,3.134a17.153,17.153,0,0,0-.813,5.869,12.891,12.891,0,0,1,.223,3.052,6.577,6.577,0,0,0-.2,1.46A1.4,1.4,0,0,0,452.965,360.215Z" transform="translate(-273.337 -203.96)" fill="#22868d"/><g transform="translate(178.446 133.509)" opacity="0.1"><path d="M544.563,378a4.178,4.178,0,0,1-.771,1.139c-.6.625-1.387,1.109-2,1.712-1.832,1.832-1.794,4.512-3.254,6.559a1.1,1.1,0,0,1-.608.488c-.557.146-1.036-.36-1.284-.8a7.363,7.363,0,0,1-.638-1.712l-.086.428a7.03,7.03,0,0,0,.723,4.44c.235.428.715.946,1.284.8a1.126,1.126,0,0,0,.608-.492c1.46-2.046,1.421-4.709,3.254-6.554.612-.616,1.4-1.1,2-1.712a3.888,3.888,0,0,0,1.036-3.528,4.6,4.6,0,0,0-.265-.766Z" transform="translate(-499.864 -364.335)"/><path d="M545.955,347.771a1.794,1.794,0,0,0-.651.531.946.946,0,0,0,0,.685,14.479,14.479,0,0,0,.646,1.952h0a2.457,2.457,0,0,0,.831-3.138,3,3,0,0,0-.3-.5A2.464,2.464,0,0,1,545.955,347.771Z" transform="translate(-505.245 -346.778)"/><path d="M454.776,351.042a7.937,7.937,0,0,1-2.8-4.962,6.683,6.683,0,0,0-.128,1.164,8.914,8.914,0,0,0,1.409,5.3A3,3,0,0,1,454.776,351.042Z" transform="translate(-451.826 -346.08)"/><path d="M488,374.947c.163-.963.522-1.986.034-2.868-.544-.985-1.931-1.413-3.2-1.661a7.459,7.459,0,0,1-3.545-1.25,5.6,5.6,0,0,1-1.07-1.554,5.3,5.3,0,0,0-2.753-2.594c-2.085-.732-4.5.317-6.73-.047-.642-.107-1.25-.33-1.9-.428a6.85,6.85,0,0,0-3.241.308,9.647,9.647,0,0,0-5.934,6.135c-.908,2.607-.929,5.36-1.216,8.066-.073.659-.509,1.541-1.284,1.379a5.889,5.889,0,0,0-.831-3.07,3.061,3.061,0,0,0-3.224-1.173,1.567,1.567,0,0,1-.9-.578,4.963,4.963,0,0,1,0,1.182,6.577,6.577,0,0,0-.2,1.46,1.4,1.4,0,0,0,1.117,1.1,3.061,3.061,0,0,1,3.224,1.177,5.842,5.842,0,0,1,.831,3.065c.775.163,1.212-.715,1.284-1.379.287-2.7.308-5.454,1.216-8.066a9.628,9.628,0,0,1,5.934-6.135,6.884,6.884,0,0,1,3.241-.308c.646.107,1.254.334,1.9.428,2.226.368,4.645-.685,6.73.047a5.366,5.366,0,0,1,2.753,2.594,5.6,5.6,0,0,0,1.07,1.554,7.413,7.413,0,0,0,3.545,1.25c1.271.248,2.569.651,3.138,1.558A.369.369,0,0,1,488,374.947Z" transform="translate(-451.928 -356.598)"/><path d="M452.081,382.645a8.135,8.135,0,0,0-.141-2.385,10.626,10.626,0,0,0-.081,2.5,4.556,4.556,0,0,0,.077.638C451.982,383.145,452.047,382.9,452.081,382.645Z" transform="translate(-451.819 -365.627)"/></g><path d="M403.49,534.6v-7.727a.218.218,0,0,1,.218-.218h.878a.218.218,0,0,1,.218.218v3.215l3.562-3.3a.582.582,0,0,1,.955.428v7a.582.582,0,0,1-.955.428l-3.562-3.279v3.2a.218.218,0,0,1-.218.218h-.878A.218.218,0,0,1,403.49,534.6Z" transform="translate(-245.735 -315.839)" fill="#444053"/><path d="M596.748,526.894v7.727a.218.218,0,0,1-.223.218h-.856a.218.218,0,0,1-.218-.218v-3.215l-3.562,3.3a.586.586,0,0,1-.959-.428v-7.025a.586.586,0,0,1,.959-.428l3.562,3.279v-3.194a.218.218,0,0,1,.218-.218h.856A.218.218,0,0,1,596.748,526.894Z" transform="translate(-352.929 -315.858)" fill="#444053"/><path d="M497.139,535.168H495.4a.856.856,0,0,1-.856-.856v-6.4a.856.856,0,0,1,.856-.856h1.742a.856.856,0,0,1,.856.856v6.4A.856.856,0,0,1,497.139,535.168Zm5.523-.856v-6.4a.856.856,0,0,0-.856-.856h-1.76a.856.856,0,0,0-.856.856v6.4a.856.856,0,0,0,.856.856h1.742a.856.856,0,0,0,.873-.856Z" transform="translate(-297.805 -316.071)" fill="#444053"/><rect width="102.747" height="1.143" transform="translate(149.411 200.62)" fill="#444053" opacity="0.6"/><circle cx="2.71" cy="2.71" r="2.71" transform="translate(178.429 198.48)" fill="#444053"/><rect width="31.727" height="1.143" transform="translate(149.411 200.62)" fill="#444053"/><ellipse cx="25.46" cy="4.898" rx="25.46" ry="4.898" transform="translate(384.279 319.841)" fill="#258c93"/><ellipse cx="2.963" cy="3.879" rx="2.963" ry="3.879" transform="translate(406.352 318.78)" fill="#3f3d56"/><ellipse cx="2.963" cy="3.879" rx="2.963" ry="3.879" transform="translate(406.352 314.036)" fill="#3f3d56"/><ellipse cx="2.963" cy="3.879" rx="2.963" ry="3.879" transform="translate(406.352 309.297)" fill="#3f3d56"/><ellipse cx="2.963" cy="3.879" rx="2.963" ry="3.879" transform="translate(406.352 304.554)" fill="#3f3d56"/><ellipse cx="2.963" cy="3.879" rx="2.963" ry="3.879" transform="translate(406.352 299.81)" fill="#3f3d56"/><ellipse cx="2.963" cy="3.879" rx="2.963" ry="3.879" transform="translate(406.352 295.067)" fill="#3f3d56"/><ellipse cx="2.963" cy="3.879" rx="2.963" ry="3.879" transform="translate(406.352 290.323)" fill="#3f3d56"/><path d="M983.125,614.93a14.681,14.681,0,0,0,1.1-1.627l-7.792-1.284,8.425.064a14.243,14.243,0,0,0,.27-11.251L973.839,606.7l10.42-7.659a14.2,14.2,0,1,0-23.452,15.891,14.5,14.5,0,0,0-1.618,2.569l10.112,5.253-10.78-3.618a14.209,14.209,0,0,0,2.286,13.331,14.2,14.2,0,1,0,22.322,0,14.2,14.2,0,0,0,0-17.553Z" transform="translate(-562.718 -353.179)" fill="#258c93"/><path d="M957.78,665.851a14.128,14.128,0,0,0,3.035,8.776,14.2,14.2,0,1,0,22.322,0C985.038,672.217,957.78,664.258,957.78,665.851Z" transform="translate(-562.725 -395.324)" opacity="0.1"/><ellipse cx="42.383" cy="8.99" rx="42.383" ry="8.99" transform="translate(81.769 338.019)" fill="#258c93" opacity="0.1"/><path d="M312.079,616.352a11.155,11.155,0,0,0-2.667-.36,8.254,8.254,0,0,1-4.906-2.38,8.99,8.99,0,0,1-1.961-3c.283.1.565.21.856.325-.856-2,.043-4.243.831-6.263q2-5.137,3.789-10.33c3-8.772,5.565-17.9,5.51-27.228,0-3.374-.621-6.563-.741-9.932-.09-2.5.3-5,.278-7.5,0-.351,0-.7-.026-1.049a6.648,6.648,0,0,0,2.256-5.42,13.042,13.042,0,0,0-.227-1.575,25.556,25.556,0,0,0-.6-2.68c-.283-.929-.668-1.819-1-2.727-.638-1.76-1.07-3.592-1.614-5.381a1.853,1.853,0,0,1,.582.158,1.255,1.255,0,0,1-.274-.561,13.874,13.874,0,0,1-.514-3.5l.364-.163a9.106,9.106,0,0,0-.176-3.463c.206-1.837.527-3.686.724-5.514.073-.685.043-1.545-.586-1.712-.128-.98-.18-1.974-.231-2.963q-.27-5.176-.535-10.348c-.18-3.463-.36-6.923-.428-10.39a30.331,30.331,0,0,0-.6-6.584,7.962,7.962,0,0,0-.3-3,6.142,6.142,0,0,0-5.78-4.38,11.5,11.5,0,0,0-2.736-2.766c.5-1.122,1.1-2.278,1.593-3.185a10.379,10.379,0,0,0,6.953-9.975,10.887,10.887,0,0,0-1.177-4.962,5.362,5.362,0,0,0,.188-.578,4.748,4.748,0,0,0-.193-2.778,8.129,8.129,0,0,0-.428-.993c-.111-.214-.231-.428-.355-.634l-.218-.33a6.15,6.15,0,0,0-.428-.582,14.174,14.174,0,0,0-.976-1.173,9.662,9.662,0,0,0-1.4-1.25,6.191,6.191,0,0,0-2.312-1.066,7.049,7.049,0,0,0-1.468-.133c-.3,0-.6,0-.89.026-.6.034-1.194.077-1.79.073a3.956,3.956,0,0,1-.6-.03,21.67,21.67,0,0,1-3.1-.646l-.514-.107c-.176-.034-.347-.064-.522-.086a9.809,9.809,0,0,0-1.417-.086h-.475a13.126,13.126,0,0,0-1.417.146l-.471.073a13.527,13.527,0,0,0-3.446,1.023c-.141.064-.287.137-.428.214l-.086.047c-.116.06-.231.124-.342.193l-.064.039-.364.231-.03.021c-3.4,2.286-5.407,6.619-5.917,10.917-.569,4.825.428,9.688,1.426,14.436l.9,4.281c.039.193.081.381.12.574a9.419,9.419,0,0,0-2.821,3.913,16.7,16.7,0,0,0-.809,6.777c0,.471.026.942.073,1.413-.107.89-.2,1.785-.261,2.684-.27,4.153.235,8.327.1,12.488-.1,3.207-.587,6.422-.351,9.607a43.371,43.371,0,0,0,1.712,8.293l1.079,3.887a1.032,1.032,0,0,0,.27.535.814.814,0,0,0,.6.124,36.435,36.435,0,0,0-1.755,4.915,15.2,15.2,0,0,0-.634,3.159,19.3,19.3,0,0,0,.766,5.814q1.027,4.281,2.046,8.6.719,3.018,1.434,6.032a64.277,64.277,0,0,1,2.064,12.034,26.136,26.136,0,0,1-.428,6.118,53.309,53.309,0,0,0-.531,18.336,89.907,89.907,0,0,0,3.463,15.16c.347-.184.7-.355,1.057-.514l-.15.278q-.741,1.284-1.37,2.633a14.979,14.979,0,0,0-.732,1.8,20.288,20.288,0,0,0-.711,5.339,2.612,2.612,0,0,0,.09,1.032,2.143,2.143,0,0,0,1.541,1.156,14.075,14.075,0,0,0,5.694.09.692.692,0,0,0,.039.124,2.135,2.135,0,0,0,1.541,1.156c2.646.753,5.437.043,8.164-.214s5.407-.068,8.031-.7a3.823,3.823,0,0,0,1.113-.428,3.643,3.643,0,0,0,1.4-1.948,2.5,2.5,0,0,0,.163-.638A2.17,2.17,0,0,0,312.079,616.352ZM303.025,576.7a10.789,10.789,0,0,1-.856,2.9,55.4,55.4,0,0,0-4.392,13.772,63.851,63.851,0,0,0-.972,9.525c-.043,2.355.047,4.821-.933,6.935l.355-.056c-.111.205-.218.428-.321.591l-.051.094a9.282,9.282,0,0,1-1.169-3.279c0-.039-.193-.068-.488-.086a88.591,88.591,0,0,1-1.25-20.5,9.493,9.493,0,0,1,.343-2.462c.218-.689.586-1.319.856-1.986A14.594,14.594,0,0,0,295,578.67a49.506,49.506,0,0,0,.539-9.213,38.219,38.219,0,0,1,1.143-8.691c.274-1.374.527-2.753.664-4.131l.026-.278A41.47,41.47,0,0,1,302.631,570,19.522,19.522,0,0,1,303.025,576.7ZM284.7,514.834l.137.12a9.414,9.414,0,0,1,1.139,1.194,1.58,1.58,0,0,1,.36.659c.128.625-.39,1.156-.813,1.614a7.287,7.287,0,0,0-.518.625q-.137-2.106-.291-4.213Z" transform="translate(-173.735 -270.387)" fill="url(#a)"/><path d="M278.751,542.53l-.471,3.635c-.158,1.233-.317,2.462-.4,3.7-.287,4.118.244,8.254.107,12.381-.111,3.177-.616,6.349-.372,9.521a40.371,40.371,0,0,0,1.811,8.22l1.13,3.853a1.019,1.019,0,0,0,.283.531,1,1,0,0,0,.724.116l5.017-.454c-.321-1.473-.676-3-.856-4.508-.137-1.182-.218-2.372-.3-3.562-.265-3.707-.569-7.415-.856-11.131l-.535-6.507a49.087,49.087,0,0,0-1.173-8.408,16.735,16.735,0,0,0-4.1-7.385Z" transform="translate(-173.709 -324.918)" fill="#258c93"/><path d="M278.751,542.53l-.471,3.635c-.158,1.233-.317,2.462-.4,3.7-.287,4.118.244,8.254.107,12.381-.111,3.177-.616,6.349-.372,9.521a40.371,40.371,0,0,0,1.811,8.22l1.13,3.853a1.019,1.019,0,0,0,.283.531,1,1,0,0,0,.724.116l5.017-.454c-.321-1.473-.676-3-.856-4.508-.137-1.182-.218-2.372-.3-3.562-.265-3.707-.569-7.415-.856-11.131l-.535-6.507a49.087,49.087,0,0,0-1.173-8.408,16.735,16.735,0,0,0-4.1-7.385Z" transform="translate(-173.709 -324.918)" fill="#ecb773" opacity="0.1"/><path d="M299.195,825.528a15.33,15.33,0,0,0-.771,1.789,19.266,19.266,0,0,0-.745,5.292,2.569,2.569,0,0,0,.094,1.023,2.231,2.231,0,0,0,1.623,1.143c2.778.749,5.707.047,8.562-.21s5.677-.068,8.434-.689a4.306,4.306,0,0,0,1.169-.407,3.643,3.643,0,0,0,1.477-1.927,2.517,2.517,0,0,0,.167-.634,2.188,2.188,0,0,0-1.618-2.063,12.2,12.2,0,0,0-2.8-.355,8.819,8.819,0,0,1-7.809-7.368,19.4,19.4,0,0,0-5.137.184,4.3,4.3,0,0,0-1.229,1.614Q299.854,824.192,299.195,825.528Z" transform="translate(-185.214 -484.182)" fill="#a26565"/><path d="M299.195,825.528a15.33,15.33,0,0,0-.771,1.789,19.266,19.266,0,0,0-.745,5.292,2.569,2.569,0,0,0,.094,1.023,2.231,2.231,0,0,0,1.623,1.143c2.778.749,5.707.047,8.562-.21s5.677-.068,8.434-.689a4.306,4.306,0,0,0,1.169-.407,3.643,3.643,0,0,0,1.477-1.927,2.517,2.517,0,0,0,.167-.634,2.188,2.188,0,0,0-1.618-2.063,12.2,12.2,0,0,0-2.8-.355,8.819,8.819,0,0,1-7.809-7.368,19.4,19.4,0,0,0-5.137.184,4.3,4.3,0,0,0-1.229,1.614Q299.854,824.192,299.195,825.528Z" transform="translate(-185.214 -484.182)" fill="#22868d"/><path d="M317.043,828.678a14.559,14.559,0,0,0-.771,1.785,19.059,19.059,0,0,0-.745,5.291,2.5,2.5,0,0,0,.094,1.023,2.231,2.231,0,0,0,1.618,1.147c2.778.745,5.711.043,8.562-.214s5.681-.068,8.434-.689a4.117,4.117,0,0,0,1.169-.428,3.626,3.626,0,0,0,1.477-1.926,2.515,2.515,0,0,0,.167-.634,2.192,2.192,0,0,0-1.618-2.063,12.441,12.441,0,0,0-2.8-.355,8.823,8.823,0,0,1-7.809-7.364,19.372,19.372,0,0,0-5.137.18,4.262,4.262,0,0,0-1.233,1.614C317.964,826.914,317.484,827.787,317.043,828.678Z" transform="translate(-195.421 -485.971)" fill="#22868d"/><path d="M317.047,670.354c.06,9.252-2.629,18.293-5.784,26.971q-1.875,5.163-3.977,10.236c-.831,2-1.768,4.23-.878,6.208a15.027,15.027,0,0,0-7.882-1.1c1.027-2.1.929-4.538.976-6.85a60.066,60.066,0,0,1,1.01-9.44,52.657,52.657,0,0,1,4.619-13.653,10.4,10.4,0,0,0,.895-2.877,18.376,18.376,0,0,0-.381-6.64,39.588,39.588,0,0,0-5.523-13.528l-.026.274a39.93,39.93,0,0,1-.694,4.1,35.834,35.834,0,0,0-1.2,8.614,46.589,46.589,0,0,1-.565,9.132,13.885,13.885,0,0,1-.92,3.451c-.3.664-.681,1.284-.912,1.974a8.99,8.99,0,0,0-.36,2.44,82.751,82.751,0,0,0,1.421,20.866,13.252,13.252,0,0,0-6.9,1.571,85,85,0,0,1-3.639-15.027,49.928,49.928,0,0,1,.557-18.178,24.153,24.153,0,0,0,.449-6.058,60.476,60.476,0,0,0-2.166-11.932l-1.507-5.994q-1.07-4.281-2.141-8.524a18.123,18.123,0,0,1-.8-5.762,14.3,14.3,0,0,1,.668-3.134,34.973,34.973,0,0,1,4.739-9.693c8.25.462,16.6-.308,24.831-.942a1.665,1.665,0,0,1,1.164.2,1.648,1.648,0,0,1,.471,1.062l3.1,17.553a44.1,44.1,0,0,1,.878,7.406c0,2.483-.385,4.958-.291,7.436C316.4,663.851,317.03,667.011,317.047,670.354Z" transform="translate(-175.504 -373.126)" fill="#16666c"/><path d="M312.748,685.868a39.93,39.93,0,0,1-.694,4.1c-1.794-3.1-3.729-6.131-5.381-9.311-.428-.818-.831-1.648-1.237-2.479l-1.22-2.483c-.227-.467-.454-.933-.659-1.408a10.176,10.176,0,0,1-.766-2.141c.6-.111,2.081,1.507,2.526,1.931a34.542,34.542,0,0,1,2.569,2.843,31.172,31.172,0,0,1,2.68,3.51A17.074,17.074,0,0,1,312.748,685.868Z" transform="translate(-188.146 -399.038)" opacity="0.1"/><path d="M317.841,500.278s-4.581,7.3-3.733,8.828-14.427-1.357-14.427-1.357,8.318-7.3,7.466-10.356S317.841,500.278,317.841,500.278Z" transform="translate(-186.367 -298.604)" fill="#efb7b9"/><circle cx="10.356" cy="10.356" r="10.356" transform="translate(117.046 183.171)" fill="#efb7b9"/><path d="M306.017,516.257a10.514,10.514,0,0,0-4.354-3.5,15.575,15.575,0,0,0-3.1-.762l-4.131-.728a5.262,5.262,0,0,0-3.035.068,4.975,4.975,0,0,0-1.284.946,17.119,17.119,0,0,1-4.628,3.562c-.492.21-1.006.364-1.5.574a8.649,8.649,0,0,0-4.375,4.709,15.711,15.711,0,0,0-.856,6.713,11.8,11.8,0,0,0,.235,2.363,15.227,15.227,0,0,0,.783,2.166,39.63,39.63,0,0,1,1.43,4.594q1.605,6.143,2.671,12.415a4.653,4.653,0,0,0,.518,1.712,6.147,6.147,0,0,0,1.43,1.374,8.933,8.933,0,0,1,1.194,1.186,1.549,1.549,0,0,1,.39.634c.133.617-.428,1.147-.856,1.6a7.732,7.732,0,0,0-1.935,3.369,1.357,1.357,0,0,0-.308.929,1.627,1.627,0,0,1,.1.736,1.662,1.662,0,0,1-.39.6,2.282,2.282,0,0,0-.428,1.832,29.064,29.064,0,0,0,10.138,2.372c.856.043,1.712.043,2.569.146.608.077,1.207.2,1.815.274a19.6,19.6,0,0,0,2.654.068c4.611-.094,9.354-.21,13.588-2.038.4-2.171-.462-4.384-1-6.524-.856-3.425-1.07-6.931-1.712-10.386-.428-2.359-1.07-4.684-1.434-7.06a17.257,17.257,0,0,1,.206-7.149c.578-2.046.753-4.136,1.353-6.178a10.585,10.585,0,0,0,.342-6.276A6.454,6.454,0,0,0,306.017,516.257Z" transform="translate(-174.389 -306.929)" fill="#ecb773"/><path d="M312.559,460.484c.505-1.837-.488-3.75-1.67-5.244a8.882,8.882,0,0,0-4.928-3.455c-1.631-.33-3.322.069-4.983-.064-1.468-.116-2.881-.646-4.341-.856a13.752,13.752,0,0,0-3.973.15,15.09,15.09,0,0,0-3.618,1.01c-4.41,1.957-6.991,6.777-7.59,11.559s.45,9.6,1.494,14.308l.946,4.255a84.516,84.516,0,0,1,2.23,13.409,28.45,28.45,0,0,1-2.089,13.314,28.636,28.636,0,0,0,13.156-14.894c.668-1.751,1.164-3.57,1.909-5.291.638-1.481,1.456-2.885,2.021-4.4a14.282,14.282,0,0,0,.9-5.339c-.034-1.37-.261-2.731-.223-4.1a5.666,5.666,0,0,1,1.336-3.789,11.578,11.578,0,0,1,3.117-1.854,12.977,12.977,0,0,0,4.362-3.639,3.991,3.991,0,0,0,.89-2.295A29.085,29.085,0,0,1,312.559,460.484Z" transform="translate(-175.845 -272.45)" fill="#d5ac76"/><path d="M352.289,647.535a27.483,27.483,0,0,0,.146,3.2c.176.788.582,1.5.822,2.269a10.791,10.791,0,0,1,.364,2.727c.034.771-.026,1.712-.711,2.072-.3.158-.659.158-.972.3s-.578.509-.4.8.488.244.771.3.587.347.428.582a.488.488,0,0,1-.248.158,3.029,3.029,0,0,0-.8.385.822.822,0,0,0-.33.784.484.484,0,0,0,.689.317,2.141,2.141,0,0,0-.2.856c1.1.471,2.325-.146,3.352-.741a12.633,12.633,0,0,0,1.284-.822,6.422,6.422,0,0,0,2.5-5.467,12.758,12.758,0,0,0-.244-1.563,23.509,23.509,0,0,0-.629-2.659c-.3-.921-.7-1.8-1.045-2.7-.736-1.922-1.212-3.934-1.879-5.882a.891.891,0,0,0-.321-.509.9.9,0,0,0-.475-.09,7.787,7.787,0,0,0-2.23.206,2.371,2.371,0,0,0-1.361.856c-.2.428.12.788.313,1.143A9.581,9.581,0,0,1,352.289,647.535Z" transform="translate(-215.562 -381.709)" fill="#efb7b9"/><path d="M339.79,533.64a3.137,3.137,0,0,1,.548.762c1.473,2.676,1.49,5.874,1.558,8.926.077,3.425.265,6.85.454,10.3l.561,10.275c.056.98.107,1.961.248,2.933.659.167.685,1.023.612,1.712-.475,4.187-1.652,8.5-.428,12.527a1.258,1.258,0,0,0,.287.557,3.344,3.344,0,0,0-1.914-.026c-.612.128-1.2.355-1.819.5a3.864,3.864,0,0,0-2.192.856,42.483,42.483,0,0,1-1.434-5.531,21.289,21.289,0,0,0-1.066-5.06c-.278-.638-.655-1.229-1-1.841a40.255,40.255,0,0,1-3.536-10.39,15.168,15.168,0,0,1-.274-5.163,17.752,17.752,0,0,0,.214-2.376,18.25,18.25,0,0,0-.33-2.5,16.76,16.76,0,0,1,.5-7.239c.642-2.179,1.207-4.474,2.569-6.306A8.622,8.622,0,0,1,339.79,533.64Z" transform="translate(-203.761 -319.834)" opacity="0.1"/><path d="M340.991,532.84a3.164,3.164,0,0,1,.548.766c1.473,2.671,1.49,5.874,1.558,8.926.077,3.425.265,6.85.454,10.275l.561,10.275c.056.98.107,1.961.248,2.933.659.167.685,1.023.608,1.712-.471,4.187-1.648,8.494-.428,12.527a1.258,1.258,0,0,0,.287.557,3.343,3.343,0,0,0-1.914-.026c-.612.128-1.2.355-1.819.492a3.894,3.894,0,0,0-2.192.856,42.043,42.043,0,0,1-1.421-5.557,21.256,21.256,0,0,0-1.066-5.056,20.672,20.672,0,0,0-1-1.841,40.126,40.126,0,0,1-3.536-10.395,15.164,15.164,0,0,1-.274-5.163,11.131,11.131,0,0,0-.116-4.876,16.739,16.739,0,0,1,.5-7.235c.642-2.179,1.207-4.474,2.569-6.306S338.718,532.874,340.991,532.84Z" transform="translate(-204.453 -319.376)" fill="#ecb773"/><g transform="translate(108.193 178.335)" opacity="0.1"><path d="M318.878,455.24a8.882,8.882,0,0,0-4.928-3.455c-1.631-.33-3.322.069-4.983-.064-1.468-.116-2.881-.646-4.341-.856a13.752,13.752,0,0,0-3.973.15,15.09,15.09,0,0,0-3.618,1.01,10.745,10.745,0,0,0-1.785,1.015,15.223,15.223,0,0,1,3.2-.856,13.7,13.7,0,0,1,3.969-.15c1.464.188,2.873.715,4.345.831,1.657.133,3.348-.261,4.983.064a8.836,8.836,0,0,1,4.923,3.459c1.186,1.49,2.175,3.4,1.674,5.244a29.256,29.256,0,0,0-1.049,2.813,3.973,3.973,0,0,1-.895,2.295,13.007,13.007,0,0,1-3.142,2.924c.33-.154.668-.308.989-.475a12.975,12.975,0,0,0,4.362-3.639,3.991,3.991,0,0,0,.891-2.295,29.547,29.547,0,0,1,1.049-2.813C321.052,458.647,320.059,456.734,318.878,455.24Z" transform="translate(-292.026 -450.785)"/><path d="M306.822,497.531a4.286,4.286,0,0,1,.578-.5,8.871,8.871,0,0,0-2.787,1.712,5.724,5.724,0,0,0-1.336,3.789c-.051,1.37.193,2.731.223,4.1a14.3,14.3,0,0,1-.9,5.343c-.565,1.511-1.383,2.911-2.021,4.4-.741,1.712-1.237,3.536-1.905,5.287a28.684,28.684,0,0,1-10.878,13.537c-.026.056-.047.116-.073.171a28.637,28.637,0,0,0,13.156-14.894c.668-1.751,1.164-3.57,1.909-5.292.638-1.481,1.456-2.885,2.021-4.4a14.282,14.282,0,0,0,.9-5.339c-.034-1.37-.261-2.731-.223-4.1A5.722,5.722,0,0,1,306.822,497.531Z" transform="translate(-287.72 -477.232)"/></g></g></g></svg>