<svg xmlns="http://www.w3.org/2000/svg" width="428.402" height="285.115" viewBox="0 0 428.402 285.115">
  <g id="Confirmation-Faild-pic" transform="translate(0 0)">
    <path id="Path_1117" data-name="Path 1117" d="M671.694,243.948c-.89-.03-1.8-.045-2.694-.045V243c.908,0,1.824.015,2.724.045Z" transform="translate(-423.651 -193.887)" fill="#e6e6e6"/>
    <path id="Path_1118" data-name="Path 1118" d="M571.368,404.212c-1.214,0-2.437-.027-3.638-.081l.041-.9c1.8.081,3.637.1,5.446.059l.02.9Q572.306,404.212,571.368,404.212Zm7.367-.333-.082-.9c1.8-.164,3.621-.392,5.4-.678l.143.891c-1.8.289-3.639.52-5.463.686Zm-16.494-.179c-1.82-.206-3.652-.477-5.447-.806l.163-.888c1.774.325,3.586.593,5.385.8Zm27.36-1.565-.2-.88c1.761-.408,3.53-.883,5.258-1.412l.265.863c-1.748.535-3.538,1.016-5.319,1.429Zm-38.186-.419c-1.77-.452-3.549-.973-5.285-1.547l.283-.857c1.718.567,3.476,1.082,5.226,1.529Zm48.712-2.8-.324-.843c1.687-.647,3.372-1.361,5.008-2.121l.38.819c-1.654.768-3.358,1.49-5.065,2.145Zm-59.171-.655c-1.7-.694-3.388-1.456-5.028-2.263l.4-.81c1.621.8,3.294,1.551,4.971,2.238Zm69.143-3.979-.436-.791c1.583-.873,3.155-1.811,4.673-2.789l.489.759c-1.535.989-3.125,1.937-4.726,2.82Zm-79.029-.888c-1.584-.92-3.154-1.905-4.668-2.929l.506-.748c1.5,1.012,3.049,1.987,4.615,2.9Zm88.278-5.071-.54-.724c1.45-1.081,2.88-2.224,4.251-3.4l.588.685c-1.387,1.19-2.834,2.347-4.3,3.44Zm-97.4-1.1c-1.44-1.125-2.861-2.315-4.223-3.537l.6-.672c1.347,1.208,2.752,2.385,4.176,3.5ZM627.7,381.156l-.633-.643c1.289-1.268,2.551-2.6,3.751-3.949l.675.6c-1.214,1.367-2.49,2.711-3.794,3.993Zm-113.951-1.289c-1.275-1.312-2.521-2.683-3.7-4.077l.689-.584c1.168,1.378,2.4,2.734,3.661,4.031Zm121.258-6.948-.714-.552c1.1-1.43,2.174-2.918,3.18-4.423l.75.5c-1.017,1.523-2.1,3.028-3.216,4.474Zm-128.375-1.447c-1.085-1.472-2.132-3-3.112-4.541l.762-.485c.969,1.524,2,3.034,3.077,4.49Zm134.494-7.711-.783-.449c.9-1.57,1.757-3.191,2.546-4.819l.812.394c-.8,1.646-1.665,3.286-2.576,4.874Zm-140.4-1.571c-.873-1.605-1.7-3.261-2.461-4.921l.821-.376c.752,1.641,1.57,3.279,2.433,4.866Zm145.209-8.342-.838-.337c.676-1.68,1.3-3.4,1.86-5.126l.859.279c-.565,1.742-1.2,3.486-1.881,5.185Zm-149.786-1.655c-.645-1.711-1.238-3.467-1.764-5.217l.865-.259c.519,1.731,1.106,3.466,1.743,5.158Zm153.184-8.824-.876-.219c.438-1.755.82-3.546,1.135-5.325l.889.158c-.319,1.8-.705,3.611-1.147,5.386Zm-156.346-1.72c-.4-1.783-.749-3.6-1.028-5.41l.892-.138c.276,1.786.618,3.586,1.017,5.349Zm158.269-9.117-.9-.1c.193-1.795.326-3.622.4-5.43l.9.035C651.589,328.869,651.454,330.716,651.26,332.531Zm-159.952-1.76c-.155-1.819-.249-3.669-.281-5.5l.9-.015c.031,1.81.125,3.64.278,5.438Zm159.478-9.213c-.051-1.809-.165-3.638-.338-5.434l.9-.087c.175,1.817.291,3.666.343,5.5Zm-1.046-10.833c-.3-1.786-.66-3.581-1.078-5.337l.878-.209c.423,1.776.79,3.592,1.09,5.4Zm-2.521-10.587c-.539-1.724-1.144-3.451-1.8-5.132l.841-.328c.663,1.7,1.275,3.447,1.82,5.191Zm-3.95-10.129c-.771-1.635-1.609-3.264-2.489-4.839l.788-.44c.89,1.593,1.737,3.24,2.517,4.894Zm-5.3-9.5c-.989-1.516-2.042-3.015-3.128-4.455l.72-.544c1.1,1.457,2.164,2.973,3.164,4.506Zm-6.554-8.688c-1.184-1.366-2.431-2.708-3.706-3.99l.64-.637c1.289,1.3,2.55,2.654,3.748,4.035Zm-7.675-7.719c-1.361-1.194-2.78-2.355-4.215-3.45l.548-.718c1.452,1.108,2.887,2.282,4.263,3.489Zm-8.656-6.605c-1.512-1-3.076-1.954-4.648-2.844l.444-.786c1.59.9,3.171,1.867,4.7,2.876Zm-9.481-5.362c-1.633-.781-3.314-1.515-5-2.18l.332-.839c1.7.673,3.4,1.415,5.052,2.2Zm-10.13-4.011c-1.723-.548-3.487-1.042-5.243-1.47l.213-.877c1.777.432,3.561.933,5.3,1.487Zm-10.575-2.574c-1.78-.305-3.6-.553-5.4-.736l.092-.9c1.82.185,3.656.436,5.456.744Z" transform="translate(-326.019 -194.392)" fill="#e6e6e6"/>
    <path id="Path_1119" data-name="Path 1119" d="M492.143,408.383l-.9-.047c.047-.91.11-1.824.187-2.717l.9.077C492.252,406.579,492.19,407.483,492.143,408.383Z" transform="translate(-326.137 -283.096)" fill="#e6e6e6"/>
    <path id="Path_1120" data-name="Path 1120" d="M418.97,506.16H191V404.589l113.985,51.237L418.97,404.589Z" transform="translate(-104.778 -221.947)" fill="#1f787f"/>
    <path id="Path_1121" data-name="Path 1121" d="M191,404.589H418.97L305.211,463.274Z" transform="translate(-104.778 -221.947)" fill="#258c93"/>
    <circle id="Ellipse_173" data-name="Ellipse 173" cx="9.48" cy="9.48" r="9.48" transform="translate(190.953 231.847)" fill="#e6e6e6"/>
    <path id="Path_1122" data-name="Path 1122" d="M187.189,623.417c-.1-.169-2.546-4.248-3.393-12.718-.777-7.77-.277-20.868,6.515-39.138,12.868-34.611-2.966-62.537-3.127-62.815l.781-.453a69.322,69.322,0,0,1,6.54,18.528,80.832,80.832,0,0,1-3.348,45.055c-12.846,34.552-3.3,50.909-3.2,51.07Z" transform="translate(-157.329 -339.421)" fill="#3f3d56"/>
    <circle id="Ellipse_174" data-name="Ellipse 174" cx="5.869" cy="5.869" r="5.869" transform="translate(18.96 155.556)" fill="#258c93"/>
    <circle id="Ellipse_175" data-name="Ellipse 175" cx="5.869" cy="5.869" r="5.869" transform="translate(37.468 177.224)" fill="#258c93"/>
    <circle id="Ellipse_176" data-name="Ellipse 176" cx="5.869" cy="5.869" r="5.869" transform="translate(24.828 191.67)" fill="#258c93"/>
    <circle id="Ellipse_177" data-name="Ellipse 177" cx="5.869" cy="5.869" r="5.869" transform="translate(40.177 203.859)" fill="#258c93"/>
    <circle id="Ellipse_178" data-name="Ellipse 178" cx="5.869" cy="5.869" r="5.869" transform="translate(20.314 222.818)" fill="#258c93"/>
    <path id="Path_1123" data-name="Path 1123" d="M198.359,733.074s-5.869-14.446,11.737-25.28Z" transform="translate(-164.954 -448.862)" fill="#3f3d56"/>
    <path id="Path_1124" data-name="Path 1124" d="M155.146,744.705s-2.671-15.362-23.342-15.23Z" transform="translate(-128.958 -460.755)" fill="#3f3d56"/>
    <path id="Path_1125" data-name="Path 1125" d="M340.974,230.055a55.284,55.284,0,0,1,11.753-34.164A55.524,55.524,0,1,0,359.913,304.2a67.753,67.753,0,0,0,33.426,5.3L375.6,296.883a55.834,55.834,0,0,0,12.752-11.9A55.536,55.536,0,0,1,340.974,230.055Z" transform="translate(-215.252 -167.718)" fill="#ecb773"/>
    <path id="Path_1126" data-name="Path 1126" d="M562.333,191.816a55.526,55.526,0,0,0-99.3-34.164,55.523,55.523,0,0,1,35.624,89.092,55.882,55.882,0,0,0,23.475-1.548,67.753,67.753,0,0,0,33.426,5.3l-17.74-12.623A55.469,55.469,0,0,0,562.333,191.816Z" transform="translate(-310.664 -135.348)" fill="#258c93"/>
    <path id="Path_1127" data-name="Path 1127" d="M431.753,189.614a55.53,55.53,0,0,0,35.624,89.092,55.523,55.523,0,0,0-35.624-89.092Z" transform="translate(-287.055 -164.601)" fill="#e5f0f1"/>
    <rect id="Rectangle_244" data-name="Rectangle 244" width="428.402" height="0.903" transform="translate(0 284.212)" fill="#3f3d56"/>
    <path id="Path_1128" data-name="Path 1128" d="M872.812,294.753l-2.678,17.823-30.609,20.7s-16.094,7.712-15.081,12.5c.9,4.271,13.322,3.766,17.23-2.839l36.6-16.637,12.239-24.23Z" transform="translate(-508.898 -222.278)" fill="#ffb8b8"/>
    <path id="Path_1129" data-name="Path 1129" d="M806.5,558.589l1.354,18.96,13.091-.9-2.257-18.057Z" transform="translate(-442.426 -306.428)" fill="#ffb8b8"/>
    <path id="Path_1130" data-name="Path 1130" d="M906.781,714.088s-1.806-6.771-3.611-6.32l-2.708,4.966s-12.188,11.286-15.8,11.737c0,0-11.737,3.611,0,9.029H898.2s9.029-.451,10.834,0,12.188.451,12.64-2.257-1.354-8.126-1.354-8.126-1.665-13.318-3.541-10.722a35.462,35.462,0,0,1-3.23,3.951Z" transform="translate(-539.095 -448.836)" fill="#4c9297"/>
    <path id="Path_1131" data-name="Path 1131" d="M881.5,559.089l1.354,18.96,13.091-.9-2.257-18.057Z" transform="translate(-483.569 -306.702)" fill="#ffb8b8"/>
    <path id="Path_1132" data-name="Path 1132" d="M981.781,714.588s-1.806-6.771-3.611-6.32l-2.709,4.966s-12.188,11.286-15.8,11.737c0,0-11.737,3.611,0,9.029H973.2s9.028-.9,10.834-.451,12.188.451,12.64-2.257-1.354-7.674-1.354-7.674-1.665-13.318-3.541-10.722a35.443,35.443,0,0,1-3.23,3.951Z" transform="translate(-580.238 -449.11)" fill="#4c9297"/>
    <path id="Path_1133" data-name="Path 1133" d="M890.257,434.075,888,437.235v6.32l14.446,53.72,2.709,11.737s0,45.142,2.708,45.142,14.9,1.354,14.9-1.354-.9-64.1-.9-64.1l12.188,23.023s5.417,40.628,7.223,41.08,14.446,0,15.348-2.708l-2.708-25.731s.451-28.891-7.223-35.211c0,0-1.354-7.674-2.709-10.834s-3.611-4.966-2.257-7.223-1.806-27.086-1.806-27.086.9-7.674-.9-9.931S890.257,434.075,890.257,434.075Z" transform="translate(-543.789 -298.156)" fill="#258c93"/>
    <circle id="Ellipse_179" data-name="Ellipse 179" cx="13.994" cy="13.994" r="13.994" transform="translate(361.366 5.457)" fill="#ffb8b8"/>
    <path id="Path_1134" data-name="Path 1134" d="M951.814,193.6l-.9,9.029,3.611,3.16L931.5,216.622c5.671-9.689,7.351-18.512,4.514-24.828Z" transform="translate(-567.652 -165.797)" fill="#ffb8b8"/>
    <path id="Path_1135" data-name="Path 1135" d="M912.426,220.308s-3.611,7.223.9,5.417l13.994-9.931s15.348,5.869,20.766,12.64l-4.514,47.851-3.611,33.857s2.257,4.063,1.806,4.514-.9-.451-.451.9,1.806,0,.451,1.354-2.709,0-1.354,1.354,0,1.806,0,1.806-1.806-10.834-17.606-2.709-22.571,10.383-34.308.451l13.543-51.462,1.094-19.41a79.95,79.95,0,0,1,3.436-19.1c1.035-3.351,2.839-6.644,5.854-8.437Z" transform="translate(-544.063 -178.963)" fill="#e5f0f1"/>
    <path id="Path_1136" data-name="Path 1136" d="M981.481,310l6.771,16.7-15.8,33.405s-3.611,4.063-1.354,9.029a59.657,59.657,0,0,0,4.063,7.674s4.063-1.806,4.063-9.48l23.023-32.954-1.806-27.086Z" transform="translate(-588.967 -229.158)" fill="#ffb8b8"/>
    <path id="Path_1137" data-name="Path 1137" d="M987.791,244.517a17.253,17.253,0,0,0-3.611,16.251c2.709,9.931,4.966,17.606,4.966,17.606s10.834-8.126,19.863-3.16c0,0-1.354-29.343-9.029-32.051S987.791,244.517,987.791,244.517Z" transform="translate(-596.18 -193.466)" fill="#e5f0f1"/>
    <path id="Path_1138" data-name="Path 1138" d="M951.16,141.652s-4.276-9.264-12.471-7.126-12.827,5.345-13.183,8.551a45.76,45.76,0,0,0,.178,8.017s.891-6.592,6.592-5.166,14.609.356,14.609.356l1.425,12.827s2.43-2.591,4.212-1.165S956.861,144.5,951.16,141.652Z" transform="translate(-564.296 -134.206)" fill="#454252"/>
    <path id="Path_1139" data-name="Path 1139" d="M824.594,371.314h0l8.332-1.93a1.818,1.818,0,0,1,2.048.981l8.535,17.7a1.469,1.469,0,0,1-.922,2.052l-8.468,2.406a1.941,1.941,0,0,1-2.314-1.1l-5.446-12.649-.166.092-1.036-2.4.172-.088-1.52-3.531a1.119,1.119,0,0,1,.785-1.535Z" transform="translate(-508.525 -263.193)" fill="#3f3d56"/>
    <path id="Path_1140" data-name="Path 1140" d="M832.977,370.583l.973-.225a1.256,1.256,0,0,1,1.419.686l8.331,17.585a.778.778,0,0,1-.479,1.079l-8.408,2.537a1.008,1.008,0,0,1-1.218-.567l-7.882-18.345a.883.883,0,0,1,.612-1.209l.923-.214a.417.417,0,0,1,.462.21h0a.368.368,0,0,0,.408.185l4.38-1.014a.629.629,0,0,0,.48-.707Z" transform="translate(-509.58 -263.735)" fill="#258c93"/>
  </g>
</svg>
