<svg xmlns="http://www.w3.org/2000/svg" width="518.849" height="386.6" viewBox="0 0 518.849 386.6">
  <g id="Contact-Illustration" transform="translate(-130 -136)">
    <g id="undraw_delivery_address_03n0" transform="translate(130 136)">
      <rect id="Rectangle_182" data-name="Rectangle 182" width="316.058" height="1.342" transform="translate(57.972 364.459)" fill="#3f3d56"/>
      <path id="Path_835" data-name="Path 835" d="M539.183,425.242s-6.708,30.184,6.708,24.818,5.366-26.159,5.366-26.159Z" transform="translate(-313.599 -245.434)" fill="#ffb9b9"/>
      <path id="Path_836" data-name="Path 836" d="M754.886,443.964s16.1,19.452,6.037,23.476-15.427-18.11-14.086-20.123S754.886,443.964,754.886,443.964Z" transform="translate(-403.871 -254.094)" fill="#ffb9b9"/>
      <circle id="Ellipse_138" data-name="Ellipse 138" cx="20.123" cy="20.123" r="20.123" transform="translate(292.659 12.12)" fill="#ffb9b9"/>
      <path id="Path_837" data-name="Path 837" d="M521.751,70.3,519.068,91.1,541.2,99.146l4.7-23.476Z" transform="translate(-224.061 -30.348)" fill="#ffb9b9"/>
      <path id="Path_838" data-name="Path 838" d="M638.463,208.45s-11.371-5.614-13.734-10.185l-5.047,4.819s-36.221-3.354-41.587,14.757-.671,83.844-.671,83.844-7.378,29.513-5.366,30.184,26.83,12.744,61.709,6.037c0,0,15.427-2.683,18.11-.671s-1.342-32.2-1.342-32.2,26.83-60.368,22.135-67.746-25.489-22.806-25.489-22.806l1.342-7.378S639.133,211.133,638.463,208.45Z" transform="translate(-328.364 -148.036)" fill="#207d84"/>
      <path id="Path_839" data-name="Path 839" d="M567.308,224.447s-12.074,6.037-14.086,15.427-20.793,87.2-18.781,91.893,1.341,10.732,1.341,10.732l17.44-2.012s-3.354-4.7-1.342-6.708,4.025-8.72,2.683-11.4-2.683,2.012,4.7-6.708S583.406,227.13,567.308,224.447Z" transform="translate(-312.211 -159.338)" fill="#207d84"/>
      <path id="Path_840" data-name="Path 840" d="M724.44,264.574s5.7.335,7.043,9.726,3.689,67.411,3.689,67.411,8.72,18.781,5.366,21.464-1.342,6.708-1.342,6.708l-12.074,3.354L700.964,332.32Z" transform="translate(-384.158 -176.659)" fill="#207d84"/>
      <path id="Path_841" data-name="Path 841" d="M569.581,428.622s-4.025.671-4.025,15.427-7.378,60.368-2.683,67.746,5.366,73.783,5.366,73.783,12.744,5.366,23.476-12.074l1.341-9.391,2.683-45.611,10.732-57.014,14.756,63.051s-2.012,75.8,5.366,75.8,21.464-6.037,21.464-6.037,3.354-6.708,2.012-10.061-2.683-2.683-1.342-5.366,3.354-72.442,3.354-72.442-2.683-71.77-6.037-73.783S569.581,428.622,569.581,428.622Z" transform="translate(-323.875 -247.472)" fill="#185c61"/>
      <path id="Path_842" data-name="Path 842" d="M560.5,691.917l-10.732,11.4s-19.452,18.11-2.683,18.781,26.159-10.732,26.159-12.074.671-6.037,5.366-6.037,16.1-11.4,13.415-16.1-10.732-6.708-10.732-6.708Z" transform="translate(-314.791 -356.493)" fill="#2f2e41"/>
      <path id="Path_843" data-name="Path 843" d="M673.7,720.331s-8.049,16.1-3.354,19.452a56.451,56.451,0,0,1,6.037,4.7s4.025-.671,3.354,5.366,24.147,9.391,25.489,4.7.671-14.086-2.012-16.769-10.732-21.464-10.732-21.464S683.757,706.245,673.7,720.331Z" transform="translate(-370.304 -370.151)" fill="#2f2e41"/>
      <path id="Path_844" data-name="Path 844" d="M695.913,125.97l3.791-.538s-5.277-9.713-15.491-11.476l3.585-2.42s-6.23-4.452-14.282,1.271c-4.233,3.008-9.147,6.559-12.762,11.029l-3.7-.9.713,3.775-6.232,2.078,5.693.745a19.547,19.547,0,0,0-1.528,5.6,7.508,7.508,0,0,0,1.5,5.424h0s6.448-7.817,6.786-9.2l-.845,3.456s4.213-2.266,4.72-4.34l1.292,2.879,1.871-3.571,10.685,6.64-1.123-3.57,6.966,2.8-1.9-4.492s7.063,6.487,6.448,10.365a18.788,18.788,0,0,0,.893,8.064S703.748,133.379,695.913,125.97Z" transform="translate(-362.822 -109.886)" fill="#185c61"/>
      <rect id="Rectangle_183" data-name="Rectangle 183" width="107.416" height="1.285" transform="translate(411.433 244.073)" fill="#3f3d56"/>
      <rect id="Rectangle_184" data-name="Rectangle 184" width="25.892" height="25.892" transform="translate(91.444 343.111)" fill="#cfcce0"/>
      <path id="Path_845" data-name="Path 845" d="M323.3,732.457H296.044V705.2H323.3Zm-25.892-1.363h24.53v-24.53h-24.53Z" transform="translate(-209.37 -366.861)" fill="#3f3d56"/>
      <rect id="Rectangle_185" data-name="Rectangle 185" width="17.569" height="16.96" transform="matrix(0.933, -0.361, 0.361, 0.933, 129.28, 123.208)" fill="#f2f2f2"/>
      <path id="Path_846" data-name="Path 846" d="M387.4,328.512l-17.248,6.671-6.44-16.651,17.248-6.671Zm-16.708,5.5,15.524-6-5.8-14.986-15.524,6Z" transform="translate(-238.58 -197.071)" fill="#3f3d56"/>
      <rect id="Rectangle_186" data-name="Rectangle 186" width="17.569" height="16.96" transform="translate(441.049 293.096) rotate(71.027)" fill="#f2f2f2"/>
      <path id="Path_847" data-name="Path 847" d="M899.222,641.715l-6.013-17.489,16.883-5.8,6.013,17.489Zm-4.868-16.9,5.411,15.74,15.195-5.224-5.411-15.74Z" transform="translate(-467.143 -329.401)" fill="#3f3d56"/>
      <path id="Path_848" data-name="Path 848" d="M273.558,509.5c9.607.206,17.249,7.168,17.249,7.168s-7.934,6.628-17.541,6.422-17.249-7.168-17.249-7.168S263.951,509.3,273.558,509.5Z" transform="translate(-192.091 -282.384)" fill="#258c93"/>
      <path id="Path_849" data-name="Path 849" d="M192.176,440.77c8.68,4.123,18.632,1.327,18.632,1.327s-4.12-9.482-12.8-13.605-18.632-1.327-18.632-1.327S183.5,436.647,192.176,440.77Z" transform="translate(-159.009 -246.443)" fill="#258c93"/>
      <path id="Path_850" data-name="Path 850" d="M190.76,444.531c9.569-.875,17.945,5.185,17.945,5.185s-7.139,7.477-16.708,8.352-17.945-5.185-17.945-5.185S181.191,445.406,190.76,444.531Z" transform="translate(-156.71 -254.302)" fill="#3f3d56"/>
      <path id="Path_851" data-name="Path 851" d="M265.1,434.85c-.917,9.565,5.1,17.968,5.1,17.968s7.509-7.105,8.426-16.671-5.1-17.968-5.1-17.968S266.015,425.285,265.1,434.85Z" transform="translate(-195.97 -242.964)" fill="#3f3d56"/>
      <path id="Path_852" data-name="Path 852" d="M341.748,542.159c-5.019,8.194-3.292,18.387-3.292,18.387s9.865-3.093,14.884-11.287,3.292-18.387,3.292-18.387S346.767,533.965,341.748,542.159Z" transform="translate(-227.553 -291.609)" fill="#3f3d56"/>
      <path id="Path_853" data-name="Path 853" d="M281.067,597.8l.731-.494a22.916,22.916,0,0,1-4.044-12.708c.02-6.646,3.285-12.793,6.442-18.738.586-1.1,1.17-2.2,1.732-3.3a72.1,72.1,0,0,0,5.607-14.077c4.9-18.2.076-39.668-12.9-57.434-10.291-14.093-25.632-26.416-46.9-37.674l-.413.78c21.146,11.194,36.388,23.433,46.6,37.415,12.816,17.551,17.585,38.741,12.757,56.683a71.236,71.236,0,0,1-5.54,13.9c-.56,1.1-1.142,2.191-1.726,3.29-3.207,6.04-6.524,12.285-6.545,19.15A23.807,23.807,0,0,0,281.067,597.8Z" transform="translate(-181.434 -258.153)" fill="#3f3d56"/>
      <circle id="Ellipse_139" data-name="Ellipse 139" cx="8.386" cy="8.386" r="8.386" transform="translate(0 179.602)" fill="#3f3d56"/>
      <path id="Path_854" data-name="Path 854" d="M736.057,335.206l-107.948-38.77,19.272-53.659,67.214-16.484,40.735,55.255Z" transform="translate(-271.13 -97.682)" fill="#2f2e41"/>
      <path id="Path_855" data-name="Path 855" d="M877.305,425.751,796.635,395c20.942-28.051,30.307-47.839,30.314-78.976l80.67,30.751C888.878,373.4,881.04,393.41,877.305,425.751Z" transform="translate(-425.455 -198.868)" fill="#f2f2f2"/>
      <rect id="Rectangle_187" data-name="Rectangle 187" width="44.726" height="2.08" transform="translate(416.406 136.183) rotate(20.866)" fill="#3f3d56"/>
      <rect id="Rectangle_188" data-name="Rectangle 188" width="44.726" height="2.08" transform="translate(413.442 143.958) rotate(20.866)" fill="#3f3d56"/>
      <rect id="Rectangle_189" data-name="Rectangle 189" width="44.726" height="2.08" transform="translate(410.478 151.734) rotate(20.866)" fill="#3f3d56"/>
      <rect id="Rectangle_190" data-name="Rectangle 190" width="44.726" height="2.08" transform="translate(407.514 159.508) rotate(20.866)" fill="#3f3d56"/>
      <rect id="Rectangle_191" data-name="Rectangle 191" width="44.726" height="2.08" transform="translate(404.551 167.284) rotate(20.866)" fill="#3f3d56"/>
      <rect id="Rectangle_192" data-name="Rectangle 192" width="44.726" height="2.08" transform="translate(401.587 175.059) rotate(20.866)" fill="#3f3d56"/>
      <rect id="Rectangle_193" data-name="Rectangle 193" width="44.726" height="2.08" transform="translate(398.623 182.835) rotate(20.866)" fill="#3f3d56"/>
      <rect id="Rectangle_194" data-name="Rectangle 194" width="44.726" height="2.08" transform="translate(395.658 190.61) rotate(20.866)" fill="#3f3d56"/>
      <path id="Path_856" data-name="Path 856" d="M731.669,354.669,623.721,315.9l21.766-60.6,45.585,42.743,62.363-3.972Z" transform="translate(-269.236 -110.201)" fill="#258c93"/>
      <path id="Path_857" data-name="Path 857" d="M676.267,354.127l-53.825-19.332,13.115-36.517,1.07.384L623.9,334.109l52.755,18.948Z" transform="translate(-268.684 -128.755)" fill="#258c93"/>
      <rect id="Rectangle_195" data-name="Rectangle 195" width="16.769" height="6.708" transform="translate(372.669 180.868) rotate(19.756)" fill="#258c93"/>
      <path id="Path_858" data-name="Path 858" d="M305.352,606.052l-84.487-.045.663-47.431,41.988,18.872,42.5-17.69Z" transform="translate(-95.339 -241.115)" fill="#258c93"/>
      <rect id="Rectangle_196" data-name="Rectangle 196" width="12.353" height="4.941" transform="translate(132.254 343.241) rotate(0.801)" fill="#258c93"/>
      <path id="Path_859" data-name="Path 859" d="M306.633,559.587l-42.705,21.771-42.287-21.771v-1.256h84.992Z" transform="translate(-95.674 -241.01)" fill="#2f2e41"/>
      <ellipse id="Ellipse_140" data-name="Ellipse 140" cx="5.132" cy="14.208" rx="5.132" ry="14.208" transform="translate(428.078 133.726) rotate(-69.134)" fill="#258c93"/>
      <path id="Path_860" data-name="Path 860" d="M945.978,211.695a21.6,21.6,0,0,0-27.036,14.21c-3.542,11.39,6.11,53.086,6.11,53.086s31.594-28.871,35.136-40.26A21.6,21.6,0,0,0,945.978,211.695Zm-9.45,30.391a10.23,10.23,0,1,1,12.806-6.731A10.23,10.23,0,0,1,936.528,242.086Z" transform="translate(-477.913 -153.41)" fill="#258c93"/>
    </g>
  </g>
</svg>
