<svg xmlns="http://www.w3.org/2000/svg" width="38.924" height="36.513" viewBox="0 0 38.924 36.513"><g transform="translate(0.2 -15.817)"><path d="M69.043,214.838H43.461A3.465,3.465,0,0,1,40,211.377v-18.21a1.2,1.2,0,0,1,2.408,0v18.21a1.055,1.055,0,0,0,1.053,1.053H69.043a1.055,1.055,0,0,0,1.053-1.053v-18.21a1.2,1.2,0,0,1,2.408,0v18.21A3.465,3.465,0,0,1,69.043,214.838Z" transform="translate(-36.99 -162.708)" fill="#258c93" stroke="#258c93" stroke-width="0.4"/><path d="M37.32,34.672a1.2,1.2,0,0,1-.851-.353L21.5,19.348a3.164,3.164,0,0,0-4.469,0L2.055,34.32a1.2,1.2,0,0,1-1.7-1.7L15.325,17.645a5.574,5.574,0,0,1,7.874,0L38.171,32.617a1.2,1.2,0,0,1-.851,2.055Z" fill="#258c93" stroke="#258c93" stroke-width="0.4"/><path d="M186.835,303.633H177.2a1.2,1.2,0,0,1-1.2-1.2V291.745a3.766,3.766,0,0,1,3.762-3.762h4.514a3.766,3.766,0,0,1,3.762,3.762v10.684A1.2,1.2,0,0,1,186.835,303.633Zm-8.427-2.408h7.223v-9.48a1.356,1.356,0,0,0-1.354-1.354h-4.514a1.356,1.356,0,0,0-1.354,1.354Z" transform="translate(-162.757 -251.503)" fill="#258c93" stroke="#258c93" stroke-width="0.4"/></g></svg>