<svg id="ear" xmlns="http://www.w3.org/2000/svg" width="84" height="84.5" viewBox="0 0 84 84.5">
  <path id="Path_22" data-name="Path 22" d="M54.463,27.231A27.231,27.231,0,1,0,0,27.231C0,34.114,1.287,40.9,2.525,47.482c1.188,6.387,2.426,13.088,2.426,19.524A17.49,17.49,0,0,0,22.28,84.5a16.419,16.419,0,0,0,4.951-.743A17.568,17.568,0,0,0,39.609,67.006a16.151,16.151,0,0,0-.347-3.466C38.075,57.6,42.382,50.6,46.492,46.492A27.039,27.039,0,0,0,54.463,27.231Z" fill="#fed2a4"/>
  <path id="Path_23" data-name="Path 23" d="M184.26,46.492c-4.109,4.109-8.417,11.107-7.229,17.049a16.143,16.143,0,0,1,.347,3.466A17.568,17.568,0,0,1,165,83.757V0a27.238,27.238,0,0,1,19.26,46.492Z" transform="translate(-137.769)" fill="#ffbd86"/>
  <path id="Path_24" data-name="Path 24" d="M94.262,73.517A17.278,17.278,0,0,0,80.548,60.3a18.122,18.122,0,0,0-3.218-.3A17.348,17.348,0,0,0,60,77.329c0,7.971,2.03,16.19,3.515,24.756a8.7,8.7,0,0,0,13.814,5.694,8.663,8.663,0,0,0,3.466-5.347l.347-1.881A17.38,17.38,0,0,0,65,79.8c-.05-.842-.05-1.634-.05-2.476A12.382,12.382,0,0,1,77.329,64.951a12.675,12.675,0,0,1,2.327.2,12.5,12.5,0,0,1,9.754,9.407,12.354,12.354,0,0,1-3.317,11.536l3.515,3.515A17.608,17.608,0,0,0,94.262,73.517Z" transform="translate(-50.098 -50.098)" fill="#f6a96c"/>
  <g id="Group_41" data-name="Group 41" transform="translate(59.029 10.163)">
    <rect id="Rectangle_17" data-name="Rectangle 17" width="25" height="5" transform="translate(-0.029 29.837)" fill="#ff9f00"/>
    <path id="Path_25" data-name="Path 25" d="M388.261,375.913l-19.97-9.9,2.214-4.429,19.97,9.9Z" transform="translate(-366.538 -312.07)" fill="#ff9f00"/>
    <path id="Path_26" data-name="Path 26" d="M370.505,75.913l-2.214-4.429,19.97-9.9,2.214,4.429Z" transform="translate(-366.538 -61.582)" fill="#ff9f00"/>
  </g>
  <g id="Group_42" data-name="Group 42" transform="translate(27.231 9.902)">
    <path id="Path_27" data-name="Path 27" d="M165,216.9a17.217,17.217,0,0,1,3.813,14.656l-.347,1.881A8.664,8.664,0,0,1,165,238.783V216.9Z" transform="translate(-165 -191.005)" fill="#ea9b58"/>
    <path id="Path_28" data-name="Path 28" d="M177.279,89.608l-3.515-3.515a12.354,12.354,0,0,0,3.317-11.536,12.5,12.5,0,0,0-9.754-9.407,12.686,12.686,0,0,0-2.327-.2V60a18.122,18.122,0,0,1,3.218.3,17.278,17.278,0,0,1,13.715,13.219A17.608,17.608,0,0,1,177.279,89.608Z" transform="translate(-165 -60)" fill="#ea9b58"/>
  </g>
</svg>
