<svg xmlns="http://www.w3.org/2000/svg" xmlns:xlink="http://www.w3.org/1999/xlink" width="629.762" height="434.742" viewBox="0 0 629.762 434.742">
  <defs>
    <linearGradient id="linear-gradient" y1="0.5" x2="1" y2="0.5" gradientUnits="objectBoundingBox">
      <stop offset="0" stop-color="gray" stop-opacity="0.251"/>
      <stop offset="0.54" stop-color="gray" stop-opacity="0.122"/>
      <stop offset="1" stop-color="gray" stop-opacity="0.102"/>
    </linearGradient>
  </defs>
  <g id="Login-Img" transform="translate(-1135.403 -351.723)">
    <g id="undraw_authentication_fsn5" transform="translate(1135.403 351.729)">
      <path id="Path_717" data-name="Path 717" d="M373.121,106.649c-40.367.054-79.221-11.389-116.386-24.1S182.692,55.6,143.076,49.569C117.6,45.691,88.625,46.048,68.709,60.126c-19.171,13.544-24.722,35.96-27.4,56.67-2.014,15.58-2.943,31.932,4.6,46.183,5.238,9.893,14.2,18.048,20.521,27.476,22.055,32.8,8.792,74.7-12.642,108.264-10.05,15.747-21.822,30.841-29.42,47.49S13.654,381.737,21.4,398.17c7.679,16.287,25.025,28.108,43.639,36.182,37.8,16.427,81.814,19.948,124.643,21.3,94.807,3.008,189.8-3.127,284.533-9.261,35.058-2.268,70.273-4.552,104.608-11.124,19.063-3.645,38.693-9.056,52.21-20.915,17.157-15.056,20.667-39.638,8.181-57.307-20.937-29.637-76.143-35.226-91.156-67.292-8.279-17.653-1.139-37.9,9.375-54.915,22.551-36.511,61.368-69.215,62.022-110.051.448-28.043-19.738-55.4-49.887-67.589-31.6-12.766-74.691-9.483-96.832,14.311C449.971,96.022,408.762,106.611,373.121,106.649Z" transform="translate(-16.91 -47.46)" fill="#4baab1"/>
      <path id="Path_718" data-name="Path 718" d="M998.184,690.79s-6.637-4.38-13.214-1.264c0,0,2.025,3.9,10.352,3.532Z" transform="translate(-462.194 -342.283)" fill="#258c93"/>
      <path id="Path_719" data-name="Path 719" d="M1007.253,693.25s2.02,7.69-3.046,12.923c0,0-3.046-3.17,0-10.936Z" transform="translate(-470.42 -344.511)" fill="#258c93"/>
      <path id="Path_720" data-name="Path 720" d="M1013.281,675.483s-.491-6.54-15.261-4.369c0,0-.07,4.218,5.114,6.216S1010.694,677.643,1013.281,675.483Z" transform="translate(-468.197 -334.126)" fill="#258c93"/>
      <path id="Path_721" data-name="Path 721" d="M1024.311,679.5s6.243,2,.675,15.855c0,0-4.12-.918-4.86-6.432S1021.579,681.509,1024.311,679.5Z" transform="translate(-478.299 -338.186)" fill="#258c93"/>
      <path id="Path_722" data-name="Path 722" d="M1031.286,654.024s.848-10.763-14.246-9.661c0,0-1.08,9.72,11.583,12.248Z" transform="translate(-476.935 -321.987)" fill="#258c93"/>
      <path id="Path_723" data-name="Path 723" d="M1047.3,631.949s-2.068-12.2-17.157-8.565c0,0-.054,10.547,14.694,11.47Z" transform="translate(-482.972 -312.063)" fill="#258c93"/>
      <path id="Path_724" data-name="Path 724" d="M1059.725,608.9s-3.467-11.881-18.415-8.327c0,0,3.559,10.687,17.421,10.52Z" transform="translate(-488.11 -301.577)" fill="#258c93"/>
      <path id="Path_725" data-name="Path 725" d="M1073.051,585.894s-3.386-12.329-17.821-8.64c0,0,4.817,11.713,16.865,10.725Z" transform="translate(-494.512 -290.838)" fill="#258c93"/>
      <path id="Path_726" data-name="Path 726" d="M1082.81,561.849s-2.6-15.077-16.06-11.74c0,0,3.91,13.717,15.072,13.938Z" transform="translate(-499.811 -278.448)" fill="#258c93"/>
      <path id="Path_727" data-name="Path 727" d="M1089.981,536.311s-3.127-15.2-16.741-10.8c0,0,5.336,14.365,15.774,12.88Z" transform="translate(-502.797 -266.987)" fill="#258c93"/>
      <path id="Path_728" data-name="Path 728" d="M1095.808,509.324s-4.963-15.2-15.488-14.791c0,0,5.071,16.055,14.608,17.821Z" transform="translate(-506.053 -253.102)" fill="#258c93"/>
      <path id="Path_729" data-name="Path 729" d="M1100.185,483.8s-5.4-18.3-13.965-16.887c0,0,3.737,13.987,13.663,19.738Z" transform="translate(-508.767 -240.366)" fill="#258c93"/>
      <path id="Path_730" data-name="Path 730" d="M1102.321,456.5s-5.065-15.245-13.5-15.855c0,0,3.445,15,13.333,19.819Z" transform="translate(-509.963 -228.316)" fill="#258c93"/>
      <path id="Path_731" data-name="Path 731" d="M1105.59,430.347s-6.313-15.261-11.88-15.607c0,0,2.743,15.029,11.341,18.112Z" transform="translate(-512.212 -216.403)" fill="#258c93"/>
      <path id="Path_732" data-name="Path 732" d="M1108.941,403.83s-3.883-16.573-9.461-17.95c0,0,.761,13.56,8.9,19.192Z" transform="translate(-514.866 -203.128)" fill="#258c93"/>
      <path id="Path_733" data-name="Path 733" d="M1113.573,374.029s-4.083-13.214-8.6-15.229c0,0,.891,15.58,7.56,18.458Z" transform="translate(-517.392 -190.672)" fill="#258c93"/>
      <path id="Path_734" data-name="Path 734" d="M1121.235,346.157l.821-23.3s-8.451,17.562-1.431,27.385Z" transform="translate(-523.31 -174.14)" fill="#258c93"/>
      <path id="Path_735" data-name="Path 735" d="M1133.409,307.791s6.086-17.011,7.56-17.961c0,0-11.935,11.038-10.768,25.235Z" transform="translate(-528.961 -158.947)" fill="#258c93"/>
      <path id="Path_736" data-name="Path 736" d="M1042.116,662.141s10.7-1.4,10.385,13.727c0,0-9.672,1.577-12.831-10.935Z" transform="translate(-487.355 -330.186)" fill="#258c93"/>
      <path id="Path_737" data-name="Path 737" d="M1060.748,639.06s12.366-.038,11.34,15.445c0,0-10.384,1.858-13.808-12.518Z" transform="translate(-495.915 -319.585)" fill="#258c93"/>
      <path id="Path_738" data-name="Path 738" d="M1074.783,617.555s11.227-5.265,18.409,8.327c0,0-10.368,4.385-19.4-6.129Z" transform="translate(-503.05 -309.231)" fill="#258c93"/>
      <path id="Path_739" data-name="Path 739" d="M1087.88,593.051s11.5-5.6,18.247,7.674c0,0-11.978,4.126-19.2-5.573Z" transform="translate(-509.094 -297.882)" fill="#258c93"/>
      <path id="Path_740" data-name="Path 740" d="M1095.787,568.9s11.065-10.568,19.895.119c0,0-11.3,8.7-20.4,2.236Z" transform="translate(-512.934 -285.168)" fill="#258c93"/>
      <path id="Path_741" data-name="Path 741" d="M1102.74,541.554s11.13-10.8,19.889.5c0,0-12.491,8.873-20.289,1.771Z" transform="translate(-516.182 -272.592)" fill="#258c93"/>
      <path id="Path_742" data-name="Path 742" d="M1106.93,511.824s8.575-13.5,18.674-10.487c0,0-8.9,14.294-18.577,13.657Z" transform="translate(-518.293 -256.033)" fill="#258c93"/>
      <path id="Path_743" data-name="Path 743" d="M1111.421,485.836s8.641-17,16.817-14.041c0,0-6.232,13.069-17.038,16.908Z" transform="translate(-520.257 -242.488)" fill="#258c93"/>
      <path id="Path_744" data-name="Path 744" d="M1111.984,458.237s8.884-13.382,17.205-11.746c0,0-7.263,13.571-18.069,15.618Z" transform="translate(-520.22 -230.944)" fill="#258c93"/>
      <path id="Path_745" data-name="Path 745" d="M1114,430.211s6.885-15.018,12.48-15.121c0,0-3.305,14.91-12.016,17.67Z" transform="translate(-521.545 -216.564)" fill="#258c93"/>
      <path id="Path_746" data-name="Path 746" d="M1116.5,405.539s7.652-15.207,13.4-15.239c0,0-3.915,13-13.15,16.573Z" transform="translate(-522.695 -205.161)" fill="#258c93"/>
      <path id="Path_747" data-name="Path 747" d="M1118.63,376.828s5.724-12.583,10.466-14.008c0,0-2.862,15.337-9.834,17.346Z" transform="translate(-523.675 -192.521)" fill="#258c93"/>
      <path id="Path_748" data-name="Path 748" d="M1123.8,348.549l12.793-19.489s-3.278,19.225-14.662,23.221Z" transform="translate(-525.193 -176.992)" fill="#258c93"/>
      <path id="Path_749" data-name="Path 749" d="M1136.374,315.848s14.867-10.26,15.407-11.918c0,0-7.56,14.37-21.6,16.908Z" transform="translate(-528.987 -165.433)" fill="#258c93"/>
      <path id="Path_750" data-name="Path 750" d="M1142.951,303.485s17.07-16.411,21.428-16.4c0,0-14.078.643-21.839,15.52Z" transform="translate(-534.673 -157.687)" fill="#258c93"/>
      <path id="Path_751" data-name="Path 751" d="M1118.94,357.245l.621.081c3.208-25.106,7.884-39.962,13.166-41.782l-.205-.594C1126.922,316.894,1122.213,331.523,1118.94,357.245Z" transform="translate(-523.817 -170.502)" fill="#444053"/>
      <path id="Path_752" data-name="Path 752" d="M1110.2,451.723l.94.076c.2-2.344.351-4.741.454-7.134.9-20.78,2.284-39.865,4.11-54.17l-.54-.675c-1.831,14.338-3.613,33.995-4.509,54.807C1110.551,447,1110.4,449.39,1110.2,451.723Z" transform="translate(-519.797 -204.94)" fill="#444053"/>
      <path id="Path_753" data-name="Path 753" d="M976.568,616.625c.162-.07,16.7-7.458,33.87-25.073a136.209,136.209,0,0,0,24.76-35.1c7.938-16.163,12.777-36.025,14.4-55.32l-.978.459c-3.645,43.31-23.361,72.9-39.038,89.023-17,17.459-33.357,24.771-33.519,24.841Z" transform="translate(-458.096 -256.14)" fill="#444053"/>
      <path id="Path_754" data-name="Path 754" d="M610.391,132.69H91.493a4.623,4.623,0,0,0-4.623,4.623v13.468H615.013V137.313A4.623,4.623,0,0,0,610.391,132.69Z" transform="translate(-49.09 -86.666)" fill="#48979d"/>
      <path id="Path_755" data-name="Path 755" d="M86.87,166.19V469.273a9.321,9.321,0,0,0,9.321,9.321h509.5a9.321,9.321,0,0,0,9.321-9.321V166.19Z" transform="translate(-49.09 -102.076)" fill="#fff"/>
      <circle id="Ellipse_107" data-name="Ellipse 107" cx="2.16" cy="2.16" r="2.16" transform="translate(43.985 52.774)" fill="#fa5959" opacity="0.8"/>
      <circle id="Ellipse_108" data-name="Ellipse 108" cx="2.16" cy="2.16" r="2.16" transform="translate(49.925 52.774)" fill="#fed253" opacity="0.8"/>
      <circle id="Ellipse_109" data-name="Ellipse 109" cx="2.16" cy="2.16" r="2.16" transform="translate(55.866 52.774)" fill="#8ccf4d" opacity="0.8"/>
      <rect id="Rectangle_98" data-name="Rectangle 98" width="424.459" height="186.643" transform="translate(86.874 114.65)" opacity="0.05"/>
      <rect id="Rectangle_99" data-name="Rectangle 99" width="417.978" height="182.528" transform="translate(90.114 116.065)" fill="#4d9ba0"/>
      <path id="Path_756" data-name="Path 756" d="M359.362,349.38a41.582,41.582,0,1,0,41.582,41.582A41.582,41.582,0,0,0,359.362,349.38Zm7.458,42.581V411.65h-14.7V391.961a12.178,12.178,0,1,1,14.7,0Z" transform="translate(-155.303 -186.339)" fill="#258c93"/>
      <path id="Path_757" data-name="Path 757" d="M359.362,349.38a41.582,41.582,0,1,0,41.582,41.582A41.582,41.582,0,0,0,359.362,349.38Zm7.458,42.581V411.65h-14.7V391.961a12.178,12.178,0,1,1,14.7,0Z" transform="translate(-155.303 -186.339)" fill="#4d9ba0" opacity="0.05"/>
      <path id="Path_758" data-name="Path 758" d="M349.242,327.38A53.462,53.462,0,1,0,402.7,380.842a53.462,53.462,0,0,0-53.462-53.462Zm9.585,54.748v25.311h-18.9V382.128a15.661,15.661,0,1,1,18.9,0Z" transform="translate(-145.184 -176.219)" fill="#5ab6bc"/>
      <rect id="Rectangle_100" data-name="Rectangle 100" width="172.808" height="18.361" transform="translate(279.662 197.608)" fill="#fff"/>
      <rect id="Rectangle_101" data-name="Rectangle 101" width="37.262" height="18.361" transform="translate(415.208 231.09)" fill="#258c93"/>
      <path id="Path_759" data-name="Path 759" d="M559.61,426.66h-3.127l2.781-2.776a.276.276,0,0,0,0-.383.27.27,0,0,0-.384,0l-2.781,2.781V423.15a.27.27,0,0,0-.27-.27.275.275,0,0,0-.27.27v3.132l-2.776-2.8a.27.27,0,0,0-.383,0,.275.275,0,0,0,0,.383l2.781,2.776H552.05a.275.275,0,0,0-.27.27.27.27,0,0,0,.27.27h3.132l-2.781,2.781a.275.275,0,0,0,0,.383.281.281,0,0,0,.383,0l2.776-2.781v3.127a.27.27,0,1,0,.54,0v-3.127l2.781,2.781a.281.281,0,0,0,.383,0,.276.276,0,0,0,0-.383l-2.781-2.781h3.127a.262.262,0,1,0,0-.524Z" transform="translate(-262.937 -220.147)" fill="#258c93"/>
      <path id="Path_760" data-name="Path 760" d="M580.61,426.66h-3.127l2.781-2.776a.276.276,0,0,0,0-.383.27.27,0,0,0-.384,0l-2.781,2.781V423.15a.27.27,0,0,0-.27-.27.275.275,0,0,0-.27.27v3.132l-2.776-2.8a.27.27,0,0,0-.383,0,.275.275,0,0,0,0,.383l2.781,2.776H573.05a.275.275,0,0,0-.27.27.27.27,0,0,0,.27.27h3.132l-2.781,2.781a.275.275,0,0,0,0,.383.281.281,0,0,0,.384,0l2.776-2.781v3.127a.27.27,0,1,0,.54,0v-3.127l2.781,2.781a.281.281,0,0,0,.384,0,.276.276,0,0,0,0-.383l-2.781-2.781h3.127a.262.262,0,1,0,0-.524Z" transform="translate(-272.597 -220.147)" fill="#258c93"/>
      <path id="Path_761" data-name="Path 761" d="M601.61,426.66h-3.127l2.781-2.776a.275.275,0,0,0,0-.383.27.27,0,0,0-.383,0l-2.781,2.781V423.15a.27.27,0,0,0-.27-.27.275.275,0,0,0-.27.27v3.132l-2.776-2.8a.27.27,0,0,0-.383,0,.275.275,0,0,0,0,.383l2.781,2.776H594.05a.275.275,0,0,0-.27.27.27.27,0,0,0,.27.27h3.132l-2.781,2.781a.276.276,0,0,0,0,.383.281.281,0,0,0,.383,0l2.776-2.781v3.127a.27.27,0,1,0,.54,0v-3.127l2.781,2.781a.281.281,0,0,0,.383,0,.275.275,0,0,0,0-.383l-2.781-2.781h3.127a.262.262,0,1,0,0-.524Z" transform="translate(-282.256 -220.147)" fill="#258c93"/>
      <path id="Path_762" data-name="Path 762" d="M622.61,426.66h-3.127l2.781-2.776a.276.276,0,0,0,0-.383.27.27,0,0,0-.383,0l-2.781,2.781V423.15a.27.27,0,0,0-.27-.27.275.275,0,0,0-.27.27v3.132l-2.776-2.8a.27.27,0,0,0-.383,0,.275.275,0,0,0,0,.383l2.781,2.776H615.05a.275.275,0,0,0-.27.27.27.27,0,0,0,.27.27h3.132l-2.781,2.781a.275.275,0,0,0,0,.383.281.281,0,0,0,.383,0l2.776-2.781v3.127a.27.27,0,0,0,.54,0v-3.127l2.781,2.781a.281.281,0,0,0,.383,0,.276.276,0,0,0,0-.383l-2.781-2.781h3.127a.262.262,0,1,0,0-.524Z" transform="translate(-291.916 -220.147)" fill="#258c93"/>
      <path id="Path_763" data-name="Path 763" d="M643.61,426.66h-3.127l2.781-2.776a.276.276,0,0,0,0-.383.27.27,0,0,0-.383,0l-2.781,2.781V423.15a.27.27,0,0,0-.27-.27.275.275,0,0,0-.27.27v3.132l-2.776-2.8a.27.27,0,0,0-.383,0,.275.275,0,0,0,0,.383l2.781,2.776H636.05a.275.275,0,0,0-.27.27.27.27,0,0,0,.27.27h3.132l-2.781,2.781a.275.275,0,0,0,0,.383.281.281,0,0,0,.383,0l2.776-2.781v3.127a.27.27,0,1,0,.54,0v-3.127l2.781,2.781a.281.281,0,0,0,.383,0,.276.276,0,0,0,0-.383l-2.781-2.781h3.127a.262.262,0,1,0,0-.524Z" transform="translate(-301.575 -220.147)" fill="#258c93"/>
      <path id="Path_764" data-name="Path 764" d="M664.61,426.66h-3.127l2.781-2.776a.275.275,0,0,0,0-.383.27.27,0,0,0-.383,0l-2.781,2.781V423.15a.27.27,0,0,0-.27-.27.275.275,0,0,0-.27.27v3.132l-2.776-2.8a.27.27,0,0,0-.383,0,.275.275,0,0,0,0,.383l2.781,2.776H657.05a.275.275,0,0,0-.27.27.27.27,0,0,0,.27.27h3.132l-2.781,2.781a.275.275,0,0,0,0,.383.281.281,0,0,0,.383,0l2.776-2.781v3.127a.27.27,0,0,0,.54,0v-3.127l2.781,2.781a.281.281,0,0,0,.383,0,.275.275,0,0,0,0-.383l-2.781-2.781h3.127a.262.262,0,1,0,0-.524Z" transform="translate(-311.235 -220.147)" fill="#258c93"/>
      <path id="Path_765" data-name="Path 765" d="M685.61,426.66h-3.127l2.781-2.776a.276.276,0,0,0,0-.383.27.27,0,0,0-.383,0l-2.781,2.781V423.15a.27.27,0,0,0-.27-.27.275.275,0,0,0-.27.27v3.132l-2.776-2.8a.27.27,0,0,0-.383,0,.275.275,0,0,0,0,.383l2.781,2.776H678.05a.275.275,0,0,0-.27.27.27.27,0,0,0,.27.27h3.132l-2.781,2.781a.275.275,0,0,0,0,.383.281.281,0,0,0,.384,0l2.776-2.781v3.127a.27.27,0,1,0,.54,0v-3.127l2.781,2.781a.281.281,0,0,0,.383,0,.275.275,0,0,0,0-.383l-2.781-2.781h3.127a.262.262,0,1,0,0-.524Z" transform="translate(-320.894 -220.147)" fill="#258c93"/>
      <path id="Path_766" data-name="Path 766" d="M706.61,426.66h-3.127l2.781-2.776a.276.276,0,0,0,0-.383.27.27,0,0,0-.384,0l-2.781,2.781V423.15a.27.27,0,0,0-.27-.27.275.275,0,0,0-.27.27v3.132l-2.776-2.8a.27.27,0,0,0-.383,0,.275.275,0,0,0,0,.383l2.781,2.776H699.05a.275.275,0,0,0-.27.27.27.27,0,0,0,.27.27h3.132l-2.781,2.781a.276.276,0,0,0,0,.383.281.281,0,0,0,.383,0l2.776-2.781v3.127a.27.27,0,1,0,.54,0v-3.127l2.781,2.781a.281.281,0,0,0,.383,0,.276.276,0,0,0,0-.383l-2.781-2.781h3.127a.262.262,0,1,0,0-.524Z" transform="translate(-330.554 -220.147)" fill="#258c93"/>
      <path id="Path_767" data-name="Path 767" d="M727.61,426.66h-3.127l2.781-2.776a.275.275,0,0,0,0-.383.27.27,0,0,0-.383,0l-2.781,2.781V423.15a.27.27,0,0,0-.27-.27.275.275,0,0,0-.27.27v3.132l-2.776-2.8a.27.27,0,0,0-.383,0,.275.275,0,0,0,0,.383l2.781,2.776H720.05a.275.275,0,0,0-.27.27.27.27,0,0,0,.27.27h3.132l-2.781,2.781a.275.275,0,0,0,0,.383.281.281,0,0,0,.383,0l2.776-2.781v3.127a.27.27,0,1,0,.54,0v-3.127l2.781,2.781a.281.281,0,0,0,.383,0,.275.275,0,0,0,0-.383l-2.781-2.781h3.127a.262.262,0,1,0,0-.524Z" transform="translate(-340.213 -220.147)" fill="#258c93"/>
      <path id="Path_768" data-name="Path 768" d="M748.61,426.66h-3.127l2.781-2.776a.276.276,0,0,0,0-.383.27.27,0,0,0-.383,0l-2.781,2.781V423.15a.27.27,0,0,0-.27-.27.275.275,0,0,0-.27.27v3.132l-2.776-2.8a.27.27,0,0,0-.383,0,.275.275,0,0,0,0,.383l2.781,2.776H741.05a.275.275,0,0,0-.27.27.27.27,0,0,0,.27.27h3.132l-2.781,2.781a.275.275,0,0,0,0,.383.281.281,0,0,0,.383,0l2.776-2.781v3.127a.27.27,0,0,0,.54,0v-3.127l2.781,2.781a.281.281,0,0,0,.383,0,.276.276,0,0,0,0-.383l-2.781-2.781h3.127a.262.262,0,1,0,0-.524Z" transform="translate(-349.873 -220.147)" fill="#258c93"/>
      <path id="Path_769" data-name="Path 769" d="M769.61,426.66h-3.127l2.781-2.776a.275.275,0,0,0,0-.383.27.27,0,0,0-.383,0l-2.781,2.781V423.15a.27.27,0,0,0-.27-.27.275.275,0,0,0-.27.27v3.132l-2.776-2.8a.27.27,0,0,0-.383,0,.275.275,0,0,0,0,.383l2.781,2.776H762.05a.275.275,0,0,0-.27.27.27.27,0,0,0,.27.27h3.132l-2.781,2.781a.275.275,0,0,0,0,.383.281.281,0,0,0,.383,0l2.776-2.781v3.127a.27.27,0,1,0,.54,0v-3.127l2.781,2.781a.281.281,0,0,0,.383,0,.275.275,0,0,0,0-.383l-2.781-2.781h3.127a.262.262,0,1,0,0-.524Z" transform="translate(-359.532 -220.147)" fill="#258c93"/>
      <path id="Path_770" data-name="Path 770" d="M867.434,512.811a9.666,9.666,0,0,0-.243-1.939c-.486-1.825-1.582-4.034-3.386-4.585a28.435,28.435,0,0,1-5.368-2.268c-.324-5.789,1-11.713-.443-17.324a44.071,44.071,0,0,1-1.669-6.118c-.3-2.614.416-5.4-.627-7.809a7.707,7.707,0,0,0-4.563-3.942,24.318,24.318,0,0,0-6.086-1.08c-2.592-.211-10.984-1.2-13.911,1.112h0a3.056,3.056,0,0,0-.54.54h0a2.15,2.15,0,0,0-.173.281l-.027.043a2.2,2.2,0,0,0-.146.351h0a2.731,2.731,0,0,0-.092.4v.972c.038.486.108.972.108,1.453a3.13,3.13,0,0,1-.065.713,4.992,4.992,0,0,1-.9,1.75h0l-.1.14c-.06.086-.119.167-.173.254s-.1.151-.14.227-.086.124-.124.194a2.622,2.622,0,0,0-.14.275c0,.054-.059.1-.081.157a2.666,2.666,0,0,0-.162.454,3.014,3.014,0,0,0-.032,1.436,5.346,5.346,0,0,0,.74,1.7c.135.221.281.437.432.653l.378.513a11.648,11.648,0,0,0-.113,1.512,11.172,11.172,0,0,0,4.265,8.78,33.08,33.08,0,0,1-.069,6.854c-.049.475-.108.956-.173,1.431s-.113.788-.178,1.183a5.482,5.482,0,0,1-2.36-.178,11.12,11.12,0,0,0-1.08-.416c-1.571-.394-3.175,1.172-4.731.7a.633.633,0,0,1-.07.216,2.117,2.117,0,0,0-1.08-.319,3.94,3.94,0,0,1-2.344-1.345l-2.057-1.939a2.272,2.272,0,0,1-.356-.4,2.8,2.8,0,0,1-.248-.664,7.654,7.654,0,0,0-1.993-2.857,1.349,1.349,0,0,0-.589-.427.9.9,0,0,0-.27,0,2.354,2.354,0,0,0-.178-.216,5.076,5.076,0,0,0-.448-.454c-.983-.907-1.08-1.685-1.933-2.7a25.944,25.944,0,0,1-2.02-3.051c-.07-.567-.167-1.15-.286-1.739a22.377,22.377,0,0,0-1.183-3.942l-1.08-2.392-.124.124c-.783-1.166-1.62-1.8-2.371-1.652-1.258.259-1.879,2.7-1.68,5.892l.432,3.24a1,1,0,0,0,.059.243,5.975,5.975,0,0,0-.119,1.166c0,.454.421.788.643,1.193a3.375,3.375,0,0,1,.54,1.841c-.027.232-.1.454-.108.68a2.619,2.619,0,0,0,.508,1.4l2.7,4.536.54.95.032.043a2.308,2.308,0,0,0,.724.832,9.891,9.891,0,0,0,.891,3.278c.092.205.194.4.3.594a19.105,19.105,0,0,0,2.549,3.31l1.285,1.442c1.269,1.415,2.538,2.835,3.915,4.142a5.247,5.247,0,0,0,1.75,1.226,1.982,1.982,0,0,0,1.966-.286v2.009a1.129,1.129,0,0,1,.853,1.777,44.539,44.539,0,0,1-4,8.457A18,18,0,0,1,823.973,528a15.054,15.054,0,0,1,1.744,2.36c.049.4.086.794.108,1.188.4,6.437-2.09,12.826-4.32,18.96a14.774,14.774,0,0,0-1.291,5.368,10.546,10.546,0,0,0-1.21.869,8.009,8.009,0,0,1,.221,3.424,6.068,6.068,0,0,1-.448,2.16,15.183,15.183,0,0,1-.778,1.388c-1.4,2.468-1.707,5.4-1.987,8.219-.167,1.7.491,3.78-.281,5.3a21.694,21.694,0,0,0-2.7,8.305,8.334,8.334,0,0,1-.248,1.939c-.167.54-.464,1-.616,1.528a6.542,6.542,0,0,0-.108,2.16,20.671,20.671,0,0,1-1.134,7.62c-.675,1.928-1.42,3.991-.891,5.973a8.419,8.419,0,0,0-2.284,5.017,7.9,7.9,0,0,1-.173,1.431,6.954,6.954,0,0,1-.648,1.377,12.054,12.054,0,0,0-1.469,6.48,18.027,18.027,0,0,0-2.911,7.6c-.481,2.695-.691,5.438-1.307,8.1-.821,3.521-2.306,7.08-2.6,10.687-1.75,1.118-2.506,3.283-2.841,5.33s-.389,4.2-1.247,6.086c-.443.983-1.08,1.863-1.5,2.867a13.167,13.167,0,0,0-.648,2.468,9.629,9.629,0,0,0-.167,4.05,6.105,6.105,0,0,1-1.582,1.2c.086-.335.157-.67.216-1.01-1.393,1.264-3.921.821-5.033,2.338a2.279,2.279,0,0,0,.54,3.127,4.322,4.322,0,0,0,1.118.481c2.7.864,5.476,1.734,8.252,1.274a2.461,2.461,0,0,0,.934-.3,3.007,3.007,0,0,0,.87-1c.416-.659.832-1.318,1.242-1.976a25.642,25.642,0,0,0,3.03.707c.1.864.178,1.728.216,2.592.54.108,1.264.14,1.517-.362a1.311,1.311,0,0,0,.092-.6c0-.384.054-.891.086-1.41h.108a10.259,10.259,0,0,0,4.779-.966c-.578-4.785,1.328-9.461,2.981-13.987,1.744-4.763,3.24-9.612,4.747-14.462,1.08-3.413,2.274-6.718,3.332-10.136q2-6.48,4.012-12.961c.583-1.9,1.172-3.78,1.841-5.67a88.341,88.341,0,0,1,5.006-11.141c.54-1.021,1.08-2.03,1.523-3.089.54-1.291.924-2.641,1.355-3.975a61.544,61.544,0,0,1,3.391-7.982c.038-.07.065-.135.1-.2.437,1.788.875,3.6,1.166,5.4a20.522,20.522,0,0,1,.092,6.675,22.009,22.009,0,0,0-.691,4.525c.081,2.111,1.21,4.029,1.766,6.064a23.084,23.084,0,0,1,.6,4.644c.151,2.43,1.469,5.157.54,7.409-2.889,7.134-1.491,15.191-3.138,22.681-.848,3.845-3.445,7.458-3.24,11.389q.216,4.185.734,8.349a7.946,7.946,0,0,0,.675,2.533,9.294,9.294,0,0,0,.74,1.21c-.238.092-.437.335-.61.848a3.332,3.332,0,0,0,1.2,3.78,5.247,5.247,0,0,0,1.561.54,8.219,8.219,0,0,0,2.257.313,5.28,5.28,0,0,0,.707-.086,25.72,25.72,0,0,0,2.554.918,5.539,5.539,0,0,0,.07.664.827.827,0,0,0,.281.61.842.842,0,0,0,.432.076h2.932v-.734a2.414,2.414,0,0,0,1.863-.6,2.883,2.883,0,0,0,.54-1.123q1.2-4.066,2.381-8.138a26.019,26.019,0,0,0,1.161-9.288c-1.042-9.953,1.247-19.938.5-29.917a71.666,71.666,0,0,1,.918-17.95c.243-1.339.54-2.7.648-4.034.238-2.516-.054-5.06.124-7.56.059-.875.178-1.744.286-2.614a125.516,125.516,0,0,0,1.161-16.282,51.3,51.3,0,0,0-.335-5.4,3.085,3.085,0,0,0,1.474-.864,3.673,3.673,0,0,0,.351-2.306,16.718,16.718,0,0,1,1.453-5.519,65.573,65.573,0,0,0,2.041-7.593,26.505,26.505,0,0,0,.907-6.345q0-.324-.032-.648a1.672,1.672,0,0,0,.5-.54,3.14,3.14,0,0,0,.259-1c.194-1.377.394-2.76.589-4.142q.216-1.485.427-2.965l1.717-11.983c.146-1.042.3-2.079.443-3.116l.448-3.1c.049-.367.1-.734.14-1.08C868.833,518.255,867.574,515.317,867.434,512.811Zm-14.327,44.865a9.873,9.873,0,0,1-1.08-4.693h-.059a2.408,2.408,0,0,0-.07-1.523c-.167-.394-.459-.729-.637-1.123a4.119,4.119,0,0,1-.292-1.512,41.224,41.224,0,0,1,.772-9.8c.07-.378.146-.761.216-1.14a2.815,2.815,0,0,0,.616-.481,4.381,4.381,0,0,0,.7-1.08c.61-1.226,1.166-2.473,1.68-3.742.167-.41.41-.885.826-.988-.086,3.159.238,6.383-1.048,9.234a5.841,5.841,0,0,0-.54,1.458c-.119.8.216,1.62.1,2.419-.059.416-.238.8-.308,1.21a1.182,1.182,0,0,0,.313,1.145.944.944,0,0,0,.232.119c-.032.216-.059.437-.081.648-.043.443-.065.859-.092,1.118a34.823,34.823,0,0,0-.146,3.974c0,1.431.054,2.862.032,4.32a2.933,2.933,0,0,1-.205,1.226,2.13,2.13,0,0,1-.411.54,14.022,14.022,0,0,0-.513-1.334Z" transform="translate(-370.418 -240.604)" fill="url(#linear-gradient)"/>
      <ellipse id="Ellipse_110" data-name="Ellipse 110" cx="3.046" cy="8.624" rx="3.046" ry="8.624" transform="matrix(0.98, -0.201, 0.201, 0.98, 433.618, 238.127)" fill="#fbbebe"/>
      <path id="Path_771" data-name="Path 771" d="M878.257,837.98a3.27,3.27,0,0,0,1.2,3.742,5.335,5.335,0,0,0,1.55.54,8.177,8.177,0,0,0,2.252.308c.934-.043,1.831-.41,2.765-.54a.432.432,0,0,1,.319.043.459.459,0,0,1,.119.378,14.272,14.272,0,0,0,.119,1.588.816.816,0,0,0,.281.61.842.842,0,0,0,.432.076h2.927a28.552,28.552,0,0,0-.837-7.636,1.706,1.706,0,0,0-.216-.54,1.788,1.788,0,0,0-.934-.54,5.221,5.221,0,0,0-2.263-.394,6.627,6.627,0,0,0-2.538,1.242,3.867,3.867,0,0,1-2.878.7C879.574,837.294,878.759,836.479,878.257,837.98Z" transform="translate(-413.032 -409.992)" fill="#3f3d56"/>
      <path id="Path_772" data-name="Path 772" d="M795.732,834.665a8.1,8.1,0,0,1-2.954,2.009l-.5.238a.344.344,0,0,0-.167.135.291.291,0,0,0,.054.243,3.494,3.494,0,0,0,3.964,1.442,2.1,2.1,0,0,0,.869-.454,2.851,2.851,0,0,0,.67-1.739,3.559,3.559,0,0,0-.081-1.993C796.839,832.856,796.564,833.622,795.732,834.665Z" transform="translate(-373.482 -409.047)" fill="#fbbebe"/>
      <path id="Path_773" data-name="Path 773" d="M804.137,841.583a1.312,1.312,0,0,1-.092.6c-.254.5-.961.47-1.512.362a36.346,36.346,0,0,0-.664-5.454c-1.048-.049-1.8.945-2.365,1.836l-1.447,2.3a2.991,2.991,0,0,1-.864,1,2.559,2.559,0,0,1-.934.3c-2.765.459-5.557-.41-8.225-1.275a4.36,4.36,0,0,1-1.118-.475,2.284,2.284,0,0,1-.54-3.121c1.118-1.512,3.629-1.08,5.022-2.333a12.574,12.574,0,0,1-.713,2.576c1.863-.281,3.116-1.987,4.617-3.127a2.84,2.84,0,0,1,1.318-.626,2.9,2.9,0,0,1,1.08.113,12.67,12.67,0,0,1,4.752,2.338,5.124,5.124,0,0,1,1.7,1.771A13.115,13.115,0,0,1,804.137,841.583Z" transform="translate(-370.665 -409.313)" fill="#3f3d56"/>
      <circle id="Ellipse_111" data-name="Ellipse 111" cx="11.157" cy="11.157" r="11.157" transform="translate(459.463 231.781)" fill="#fbbebe"/>
      <path id="Path_774" data-name="Path 774" d="M919.236,616.315a26.455,26.455,0,0,1-.9,6.313,65.137,65.137,0,0,1-2.041,7.56,16.636,16.636,0,0,0-1.442,5.508,3.662,3.662,0,0,1-.356,2.3,3.36,3.36,0,0,1-1.577.9,1.971,1.971,0,0,0-1.328,1.183,8.343,8.343,0,0,1-1.123-2.473q-1.453-4.45-2.7-8.948a1.161,1.161,0,0,1,.076-1.08,1.338,1.338,0,0,1,.47-.264,4.861,4.861,0,0,0,1.5-.961,2.188,2.188,0,0,0,.5-.643,2.911,2.911,0,0,0,.211-1.22c0-1.431,0-2.857-.038-4.288a35.827,35.827,0,0,1,.151-3.958c0-.259.049-.675.092-1.118.081-.848.243-1.831.7-2.16.686-.459,2.738.157,3.516.265,1.339.184,2.7.4,4.007.653A10.687,10.687,0,0,1,919.236,616.315Z" transform="translate(-426.637 -307.505)" fill="#3f3d56"/>
      <path id="Path_775" data-name="Path 775" d="M835.263,510.94c-.432.864-1.469,1.28-2.268,1.825l-2.738,1.879a1.826,1.826,0,0,1-1.356.464,1.782,1.782,0,0,1-1.01-.945.193.193,0,0,0,0-.043l-.567-.951-2.7-4.525a2.577,2.577,0,0,1-.5-1.393c0-.232.081-.448.1-.68a3.267,3.267,0,0,0-.54-1.836c-.216-.4-.648-.74-.637-1.193a4.318,4.318,0,0,1,.3-1.744,3.532,3.532,0,0,1,1.183-1.264c.254-.184.513-.356.783-.54a1.543,1.543,0,0,1,.47-.216c.448-.092.891.281,1.345.3,1.95,1.307,2.7,3.78,4.234,5.562.864,1.015.951,1.793,1.928,2.7.157.14.308.292.454.448a3.135,3.135,0,0,1,.486.7C834.41,509.952,835.484,510.5,835.263,510.94Z" transform="translate(-387.713 -255.511)" fill="#3f3d56"/>
      <path id="Path_776" data-name="Path 776" d="M876.846,511.006a10.053,10.053,0,0,1,1.2,5.438,3.4,3.4,0,0,1-.47,1.431c-.778,1.193-2.409,1.409-3.829,1.48a2.257,2.257,0,0,0-1.663.54,1.512,1.512,0,0,0,.1,1.847,4.168,4.168,0,0,0,1.653,1.08,14.631,14.631,0,0,0,7.112,1.577c1.134-.108,2.236-.437,3.364-.6a35.316,35.316,0,0,1,3.7-.205c1.469-.054,2.932-.2,4.4-.346l3.877-.383a.864.864,0,0,0,.578-.211c.286-.335-.081-.826-.437-1.08-2.058-1.523-4.677-2.571-5.848-4.86a28.605,28.605,0,0,1-1.107-3.532,29.682,29.682,0,0,1-1.285-3.408,22.579,22.579,0,0,1-.178-3.143,4.218,4.218,0,0,0-1.08-2.873,4.5,4.5,0,0,0-2.938-.945,9.51,9.51,0,0,0-7.161,2.322c-.491.491-.913,1.08-1.42,1.523s-1.2.572-.864,1.156.994.945,1.35,1.458A12.411,12.411,0,0,1,876.846,511.006Z" transform="translate(-410.147 -256.906)" fill="#fbbebe"/>
      <path id="Path_777" data-name="Path 777" d="M888.883,535.266a61.356,61.356,0,0,1-3.305,12.167,45.824,45.824,0,0,0-1.944,5.454c-.416,1.674-.335,3.467-.718,5.146-.475,2.09-.95,4.185-1.334,6.291a41.247,41.247,0,0,0-.767,9.774,4.086,4.086,0,0,0,.292,1.507c.178.389.464.724.632,1.123a2.7,2.7,0,0,1-.151,2.16,6.257,6.257,0,0,1-1.112,1.685c-5.033,1.5-10.417,1.01-15.661,1.328-4.833.292-9.721,1.285-14.484.459-.54-2.16.362-4.423,1.134-6.529,2.241-6.118,4.72-12.491,4.32-18.9a19.579,19.579,0,0,0-.254-2.23c-.783-4.542.07-9.245,1.437-13.646a23.42,23.42,0,0,0,.615-8.522,15.57,15.57,0,0,1-.038-2.792,4.907,4.907,0,0,1,1.015-2.608c0-.038.049-.076.076-.113a.741.741,0,0,1,.4,0h0a.346.346,0,0,0,.27,0l.059-.038a.135.135,0,0,1,.157,0c.124.076.194.335.464.383a10.76,10.76,0,0,0,1.2.113,6.479,6.479,0,0,1,1.437.205h.065a4.219,4.219,0,0,0,2.1-.178,5.564,5.564,0,0,0,1.285-.5c.119-.13.864-.248,1.015-.34.491-.3.383-1.69.486-2.263a6.216,6.216,0,0,1,.405-1.674,2.851,2.851,0,0,1,2.311-1.345,12.311,12.311,0,0,1,2.77.248c2.014.286,4.077.238,6.054.7a4.51,4.51,0,0,0,2.992.13c.248.059.286.275.286.54a3.455,3.455,0,0,1-.151.74c-.346,1.49.826,2.862,1.906,3.942a6.11,6.11,0,0,0,1.593,1.269c.54.248,1.08.351,1.62.621a2.948,2.948,0,0,1,1.08.988,4.126,4.126,0,0,1,.616,1.571A9.4,9.4,0,0,1,888.883,535.266Z" transform="translate(-400.188 -265.456)" fill="#fff"/>
      <path id="Path_778" data-name="Path 778" d="M893.211,540.011a61.35,61.35,0,0,1-3.3,12.167,45.838,45.838,0,0,0-1.944,5.454c-.416,1.674-.335,3.467-.718,5.146-.475,2.09-.95,4.185-1.334,6.291-.113.065-.232.124-.351.178a8.287,8.287,0,0,1-2.117.68,12.962,12.962,0,0,1-3.953-.13l-7.706-1.031c-3.078-.416-6.356-.918-8.64-3a18.436,18.436,0,0,1-3.013-4.115,19.591,19.591,0,0,0-.254-2.23c-.783-4.542.07-9.245,1.436-13.646a23.422,23.422,0,0,0,.616-8.522,15.564,15.564,0,0,1-.038-2.792,4.908,4.908,0,0,1,1.015-2.608,3.841,3.841,0,0,1,.481-.108h0a2.407,2.407,0,0,1,.33-.043h.156a2.349,2.349,0,0,1,.54.065,9.736,9.736,0,0,1,1.08.416h.065a4.137,4.137,0,0,0,1.436.205c.713,0,1.447-.113,2.16-.162a3.986,3.986,0,0,1,2.56.459,15.358,15.358,0,0,1,1.426,1.3,6.123,6.123,0,0,0,1.8.978,19.112,19.112,0,0,0,14.375-.3,2.813,2.813,0,0,1,1.442-.367,2.7,2.7,0,0,1,1.037.443c.324.189.643.373.972.54a4.126,4.126,0,0,1,.616,1.572A9.4,9.4,0,0,1,893.211,540.011Z" transform="translate(-404.517 -270.202)" opacity="0.1"/>
      <path id="Path_779" data-name="Path 779" d="M893.942,535.553a28.816,28.816,0,0,1-6.156-2.7,2.76,2.76,0,0,0-1.037-.443,2.9,2.9,0,0,0-1.447.367,19.1,19.1,0,0,1-14.37.3,6.248,6.248,0,0,1-1.8-.977,16.138,16.138,0,0,0-1.426-1.3c-1.777-1.15-4.234.2-6.221-.54a11,11,0,0,0-1.08-.416c-1.571-.394-3.17,1.172-4.714.7a26.265,26.265,0,0,0-1.269,4.817,52.535,52.535,0,0,0-.351,5.681c0,1.139-.054,2.279,0,3.418a1.121,1.121,0,0,1,.853,1.771,44.267,44.267,0,0,1-3.985,8.43,18.313,18.313,0,0,1,3.337,2.549c1.89,2,2.819,4.8,4.86,6.648,2.3,2.079,5.578,2.587,8.64,3l7.706,1.031a13.173,13.173,0,0,0,3.958.135,8.333,8.333,0,0,0,2.112-.686,3.778,3.778,0,0,0,1.177-.778,4.317,4.317,0,0,0,.7-1.08c.61-1.22,1.166-2.468,1.68-3.731.178-.448.448-.972.934-1.01,2.862-2.581,5.562-5.227,8.424-7.809a18.671,18.671,0,0,0,3.073-3.24c1.42-2.1.13-5.076,0-7.614a9.607,9.607,0,0,0-.243-1.928C896.831,538.3,895.74,536.1,893.942,535.553Z" transform="translate(-400.544 -269.319)" fill="#ecb773"/>
      <path id="Path_780" data-name="Path 780" d="M839.388,518.54c-.432.864-1.469,1.28-2.268,1.825l-2.738,1.879a1.825,1.825,0,0,1-1.356.464,1.782,1.782,0,0,1-1.01-.945v-.389a3.621,3.621,0,0,1,.173-1.291,4.023,4.023,0,0,1,1.21-1.555,9.9,9.9,0,0,1,3.548-2.16,1.215,1.215,0,0,1,.648-.065.852.852,0,0,1,.238.1,3.136,3.136,0,0,1,.486.7C838.535,517.552,839.609,518.1,839.388,518.54Z" transform="translate(-391.838 -263.112)" opacity="0.1"/>
      <path id="Path_781" data-name="Path 781" d="M846.406,524.53a3.935,3.935,0,0,1-2.338-1.339l-2.047-1.9a1.909,1.909,0,0,1-.356-.4,2.8,2.8,0,0,1-.248-.664,7.62,7.62,0,0,0-1.987-2.851,1.3,1.3,0,0,0-.589-.421,1.183,1.183,0,0,0-.653.065,9.878,9.878,0,0,0-3.548,2.16,4.033,4.033,0,0,0-1.21,1.555,3.59,3.59,0,0,0-.173,1.291,9.916,9.916,0,0,0,.94,4.126c.092.2.194.4.3.594a18.707,18.707,0,0,0,2.538,3.3l1.285,1.436c1.264,1.415,2.527,2.83,3.9,4.131a5.149,5.149,0,0,0,1.75,1.22,1.955,1.955,0,0,0,2.009-.324,2.906,2.906,0,0,0,.572-1.026,20.2,20.2,0,0,0,1.669-6.734,25.428,25.428,0,0,0-.119-2.792C848.02,524.973,847.324,524.589,846.406,524.53Z" transform="translate(-392.408 -263.409)" fill="#ecb773"/>
      <path id="Path_782" data-name="Path 782" d="M862.994,649.8a124.808,124.808,0,0,1-1.156,16.239c-.108.869-.227,1.739-.286,2.608-.178,2.522.113,5.055-.124,7.56-.124,1.356-.405,2.7-.643,4.023a71.54,71.54,0,0,0-.918,17.9c.745,9.953-1.539,19.911-.5,29.836a24.119,24.119,0,0,1-.319,5.773,24.487,24.487,0,0,1-.837,3.489q-1.183,4.056-2.376,8.1a2.809,2.809,0,0,1-.54,1.123,2.559,2.559,0,0,1-2.025.6c-3.116-.1-6.048-1.442-8.878-2.754a3.091,3.091,0,0,1-.891-.54c-.589-.61-.54-1.571-.8-2.376A22.615,22.615,0,0,0,841.339,739a7.794,7.794,0,0,1-.589-2.457q-.54-4.147-.734-8.327c-.205-3.921,2.387-7.528,3.24-11.341,1.62-7.5.248-15.531,3.127-22.643.907-2.247-.41-4.968-.54-7.388a23.416,23.416,0,0,0-.6-4.633c-.54-2.031-1.679-3.942-1.76-6.048a22.227,22.227,0,0,1,.686-4.509,20.267,20.267,0,0,0-.092-6.659c-.286-1.814-.724-3.629-1.161-5.4l-.1.2a61.025,61.025,0,0,0-3.386,7.965c-.432,1.323-.81,2.673-1.35,3.958-.443,1.08-.988,2.068-1.523,3.083a88.553,88.553,0,0,0-5,11.1c-.669,1.868-1.258,3.78-1.841,5.654l-4,12.961c-1.08,3.408-2.263,6.7-3.321,10.1-1.5,4.86-2.992,9.677-4.731,14.429-1.62,4.509-3.548,9.18-2.97,13.943a10.261,10.261,0,0,1-4.768.967,27.918,27.918,0,0,1-8.1-1.966,6.3,6.3,0,0,1-2.8-1.663c-1.2-1.464-.9-3.607-.54-5.471a13.209,13.209,0,0,1,.648-2.463c.41-.994,1.08-1.874,1.5-2.857.848-1.885.9-4.018,1.237-6.064s1.08-4.207,2.83-5.319c.3-3.6,1.777-7.145,2.592-10.66.616-2.662.821-5.4,1.307-8.1a17.792,17.792,0,0,1,2.9-7.587,12.025,12.025,0,0,1,1.469-6.48,7.083,7.083,0,0,0,.643-1.377,7.913,7.913,0,0,0,.173-1.426,8.429,8.429,0,0,1,2.279-5.006c-.54-1.971.211-4.029.886-5.94a20.641,20.641,0,0,0,1.134-7.6,6.662,6.662,0,0,1,.1-2.16c.151-.54.448-1,.621-1.518a8.64,8.64,0,0,0,.243-1.939,22.423,22.423,0,0,1,2.7-8.284c.778-1.523.119-3.591.281-5.287.281-2.819.589-5.735,1.987-8.192.259-.464.54-.907.772-1.388a6.009,6.009,0,0,0,.448-2.16,7.955,7.955,0,0,0-.221-3.413c2.889-2.4,6.831-3.078,10.59-3.24s7.56.178,11.238-.621c1.08-.243,2.16-.578,3.3-.74a21.347,21.347,0,0,1,7.766.794,9.25,9.25,0,0,0,1.08,4.682,50.262,50.262,0,0,1,4,19.29Z" transform="translate(-376.271 -313.08)" fill="#1f7980"/>
      <path id="Path_783" data-name="Path 783" d="M888.3,673.29l-6.2,13.954c-.286-1.814-.724-3.629-1.161-5.4l-.1.2v-.292l3.381-7.436Z" transform="translate(-414.297 -335.33)" opacity="0.1"/>
      <path id="Path_784" data-name="Path 784" d="M921.8,616.315a2.333,2.333,0,0,1-1.231.459,5.987,5.987,0,0,1-2.02-.275l-4.86-1.215a2.381,2.381,0,0,1-.443-.157c.081-.848.243-1.831.7-2.16.686-.459,2.738.157,3.516.265,1.339.184,2.7.4,4.007.654A10.7,10.7,0,0,1,921.8,616.315Z" transform="translate(-429.205 -307.505)" opacity="0.1"/>
      <path id="Path_785" data-name="Path 785" d="M925.484,558.342c.1.448.248.891.335,1.345a10.259,10.259,0,0,1-.113,3.343l-.443,3.089-.443,3.105-1.712,11.951-.421,2.959-.594,4.131a2.976,2.976,0,0,1-.259.994,2.068,2.068,0,0,1-1.69,1,6.127,6.127,0,0,1-2.02-.275l-4.86-1.22a1.522,1.522,0,0,1-.594-.243,1.172,1.172,0,0,1-.313-1.139c.07-.41.248-.794.308-1.2.119-.8-.216-1.62-.1-2.414a6.009,6.009,0,0,1,.54-1.453c1.62-3.58.68-7.76,1.231-11.648a17.659,17.659,0,0,1,3.748-8.338,23.932,23.932,0,0,1,4.136-4.061,8.325,8.325,0,0,1,2.328-1.62C925.528,556.435,925.322,557.661,925.484,558.342Z" transform="translate(-428.776 -281.663)" fill="#ecb773"/>
      <path id="Path_786" data-name="Path 786" d="M864.3,471.335c-.356,1.134.2,2.382-.054,3.537-.275,1.274-1.474,2.16-1.815,3.44-.54,1.95,1.113,3.726,2.322,5.346,4.482,6.016,3.894,14.343,2.36,21.682a111.969,111.969,0,0,1-5.1,17.281,13.24,13.24,0,0,1-2.749,4.822c2.484-.713,5.125-1.431,7.614-.74,3.154.875,5.876,3.937,9.072,3.24,1.922-.427,3.273-2.133,5-3.078,3.24-1.744,7.145-.648,10.757-.086a4.223,4.223,0,0,0,2.349-.119,3.9,3.9,0,0,0,1.426-1.312,13.316,13.316,0,0,0,2.776-7.182,9.213,9.213,0,0,0-2.652-7.09,15.169,15.169,0,0,1-2.274-2.16,6.706,6.706,0,0,1-.891-3.272c-.427-5.94,1.021-12-.47-17.751a43.808,43.808,0,0,1-1.658-6.1c-.3-2.608.41-5.4-.627-7.787a7.637,7.637,0,0,0-4.552-3.931,24.938,24.938,0,0,0-6.07-1.08C876.1,468.743,865.535,467.474,864.3,471.335Z" transform="translate(-404.371 -241.174)" fill="#33313f"/>
      <g id="Group_300" data-name="Group 300" transform="translate(454.889 228.924)" opacity="0.1">
        <path id="Path_787" data-name="Path 787" d="M869.476,512.178a111.736,111.736,0,0,1-5.076,17.211c.373-.74.686-1.518.983-2.29a111.383,111.383,0,0,0,5.1-17.281c1.539-7.344,2.128-15.661-2.354-21.682-1.08-1.436-2.468-2.992-2.419-4.677a5.756,5.756,0,0,0-.918,1.7c-.54,1.95,1.112,3.726,2.322,5.346C871.6,496.512,871.01,504.84,869.476,512.178Z" transform="translate(-861.624 -476.936)"/>
        <path id="Path_788" data-name="Path 788" d="M868.489,475.608a5.255,5.255,0,0,0,.95-1.82,9.252,9.252,0,0,0-.065-2.409,2.6,2.6,0,0,0-.9,1.237C868.16,473.573,868.527,474.609,868.489,475.608Z" transform="translate(-863.44 -471.38)"/>
        <path id="Path_789" data-name="Path 789" d="M896.495,567.675a3.889,3.889,0,0,1-1.426,1.307,4.124,4.124,0,0,1-2.349.119c-3.613-.54-7.56-1.652-10.757.092-1.734.94-3.078,2.646-5.006,3.078-3.192.713-5.913-2.349-9.067-3.24-2.236-.621-4.59-.108-6.842.54a9.433,9.433,0,0,1-1.787,2.581c2.484-.713,5.125-1.431,7.614-.74,3.154.875,5.875,3.937,9.072,3.24,1.922-.427,3.273-2.133,5-3.078,3.24-1.744,7.145-.648,10.757-.086a4.223,4.223,0,0,0,2.349-.119,3.9,3.9,0,0,0,1.426-1.312,14.518,14.518,0,0,0,2.236-4.277A15.707,15.707,0,0,1,896.495,567.675Z" transform="translate(-859.26 -514.802)"/>
      </g>
    </g>
  </g>
</svg>
