<svg xmlns="http://www.w3.org/2000/svg" xmlns:xlink="http://www.w3.org/1999/xlink" width="336.534" height="301.121" viewBox="0 0 336.534 301.121">
  <defs>
    <clipPath id="clip-path">
      <path id="blob_8_" data-name="blob (8)" d="M211.089-31.806C240.963-6.512,256.881,37.1,257.1,81.147s-15.264,88.095-45.138,114.479c-29.874,26.167-73.921,34.235-120.367,36.415s-95.072-1.526-125.818-27.693c-30.964-26.167-44.265-74.793-45.138-124.292C-80.452,30.34-69.113-20.031-38.149-45.326-7.185-70.4,43.186-70.4,90.5-66.913,137.6-63.642,181.215-56.883,211.089-31.806Z" transform="translate(79.433 68.551)" fill="#258c93" opacity="0.7"/>
    </clipPath>
    <clipPath id="clip-path-2">
      <path id="blob_8_2" data-name="blob (8)" d="M200.032-33.2C228.769-8.873,244.081,33.079,244.291,75.45s-14.683,84.742-43.42,110.123C172.135,210.743,129.764,218.5,85.085,220.6s-91.454-1.468-121.03-26.639C-65.73,168.792-78.525,122.016-79.364,74.4c-1.049-47.825,9.859-96.279,39.644-120.61C-9.935-70.332,38.519-70.332,84.037-66.975,129.344-63.829,171.3-57.327,200.032-33.2Z" transform="translate(218.479 680.645)" fill="#258c93" opacity="0.7"/>
    </clipPath>
  </defs>
  <g id="Group_326" data-name="Group 326" transform="translate(-133.046 -606.093)">
    <path id="blob_8_3" data-name="blob (8)" d="M211.089-31.806C240.963-6.512,256.881,37.1,257.1,81.147s-15.264,88.095-45.138,114.479c-29.874,26.167-73.921,34.235-120.367,36.415s-95.072-1.526-125.818-27.693c-30.964-26.167-44.265-74.793-45.138-124.292C-80.452,30.34-69.113-20.031-38.149-45.326-7.185-70.4,43.186-70.4,90.5-66.913,137.6-63.642,181.215-56.883,211.089-31.806Z" transform="translate(212.479 674.645)" fill="#258c93" opacity="0.1"/>
    <g id="Mask_Group_25" data-name="Mask Group 25" transform="translate(133.046 606.093)" opacity="0.1" clip-path="url(#clip-path)">
      <path id="blob_8_4" data-name="blob (8)" d="M123.906-107.046C153.78-81.752,169.7-38.14,169.916,5.907S154.652,94,124.778,120.386C94.9,146.553,50.857,154.621,4.411,156.8s-95.072-1.526-125.818-27.693c-30.964-26.167-44.265-74.793-45.138-124.292C-167.635-44.9-156.3-95.271-125.332-120.566-94.368-145.642-44-145.642,3.321-142.153,50.421-138.882,94.032-132.122,123.906-107.046Z" transform="translate(345.421 312.201)" fill="#40a8af" opacity="0.41"/>
      <path id="blob_8_5" data-name="blob (8)" d="M123.906-107.046C153.78-81.752,169.7-38.14,169.916,5.907S154.652,94,124.778,120.386C94.9,146.553,50.857,154.621,4.411,156.8s-95.072-1.526-125.818-27.693c-30.964-26.167-44.265-74.793-45.138-124.292C-167.635-44.9-156.3-95.271-125.332-120.566-94.368-145.642-44-145.642,3.321-142.153,50.421-138.882,94.032-132.122,123.906-107.046Z" transform="translate(-12.189 -25.658)" fill="#40a8af" opacity="0.41"/>
    </g>
    <path id="blob_8_6" data-name="blob (8)" d="M200.032-33.2C228.769-8.873,244.081,33.079,244.291,75.45s-14.683,84.742-43.42,110.123C172.135,210.743,129.764,218.5,85.085,220.6s-91.454-1.468-121.03-26.639C-65.73,168.792-78.525,122.016-79.364,74.4c-1.049-47.825,9.859-96.279,39.644-120.61C-9.935-70.332,38.519-70.332,84.037-66.975,129.344-63.829,171.3-57.327,200.032-33.2Z" transform="translate(218.479 680.645)" fill="#258c93"/>
    <g id="Mask_Group_24" data-name="Mask Group 24" clip-path="url(#clip-path-2)">
      <path id="blob_8_7" data-name="blob (8)" d="M112.849-108.445C141.586-84.113,156.9-42.161,157.108.21s-14.683,84.742-43.42,110.123C84.952,135.5,42.581,143.264-2.1,145.362s-91.454-1.468-121.03-26.639c-29.786-25.171-42.581-71.947-43.42-119.562-1.049-47.825,9.859-96.279,39.644-120.61,29.786-24.122,78.239-24.122,123.757-20.766C42.161-139.069,84.113-132.567,112.849-108.445Z" transform="translate(477.662 917.885)" fill="#40a8af" opacity="0.41"/>
      <path id="blob_8_8" data-name="blob (8)" d="M112.849-108.445C141.586-84.113,156.9-42.161,157.108.21s-14.683,84.742-43.42,110.123C84.952,135.5,42.581,143.264-2.1,145.362s-91.454-1.468-121.03-26.639c-29.786-25.171-42.581-71.947-43.42-119.562-1.049-47.825,9.859-96.279,39.644-120.61,29.786-24.122,78.239-24.122,123.757-20.766C42.161-139.069,84.113-132.567,112.849-108.445Z" transform="translate(133.662 592.885)" fill="#40a8af" opacity="0.41"/>
    </g>
    <g id="undraw_Questions_re_1fy7" transform="translate(158.258 636.067)">
      <circle id="Ellipse_141" data-name="Ellipse 141" cx="15.119" cy="15.119" r="15.119" transform="translate(126.672 162.286)" fill="#44bcc3"/>
      <path id="Path_862" data-name="Path 862" d="M515.655,220.371a43.753,43.753,0,0,0-43.313,43c0,.218,0,1.752,0,3.758a11.092,11.092,0,0,0,11.09,11.092h0a11.1,11.1,0,0,0,11.1-11.106c0-1.367,0-2.312,0-2.37a21.036,21.036,0,1,1,32.382,17.709l0,0s-15.786,10.163-20.6,24.1h0a30.9,30.9,0,0,0-1.273,8.8c0,1.224.072,11.938.211,20.634a11.434,11.434,0,0,0,11.435,11.248h0a11.437,11.437,0,0,0,11.436-11.507c-.048-7.964-.075-17.237-.075-17.91,0-8.56,8.258-17.09,15.042-22.652a45.623,45.623,0,0,0,15.69-24.979A28.525,28.525,0,0,0,559.6,264a43.633,43.633,0,0,0-43.948-43.631Z" transform="translate(-375.483 -200.731)" fill="#44bcc3"/>
      <path id="Path_863" data-name="Path 863" d="M388.777,746.032H177.96a.406.406,0,0,1,0-.783H388.776a.406.406,0,0,1,0,.783Z" transform="translate(-147.071 -553.093)" fill="#3f3d56"/>
      <circle id="Ellipse_151" data-name="Ellipse 151" cx="9.86" cy="9.86" r="9.86" transform="translate(196.699 67.296)" fill="#2f2e41"/>
      <path id="Path_864" data-name="Path 864" d="M560.866,550.384h-4.029l-1.917-15.543h5.948Z" transform="translate(-372.528 -361.761)" fill="#ffb8b8"/>
      <path id="Path_865" data-name="Path 865" d="M542,578.626h7.771v4.893H537.109A4.893,4.893,0,0,1,542,578.626Z" transform="translate(-360.571 -391.155)" fill="#2f2e41"/>
      <path id="Path_866" data-name="Path 866" d="M655.866,550.384h-4.029l-1.917-15.543h5.948Z" transform="translate(-436.303 -361.761)" fill="#ffb8b8"/>
      <path id="Path_867" data-name="Path 867" d="M637,578.626h7.771v4.893H632.109A4.893,4.893,0,0,1,637,578.626Z" transform="translate(-424.346 -391.155)" fill="#2f2e41"/>
      <circle id="Ellipse_152" data-name="Ellipse 152" cx="8.073" cy="8.073" r="8.073" transform="translate(196.988 70.928)" fill="#ffb8b8"/>
      <path id="Path_868" data-name="Path 868" d="M757.239,457.722l3.612-8.3a10.315,10.315,0,0,0-2.284-11.7,10.5,10.5,0,0,0-1.009-.878,10.168,10.168,0,0,0-6.242-2.159,10.576,10.576,0,0,0-4.4.979c-.118.053-.233.108-.352.164-.227.108-.45.227-.667.348a10.412,10.412,0,0,0-5.16,7.849l-1.594,13.358c-.4,1.049-14.705,38.913-9.7,67.82a1.468,1.468,0,0,0,1.256,1.206l5.072.69a1.478,1.478,0,0,0,1.647-1.16l8.51-40.563a1.151,1.151,0,0,1,2.235-.076l12.023,42.656a1.469,1.469,0,0,0,1.417,1.078,1.671,1.671,0,0,0,.286-.026l6.2-1.193a1.47,1.47,0,0,0,1.193-1.581C768.358,516.083,763.52,465.226,757.239,457.722Z" transform="translate(-547.366 -344.605)" fill="#185c61"/>
      <path id="Path_869" data-name="Path 869" d="M706.056,415.375a3.305,3.305,0,0,0,3.482,3.682l4.512,10.844,3.413-5.06-4.808-9.522a3.323,3.323,0,0,0-6.6.055Z" transform="translate(-532.368 -329.655)" fill="#ffb8b8"/>
      <path id="Path_870" data-name="Path 870" d="M792.553,510.832a3.305,3.305,0,0,0,2.77-4.244l9.494-6.915-5.716-2.141-8.139,6.895a3.323,3.323,0,0,0,1.592,6.4Z" transform="translate(-587.939 -386.796)" fill="#ffb8b8"/>
      <path id="Path_871" data-name="Path 871" d="M729.27,454.568a5.6,5.6,0,0,1-1.084-.107,5.359,5.359,0,0,1-3.927-3.161l-6.322-7.709a1.479,1.479,0,0,1,.365-2.2l4.5-2.784a1.479,1.479,0,0,1,2.043.49l4.456,7.341,8.533-6.306a3.2,3.2,0,0,1,3.717,5.115l-8.517,7.769A5.342,5.342,0,0,1,729.27,454.568Z" transform="translate(-540.133 -347.093)" fill="#207d84"/>
      <path id="Path_872" data-name="Path 872" d="M812.064,471.085h-.035a1.482,1.482,0,0,1-1.088-.516l-4-4.665a1.479,1.479,0,0,1,.3-2.193l7.488-4.992-6.784-8.155a3.2,3.2,0,0,1,4.893-4l8.245,8.057a5.431,5.431,0,0,1-1.208,8.855l-6.738,7.15A1.482,1.482,0,0,1,812.064,471.085Z" transform="translate(-599.87 -352.016)" fill="#207d84"/>
      <path id="Path_873" data-name="Path 873" d="M786.186,444.806a1.506,1.506,0,0,1-.192-.012,1.466,1.466,0,0,1-1.22-1.009l-3-9.213a1.013,1.013,0,0,1,.524-1.224l.1-.046c.088-.042.176-.084.265-.123a10.707,10.707,0,0,1,4.471-.994,10.3,10.3,0,0,1,5.641,1.695,1.029,1.029,0,0,1,.3,1.411l-5.637,8.831A1.465,1.465,0,0,1,786.186,444.806Z" transform="translate(-583.178 -342.927)" fill="#e6e6e6"/>
      <circle id="Ellipse_153" data-name="Ellipse 153" cx="3.227" cy="3.227" r="3.227" transform="translate(211.107 66.301)" fill="#2f2e41"/>
      <path id="Path_874" data-name="Path 874" d="M778.657,361.365h0a8.546,8.546,0,0,0-8.546,8.546v3.616h4.447l2.127-3.615.638,3.615h13.5l-3.616-3.616A8.546,8.546,0,0,0,778.657,361.365Z" transform="translate(-575.384 -295.384)" fill="#1d3c4e"/>
      <path id="Path_875" data-name="Path 875" d="M834.809,358.358a4.98,4.98,0,0,1,5.417-3.417,6.9,6.9,0,0,1,4.651,3.843,37.849,37.849,0,0,1,2.067,5.893,10.671,10.671,0,0,0,3.219,5.254c1.644,1.282,4.167,1.63,5.781.311a6.612,6.612,0,0,1-12.318,2.36,14.3,14.3,0,0,1-1.325-5.013,10.953,10.953,0,0,0-1.6-4.911,4.062,4.062,0,0,0-4.537-1.689Z" transform="translate(-618.817 -291.041)" fill="#1d3c4e"/>
      <path id="Path_876" data-name="Path 876" d="M486.243,309.86h0a11.092,11.092,0,0,1-11.091-11.09c0-2.007,0-3.541,0-3.759a43.223,43.223,0,0,1,5.048-19.691,43.321,43.321,0,0,0-8.335,24.95c0,.218,0,1.752,0,3.758a11.092,11.092,0,0,0,11.09,11.092h0a11.1,11.1,0,0,0,10.678-8.083,11.051,11.051,0,0,1-7.391,2.824Z" transform="translate(-375.166 -237.62)" fill="#3f3d56"/>
      <path id="Path_877" data-name="Path 877" d="M571.663,280.688a21.037,21.037,0,0,1,18.294,29.388,21.035,21.035,0,1,0-35.309-22.017A20.993,20.993,0,0,1,571.663,280.688Z" transform="translate(-430.74 -237.678)" fill="#3f3d56"/>
      <path id="Path_878" data-name="Path 878" d="M586.3,498.792h0a11.434,11.434,0,0,1-11.435-11.251c-.139-8.693-.211-19.407-.211-20.631a30.9,30.9,0,0,1,1.273-8.8h0a31.249,31.249,0,0,1,1.806-4.175,36.172,36.172,0,0,0-5.093,9.433h0a30.9,30.9,0,0,0-1.273,8.8c0,1.224.072,11.938.211,20.634a11.434,11.434,0,0,0,11.435,11.248h0a11.439,11.439,0,0,0,10.978-8.231A11.393,11.393,0,0,1,586.3,498.792Z" transform="translate(-441.962 -357.529)" fill="#3f3d56"/>
      <path id="Path_879" data-name="Path 879" d="M126.539,550.839h4.029l1.917-15.543h-5.948Z" transform="translate(-64.947 -362.066)" fill="#ffb8b8"/>
      <path id="Path_880" data-name="Path 880" d="M0,0H12.664V4.893H4.893A4.893,4.893,0,0,1,0,0Z" transform="translate(73.392 192.514) rotate(179.997)" fill="#2f2e41"/>
      <path id="Path_881" data-name="Path 881" d="M82.539,550.839h4.029L88.485,535.3H82.538Z" transform="translate(-35.409 -362.066)" fill="#ffb8b8"/>
      <path id="Path_882" data-name="Path 882" d="M0,0H12.664V4.893H4.893A4.893,4.893,0,0,1,0,0Z" transform="translate(58.93 192.514) rotate(179.997)" fill="#2f2e41"/>
      <path id="Path_883" data-name="Path 883" d="M259.905,610.273l-3.936-.207a1.536,1.536,0,0,1-1.452-1.633l4.7-52.085,21.664,5.846,2.087-.569-6.527,46.109a1.544,1.544,0,0,1-1.432,1.3l-4.243.2a1.536,1.536,0,0,1-1.621-1.576l.769-27.674a.512.512,0,0,0-1.013-.118L261.49,609.05a1.527,1.527,0,0,1-1.5,1.224Z" transform="translate(-209.254 -426.28)" fill="#207d84"/>
      <circle id="Ellipse_154" data-name="Ellipse 154" cx="8.073" cy="8.073" r="8.073" transform="translate(54.242 71.306)" fill="#ffb8b8"/>
      <path id="Path_884" data-name="Path 884" d="M265.483,448.164l.888,19.151.321,6.968a1.526,1.526,0,0,0,1.01,1.372l20.817,7.541a1.472,1.472,0,0,0,.526.092,1.526,1.526,0,0,0,1.533-1.574l-.853-34.435a12.138,12.138,0,0,0-10.105-11.726c-.2-.031-.406-.061-.611-.089a11.915,11.915,0,0,0-9.586,3.1,12.239,12.239,0,0,0-3.94,9.6Z" transform="translate(-216.608 -345.068)" fill="#cfcce0"/>
      <path id="Path_885" data-name="Path 885" d="M347.832,539.08a3.308,3.308,0,0,1-1.765-5l-7.059-9.387,6.092-.377,5.77,8.972a3.323,3.323,0,0,1-3.038,5.8Z" transform="translate(-265.977 -404.773)" fill="#ffb8b8"/>
      <path id="Path_886" data-name="Path 886" d="M326.671,483.8a1.527,1.527,0,0,1-.835-.828L315.2,457.63a4.1,4.1,0,0,1,7.555-3.171L333.39,479.8a1.538,1.538,0,0,1-.822,2.011l-4.722,1.982a1.525,1.525,0,0,1-1.176.006Z" transform="translate(-249.779 -356.193)" fill="#cfcce0"/>
      <path id="Path_887" data-name="Path 887" d="M298.137,504.425l10.215-19.56a1.6,1.6,0,0,1,2.161-.678l14.827,7.744a1.6,1.6,0,0,1,.678,2.161L315.8,513.652a1.6,1.6,0,0,1-2.161.678l-14.827-7.744A1.6,1.6,0,0,1,298.137,504.425Z" transform="translate(-238.417 -377.715)" fill="#185c61"/>
      <path id="Path_888" data-name="Path 888" d="M288.909,502.687a3.308,3.308,0,0,0-5.1-1.466l-9.788-6.493-.017,6.1,9.3,5.23a3.323,3.323,0,0,0,5.607-3.375Z" transform="translate(-222.339 -384.914)" fill="#ffb8b8"/>
      <path id="Path_889" data-name="Path 889" d="M257.509,470.034l-8-6.336a5.641,5.641,0,0,1-2.571-8.919l7.263-9.518a3.318,3.318,0,0,1,5.63,3.38l-5.747,9.4,8.445,4.006a1.536,1.536,0,0,1,.64,2.209l-3.409,5.4a1.539,1.539,0,0,1-1.041.694l-.025,0A1.543,1.543,0,0,1,257.509,470.034Z" transform="translate(-203.313 -350.888)" fill="#cfcce0"/>
      <path id="Path_890" data-name="Path 890" d="M279.739,384.308a.7.7,0,0,1,.61-.927,1.621,1.621,0,0,1,1.143.564,4.548,4.548,0,0,0,1.009.867.868.868,0,0,0,1.143-.207,1.59,1.59,0,0,0-.061-1.234,12.128,12.128,0,0,1-.536-3.211,5.655,5.655,0,0,1,.808-3.434,4.544,4.544,0,0,1,3.893-1.655,26.164,26.164,0,0,1,4.374.775,1.469,1.469,0,0,0,1.43-.24,1.843,1.843,0,0,0,.074-1.645,11.422,11.422,0,0,0-1.731-4.126,6.211,6.211,0,0,0-3.964-2.232,9.511,9.511,0,0,0-4.425.5,11.864,11.864,0,0,0-5.812,4.049,9.609,9.609,0,0,0-1.833,7.1,8.765,8.765,0,0,0,3.249,5.54Z" transform="translate(-223.524 -299.524)" fill="#1d3c4e"/>
      <path id="Path_891" data-name="Path 891" d="M574.789,687.157a15.117,15.117,0,0,1-5.611-23.5,15.118,15.118,0,1,0,20.565,21.846,15.11,15.11,0,0,1-14.955,1.652Z" transform="translate(-436.329 -498.321)" fill="#3f3d56"/>
    </g>
  </g>
</svg>
