<svg xmlns="http://www.w3.org/2000/svg" width="37" height="42" viewBox="0 0 37 42"><g transform="translate(-1787 -522)"><circle cx="12" cy="12" r="12" transform="translate(1800 540)" fill="#ecb773" opacity="0.35"/><g transform="translate(1787 522)"><g transform="translate(0 0)"><g transform="translate(0 0)"><path d="M35.458,16.958A1.542,1.542,0,0,0,33.917,18.5,15.415,15.415,0,1,1,29.44,7.637a1.541,1.541,0,1,0,2.188-2.172A18.5,18.5,0,1,0,37,18.5,1.542,1.542,0,0,0,35.458,16.958Z" transform="translate(0 0)" fill="#258c93"/></g></g><g transform="translate(10.792 10.792)"><path d="M125.875,118.167H121.25v-4.625a1.542,1.542,0,0,0-3.083,0v4.625h-4.625a1.542,1.542,0,0,0,0,3.083h4.625v4.625a1.542,1.542,0,0,0,3.083,0V121.25h4.625a1.542,1.542,0,0,0,0-3.083Z" transform="translate(-112 -112)" fill="#258c93"/></g></g></g></svg>