<svg xmlns="http://www.w3.org/2000/svg" width="44.26" height="49.739" viewBox="0 0 44.26 49.739"><g transform="translate(-1789.726 -616.261)"><circle cx="12" cy="12" r="12" transform="translate(1800 642)" fill="#ecb773" opacity="0.35"/><g transform="translate(1773.626 616.661)"><path d="M89.119,145H81.861a1.361,1.361,0,1,0,0,2.722h7.258a1.361,1.361,0,0,0,0-2.722Z" transform="translate(-58.193 -131.844)" fill="#258c93" stroke="#258c93" stroke-width="0.8"/><path d="M89.119,225H81.861a1.361,1.361,0,1,0,0,2.722h7.258a1.361,1.361,0,1,0,0-2.722Z" transform="translate(-58.193 -204.586)" fill="#258c93" stroke="#258c93" stroke-width="0.8"/><path d="M89.119,305H81.861a1.361,1.361,0,1,0,0,2.722h7.258a1.361,1.361,0,1,0,0-2.722Z" transform="translate(-58.193 -277.327)" fill="#258c93" stroke="#258c93" stroke-width="0.8"/><path d="M50.433,24.944V12.519a6.765,6.765,0,0,0-1.948-4.766l-5.522-5.71-.008-.008A6.849,6.849,0,0,0,38.1,0H20.583A4.087,4.087,0,0,0,16.5,4.083V39.377a4.087,4.087,0,0,0,4.083,4.083H41.617a10.819,10.819,0,1,0,8.816-18.515ZM19.222,39.377V4.083a1.362,1.362,0,0,1,1.361-1.361H38.1a4.111,4.111,0,0,1,2.909,1.217l5.521,5.71.008.008a4.059,4.059,0,0,1,1.171,2.862V24.946a10.793,10.793,0,0,0-8.163,15.792H20.583a1.363,1.363,0,0,1-1.361-1.361Zm29.85,4.355a8.075,8.075,0,1,1,8.166-8.075A8.084,8.084,0,0,1,49.072,43.732Z" fill="#258c93" stroke="#258c93" stroke-width="0.8"/><path d="M336.81,354.317a1.361,1.361,0,0,0-1.917.174l-2.3,2.756-.521-1.042a1.361,1.361,0,0,0-2.435,1.217l1.452,2.9a1.361,1.361,0,0,0,1.06.743,1.388,1.388,0,0,0,.157.009,1.361,1.361,0,0,0,1.045-.49l3.629-4.355A1.361,1.361,0,0,0,336.81,354.317Z" transform="translate(-284.599 -321.883)" fill="#258c93" stroke="#258c93" stroke-width="0.8"/><path d="M241.861,147.722h1.452a1.361,1.361,0,0,0,0-2.722h-1.452a1.361,1.361,0,1,0,0,2.722Z" transform="translate(-203.677 -131.844)" fill="#258c93" stroke="#258c93" stroke-width="0.8"/><path d="M244.674,226.361A1.361,1.361,0,0,0,243.313,225h-1.452a1.361,1.361,0,1,0,0,2.722h1.452A1.361,1.361,0,0,0,244.674,226.361Z" transform="translate(-203.677 -204.586)" fill="#258c93" stroke="#258c93" stroke-width="0.8"/></g></g></svg>