<svg xmlns="http://www.w3.org/2000/svg" width="116.199" height="90.954" viewBox="0 0 116.199 90.954">
  <g id="Group_319" data-name="Group 319" transform="translate(-1498.955 -737.299)">
    <circle id="Ellipse_81" data-name="Ellipse 81" cx="23" cy="23" r="23" transform="translate(1569.154 758.881)" fill="#ecb773" opacity="0.35"/>
    <path id="graduation-hat" d="M105.833,107.6V77.39l1.254-.376c4.821-1.447,5.833-3.9,5.833-5.7s-1.012-4.249-5.833-5.7L65.836,53.247a33.953,33.953,0,0,0-9.375-1.182,33.961,33.961,0,0,0-9.376,1.182L5.833,65.622C1.012,67.068,0,69.518,0,71.318s1.012,4.25,5.833,5.7l15.428,4.628V97.894c0,3.1,2.013,7.459,11.6,10.655,6.352,2.117,14.732,3.283,23.6,3.283s17.244-1.166,23.6-3.283c9.59-3.2,11.6-7.559,11.6-10.655V81.643l7.558-2.267V107.6a10.412,10.412,0,0,0-7.087,9.852v14.174a10.395,10.395,0,0,0,20.79,0V117.451a10.411,10.411,0,0,0-7.087-9.852ZM48.985,59.584a27.689,27.689,0,0,1,7.475-.9,27.7,27.7,0,0,1,7.474.9l39.113,11.734-15.664,4.7-.027.008L63.935,83.053a27.692,27.692,0,0,1-7.474.9,27.7,27.7,0,0,1-7.475-.9L25.564,76.026l-.027-.008-15.664-4.7ZM85.043,97.894c0,.427-1.2,2.419-7.079,4.378-5.695,1.9-13.332,2.944-21.5,2.944s-15.809-1.045-21.5-2.944c-5.877-1.959-7.079-3.952-7.079-4.378V83.627L47.084,89.39a33.957,33.957,0,0,0,9.376,1.182,33.958,33.958,0,0,0,9.376-1.182l19.207-5.762Zm21.261,33.73a3.779,3.779,0,0,1-7.557,0V117.451a3.779,3.779,0,1,1,7.557,0Z" transform="translate(1499.455 685.734)" fill="#248b93" stroke="#248b93" stroke-width="1"/>
  </g>
</svg>
