<svg xmlns="http://www.w3.org/2000/svg" width="216.782" height="181" viewBox="0 0 216.782 181"><g transform="translate(-1548 -841)"><g transform="translate(1548 841)"><path d="M364.5,534.573H496.088l-.059-13.952c-.15-35.3-28.328-64.391-63.625-64.992q-.572-.01-1.146-.01h0a66.01,66.01,0,0,0-66.121,63.741Z" transform="translate(-323.803 -363.59)" fill="#258c93" opacity="0.72"/><rect width="216.782" height="0.543" transform="translate(0 170.984)" fill="#2f2e41"/><path d="M423.588,373.267l-5.8,4.217-5.8,49.548h-13.7l4.744-56.4,18.976-7.38Z" transform="translate(-314.868 -264.684)" fill="#16666c"/><path d="M573.078,427.2s1.581,17.922-4.744,18.449-30.572-5.271-30.572-5.271l-11.6,41.115L508.77,472.53s10.542-46.386,16.868-49.021,27.41-7.907,27.41-7.907l15.286,2.636Z" transform="translate(-440.111 -334.429)" fill="#16666c"/><path d="M662.245,710.906s3.163,12.124,1.054,13.178a38.133,38.133,0,0,0-3.69,2.108v-2.108s-2.636,2.636-2.636,4.744-14.232,2.635-14.232,0,.527-5.8,3.163-7.38,5.8-10.542,5.8-10.542Z" transform="translate(-567.23 -549.612)" fill="#16666c"/><path d="M518.845,502.049l-1.054,10.015-3.69,6.325-8.961-10.015,6.852-11.069Z" transform="translate(-439.116 -362.367)" fill="#16666c"/><path d="M732.06,652.042s-1.941-6.637-3.87-5.954-9.308,7.535-9.308,7.535l-5.271,3.163s-10.542,1.054-7.38,4.217,14.759,7.38,20.03,5.271,6.325-2.635,6.325-2.635l1.581,1.054,6.325-1.581-1.054-11.069S737.858,656.786,732.06,652.042Z" transform="translate(-660.765 -502.345)" fill="#16666c"/><ellipse cx="12.124" cy="12.124" rx="12.124" ry="12.124" transform="translate(102.922 2.634)" fill="#f1b8c0"/><path d="M553.845,187.8s-1.054,11.069,2.108,11.069-.527,13.7-8.961,13.7-11.6-16.34-11.6-16.34a7.934,7.934,0,0,0,4.744-8.961C539.086,180.416,553.845,187.8,553.845,187.8Z" transform="translate(-431.156 -165.922)" fill="#f1b8c0"/><path d="M508.942,224.467l4.431,1.9,12.026,5.088a2.442,2.442,0,0,1,1.475,2.522l-4.54,40.357s4.744,10.015-2.636,10.542l-1.054,3.69-8.434-10.015-31.627-1.054-.527-51.13,14.471-5.718S494.5,231.529,508.942,224.467Z" transform="translate(-385.413 -192.369)" fill="#ecb773"/><path d="M464.149,264.347l1.948-.557a1.606,1.606,0,0,1,2.027,1.291l5.169,32.424a11.26,11.26,0,0,1-1.1,7.032c-1.6,3.024-4.914,5.767-11.734,2.505l-4.744-34.262Z" transform="translate(-325.911 -223.762)" fill="#ecb773"/><path d="M675.76,238.809l-6.325,1.054L652.04,264.11l-1.581,4.217-10.015-3.163s.527,4.744-4.744,4.217c0,0,6.325,17.395,19.5,12.124S672.6,260.421,672.6,260.421Z" transform="translate(-577.055 -205.603)" fill="#ecb773"/><path d="M371.088,135.72l23.72-9.488,1.054,3.163-11.069,9.488Z" transform="translate(-279.763 -91.972)" fill="#ccc"/><path d="M541.213,131.95c-.448-.12-.514-.714-.529-1.177a6.156,6.156,0,0,0-3.948-5.748,6.638,6.638,0,0,0-2.8-.154,10.6,10.6,0,0,0-3.789,1.264,5.912,5.912,0,0,1-1.927.873c-.463.07-2.469.653-2.93.735-1.014.18-1.957,1.088-2.93.75-.931-.323-1.137-1.529-1.16-2.514-.051-2.245,1.653-5.351,3.154-7.021a7.831,7.831,0,0,1,4.53-2.156,30.161,30.161,0,0,1,5.925-.36,18.827,18.827,0,0,1,7.859,1.416c2.419,1.161,4.451,3.471,4.567,6.152.024.558-.034,1.119.013,1.676a24.667,24.667,0,0,0,1.175,3.907,7.149,7.149,0,0,1-1,5.713c-.9,1.321-4.488,2.521-4.436,4.118-.649-.672.881-1.349.232-2.021a1.6,1.6,0,0,1-.475-1.953l.689-2.688a2.425,2.425,0,0,0,.06-1.5C542.758,129.44,541.959,132.15,541.213,131.95Z" transform="translate(-418.868 -116.42)" fill="#16666c"/><path d="M400.064,113.823l10.015,39.006-39.006,13.705-22.666-18.976-14.232-42.7,23.193,16.867Z" transform="translate(-283.964 -76.4)" fill="#f2f2f2"/><rect width="0.527" height="39.251" transform="matrix(-0.255, -0.967, 0.967, -0.255, 76.371, 52.173)" fill="#e6e6e6"/><rect width="0.527" height="39.251" transform="matrix(-0.255, -0.967, 0.967, -0.255, 77.425, 54.808)" fill="#e6e6e6"/><rect width="0.527" height="39.251" transform="matrix(-0.255, -0.967, 0.967, -0.255, 77.952, 57.444)" fill="#e6e6e6"/><rect width="0.527" height="39.251" transform="matrix(-0.255, -0.967, 0.967, -0.255, 78.479, 60.08)" fill="#e6e6e6"/><rect width="0.527" height="39.251" transform="matrix(-0.255, -0.967, 0.967, -0.255, 79.006, 62.715)" fill="#e6e6e6"/><rect width="0.527" height="39.251" transform="matrix(-0.255, -0.967, 0.967, -0.255, 79.534, 65.35)" fill="#e6e6e6"/><rect width="0.527" height="39.251" transform="matrix(-0.255, -0.967, 0.967, -0.255, 80.061, 67.986)" fill="#e6e6e6"/><rect width="0.527" height="39.251" transform="matrix(-0.255, -0.967, 0.967, -0.255, 80.588, 70.622)" fill="#e6e6e6"/><rect width="0.527" height="39.251" transform="matrix(-0.255, -0.967, 0.967, -0.255, 81.115, 73.257)" fill="#e6e6e6"/><path d="M530.341,349.433s-11.855-7.081-17.126-2.337,15.286,11.6,15.286,11.6Z" transform="translate(-398.169 -283.317)" fill="#f1b8c0"/><path d="M479.863,357.289l-15.286-5.8s2.636,10.015-2.636,10.542l7.379,8.961S484.08,370.994,479.863,357.289Z" transform="translate(-334.772 -287.712)" fill="#fdbe6e"/><path d="M415.085,255.6,394.8,262.438l4.8,10.464,20.284-6.836Z" transform="translate(-310.22 -186.242)" fill="#e6e6e6"/><path d="M542.768,142.686l-15.286-11.6,4.217,14.232,15.813,11.6Z" transform="translate(-473.845 -95.511)" fill="#ccc"/><rect width="19.187" height="0.527" transform="translate(76.143 66.887) rotate(-142.817)" fill="#e6e6e6"/><rect width="19.187" height="0.527" transform="translate(77.197 72.685) rotate(-142.817)" fill="#e6e6e6"/><path d="M771.409,322.29s-13.178-7.907-4.744-11.069,8.434,8.961,8.434,8.961S775.626,322.817,771.409,322.29Z" transform="translate(-711.183 -257.985)" fill="#f1b8c0"/><path d="M298.105,171.888l.527,20.557-8.17-2.332,6.589.223Z" transform="translate(-160.658 -125.241)" opacity="0.1"/><path d="M288.189,679.6c-1.648,6.091-7.292,9.863-7.292,9.863s-2.972-6.1-1.325-12.194,7.292-9.863,7.292-9.863S289.837,673.512,288.189,679.6Z" transform="translate(-93.223 -517.917)" fill="#8985a8"/><path d="M253.258,694.715c-4.521,4.4-5.074,11.167-5.074,11.167s6.778-.37,11.3-4.772,5.074-11.167,5.074-11.167S257.78,690.313,253.258,694.715Z" transform="translate(-60.714 -534.337)" fill="#3f3d56"/><rect width="8.139" height="8.139" transform="translate(38.798 102.883)" fill="#f2f2f2"/><rect width="8.139" height="8.139" transform="translate(71.356 10.635)" fill="#f2f2f2"/><ellipse cx="4.07" cy="4.07" rx="4.07" ry="4.07" transform="translate(169.573 84.976)" fill="#f2f2f2"/></g></g></svg>