<svg xmlns="http://www.w3.org/2000/svg" width="630" height="628.665" viewBox="0 0 630 628.665">
  <g id="Group_297" data-name="Group 297" transform="translate(-265 -4021)">
    <g id="Grades-pana" transform="translate(243.74 3990.612)">
      <g id="background-simple--inject-75" transform="translate(96.556 70.64)">
        <path id="Path_80" data-name="Path 80" d="M604.164,364.133C599.571,313.9,559.093,267,508.915,262.473c-32.388-2.914-67.427,10.31-96.332-4.593-24.09-12.489-35.4-40.548-40.936-67.08s-7.549-54.618-21.176-78.056c-16.18-27.85-47-44.947-78.625-50.775-52.079-9.6-116.994,7.979-152.227,47.472S65.5,231.764,80.973,282.372C88.8,357.306,129.9,427.48,189.211,473.87s135.894,69.244,211.2,66.705c50.344-1.693,101.549-15.015,141.472-45.793S608.771,414.228,604.164,364.133Z" transform="translate(-75.521 -59.395)" fill="#ebebeb" stroke="#707070" stroke-width="1"/>
      </g>
      <g id="Floor--inject-75" transform="translate(21.26 639.035)">
        <path id="Path_81" data-name="Path 81" d="M651.26,469.361c0,.194-141.042.361-315,.361s-315-.167-315-.361,141.028-.361,315-.361S651.26,469.153,651.26,469.361Z" transform="translate(-21.26 -469)" fill="#263238"/>
      </g>
      <g id="Character--inject-75" transform="translate(231.061 30.387)">
        <path id="Path_82" data-name="Path 82" d="M220.372,434.31l-3.233,35.649-10.7,27.462a3.664,3.664,0,0,0,2.317,4.829h0a3.635,3.635,0,0,0,3.317-.569c6.022-4.593,28.086-21.578,28.183-24.2.111-3.039,5.911-37.4,5.911-37.4Z" transform="translate(-159.371 126.199)" fill="#258c93"/>
        <g id="Group_62" data-name="Group 62" transform="translate(49.331 601.293)" opacity="0.6">
          <path id="Path_83" data-name="Path 83" d="M208,490.87l31.778-27.17-.18,1.5a5.454,5.454,0,0,1-1.707,3.414c-2.553,2.4-9.714,8.867-26.463,21.7a3.663,3.663,0,0,1-3.428.555Z" transform="translate(-208 -463.7)" fill="#fff"/>
        </g>
        <g id="Group_63" data-name="Group 63" transform="translate(74.068 588.741)" opacity="0.6">
          <path id="Path_84" data-name="Path 84" d="M226.928,454.9a2.22,2.22,0,0,0-.93,2.775,2.123,2.123,0,0,0,2.775.957,2.345,2.345,0,0,0,.971-2.984,2.206,2.206,0,0,0-3-.666" transform="translate(-225.826 -454.655)" fill="#fff"/>
        </g>
        <path id="Path_85" data-name="Path 85" d="M217.076,474.068a10.949,10.949,0,0,0-2.775-3.122,11.1,11.1,0,0,0-4.01-1.249c0-.1.458-.319,1.3-.347a5.838,5.838,0,0,1,5.273,3.386C217.173,473.513,217.173,474.04,217.076,474.068Z" transform="translate(-157.781 139.783)" fill="#263238"/>
        <path id="Path_86" data-name="Path 86" d="M214.787,476.873c-.18.139-1.193-1.152-2.97-1.887a32.327,32.327,0,0,0-3.428-.846,4.08,4.08,0,0,1,3.733.125C214.093,475.069,214.926,476.762,214.787,476.873Z" transform="translate(-158.517 141.488)" fill="#263238"/>
        <path id="Path_87" data-name="Path 87" d="M221.743,470.15a35.8,35.8,0,0,0-4.4-3.219,35.766,35.766,0,0,0-5.134-1.832,10.033,10.033,0,0,1,9.533,5.051Z" transform="translate(-157.036 138.123)" fill="#263238"/>
        <path id="Path_88" data-name="Path 88" d="M223.018,461.589c-.111.208-1.984-.846-4.538-1.221s-4.635,0-4.69-.236a9.131,9.131,0,0,1,9.228,1.457Z" transform="translate(-156.424 135.957)" fill="#263238"/>
        <path id="Path_89" data-name="Path 89" d="M223.987,454.072a17.551,17.551,0,0,0-4.69-1.388,18.252,18.252,0,0,0-4.857.652c0-.083.389-.486,1.263-.86a7.979,7.979,0,0,1,7.174.569C223.682,453.531,224.057,453.989,223.987,454.072Z" transform="translate(-156.172 133.011)" fill="#263238"/>
        <path id="Path_90" data-name="Path 90" d="M219.6,452.852a3.205,3.205,0,0,1,.111-1.388,9.269,9.269,0,0,1,1.471-3.4,4.232,4.232,0,0,1,2-1.776,1.471,1.471,0,0,1,1.61.513,2.442,2.442,0,0,1,.389,1.679,5.2,5.2,0,0,1-5.065,4.246,6.009,6.009,0,0,1-5.551-3.788,2.1,2.1,0,0,1,.1-1.748,1.388,1.388,0,0,1,1.582-.583,5.079,5.079,0,0,1,2.206,1.485,10.408,10.408,0,0,1,2.123,3.039,3.484,3.484,0,0,1,.4,1.291,17.315,17.315,0,0,0-2.9-3.927,4.828,4.828,0,0,0-1.957-1.249.763.763,0,0,0-.874.319,1.457,1.457,0,0,0,0,1.138,5.37,5.37,0,0,0,4.829,3.233,4.51,4.51,0,0,0,4.343-3.538,1.707,1.707,0,0,0-.222-1.18.8.8,0,0,0-.888-.305,3.858,3.858,0,0,0-1.721,1.485,14.07,14.07,0,0,0-1.984,4.454Z" transform="translate(-156.182 130.817)" fill="#263238"/>
        <path id="Path_91" data-name="Path 91" d="M319.475,185.825a1.04,1.04,0,0,1,0,.472c-.6,2.179-4.343,11.3-5.62,11.254s-4.274-2-4.01-3.3,5.051-11.323,5.051-11.323.86-1.526,3.747-.846C318.989,182.176,319.392,186.2,319.475,185.825Z" transform="translate(-119.193 28.35)" fill="#eb996e"/>
        <path id="Path_92" data-name="Path 92" d="M316.074,181.909a1.991,1.991,0,0,1-.069.458c-.611,2.193-4.343,11.309-5.62,11.254s-4.274-2-4.01-3.289,5.051-11.323,5.051-11.323.86-1.54,3.747-.86C316.962,178.565,316.074,181.909,316.074,181.909Z" transform="translate(-120.538 26.827)" fill="#eb996e"/>
        <path id="Path_93" data-name="Path 93" d="M313.035,179.212v.458c-.6,2.193-4.343,11.309-5.62,11.254s-4.274-2-4.01-3.289,5-11.323,5-11.323c-.18.319-.416-1.832,3.747-.86C313.951,175.867,313.035,179.212,313.035,179.212Z" transform="translate(-121.69 25.75)" fill="#eb996e"/>
        <path id="Path_94" data-name="Path 94" d="M309.225,176.569v.458c-.6,2.193-4.343,11.3-5.62,11.254s-4.274-2-4.01-3.289,5.051-11.323,5.051-11.323.86-1.54,3.747-.86C310.1,173.225,309.225,176.569,309.225,176.569Z" transform="translate(-123.167 24.757)" fill="#eb996e"/>
        <path id="Path_95" data-name="Path 95" d="M310.52,191.31a19.772,19.772,0,0,0,2.179-4.288,18.361,18.361,0,0,0,1.6-4.482,19.427,19.427,0,0,0-2.179,4.3,17.5,17.5,0,0,0-1.6,4.468Z" transform="translate(-118.925 28.597)" fill="#d1734a"/>
        <path id="Path_96" data-name="Path 96" d="M306.61,190.851a36.079,36.079,0,0,0,3.011-6.147,38.992,38.992,0,0,0,2.442-6.383,37.345,37.345,0,0,0-3.011,6.147,38.993,38.993,0,0,0-2.442,6.383Z" transform="translate(-120.441 26.961)" fill="#d1734a"/>
        <g id="Group_64" data-name="Group 64" transform="translate(180.854 202.616)" opacity="0.78">
          <path id="Path_97" data-name="Path 97" d="M302.78,188.986a36.749,36.749,0,0,0,3.081-6.2A38.012,38.012,0,0,0,308.3,176.4a38.861,38.861,0,0,0-3.011,6.134A39.38,39.38,0,0,0,302.78,188.986Z" transform="translate(-302.78 -176.4)" fill="#d1734a"/>
        </g>
        <path id="Path_98" data-name="Path 98" d="M317.807,204.032c.222-.541,3.858-11.337,3.858-11.337L300.85,182.44c-1.055,1.388-4.26,16.527-4.26,16.527l.735,5.162s15.792,9.075,16.222,9.159S317.807,204.032,317.807,204.032Z" transform="translate(-124.325 28.558)" fill="#eb996e"/>
        <path id="Path_99" data-name="Path 99" d="M300.886,200.35l-2.123-7.826A13.877,13.877,0,0,1,299.97,182.3l1.3-2.387,17.679,8.048s-4.094,5.8-8.59,2.664l3.455,6.716Z" transform="translate(-123.667 27.577)" fill="#eb996e"/>
        <path id="Path_100" data-name="Path 100" d="M311.5,197.892c-.1,0,0-.916-.25-2.456a8.853,8.853,0,0,0-3.344-5.315l-1.637-1.207,1.97.541,4.552,1.277h-.1a5.273,5.273,0,0,0,5.12-2.373,1.818,1.818,0,0,0,.194-.416l.264.555c-5.093-2.068-9.714-4-12.878-5.551-1.61-.791-2.9-1.471-3.761-1.957a5.022,5.022,0,0,1-1.3-.86,53.793,53.793,0,0,1,5.329,2.234c3.261,1.388,7.854,3.261,12.961,5.329l.389.153-.139.4a3.048,3.048,0,0,1-.25.569,5.357,5.357,0,0,1-2.706,2.345,7.48,7.48,0,0,1-3.261.458h-.1l-4.524-1.388.333-.666a8.9,8.9,0,0,1,3.317,5.842A4.746,4.746,0,0,1,311.5,197.892Z" transform="translate(-122.875 27.662)" fill="#d1734a"/>
        <path id="Path_101" data-name="Path 101" d="M311.582,188.571c.18,0-.125.971.153,2.248a1.679,1.679,0,0,0,1.388,1.388,2.512,2.512,0,0,0,2.082-1.388c1.068-1.873,2.165-3.58,2.775-4.829s1-2.081,1.124-2.04,0,.93-.541,2.317a42.686,42.686,0,0,1-2.65,5.051,3.233,3.233,0,0,1-2.9,1.762,2.317,2.317,0,0,1-1.9-2.123,3.955,3.955,0,0,1,.167-1.8C311.416,188.766,311.527,188.557,311.582,188.571Z" transform="translate(-118.711 29.143)" fill="#d1734a"/>
        <path id="Path_102" data-name="Path 102" d="M273.742,128.27l-6.092,62.445a9.172,9.172,0,0,1-9.852,8.243l-14.335-1.152a9.159,9.159,0,0,1-8.409-9.714c.458-7.493,1.18-16.652,1.18-16.652s-13.335-2.068-13.5-15.4c-.083-6.383.819-19.427,1.776-31.347a25.256,25.256,0,0,1,25.186-23.23h.888a24.7,24.7,0,0,1,23.16,26.81Z" transform="translate(-152.96 -2.835)" fill="#eb996e"/>
        <path id="Path_103" data-name="Path 103" d="M232.44,153.16a30.945,30.945,0,0,0,17.429-4.94s-4.163,9.6-17.415,8.4Z" transform="translate(-149.194 15.292)" fill="#d1734a"/>
        <path id="Path_104" data-name="Path 104" d="M226.1,125.888c.236.25,1.679-.819,3.733-.8s3.552,1.027,3.774.777-.139-.569-.791-1.041a5.231,5.231,0,0,0-3.011-.93,4.926,4.926,0,0,0-2.97.958C226.2,125.333,225.974,125.777,226.1,125.888Z" transform="translate(-151.665 5.86)" fill="#263238"/>
        <path id="Path_105" data-name="Path 105" d="M240.568,125.888c.236.25,1.679-.819,3.733-.8s3.539,1.027,3.774.777-.139-.569-.791-1.041a5.329,5.329,0,0,0-3.025-.93,4.968,4.968,0,0,0-2.97.957C240.665,125.333,240.457,125.777,240.568,125.888Z" transform="translate(-146.054 5.86)" fill="#263238"/>
        <path id="Path_106" data-name="Path 106" d="M236.7,138.662a13.448,13.448,0,0,0-3.33-.611c-.527,0-1.013-.153-1.11-.513a2.553,2.553,0,0,1,.361-1.54c.486-1.277,1-2.595,1.54-4,2.151-5.662,3.705-10.338,3.483-10.421s-2.165,4.454-4.316,10.13l-1.485,4a3.081,3.081,0,0,0-.264,2.054,1.388,1.388,0,0,0,.86.777,3.609,3.609,0,0,0,.888.111A14.055,14.055,0,0,0,236.7,138.662Z" transform="translate(-149.555 4.964)" fill="#263238"/>
        <path id="Path_107" data-name="Path 107" d="M241.426,134.91c-.333,0-.347,2.206-2.248,3.788s-4.274,1.388-4.288,1.637.527.43,1.526.458a5.467,5.467,0,0,0,3.58-1.249,4.76,4.76,0,0,0,1.735-3.164C241.815,135.451,241.579,134.9,241.426,134.91Z" transform="translate(-148.244 10.132)" fill="#263238"/>
        <path id="Path_108" data-name="Path 108" d="M240.233,117.578c.194.555,2.248.291,4.649.583s4.343.944,4.663.444c.153-.236-.194-.763-.971-1.3a8.159,8.159,0,0,0-7.1-.777C240.594,116.871,240.15,117.37,240.233,117.578Z" transform="translate(-146.177 2.819)" fill="#263238"/>
        <path id="Path_109" data-name="Path 109" d="M226.656,118.969c.361.458,1.762,0,3.469,0s3.136.305,3.455-.18c.153-.236,0-.694-.708-1.138a5.023,5.023,0,0,0-5.551.167C226.684,118.262,226.489,118.734,226.656,118.969Z" transform="translate(-151.458 3.149)" fill="#263238"/>
        <path id="Path_110" data-name="Path 110" d="M249.05,112.512h.083a10.518,10.518,0,0,1,3.9,6.786,1.543,1.543,0,0,0,0,.264c.527,3.8.43,7.674.985,11.476a17.221,17.221,0,0,0,4.676,10.283c1.152,1.069,3.192,1.818,4.163.555a3.442,3.442,0,0,0,.472-1.748c.708-9.186,3.219-17.332,3.206-26.935a8.146,8.146,0,0,0-3.359-6.592c-2.011-1.387-4.467-2.927-6.7-1.873s-5.134,5.245-6.869,6.938" transform="translate(-142.755 -1.704)" fill="#263238"/>
        <path id="Path_111" data-name="Path 111" d="M256.4,125.242c.222-.1,9.159-2.775,8.867,6.411s-9.381,6.938-9.395,6.689S256.4,125.242,256.4,125.242Z" transform="translate(-140.111 6.215)" fill="#eb996e"/>
        <path id="Path_112" data-name="Path 112" d="M258.01,134.145a3.72,3.72,0,0,0,.416.25,1.61,1.61,0,0,0,1.193,0,3.913,3.913,0,0,0,1.929-3.455,5.273,5.273,0,0,0-.375-2.29,1.86,1.86,0,0,0-1.152-1.263.819.819,0,0,0-.958.4c-.125.25-.083.444-.125.458s-.194-.167-.111-.541a1.041,1.041,0,0,1,.375-.555,1.277,1.277,0,0,1,.888-.208,2.234,2.234,0,0,1,1.624,1.471,5.453,5.453,0,0,1,.458,2.553,4.163,4.163,0,0,1-2.442,3.872,1.748,1.748,0,0,1-1.388-.291C258.01,134.367,257.913,134.159,258.01,134.145Z" transform="translate(-139.295 7.039)" fill="#d1734a"/>
        <path id="Path_113" data-name="Path 113" d="M269.346,108.684c2.248-3.636-3.913-8.881-8.409-10.3s-10.421.777-14.9,2.262c-2.775.93-5.634,2.248-8.617,2.123a20.079,20.079,0,0,1-5.773-1.471,14.723,14.723,0,0,0-5.842-1.152,5.467,5.467,0,0,0-4.787,3.039,3.428,3.428,0,0,0,2.3,4.649,4.482,4.482,0,1,0-1.193,8.326c-1.3-.985-3.289.638-3.122,2.262a4.69,4.69,0,0,0,3.108,3.455c3.8,1.665,8.243,1.138,12.17-.194s7.591-3.386,11.49-4.8,10.435-3.983,14.348-2.595c2.886,1.013,4.9,4.482,6.522,3.719a5.551,5.551,0,0,0,2.886-4.094,16.4,16.4,0,0,0-.18-5.2" transform="translate(-155.294 -4.203)" fill="#263238"/>
        <path id="Path_114" data-name="Path 114" d="M220.671,106.884c.083,0,.472.68,1.457,1.735a12.489,12.489,0,0,0,5.065,3.261,11.462,11.462,0,0,0,8.687-.347c3.108-1.388,5.759-4.163,8.812-6.786a19.039,19.039,0,0,1,10.255-4.926,10.518,10.518,0,0,1,8.715,3.025,7.993,7.993,0,0,1,2.068,5.9,6.7,6.7,0,0,1-.389,1.665c-.166.361-.277.541-.305.527a13.764,13.764,0,0,0,.347-2.22,7.813,7.813,0,0,0-2.193-5.44,9.977,9.977,0,0,0-8.159-2.623,18.456,18.456,0,0,0-9.714,4.787c-3,2.553-5.731,5.412-9.048,6.855a12.364,12.364,0,0,1-14.362-3.441,9.715,9.715,0,0,1-.958-1.388C220.727,107.037,220.644,106.9,220.671,106.884Z" transform="translate(-153.758 -3.5)" fill="#455a64"/>
        <path id="Path_115" data-name="Path 115" d="M259.781,131.471a2.425,2.425,0,0,1-.735-.985,6.092,6.092,0,0,1-.458-3.3c.208-2.928,2.775-6.092,3.136-10.144a9.228,9.228,0,0,0-1.013-5.44,7.008,7.008,0,0,0-3.386-2.928,6.009,6.009,0,0,0-3.053-.416c-.722.111-1.124.291-1.152.222s.319-.333,1.082-.569a5.772,5.772,0,0,1,3.344.167,7.355,7.355,0,0,1,3.872,3.094,9.616,9.616,0,0,1,1.193,5.953,16.651,16.651,0,0,1-1.748,5.745,16.445,16.445,0,0,0-1.637,4.413,7.077,7.077,0,0,0,.555,4.191Z" transform="translate(-141.177 -0.402)" fill="#455a64"/>
        <path id="Path_116" data-name="Path 116" d="M201.916,84.071c-.486-.4-2.206-15.264-2.206-15.264L212.2,61.48l19.427,4.482-3.9,10.879L207.772,87.3Z" transform="translate(-161.882 -18.334)" fill="#eb996e"/>
        <path id="Path_117" data-name="Path 117" d="M173.786,107.789S205.175,91.47,225.31,89.333c22.355-2.387,44.891,10.921,44.891,10.921l-4.454-58.962s-21.023-15.694-47.763-9.02c-22.674,5.662-45.363,16.652-45.363,16.652Z" transform="translate(-172.384 -30.298)" fill="#fafafa"/>
        <path id="Path_118" data-name="Path 118" d="M173.852,107.878v-1.013l-.083-3.039c-.069-2.775-.167-6.661-.305-11.726-.236-10.255-.583-24.978-1.013-43.018V48.9l.167-.083c6.009-2.775,12.558-5.662,19.608-8.326a229.489,229.489,0,0,1,22.619-7.618l3.025-.8,3.122-.638a53.536,53.536,0,0,1,6.383-.9,60.335,60.335,0,0,1,13.2.541A64.735,64.735,0,0,1,253.7,34.623,59.67,59.67,0,0,1,266.09,41.09l.125.083v.18c0,.569.1,1.193.139,1.8,1.513,20.218,2.97,39.548,4.288,57.158v.624l-.555-.305a97.663,97.663,0,0,0-19.746-8.2,71.285,71.285,0,0,0-19.191-2.914,62.722,62.722,0,0,0-17.04,2.47c-5.19,1.388-9.88,3.025-14.1,4.593-8.409,3.178-14.917,6.106-19.358,8.159l-5.051,2.387-1.29.624-.458.194.43-.25,1.263-.666c1.138-.583,2.775-1.388,5.023-2.5,4.4-2.109,10.893-5.107,19.3-8.326,4.163-1.6,8.909-3.247,14.113-4.676a62.306,62.306,0,0,1,17.179-2.567,71.187,71.187,0,0,1,19.427,2.956,96.22,96.22,0,0,1,19.913,8.215l-.5.319c-1.388-17.609-2.775-36.94-4.343-57.158l-.139-1.818.153.264a59.2,59.2,0,0,0-12.225-6.356,64.165,64.165,0,0,0-12.989-3.525,59.863,59.863,0,0,0-13.127-.624,55.509,55.509,0,0,0-6.3.874l-3.081.638-3.011.791a233.761,233.761,0,0,0-22.55,7.41c-7.035,2.692-13.6,5.551-19.58,8.326l.153-.25c.291,18.04.527,32.666.694,42.879.069,5.093.125,9.075.167,11.809v3.108C173.865,107.559,173.852,107.878,173.852,107.878Z" transform="translate(-172.45 -30.387)" fill="#263238"/>
        <path id="Path_119" data-name="Path 119" d="M231.909,81.53c-.208,0-1.041-9.95-1.859-22.2S228.717,37,228.911,37s1.027,9.936,1.859,22.2S232.1,81.516,231.909,81.53Z" transform="translate(-150.578 -27.824)" fill="#e0e0e0"/>
        <path id="Path_120" data-name="Path 120" d="M226.23,79.289c-.194,0-1.027-9.95-1.846-22.2S223,34.883,223.247,34.8s1.027,9.936,1.846,22.2S226.438,79.275,226.23,79.289Z" transform="translate(-152.781 -28.677)" fill="#e0e0e0"/>
        <path id="Path_121" data-name="Path 121" d="M220.762,78.509c-.194,0-1.027-9.95-1.859-22.2s-1.388-22.286-1.124-22.286,1.027,9.936,1.846,22.2S220.956,78.495,220.762,78.509Z" transform="translate(-154.903 -28.979)" fill="#e0e0e0"/>
        <path id="Path_122" data-name="Path 122" d="M209.532,80.079c-.194,0-1.027-9.95-1.859-22.2s-1.388-22.2-1.124-22.286,1.027,9.936,1.846,22.2S209.726,80.065,209.532,80.079Z" transform="translate(-159.257 -28.371)" fill="#e0e0e0"/>
        <path id="Path_123" data-name="Path 123" d="M204.295,81.53c-.194,0-1.027-9.936-1.846-22.2S201.117,37,201.311,37s1.027,9.95,1.859,22.2S204.5,81.516,204.295,81.53Z" transform="translate(-161.277 -27.824)" fill="#e0e0e0"/>
        <path id="Path_124" data-name="Path 124" d="M198.744,82.939c-.208,0-1.027-9.95-1.859-22.2S195.5,38.45,195.747,38.45s1.041,9.936,1.859,22.2S198.9,82.925,198.744,82.939Z" transform="translate(-163.442 -27.262)" fill="#e0e0e0"/>
        <path id="Path_125" data-name="Path 125" d="M188.154,87.309c-.208,0-1.041-9.936-1.859-22.2s-1.388-22.272-1.138-22.286,1.027,9.95,1.859,22.2S188.348,87.295,188.154,87.309Z" transform="translate(-167.547 -25.568)" fill="#e0e0e0"/>
        <path id="Path_126" data-name="Path 126" d="M193.214,84.942c-.208,0-1.027-9.936-1.859-22.2s-1.388-22.286-1.138-22.3,1.041,9.95,1.859,22.2S193.408,84.942,193.214,84.942Z" transform="translate(-165.586 -26.49)" fill="#e0e0e0"/>
        <path id="Path_127" data-name="Path 127" d="M182.24,89.209c-.194,0-1.027-9.95-1.846-22.2s-1.388-22.2-1.138-22.286,1.027,9.936,1.859,22.2S182.448,89.195,182.24,89.209Z" transform="translate(-169.834 -24.831)" fill="#e0e0e0"/>
        <path id="Path_128" data-name="Path 128" d="M214.992,78.669c-.194,0-1.027-9.95-1.859-22.2s-1.388-22.272-1.124-22.286,1.027,9.936,1.846,22.2S215.186,78.655,214.992,78.669Z" transform="translate(-157.14 -28.917)" fill="#e0e0e0"/>
        <path id="Path_129" data-name="Path 129" d="M222.589,70.716a22.771,22.771,0,0,1,5.134-1.887c3.247-1.013,7.785-2.345,12.919-3.761l-.208,1.291-2.026-1.277c-9.963-6.175-19.247-8.7-19.108-9.131,0-.18,2.415.236,6.12,1.388a67.079,67.079,0,0,1,13.738,6.453c.722.43,1.388.888,2.068,1.318a.722.722,0,0,1-.208,1.291c-5.148,1.388-9.714,2.526-13.044,3.3a21.981,21.981,0,0,1-5.384,1.013Z" transform="translate(-154.288 -20.493)" fill="#258c93"/>
        <path id="Path_130" data-name="Path 130" d="M227.658,69.576c-.389,0-1.041-3.247-1.388-7.327s-.416-7.438,0-7.48S227.311,58,227.658,62.1,228.06,69.535,227.658,69.576Z" transform="translate(-151.697 -20.935)" fill="#258c93"/>
        <path id="Path_131" data-name="Path 131" d="M242.639,67.681a3.025,3.025,0,0,1,.319.8,4.44,4.44,0,0,1-.153,2.5,6.786,6.786,0,0,1-2.442,3.136A11.185,11.185,0,0,1,238.24,75.4a11.685,11.685,0,0,1-2.664.819,14.931,14.931,0,0,1-6.342-.167,22.313,22.313,0,0,1-3.386-1.082,15.181,15.181,0,0,1-8.576-7.868,12.642,12.642,0,0,1-1.388-8.59,6.7,6.7,0,0,1,2.553-3.885,9.228,9.228,0,0,1,4.163-1.554,20.815,20.815,0,0,1,19.15,7.9,15.944,15.944,0,0,1,3.178,8.437,9.714,9.714,0,0,1-.083,3.3,30.525,30.525,0,0,1-.472-3.233,16.306,16.306,0,0,0-3.428-7.868,19.913,19.913,0,0,0-10.657-6.73,19.428,19.428,0,0,0-7.466-.416,8.173,8.173,0,0,0-3.525,1.388,5.217,5.217,0,0,0-2,3.067,11.3,11.3,0,0,0,1.277,7.6,15.264,15.264,0,0,0,4.7,5.7,18.04,18.04,0,0,0,12.1,3.053,10.435,10.435,0,0,0,4.5-1.748,6.661,6.661,0,0,0,2.4-2.678,5.052,5.052,0,0,0,.389-2.262,2.235,2.235,0,0,1-.028-.9Z" transform="translate(-155.701 -21.663)" fill="#258c93"/>
        <path id="Path_132" data-name="Path 132" d="M215.817,87.513l6.258-5.065a13.613,13.613,0,0,0,4.954-8.881l.347-2.664-18.8-3.8s-1.762,5.689,5.315,7.1c-6.272,2.775-8.617,8.326-10.338,14.557Z" transform="translate(-160.394 -16.155)" fill="#eb996e"/>
        <path id="Path_133" data-name="Path 133" d="M206.93,79.169a20.752,20.752,0,0,1,1.637-1.818,8.631,8.631,0,0,1,5.745-2.317h2.012l-1.887-.708-4.385-1.651h.083A5.218,5.218,0,0,1,207.36,67.8a2.553,2.553,0,0,1,.083-.444l-.527.291c5.273,1.3,10.047,2.4,13.544,3,1.748.305,3.164.513,4.163.611a5.426,5.426,0,0,0,1.54.083,51.347,51.347,0,0,0-5.551-1.3c-3.441-.749-8.187-1.943-13.46-3.261l-.4-.1-.125.389a3.316,3.316,0,0,0-.125.624,5.148,5.148,0,0,0,.8,3.428,7.257,7.257,0,0,0,2.345,2.262h0l4.413,1.526.125-.722a8.756,8.756,0,0,0-6.036,2.775A4.8,4.8,0,0,0,206.93,79.169Z" transform="translate(-159.264 -16.318)" fill="#d1734a"/>
        <path id="Path_134" data-name="Path 134" d="M249.639,512.559l26.99-213.7-5.176-32.388H217.237L210.77,508.659a3.913,3.913,0,0,0,3.164,3.955l29.641,4.565a5.3,5.3,0,0,0,6.064-4.621Z" transform="translate(-157.595 61.134)" fill="#263238"/>
        <path id="Path_135" data-name="Path 135" d="M263.687,313.922l49.1,48.568L242.15,379.656l5.023,35.566,95.6-13a30.112,30.112,0,0,0,20.357-12.225h0a30.1,30.1,0,0,0,.458-34.525L289.122,246.19l-33.3,10.838Z" transform="translate(-145.43 53.272)" fill="#263238"/>
        <path id="Path_136" data-name="Path 136" d="M255.72,286.06a28.246,28.246,0,0,1,1.707,6.106,27.893,27.893,0,0,1,1,6.258,28.238,28.238,0,0,1-1.707-6.106,27.893,27.893,0,0,1-1-6.258Z" transform="translate(-140.169 68.728)" fill="#455a64"/>
        <path id="Path_137" data-name="Path 137" d="M256.373,368.838s.389-.153,1.166-.389l3.428-1.068,13.183-4.01,47.93-14.418-.125.458L263.02,286.675l.624-.208c-1.18,9.866-2.387,20.149-3.636,30.654-6.078,50.9-11.781,96.956-16.208,130.26-2.193,16.652-4.163,30.1-5.551,39.382-.791,4.635-1.3,8.243-1.846,10.657l-.583,2.775c-.139.611-.222.93-.222.93a9.49,9.49,0,0,1,.153-.958c.111-.638.291-1.554.513-2.775.486-2.414.957-6.036,1.707-10.671,1.388-9.3,3.178-22.758,5.315-39.41,4.288-33.3,9.908-79.374,15.986-130.274,1.249-10.5,2.47-20.815,3.65-30.654l.083-.763.527.555,58.809,62.861.305.333-.43.125-48,14.182-13.211,3.858-3.469,1Z" transform="translate(-147.969 68.557)" fill="#455a64"/>
        <path id="Path_138" data-name="Path 138" d="M239.122,497.486c-.208,0,5.4-45.391,12.489-101.3s13.03-101.3,13.224-101.216-5.4,45.363-12.489,101.3S239.316,497.5,239.122,497.486Z" transform="translate(-146.606 72.182)" fill="#455a64"/>
        <path id="Path_139" data-name="Path 139" d="M251.93,269.76a15.265,15.265,0,0,1,1.138,3.317c.6,2.068,1.388,4.968,2.054,8.187s1.221,6.161,1.54,8.326a15.832,15.832,0,0,1,.347,3.483,16.751,16.751,0,0,1-.846-3.386c-.5-2.373-1.1-5.162-1.748-8.243l-1.846-8.215a17.94,17.94,0,0,1-.638-3.469Z" transform="translate(-141.638 62.409)" fill="#455a64"/>
        <path id="Path_140" data-name="Path 140" d="M254.518,266.843a1.95,1.95,0,0,1,2-.208A2.29,2.29,0,0,1,258,268.4a2.526,2.526,0,0,1-1.11,2.595,2.47,2.47,0,0,1-2.775-.278,2.082,2.082,0,0,1-.638-2.22,2.012,2.012,0,0,1,.916-1.221c.319-.18.527-.18.541-.139a2.359,2.359,0,0,0-.971,1.485,1.6,1.6,0,0,0,.569,1.582,1.846,1.846,0,0,0,2.026.18,1.957,1.957,0,0,0,.833-1.887,1.832,1.832,0,0,0-1.041-1.388,3.982,3.982,0,0,0-1.832-.264Z" transform="translate(-141.077 61.135)" fill="#455a64"/>
        <path id="Path_141" data-name="Path 141" d="M307.488,338.33c-.139.167-2.914-2.373-6.938-4.663s-7.535-3.469-7.48-3.677a26.99,26.99,0,0,1,14.362,8.326Z" transform="translate(-125.69 85.758)" fill="#455a64"/>
        <path id="Path_142" data-name="Path 142" d="M219.91,308.356l-4.774-84.939s-7.119-30.6-13.266-42.893l32.457-23.785,8.409,4.038,16.652,15.139,16.846-9.839s20.177,8.493,25.491,11.684,6.369,11.684,6.369,11.684-17.5,30.834-18.04,42.934,17.5,43.018,17.5,43.018,9.866,2.928,10.421,10.865c.486,6.869-2.706,9.325-2.706,9.325s-1.388-7.466-11.421-4.274-31.028,21.772-46.084,22.3S219.91,308.356,219.91,308.356Z" transform="translate(-161.045 18.595)" fill="#258c93"/>
        <path id="Path_143" data-name="Path 143" d="M285.572,177.7l12.794,52.454,14.543-34.692,20.621,12.489s-19.427,69.12-38.688,62.32c0,0-11.989-6.064-13.46-10.366s-23.7-35.649-23.7-35.649Z" transform="translate(-139.409 26.72)" fill="#258c93"/>
        <path id="Path_144" data-name="Path 144" d="M282.152,261.28a5.357,5.357,0,0,1-.444-.583l-1.166-1.707c-.5-.749-1.124-1.665-1.748-2.775s-1.388-2.345-2.123-3.8-1.568-3-2.3-4.746-1.526-3.622-2.276-5.62a87.234,87.234,0,0,1-3.566-13.419,91.107,91.107,0,0,1-1.235-13.877c0-2.137,0-4.163.153-6.064s.291-3.65.444-5.259c.375-3.206.777-5.787,1.166-7.549.167-.8.305-1.485.43-2.026a2.372,2.372,0,0,1,.194-.694,2.778,2.778,0,0,1,0,.722c-.083.555-.18,1.235-.291,2.054-.291,1.776-.624,4.357-.93,7.549-.125,1.6-.319,3.344-.347,5.232s-.111,3.9-.1,6.022a95.423,95.423,0,0,0,1.29,13.724,88.571,88.571,0,0,0,3.483,13.322c.722,1.984,1.388,3.885,2.193,5.551s1.5,3.3,2.192,4.76,1.388,2.692,2.026,3.816,1.18,2.068,1.637,2.845l1.041,1.79A3.482,3.482,0,0,1,282.152,261.28Z" transform="translate(-135.684 32.714)" fill="#263238"/>
        <path id="Path_145" data-name="Path 145" d="M207.576,74.71s-32.471,54.563-34.692,62.611c-2.331,8.326,42.754,79.638,42.754,79.638s.874,2.29.888,2.276l32.222-25.741-37.98-53.744L231.18,86.075Z" transform="translate(-172.315 -13.205)" fill="#258c93"/>
        <path id="Path_146" data-name="Path 146" d="M206.382,125c-.111.083-.791-.888-2.22-2.109a16.041,16.041,0,0,0-13.7-3.428c-1.832.4-2.9.944-2.956.819a7.244,7.244,0,0,1,2.775-1.388,13.432,13.432,0,0,1,3.372-.527,16.042,16.042,0,0,1,4.163.458,16.957,16.957,0,0,1,3.885,1.554,14.294,14.294,0,0,1,2.775,2.054A7.369,7.369,0,0,1,206.382,125Z" transform="translate(-166.612 3.719)" fill="#263238"/>
        <path id="Path_147" data-name="Path 147" d="M216.393,188.076c-.139,0-.069-1.9-.583-4.885a31.1,31.1,0,0,0-1.388-5.148,31.916,31.916,0,0,0-6.689-11.1,32.393,32.393,0,0,0-3.927-3.566c-2.428-1.832-4.163-2.664-4.066-2.775a5.022,5.022,0,0,1,1.235.513,12.683,12.683,0,0,1,1.388.735,20.038,20.038,0,0,1,1.748,1.124,28.448,28.448,0,0,1,4.163,3.525,32.513,32.513,0,0,1,4.038,5.273,31.759,31.759,0,0,1,2.775,6.022,28.75,28.75,0,0,1,1.221,5.273,20.563,20.563,0,0,1,.18,2.068,9.977,9.977,0,0,1,0,1.568,4.287,4.287,0,0,1-.1,1.374Z" transform="translate(-161.872 20.091)" fill="#263238"/>
        <path id="Path_148" data-name="Path 148" d="M293.384,243.445c0,.083-1.013,0-2.775.111a24.4,24.4,0,0,0-7.3,1.9,45.486,45.486,0,0,0-9.617,5.773c-3.386,2.553-6.938,5.662-10.976,8.465a32.637,32.637,0,0,1-12.711,5.634,34.858,34.858,0,0,1-11.365.125,43.151,43.151,0,0,1-7.452-1.776c-.86-.291-1.513-.541-1.957-.722a3.514,3.514,0,0,1-.652-.305,25.975,25.975,0,0,1,2.692.749,49.957,49.957,0,0,0,7.424,1.554,35.288,35.288,0,0,0,11.1-.291,32.334,32.334,0,0,0,12.489-5.551c4.024-2.775,7.549-5.87,10.99-8.409a44.015,44.015,0,0,1,9.825-5.717,22.674,22.674,0,0,1,7.48-1.707,17.465,17.465,0,0,1,2.081,0,3.08,3.08,0,0,1,.722.166Z" transform="translate(-150.69 52.131)" fill="#263238"/>
        <path id="Path_149" data-name="Path 149" d="M286.434,239.576a13.7,13.7,0,0,1-.846-3.483,41.464,41.464,0,0,1-.43-8.659,42,42,0,0,1,1.388-8.562,13.324,13.324,0,0,1,1.221-3.372,28.673,28.673,0,0,1-.722,3.5,55.967,55.967,0,0,0-1.124,8.479,54.113,54.113,0,0,0,.222,8.548A25.728,25.728,0,0,1,286.434,239.576Z" transform="translate(-128.782 41.374)" fill="#263238"/>
        <g id="Group_65" data-name="Group 65" transform="translate(77.64 295.715)" opacity="0.3">
          <path id="Path_150" data-name="Path 150" d="M230.01,262.237c.111-3.469,4.246-5.454,7.715-5.245s6.758,1.776,10.227,1.9c5.884.222,11.1-3.636,15.6-7.382s9.492-7.785,15.375-8.021c.735,0,1.665.125,1.873.846s-.361,1.263-.86,1.707c-7.244,6.467-14.654,13.058-23.59,16.846s-19.83,4.385-27.948-.93" transform="translate(-228.4 -243.49)"/>
        </g>
        <g id="Group_66" data-name="Group 66" transform="translate(131.521 228.274)" opacity="0.3">
          <path id="Path_151" data-name="Path 151" d="M269.048,196.916a66.969,66.969,0,0,0,15.445,46.764c1.818,2.151,3.83,4.274,4.718,6.938s.291,6.106-2.179,7.466a6.009,6.009,0,0,1-6.564-1.055,16.069,16.069,0,0,1-3.913-5.814c-8.187-17.512-12.239-37.731-6.938-56.325" transform="translate(-267.229 -194.89)"/>
        </g>
      </g>
      <g id="Plant--inject-75" transform="translate(72.655 397.536)">
        <path id="Path_152" data-name="Path 152" d="M154.189,407.869c1.388-4.663,4.232-9.159,8.687-11.1s9.991-.86,14.737.86,9.395,4.038,14.432,4.343,10.713-2.082,12.225-6.938c1.388-4.538-1.318-9.353-4.732-12.642a29.835,29.835,0,0,0-48.887,11.726" transform="translate(-22.495 -264.312)" fill="#258c93"/>
        <g id="Group_67" data-name="Group 67" transform="translate(128.155 109.734)" opacity="0.5">
          <path id="Path_153" data-name="Path 153" d="M154.189,407.869c1.388-4.663,4.232-9.159,8.687-11.1s9.991-.86,14.737.86,9.395,4.038,14.432,4.343,10.713-2.082,12.225-6.938c1.388-4.538-1.318-9.353-4.732-12.642a29.835,29.835,0,0,0-48.887,11.726" transform="translate(-150.65 -374.046)"/>
        </g>
        <path id="Path_154" data-name="Path 154" d="M126.108,429.16c-7.4-7.008-7.022-19.233-3.344-28.725s11.74-16.791,20.718-21.606a65.6,65.6,0,0,1,57.158-1.846A27.129,27.129,0,0,0,178.7,389.861c-4.038,6.73-4.94,14.89-8.326,21.981a34.6,34.6,0,0,1-44.267,17.318" transform="translate(-34.296 -265.37)" fill="#258c93"/>
        <path id="Path_155" data-name="Path 155" d="M125.038,416.586c-8.173-9.644-9.27-25.145-8.062-37.745s4.163-25.269,2.137-37.758c-1.18-7.41-4.052-14.473-5.023-21.911s.4-15.833,6.161-20.635c6.619-5.551,17.041-4.163,23.937.971s10.865,13.308,13.779,21.412c6.411,17.818,8.77,37.564,3.5,55.742s-17.609,34.442-35.719,39.923" transform="translate(-36.779 -294.968)" fill="#258c93"/>
        <path id="Path_156" data-name="Path 156" d="M119.076,464.408a6.731,6.731,0,0,1,0-1.11c0-.722,0-1.8,0-3.192.111-2.775.375-6.772,1-11.684a153.728,153.728,0,0,1,3.136-17.124,79.347,79.347,0,0,1,7.813-19.83A82.233,82.233,0,0,1,143.791,394.4a81.194,81.194,0,0,1,13.391-11.1c2.04-1.388,4.01-2.484,5.717-3.483s3.261-1.665,4.51-2.262l2.942-1.235a6.39,6.39,0,0,1,1.041-.389,8.4,8.4,0,0,1-.985.513l-2.886,1.388c-1.221.638-2.775,1.388-4.441,2.359s-3.622,2.123-5.634,3.552a83.634,83.634,0,0,0-25.824,28.128c-7.521,13.155-9.589,26.99-11.1,36.676-.68,4.9-1.027,8.881-1.207,11.643-.083,1.388-.139,2.4-.18,3.178A6.938,6.938,0,0,1,119.076,464.408Z" transform="translate(-34.744 -263.581)" fill="#263238"/>
        <path id="Path_157" data-name="Path 157" d="M72.095,355.17c-15.139,9.131-15.084,17.443-12.489,25.283s11.809,13.294,19.511,10.352c4.343-1.665,7.507-5.44,10.2-9.242s5.218-7.868,8.992-10.6,9.242-3.774,13.03-1.068" transform="translate(-58.297 -271.629)" fill="#258c93"/>
        <g id="Group_68" data-name="Group 68" transform="translate(0 83.541)" opacity="0.5">
          <path id="Path_158" data-name="Path 158" d="M72.095,355.17c-15.139,9.131-15.084,17.443-12.489,25.283s11.809,13.294,19.511,10.352c4.343-1.665,7.507-5.44,10.2-9.242s5.218-7.868,8.992-10.6,9.242-3.774,13.03-1.068" transform="translate(-58.297 -355.17)"/>
        </g>
        <path id="Path_159" data-name="Path 159" d="M60.086,368.1c3.955-5.467,13.738-7.049,19.9-4.316s10.7,8.132,14.7,13.5,7.979,11.1,13.585,14.862,13.433,5.12,19.025,1.388a16.333,16.333,0,0,0,6.453-11.185,37.175,37.175,0,0,0-.888-13.2c-1.388-6.342-3.511-12.975-8.59-17-5.662-4.5-13.516-4.7-20.732-4.468-8.326.264-16.652.888-24.478,3.761S63.333,360.524,60.03,368.1" transform="translate(-57.625 -274.555)" fill="#258c93"/>
        <path id="Path_160" data-name="Path 160" d="M120.9,462.862a1.04,1.04,0,0,1,0-.333v-.971c0-.916,0-2.179-.125-3.761-.1-3.317-.236-8.021-.4-13.807s-.416-12.78-.846-20.468-1-16.166-2.165-24.978a80.29,80.29,0,0,0-2.512-12.669,67.121,67.121,0,0,0-10.6-20.343,61.569,61.569,0,0,0-6.4-7.008,46.292,46.292,0,0,0-11.323-7.715c-.735-.347-1.388-.68-1.957-.916l-1.485-.569-.9-.361-.305-.153.333.083.93.305,1.5.513c.6.208,1.249.527,2,.846a45.375,45.375,0,0,1,11.545,7.6,59.985,59.985,0,0,1,6.508,7.036,64.013,64.013,0,0,1,5.953,9.228,66.193,66.193,0,0,1,4.718,11.185,79.692,79.692,0,0,1,2.539,12.794c1.18,8.839,1.735,17.318,2.123,24.978s.583,14.654.708,20.5.153,10.56.18,13.877v4.7A1.526,1.526,0,0,1,120.9,462.862Z" transform="translate(-49.155 -274.095)" fill="#263238"/>
        <path id="Path_161" data-name="Path 161" d="M114.674,482.518a43.116,43.116,0,0,1-1.651-6.508,67.731,67.731,0,0,1-.694-18.248,121.309,121.309,0,0,1,5.759-26.435c3.108-9.714,7.327-20.149,10.921-31.333a143.567,143.567,0,0,0,4.343-16.583,149.072,149.072,0,0,0,2.151-15.819,230.9,230.9,0,0,0,.486-27.046c-.264-7.715-.68-13.946-.93-18.248l-.291-4.954v-1.29a1.8,1.8,0,0,1,0-.444,2.5,2.5,0,0,1,0,.43c0,.333.069.749.125,1.29q.153,1.776.416,4.954c.333,4.3.819,10.532,1.138,18.248a223.332,223.332,0,0,1-.333,27.115,146.935,146.935,0,0,1-2.123,15.889,143.367,143.367,0,0,1-4.343,16.652c-3.622,11.226-7.854,21.62-10.976,31.32a123.5,123.5,0,0,0-5.884,26.366,70.771,70.771,0,0,0,.472,18.165c.375,2.123.722,3.761,1.013,4.857.125.527.236.944.305,1.249A1.721,1.721,0,0,1,114.674,482.518Z" transform="translate(-37.474 -286.965)" fill="#263238"/>
        <path id="Path_162" data-name="Path 162" d="M161.262,444.628H90.214L88.59,430.96h72.672Z" transform="translate(-46.553 -242.248)" fill="#455a64"/>
        <path id="Path_163" data-name="Path 163" d="M95.26,439.69l8.881,41.033h38.6l8.312-41.033Z" transform="translate(-43.968 -238.864)" fill="#455a64"/>
        <path id="Path_164" data-name="Path 164" d="M160.492,440.934c0,.194-15.611.305-34.886.25s-34.886-.25-34.886-.444,15.625-.291,34.9-.236S160.492,440.754,160.492,440.934Z" transform="translate(-45.728 -238.554)" fill="#455a64"/>
        <path id="Path_165" data-name="Path 165" d="M145.345,457.011a29.864,29.864,0,0,0-6.258-3.594,22.2,22.2,0,0,0-7.618-1.526,26.793,26.793,0,0,0-9.353,1.721c-3.233,1.1-6.258,2.373-9.2,3.067a21.731,21.731,0,0,1-7.965.236,16.252,16.252,0,0,1-5.107-1.61,8.449,8.449,0,0,1-1.235-.791c-.264-.194-.4-.305-.389-.333s.611.361,1.735.888a17.843,17.843,0,0,0,5.065,1.388,22.2,22.2,0,0,0,7.757-.375c2.845-.708,5.87-2,9.131-3.094a26.7,26.7,0,0,1,9.589-1.707,22.2,22.2,0,0,1,7.771,1.707,20.028,20.028,0,0,1,4.621,2.706,12.7,12.7,0,0,1,1.11.944C145.234,456.859,145.359,456.983,145.345,457.011Z" transform="translate(-42.82 -234.371)" fill="#263238"/>
        <path id="Path_166" data-name="Path 166" d="M144.5,458.977a31.664,31.664,0,0,0-6.009-3.539,20.467,20.467,0,0,0-7.341-1.513,26.461,26.461,0,0,0-9.048,1.624c-3.136,1.055-6.064,2.262-8.867,3.025a23.161,23.161,0,0,1-7.66.86,13.045,13.045,0,0,1-5.009-1.388,8.69,8.69,0,0,1-1.193-.763c-.264-.194-.389-.305-.375-.319s.6.347,1.679.846a13.875,13.875,0,0,0,4.94,1.1,23.033,23.033,0,0,0,7.438-.985c2.775-.763,5.662-2,8.839-3.053a26.367,26.367,0,0,1,9.27-1.61,20.3,20.3,0,0,1,7.507,1.693,19.787,19.787,0,0,1,4.441,2.692,10.555,10.555,0,0,1,1.055.93C144.4,458.839,144.516,458.963,144.5,458.977Z" transform="translate(-42.518 -233.603)" fill="#fff"/>
        <path id="Path_167" data-name="Path 167" d="M146.272,455.23a32.726,32.726,0,0,0-6.425-3.788,23.493,23.493,0,0,0-7.8-1.873,24.979,24.979,0,0,0-9.714,1.693,89.4,89.4,0,0,1-9.533,3.122,24.728,24.728,0,0,1-8.229,0A18.526,18.526,0,0,1,99.3,452.7a9.39,9.39,0,0,1-1.277-.791c-.278-.208-.416-.319-.4-.347s.624.375,1.79.9a20.912,20.912,0,0,0,5.245,1.388,24.977,24.977,0,0,0,8.021-.153,96.356,96.356,0,0,0,9.436-3.15,24.978,24.978,0,0,1,9.908-1.679,23.119,23.119,0,0,1,7.951,2.054,22.411,22.411,0,0,1,4.746,2.859,12.906,12.906,0,0,1,1.138.985C146.175,455.077,146.286,455.2,146.272,455.23Z" transform="translate(-43.053 -235.309)" fill="#fff"/>
        <path id="Path_168" data-name="Path 168" d="M161.354,440.957c0,.18-15.986.333-35.7.333S90,441.151,90,440.957s15.986-.347,35.691-.347S161.354,440.763,161.354,440.957Z" transform="translate(-46.007 -238.507)" fill="#263238"/>
      </g>
      <g id="Grade--inject-75" transform="translate(407.046 68.963)">
        <path id="Path_169" data-name="Path 169" d="M440.942,240.547a10.617,10.617,0,0,1-1.6-2.65c-.944-1.79-2.29-4.454-4-7.91-3.414-6.938-8.326-16.971-14.237-29.53-11.934-25.117-28.35-60.169-46.667-99.773h3.275c-2.5,5.814-5.162,11.934-7.66,18.234-4.51,11.1-8.631,22.2-12.267,32.888-1.887,5.356-3.539,10.671-5.232,15.861s-3.178,10.324-4.593,15.264c-5.745,20.038-9.991,38.341-13.086,53.814s-5.065,28.086-6.425,36.815c-.68,4.371-1.138,7.771-1.54,10.061a14.651,14.651,0,0,1-.763,3.483,12.978,12.978,0,0,1,0-3.566c.166-2.317.4-5.759.86-10.158.93-8.8,2.539-21.509,5.315-37.106s6.786-34.053,12.392-54.244c1.388-5.051,2.942-10.2,4.51-15.459s3.289-10.588,5.162-15.972c3.622-10.81,7.743-21.883,12.267-33.11,2.526-6.328,5.218-12.489,7.729-18.317a1.79,1.79,0,0,1,2.359-.93,1.707,1.707,0,0,1,.9.888h0c18.234,39.646,34.248,74.934,45.6,100.259,5.676,12.7,10.2,22.924,13.238,30,1.513,3.539,2.664,6.286,3.414,8.159a11.169,11.169,0,0,1,1.041,3Z" transform="translate(-288.896 -42.717)" fill="#258c93"/>
        <path id="Path_170" data-name="Path 170" d="M424.947,157.7c.264.971-25.852,8.909-58.282,17.734s-59.031,15.264-59.295,14.237,25.852-8.909,58.351-17.734S424.684,156.766,424.947,157.7Z" transform="translate(-296.131 -19.646)" fill="#258c93"/>
        <path id="Path_171" data-name="Path 171" d="M409.908,85.875a7.451,7.451,0,0,1,1.679-.958l2.123-1.055c.86-.389,1.9-.763,3.067-1.221a49.611,49.611,0,0,1,8.95-2.373,45.891,45.891,0,0,1,12.656-.139,49.29,49.29,0,0,1,15.153,4.718,68.885,68.885,0,0,1,15.445,10.865,94,94,0,0,1,14.057,16.5,39.8,39.8,0,0,1,2.956,5.079c.888,1.762,1.818,3.539,2.706,5.356l2.387,5.689c.833,1.915,1.388,3.941,2.109,5.953a112.079,112.079,0,0,1,5.079,26.227,140.545,140.545,0,0,1-1.027,28.905,208.959,208.959,0,0,1-6.564,30.223c-.694,2.567-1.568,5.093-2.345,7.674s-1.832,5.134-2.775,7.729c-1.124,2.512-2.165,5.079-3.4,7.591l-1.929,3.733-.958,1.873-1.082,1.818a148.486,148.486,0,0,1-20.815,27.614,174.982,174.982,0,0,1-27.392,23.354,158.345,158.345,0,0,1-32.763,17.776,96.887,96.887,0,0,1-37.953,6.869,60.7,60.7,0,0,1-19.3-3.788A48.443,48.443,0,0,1,323.457,311.5a52.562,52.562,0,0,1-6.369-7.257,62.935,62.935,0,0,1-5.051-8.09,90.009,90.009,0,0,1-6.938-17.36,164.909,164.909,0,0,1-3.664-70.077,186.8,186.8,0,0,1,8.007-31.833c.458-1.249.9-2.5,1.388-3.747s.888-2.484,1.388-3.691q1.513-3.622,3-7.2l3.3-6.938c1.055-2.317,2.359-4.482,3.511-6.7a183.975,183.975,0,0,1,15.722-24.215l2.081-2.775,2.179-2.637c1.471-1.735,2.859-3.5,4.343-5.148l4.454-4.857c1.388-1.637,3.053-3.067,4.538-4.579,2.97-3.039,6.189-5.676,9.186-8.326l4.69-3.719,2.3-1.818,2.359-1.665,4.635-3.247,4.649-2.914,2.262-1.388,2.3-1.291,4.5-2.484c2.983-1.554,5.939-2.942,8.756-4.3s5.634-2.442,8.326-3.511l7.757-2.872,7.133-2.276c9.075-2.678,16.236-4.274,21.12-5.2,2.442-.444,4.316-.777,5.551-.971a6.647,6.647,0,0,1,1.915-.208,8.146,8.146,0,0,1-1.846.569c-1.235.319-3.081.763-5.551,1.318-4.815,1.166-11.906,2.97-20.815,5.842l-7.022,2.415-7.646,2.928c-2.637,1.11-5.329,2.359-8.173,3.608s-5.648,2.775-8.576,4.385l-4.4,2.526L386.5,83.072l-2.22,1.388-4.552,2.928-4.51,3.317-2.3,1.665-2.248,1.8-4.579,3.705c-2.928,2.692-6.064,5.315-8.95,8.326-1.457,1.5-3.039,2.914-4.441,4.538s-2.886,3.192-4.343,4.829-2.775,3.4-4.232,5.107l-2.137,2.623-2.026,2.775a181.307,181.307,0,0,0-15.334,23.951c-1.124,2.193-2.387,4.33-3.414,6.605L318,163.487l-2.9,7.1c-.513,1.18-.958,2.4-1.388,3.636l-1.291,3.691a185.378,185.378,0,0,0-7.674,31.264,166.935,166.935,0,0,0-1.8,33.79,154.984,154.984,0,0,0,5.551,34.775,87.154,87.154,0,0,0,6.661,16.652,59.765,59.765,0,0,0,4.787,7.646,49.506,49.506,0,0,0,5.967,6.786,45.446,45.446,0,0,0,15.264,9.63A57.7,57.7,0,0,0,359.356,322a93.944,93.944,0,0,0,36.523-6.619,155.69,155.69,0,0,0,32.111-17.318A172.316,172.316,0,0,0,454.9,275.25a145.9,145.9,0,0,0,20.385-26.907l1.055-1.776.944-1.818,1.887-3.622c1.207-2.428,2.22-4.926,3.33-7.355.9-2.526,1.887-4.982,2.706-7.507s1.665-5.037,2.359-7.577a206.62,206.62,0,0,0,6.647-29.724,137.218,137.218,0,0,0,1.207-28.308,109.625,109.625,0,0,0-4.718-25.644c-.68-1.957-1.207-3.955-2-5.828s-1.526-3.747-2.276-5.551l-2.581-5.273a37.82,37.82,0,0,0-2.775-4.912A92.2,92.2,0,0,0,467.58,97.157a67.691,67.691,0,0,0-14.834-10.8,48.235,48.235,0,0,0-14.529-4.843,45.168,45.168,0,0,0-12.323-.194,52.148,52.148,0,0,0-8.853,2c-1.166.4-2.206.708-3.095,1.041l-2.179.888A7.978,7.978,0,0,1,409.908,85.875Z" transform="translate(-299.271 -58.187)" fill="#258c93"/>
        <path id="Path_172" data-name="Path 172" d="M402.706,165.073c-1,0-2.678-16.652-3.733-37.467S397.849,90,398.848,90s2.664,16.652,3.733,37.467S403.691,165.017,402.706,165.073Z" transform="translate(-260.943 -45.854)" fill="#258c93"/>
        <path id="Path_173" data-name="Path 173" d="M431.844,110.579c.375.916-10.532,6.244-24.617,11.226s-25.908,7.757-26.185,6.813,10.99-5.231,24.978-10.213S431.469,109.65,431.844,110.579Z" transform="translate(-267.573 -37.931)" fill="#258c93"/>
      </g>
    </g>
  </g>
</svg>
