<svg xmlns="http://www.w3.org/2000/svg" width="172.631" height="193.062" viewBox="0 0 172.631 193.062"><g transform="translate(-0.02 -24.696)"><path d="M100.083,72.216,62.342,29.445a14.05,14.05,0,0,0-21.061,0L3.533,72.216a14.057,14.057,0,0,0-3.513,9.3V190.137a27.62,27.62,0,0,0,27.621,27.621H75.977A27.621,27.621,0,0,0,103.6,190.137V81.514a14.059,14.059,0,0,0-3.515-9.3ZM51.809,86.558A13.811,13.811,0,1,1,65.62,72.747,13.809,13.809,0,0,1,51.809,86.558Zm0,0" fill="#ecb773" opacity="0.9"/><path d="M257.491,162.263l-54.3-94.074A14.061,14.061,0,0,0,195.5,61.9L155.794,48.554l32.845,37.224a14.064,14.064,0,0,1,3.5,9.3V203.7a27.563,27.563,0,0,1-11.007,22.032,27.547,27.547,0,0,0,24.382-1.568l41.863-24.168a27.622,27.622,0,0,0,10.108-37.731Zm0,0" transform="translate(-88.545 -13.562)" fill="#258c93"/><path d="M262.05,129.658l-3.732-6.47a65.667,65.667,0,0,1-18.3,16.631v8.048c.238-.135.475-.251.715-.386a76.9,76.9,0,0,0,21.316-17.823Zm0,0" transform="translate(-136.421 -55.985)" fill="#339aa1"/><path d="M225.523,152.035h-.17a14.064,14.064,0,0,1,.17,1.861V262.519a27.563,27.563,0,0,1-11.007,22.032,27.547,27.547,0,0,0,24.382-1.568l4.53-2.618Zm0,0" transform="translate(-121.924 -72.382)" fill="#339aa1"/><path d="M135.483,72.216,97.742,29.445a14.05,14.05,0,0,0-21.061,0L62.3,45.745a71.816,71.816,0,0,1,62.891,71.244v97.043A27.581,27.581,0,0,0,139,190.136V81.513a14.059,14.059,0,0,0-3.515-9.3Zm0,0" transform="translate(-35.4)" fill="#fedfb7"/><path d="M100.146,242.56A82.863,82.863,0,0,1,17.283,159.7v-61L3.533,114.281a14.057,14.057,0,0,0-3.513,9.3V232.2a27.62,27.62,0,0,0,27.621,27.621H75.978a27.617,27.617,0,0,0,25.593-17.263Zm0,0" transform="translate(0 -42.065)" fill="#f1b465"/><g transform="translate(113.956 119.279)"><path d="M267.471,299.2a3.453,3.453,0,0,1-1.726-6.443l23.919-13.811a3.453,3.453,0,0,1,3.453,5.98L269.2,298.735a3.455,3.455,0,0,1-1.726.464Zm0,0" transform="translate(-264.018 -263.544)" fill="#ecb773"/><path d="M277.623,344.218a3.452,3.452,0,0,1-1.726-6.442l29.9-17.263a3.453,3.453,0,0,1,3.453,5.98l-29.9,17.263A3.453,3.453,0,0,1,277.623,344.218Zm0,0" transform="translate(-269.788 -287.171)" fill="#ecb773"/><path d="M275.191,257.653a3.453,3.453,0,0,1-1.726-6.443l11.959-6.905a3.453,3.453,0,0,1,3.453,5.981l-11.959,6.905a3.466,3.466,0,0,1-1.726.462Zm0,0" transform="translate(-268.406 -243.853)" fill="#ecb773"/></g><path d="M97.3,266.592a4.639,4.639,0,1,1,4.639-4.639,2.32,2.32,0,0,0,4.639,0A9.279,9.279,0,0,0,99.618,253v-2.649a2.32,2.32,0,0,0-4.639,0V253a9.26,9.26,0,0,0,2.32,18.227,4.639,4.639,0,1,1-4.639,4.639,2.32,2.32,0,1,0-4.639,0,9.278,9.278,0,0,0,6.959,8.949v2.649a2.32,2.32,0,0,0,4.639,0v-2.649a9.26,9.26,0,0,0-2.32-18.227Zm0,0" transform="translate(-46.021 -120.951)" fill="#258c93"/></g></svg>