<svg xmlns="http://www.w3.org/2000/svg" xmlns:xlink="http://www.w3.org/1999/xlink" width="729.597" height="420.436" viewBox="0 0 729.597 420.436">
  <defs>
    <linearGradient id="linear-gradient" x1="0.5" y1="1" x2="0.5" gradientUnits="objectBoundingBox">
      <stop offset="0" stop-color="gray" stop-opacity="0.251"/>
      <stop offset="0.54" stop-color="gray" stop-opacity="0.122"/>
      <stop offset="1" stop-color="gray" stop-opacity="0.102"/>
    </linearGradient>
    <linearGradient id="linear-gradient-2" y1="1" y2="0" xlink:href="#linear-gradient"/>
    <linearGradient id="linear-gradient-3" x1="-11.741" y1="5.084" x2="-11.741" y2="4.933" gradientUnits="objectBoundingBox">
      <stop offset="0" stop-color="gray" stop-opacity="0.251"/>
      <stop offset="0.535" stop-color="gray" stop-opacity="0.122"/>
      <stop offset="1" stop-color="gray" stop-opacity="0.102"/>
    </linearGradient>
  </defs>
  <g id="Group_293" data-name="Group 293" transform="translate(-181 -342)">
    <g id="undraw_finance_0bdk" transform="translate(180.997 341.94)">
      <path id="Path_656" data-name="Path 656" d="M305.579,529.67c-44.112-15.242-94.548-28.143-135.761-6.24-5.223,2.776-10.37,6.271-13.185,11.471-7.434,13.682,4.382,31.424-1.377,45.886s-27.432,21.742-25.658,37.191c.467,4.038,2.654,7.694,5.231,10.844,16.144,19.723,45.741,21.719,70.756,16.825s49.48-15.043,74.947-13.766c24.473,1.262,46.987,13,69.41,22.882,37.8,16.7,81.952,28.686,119.724,11.9,17.307-7.694,31.615-20.794,48.18-29.941a118.584,118.584,0,0,1,73.188-13.429c16.825,2.371,32.885,8.336,49.35,12.45,37.4,9.338,76.431,9.032,114.967,8.665,7.174-.069,14.462-.153,21.337-2.2,10.179-3.059,18.576-10.1,26.66-16.993,10.623-9.047,21.811-18.989,25.237-32.518,4.046-16.06-4.329-33.13-16.748-44.043s-28.3-16.878-43.79-22.629c-3.824-1.407-7.908-2.837-11.823-1.774a16.124,16.124,0,0,0-6.654,4.26c-11,10.584-20.289,28.488-35.286,25.612-5.353-1.025-9.735-4.749-13.972-8.191-22.622-18.354-53.052-32.526-80.354-22.385-19.968,7.418-34.063,26.469-54.3,33.191-14.393,4.787-30.032,2.715-45.175,3.648-22.025,1.346-43.462,9.131-65.517,8.657-56.241-1.208-103.1-54.987-159.109-49.863-4.39.4-9.177,1.407-11.869,4.879" transform="translate(-124.527 -254.256)" fill="#5ab6bc" opacity="0.73"/>
      <path id="Path_657" data-name="Path 657" d="M263.109,467.062s-46.735,28.212,39.447,71.666c0,0,18.989-35.256-2-64a28.3,28.3,0,0,0-36.709-8.045Z" transform="translate(-152.982 -242.803)" fill="#5ab6bc"/>
      <path id="Path_658" data-name="Path 658" d="M267.73,467.52s40.013,30.591,38.9,72.232" transform="translate(-157.045 -243.85)" fill="none" stroke="#535461" stroke-miterlimit="10" stroke-width="1"/>
      <path id="Path_659" data-name="Path 659" d="M1000.749,422.392c9.468,34.621-30.919,133.253-30.919,133.253s-84.981-64.34-94.456-98.961a65.005,65.005,0,1,1,125.368-34.3Z" transform="translate(-299.344 -221.634)" fill="#5ab6bc"/>
      <path id="Path_660" data-name="Path 660" d="M1000.749,422.392c9.468,34.621-30.919,133.253-30.919,133.253s-84.981-64.34-94.456-98.961a65.005,65.005,0,1,1,125.368-34.3Z" transform="translate(-299.344 -221.634)" opacity="0.1"/>
      <path id="Path_661" data-name="Path 661" d="M936.21,378.27s52.9,79.857,48.945,178.787" transform="translate(-314.294 -222.855)" fill="none" stroke="#535461" stroke-miterlimit="10" stroke-width="1"/>
      <path id="Path_662" data-name="Path 662" d="M1044.75,519.309s-47.966-26.094-41.894,70.228c0,0,40.012-1.43,54.214-34.07a28.3,28.3,0,0,0-11.617-35.753Z" transform="translate(-329.847 -255.275)" fill="#5ab6bc"/>
      <path id="Path_663" data-name="Path 663" d="M1045.7,520.52s-6.195,50-42.682,70.06" transform="translate(-330.01 -256.318)" fill="none" stroke="#535461" stroke-miterlimit="10" stroke-width="1"/>
      <path id="Path_664" data-name="Path 664" d="M135.665,505.023s-46.758,28.2,39.431,71.636c0,0,18.989-35.256-2-64a28.3,28.3,0,0,0-36.709-8.045Z" transform="translate(-123 -251.726)" fill="#5ab6bc"/>
      <path id="Path_665" data-name="Path 665" d="M140.26,505.49s40.013,30.591,38.9,72.232" transform="translate(-127.059 -252.782)" fill="none" stroke="#535461" stroke-miterlimit="10" stroke-width="1"/>
      <path id="Path_666" data-name="Path 666" d="M744.275,478.139H695.139a16.382,16.382,0,0,0,1.713-7.319V247.08a16.45,16.45,0,0,0-16.45-16.45H300.061a16.45,16.45,0,0,0-16.45,16.45V470.828a16.381,16.381,0,0,0,1.713,7.319H234.451a4.352,4.352,0,0,0-4.352,4.374v3.51a24.335,24.335,0,0,0,24.335,24.335H724.292a24.335,24.335,0,0,0,24.335-24.335v-3.51a4.352,4.352,0,0,0-4.352-4.382ZM441.512,492.057l-4.237-4.78h104.6l-4.665,4.787Z" transform="translate(-148.193 -188.126)" fill="url(#linear-gradient)"/>
      <rect id="Rectangle_84" data-name="Rectangle 84" width="403.888" height="250.835" rx="23.26" transform="translate(140.075 45.671)" fill="#258c93"/>
      <rect id="Rectangle_85" data-name="Rectangle 85" width="386.031" height="204.919" transform="translate(148.579 82.234)" fill="#fff"/>
      <circle id="Ellipse_82" data-name="Ellipse 82" cx="3.403" cy="3.403" r="3.403" transform="translate(338.195 60.974)" fill="#fff"/>
      <path id="Path_667" data-name="Path 667" d="M551.2,551.08l-13.261,13.605h-93.5L432.451,551.08H242.032a4.252,4.252,0,0,0-4.252,4.252v3.426a23.784,23.784,0,0,0,23.784,23.784H720.775a23.784,23.784,0,0,0,23.784-23.784v-3.426a4.252,4.252,0,0,0-4.252-4.252Z" transform="translate(-149.999 -263.506)" fill="#258c93"/>
      <path id="Path_670" data-name="Path 670" d="M936.728,470.092c-3.135-1.032-7.785-2.225-11.471-1.8-3.51-1.277-11.762-4.589-17.4-9.575a125.487,125.487,0,0,0-.375-14.7c-2.883-32.786,3.6-54.4,3.6-54.4s5.093-16.488,4.535-30.17c.329.619.512.987.512.987.444-11.8,4.466-24.014,7.479-31.623a2.541,2.541,0,0,0,.336-.122l3.365-7.984a6.93,6.93,0,0,0,.635-1.476l.543-1.262-.161-.069c.054-.206.107-.428.161-.65h0c2.149-9.093,3.824-30.659,3.824-30.659,5.766-22.7-7.923-36.709-7.923-36.709l-23.234-19.991a2.946,2.946,0,0,1,.229.818l-.191-.168c-.329-.941-.688-2.065-1.04-3.35a19.642,19.642,0,0,0,7.5-11.257,35.237,35.237,0,0,0,.344-8.412l-.382-9.644a30.592,30.592,0,0,0-.574-5.621c-1.751-7.648-9.59-13-17.46-13.353a63.814,63.814,0,0,0-7.495.4,50.42,50.42,0,0,1-6.118.13,1.1,1.1,0,0,1-.658-.176.964.964,0,0,1-.283-.665,3.319,3.319,0,0,1,.811-2.486,3.059,3.059,0,0,1,1.055-.6l-.558.13a3.059,3.059,0,0,1,.918-.5,17.812,17.812,0,0,0-5.8,2.1,7.486,7.486,0,0,0-1.354,1.139,5.912,5.912,0,0,0-1.958,3.64,6.775,6.775,0,0,1-2.065-3.059,3.059,3.059,0,0,1,0-1.484q-.206.252-.4.52v-.161a15.463,15.463,0,0,0-3.059,6.225,2.424,2.424,0,0,1-.551-1.79q-.172.539-.321,1.078a2.5,2.5,0,0,1,0-.719,24.632,24.632,0,0,0-1.2,8.55c0,2.891,1.285,7.4,4.382,8.412.161.054.321.092.489.13a19.448,19.448,0,0,0,13.116,29.7q.077.528.145,1.109h.122c.084.765.153,1.606.2,2.463a16.577,16.577,0,0,1-2.554,2.05,21.062,21.062,0,0,1-8.5,2.814,25.314,25.314,0,0,0-10.225,3.059c-3.709,2.073-7.8,5.093-9.085,8.764C846.5,255.8,834.708,265.319,826.8,266.5l-2.814-.161-.206-.061v.054l-.688-.038h-.222v.038l-.711-.038s-.069.329-.168.91c-3.977-1.369-12.427-5.162-23.425-15.142-12.236-11.112-28.793-8.925-35.179-7.525a1.094,1.094,0,0,0-.291,2.027c2.577,1.415,6.569,3.472,8.412,3.7,0,0-3.824,4,.245,6.118a2.952,2.952,0,0,0,3.059-.3c1.973-1.445,7.456,1.828,15.4,3.533,0,0,22.423,23.2,33.558,26.767a16.027,16.027,0,0,0,.849,1.476l.688-.054v.054h.291l.084.765s17.314-.91,22.943-7.2a9.018,9.018,0,0,0,1.094-1.17L843.7,355.974h.054l-.054.719h4.428a166.907,166.907,0,0,1-1.2,27.883v49.358s-.229,4.344,8.795,10.707a337.333,337.333,0,0,1,27.317,21.176l1.094.948c-1.66,15.1-5.132,43.255-8.03,44.3l1.79.314c-3.059,3.877-11.747,14.531-14.393,14.814-3.243.359-5.407,5.407,0,6.485a60.577,60.577,0,0,0,32.12-3.166,4.9,4.9,0,0,0,3.059-5.216l-1.048-7.954a1.117,1.117,0,0,1,.459.482c.719,2.164,0-2.883,0-2.883a225.4,225.4,0,0,0,6.967-29.061l10.707,9.254s.214-.268.589-.765c2.623,5.95,7.3,18.125,6.256,27.042-1.438,12.236,12.236,1.438,10.806-5.766-1.162-5.827,4.038-30.529,6.065-39.768a4.107,4.107,0,0,0-2.753-4.787Z" transform="translate(-273.438 -175.07)" fill="url(#linear-gradient-2)"/>
      <path id="Path_671" data-name="Path 671" d="M825.389,292.118s-10.2-1.759-25.329-15.479c-11.969-10.852-28.113-8.718-34.338-7.349a1.063,1.063,0,0,0-.283,1.973c2.516,1.377,6.416,3.388,8.244,3.617,0,0-3.77,3.9.237,5.988a2.883,2.883,0,0,0,3.013-.291c1.927-1.407,7.281,1.79,15.043,3.449,0,0,30.254,31.31,37.29,26Z" transform="translate(-273.992 -196.952)" fill="#fec3be"/>
      <path id="Path_672" data-name="Path 672" d="M912.11,239.177s2.814,11.961,0,20.4l12.664,1.759,11.257-5.629v-7.388a50.731,50.731,0,0,1-3.87-24.274Z" transform="translate(-308.625 -186.578)" fill="#fec3be"/>
      <path id="Path_673" data-name="Path 673" d="M959,576.355s9.177,17.941,7.739,29.9,11.961,1.407,10.554-5.629c-1.14-5.69,3.939-29.826,5.919-38.8a4.007,4.007,0,0,0-2.661-4.673c-4.229-1.392-11.311-3.1-14.867-.489C960.43,560.524,959,576.355,959,576.355Z" transform="translate(-319.655 -264.5)" fill="#258c93"/>
      <path id="Path_674" data-name="Path 674" d="M907.848,608.265s-11.961,15.479-15.127,15.831-5.277,5.277,0,6.332a59.147,59.147,0,0,0,31.355-3.059,4.787,4.787,0,0,0,3.006-5.093l-2.019-15.066Z" transform="translate(-303.308 -276.71)" fill="#258c93"/>
      <path id="Path_675" data-name="Path 675" d="M884.159,393.78l-11.471,1.53a167.888,167.888,0,0,1-.138,40.326v48.18s-.222,4.244,8.588,10.416a329.362,329.362,0,0,1,26.675,20.649l31.921,27.654s12.664-15.479,10.906-24.625c0,0-21.107-6.684-23.922-17.59-1.614-6.24-9.8-11.471-16.5-14.76a20.511,20.511,0,0,1-10.974-23.279,17.947,17.947,0,0,1,1.8-4.52c5.629-9.85,13.72-32.013,13.72-32.013l-15.479-29.5Z" transform="translate(-299.319 -226.504)" fill="#1f7980"/>
      <path id="Path_677" data-name="Path 677" d="M906.357,559.178s20.756,3.518,21.459,5.629,0-2.814,0-2.814,11.961-36.235,9.177-68.24,3.518-53.121,3.518-53.121,7.388-23.922,3.166-37.642-48.547-7.739-48.547-7.739,15.479,36.235,15.127,53.472c0,0,1.759,52.065,4.925,58.046C915.152,506.738,910.227,557.748,906.357,559.178Z" transform="translate(-304.631 -226.545)" fill="#1f7980"/>
      <path id="Path_678" data-name="Path 678" d="M903.378,255.79s2.111,13,23.218,7.388L912.555,370.115s-40.808,1.407-40.456-3.518l8.412-64.722Z" transform="translate(-299.213 -194.044)" fill="#fff"/>
      <path id="Path_679" data-name="Path 679" d="M897.11,254.87a17.146,17.146,0,0,1-10.164,4.826,24.724,24.724,0,0,0-9.988,2.967c-3.617,2.027-7.648,4.971-8.871,8.558-2.463,7.036-17.941,18.645-24.977,16.182l2.463,21.108s20.052-1.055,23.57-8.795l-5.973,75.322h5.277s2.814-20.4,4.925-24.625,6.332-27.44,6.684-33.068,5.629-37.994,10.2-43.592l6.883-16.71Z" transform="translate(-292.394 -193.828)" opacity="0.1"/>
      <path id="Path_680" data-name="Path 680" d="M896.9,256.25a21.772,21.772,0,0,1-10.867,4.474,24.725,24.725,0,0,0-9.98,2.983c-3.617,2.027-7.648,4.971-8.871,8.558-2.463,7.036-17.941,18.645-24.977,16.182l2.463,21.108s20.052-1.055,23.57-8.795l-5.98,75.276h5.277s2.814-20.4,4.925-24.625,6.332-27.44,6.684-33.068,5.629-37.994,10.2-43.592l7.556-16.4Z" transform="translate(-292.18 -194.152)" opacity="0.1"/>
      <path id="Path_681" data-name="Path 681" d="M896.894,255.33a21.773,21.773,0,0,1-10.867,4.474,24.723,24.723,0,0,0-9.988,2.967c-3.617,2.027-7.648,4.971-8.871,8.558-2.463,7.036-17.941,18.645-24.977,16.182l2.463,21.108s20.052-1.055,23.57-8.795l-5.973,75.322h5.277s2.814-20.4,4.925-24.625,6.332-27.44,6.684-33.068,5.629-37.994,10.2-43.592L896.9,257.5Z" transform="translate(-292.177 -193.936)" fill="#ecb773"/>
      <path id="Path_682" data-name="Path 682" d="M931.283,234.752c-.459-3.334.459-5.415.88-9.322L912.11,240.557s.482,2.042.849,5.032a19.119,19.119,0,0,0,3.059.245C922.977,245.834,927.987,240.4,931.283,234.752Z" transform="translate(-308.625 -186.902)" opacity="0.1"/>
      <circle id="Ellipse_88" data-name="Ellipse 88" cx="18.997" cy="18.997" r="18.997" transform="translate(588.358 19.89)" fill="#fec3be"/>
      <path id="Path_683" data-name="Path 683" d="M890.055,196.841a24.045,24.045,0,0,1,1.53-9.4,2.348,2.348,0,0,0,.4,3.059,15.051,15.051,0,0,1,4.772-8.458c-1.354.222-2.05,1.9-1.713,3.227a7.342,7.342,0,0,0,2.348,3.3,5.9,5.9,0,0,1,2.9-4.994,17.392,17.392,0,0,1,5.659-2.05,3.281,3.281,0,0,0-2.172,3.365.94.94,0,0,0,.283.65,1.079,1.079,0,0,0,.642.168,49.231,49.231,0,0,0,5.942-.13,62.311,62.311,0,0,1,7.319-.39c7.648.321,15.334,5.545,17.047,13a29.886,29.886,0,0,1,.558,5.491l.375,9.414a34.413,34.413,0,0,1-.336,8.229,17.437,17.437,0,0,1-8.955,11.839c-2.761-4-3.006-9.139-3.961-13.9a7.036,7.036,0,0,0-1.193-3.059,2.684,2.684,0,0,0-2.944-.994,1.691,1.691,0,0,0-.619,2.692c-.765.9-2.195.229-3.059-.574a16.427,16.427,0,0,1-4.764-8.512c-.344-1.637-.688-3.656-2.294-4.214a4.267,4.267,0,0,0-1.7-.115c-3.35.229-8.588,1.614-11.831.551C891.309,204.068,890.055,199.663,890.055,196.841Z" transform="translate(-303.433 -176.576)" opacity="0.1"/>
      <path id="Path_684" data-name="Path 684" d="M890.515,196.381a24.045,24.045,0,0,1,1.53-9.4,2.348,2.348,0,0,0,.4,3.059,15.051,15.051,0,0,1,4.772-8.458c-1.354.222-2.05,1.9-1.713,3.227a7.341,7.341,0,0,0,2.348,3.3,5.9,5.9,0,0,1,2.9-4.994,17.392,17.392,0,0,1,5.659-2.05,3.281,3.281,0,0,0-2.172,3.365.941.941,0,0,0,.283.65,1.078,1.078,0,0,0,.643.168,49.244,49.244,0,0,0,5.942-.13,62.317,62.317,0,0,1,7.319-.39c7.648.321,15.334,5.545,17.047,13a29.891,29.891,0,0,1,.558,5.491l.375,9.414a34.413,34.413,0,0,1-.336,8.229,17.437,17.437,0,0,1-8.956,11.839c-2.761-4-3.005-9.139-3.961-13.9a7.036,7.036,0,0,0-1.193-3.059,2.684,2.684,0,0,0-2.944-.994,1.691,1.691,0,0,0-.62,2.692c-.765.9-2.195.229-3.059-.574a16.428,16.428,0,0,1-4.764-8.512c-.344-1.637-.688-3.656-2.294-4.214a4.268,4.268,0,0,0-1.7-.115c-3.35.229-8.588,1.614-11.831.551C891.769,203.6,890.515,199.2,890.515,196.381Z" transform="translate(-303.541 -176.467)" fill="#784f69"/>
      <path id="Path_685" data-name="Path 685" d="M840.769,297.42s-2.814,13,2.463,21.108l2.99-.245-1.629-20.649Z" transform="translate(-291.667 -203.837)" opacity="0.1"/>
      <path id="Path_686" data-name="Path 686" d="M841.769,297.42s-2.814,13,2.463,21.108l2.99-.245-1.629-20.649Z" transform="translate(-291.902 -203.837)" fill="#fdc47c"/>
      <path id="Path_687" data-name="Path 687" d="M933.337,251l22.691,19.524s13.368,13.72,7.739,35.883c0,0-2.463,32.365-5.277,33.772,0,0-9.85,19.7-10.554,38.345,0,0-13.192-26.56-19.173-10.378s-19.884,18.469-19.884,18.469l7.739-95.718S936.151,256.95,933.337,251Z" transform="translate(-307.865 -192.917)" opacity="0.1"/>
      <path id="Path_688" data-name="Path 688" d="M934.257,251l22.691,19.524s13.368,13.72,7.739,35.883c0,0-2.463,32.365-5.277,33.772,0,0-9.85,19.7-10.554,38.345,0,0-13.9-27.967-19.884-11.785S909.8,386.624,909.8,386.624l7.739-95.68S937.072,256.95,934.257,251Z" transform="translate(-308.082 -192.917)" fill="#ecb773"/>
      <path id="Path_689" data-name="Path 689" d="M950.643,358.617s5.629-3.87,14.775,6.684L942.9,406.109l-7.563-11.418S951.347,363.19,950.643,358.617Z" transform="translate(-314.089 -218.069)" fill="#fec3be"/>
      <path id="Path_690" data-name="Path 690" d="M948.22,359.98s12.45,13.98,17.307,11.739l4.5-10.47L953.145,354Z" transform="translate(-317.119 -217.146)" opacity="0.1"/>
      <path id="Path_691" data-name="Path 691" d="M948.22,359.06s12.45,13.98,17.307,11.739l4.5-10.47-16.878-7.25Z" transform="translate(-317.119 -216.93)" fill="#fdc47c"/>
      <path id="Path_692" data-name="Path 692" d="M935.667,402.51s5.927,12.145,9.085,12.848l-4.589,5.277L933.48,407.97Z" transform="translate(-313.652 -228.558)" opacity="0.1"/>
      <path id="Path_693" data-name="Path 693" d="M935.2,403s5.927,12.144,9.085,12.848l-4.589,5.277L933,408.437Z" transform="translate(-313.539 -228.673)" fill="#258c93"/>
      <path id="Path_694" data-name="Path 694" d="M949.871,304.78s.7,25.329-2.111,34.827" transform="translate(-317.011 -205.568)" opacity="0.1"/>
      <path id="Path_695" data-name="Path 695" d="M876,309.705s4.221-1.407,4.221-4.925" transform="translate(-300.131 -205.568)" opacity="0.1"/>
      <path id="Path_696" data-name="Path 696" d="M202.195,316.76s-20.052,41.481-6.883,90.571,8.986,107.832-4.145,122.363" transform="translate(-138.955 -208.386)" fill="none" stroke="#535461" stroke-miterlimit="10" stroke-width="2"/>
      <circle id="Ellipse_89" data-name="Ellipse 89" cx="5.529" cy="5.529" r="5.529" transform="translate(57.71 102.852)" fill="#5ab6bc"/>
      <path id="Path_697" data-name="Path 697" d="M194.79,350.474s20.786,3.747,26.316-3.824" transform="translate(-139.887 -215.417)" fill="none" stroke="#535461" stroke-miterlimit="10" stroke-width="2"/>
      <path id="Path_698" data-name="Path 698" d="M188.567,360.592s-12.5-13.835-11.816-22.132" transform="translate(-135.637 -213.491)" fill="none" stroke="#535461" stroke-miterlimit="10" stroke-width="2"/>
      <path id="Path_699" data-name="Path 699" d="M190.82,394.659s11.372,3,21.75-19.119" transform="translate(-138.953 -222.213)" fill="none" stroke="#535461" stroke-miterlimit="10" stroke-width="2"/>
      <path id="Path_700" data-name="Path 700" d="M187.058,415.426s-28.3-18.209-24.847-29.956" transform="translate(-132.154 -224.549)" fill="none" stroke="#535461" stroke-miterlimit="10" stroke-width="2"/>
      <path id="Path_701" data-name="Path 701" d="M200.57,441.156s19.823-17.59,17.75-34.9" transform="translate(-141.246 -229.44)" fill="none" stroke="#535461" stroke-miterlimit="10" stroke-width="2"/>
      <path id="Path_702" data-name="Path 702" d="M195.857,462.34s-25.237-7.051-24.472-18.11" transform="translate(-134.377 -238.372)" fill="none" stroke="#535461" stroke-miterlimit="10" stroke-width="2"/>
      <path id="Path_703" data-name="Path 703" d="M205.69,479.708s15.9-14.729,17.972-23.708" transform="translate(-142.451 -241.14)" fill="none" stroke="#535461" stroke-miterlimit="10" stroke-width="2"/>
      <path id="Path_704" data-name="Path 704" d="M201.908,510.917S185.6,491.874,184.9,482.2" transform="translate(-137.56 -247.303)" fill="none" stroke="#535461" stroke-miterlimit="10" stroke-width="2"/>
      <path id="Path_705" data-name="Path 705" d="M207.14,531.146s18.255-20.282,19.632-29.956" transform="translate(-142.792 -251.77)" fill="none" stroke="#535461" stroke-miterlimit="10" stroke-width="2"/>
      <circle id="Ellipse_90" data-name="Ellipse 90" cx="5.529" cy="5.529" r="5.529" transform="translate(35.585 120.824)" fill="#5ab6bc"/>
      <circle id="Ellipse_91" data-name="Ellipse 91" cx="5.529" cy="5.529" r="5.529" transform="translate(29.368 200.329)" fill="#5ab6bc"/>
      <circle id="Ellipse_92" data-name="Ellipse 92" cx="5.529" cy="5.529" r="5.529" transform="translate(24.527 155.392)" fill="#5ab6bc"/>
      <circle id="Ellipse_93" data-name="Ellipse 93" cx="5.529" cy="5.529" r="5.529" transform="translate(75.69 125.665)" fill="#5ab6bc"/>
      <circle id="Ellipse_94" data-name="Ellipse 94" cx="5.529" cy="5.529" r="5.529" transform="translate(75.69 210.699)" fill="#5ab6bc"/>
      <circle id="Ellipse_95" data-name="Ellipse 95" cx="5.529" cy="5.529" r="5.529" transform="translate(66.704 147.79)" fill="#5ab6bc"/>
      <circle id="Ellipse_96" data-name="Ellipse 96" cx="5.529" cy="5.529" r="5.529" transform="translate(77.762 247.347)" fill="#5ab6bc"/>
      <circle id="Ellipse_97" data-name="Ellipse 97" cx="5.529" cy="5.529" r="5.529" transform="translate(40.426 232.824)" fill="#5ab6bc"/>
      <circle id="Ellipse_98" data-name="Ellipse 98" cx="5.529" cy="5.529" r="5.529" transform="translate(72.233 171.291)" fill="#5ab6bc"/>
    </g>
    <g id="undraw_Graduation_ktn0" transform="translate(414.995 441)">
      <ellipse id="Ellipse_99" data-name="Ellipse 99" cx="10.151" cy="1.523" rx="10.151" ry="1.523" transform="translate(2.735 91.46) rotate(-63.611)" fill="#e0e0e0"/>
      <ellipse id="Ellipse_100" data-name="Ellipse 100" cx="10.151" cy="1.035" rx="10.151" ry="1.035" transform="translate(130.019 154.673) rotate(-63.611)" fill="#e0e0e0"/>
      <rect id="Rectangle_86" data-name="Rectangle 86" width="6.091" height="20.303" transform="translate(63.757 117.233) rotate(39.547)" fill="#ecb773"/>
      <rect id="Rectangle_87" data-name="Rectangle 87" width="6.853" height="20.303" transform="translate(64.326 139.584) rotate(-166.769)" opacity="0.05"/>
      <rect id="Rectangle_88" data-name="Rectangle 88" width="6.091" height="20.303" transform="translate(64.326 139.584) rotate(-166.769)" fill="#ecb773"/>
      <rect id="Rectangle_89" data-name="Rectangle 89" width="21.318" height="141.613" transform="translate(3.874 92.591) rotate(-63.611)" fill="url(#linear-gradient-3)"/>
      <path id="Path_706" data-name="Path 706" d="M343.268,499.761c-2.483-1.191-128.675-63.845-126.856-62.942,7-10.69,9.024-18.187,9.024-18.187l126.856,62.942S347.837,489.392,343.268,499.761Z" transform="translate(-212.314 -344.682)" fill="#f5f5f5"/>
      <rect id="Rectangle_90" data-name="Rectangle 90" width="11.674" height="20.303" transform="translate(68.594 101.473) rotate(26.389)" opacity="0.05"/>
      <path id="Path_716" data-name="Path 716" d="M0,0H10.659V20.3H0Z" transform="translate(69.048 101.699) rotate(26.389)" fill="#ecb773"/>
      <rect id="Rectangle_92" data-name="Rectangle 92" width="7.106" height="20.303" transform="translate(70.412 102.376) rotate(26.389)" opacity="0.05"/>
      <rect id="Rectangle_93" data-name="Rectangle 93" width="6.091" height="20.303" transform="translate(70.867 102.601) rotate(26.389)" fill="#ecb773"/>
      <path id="Path_710" data-name="Path 710" d="M390.139,462.911,383.2,473.324s2.314,10.7,53.513,10.413,55.249-10.413,55.249-10.413l-9.546-13.884L453.2,439.481Z" transform="translate(-330.868 -359.501)" fill="#5ab6bc"/>
      <path id="Path_711" data-name="Path 711" d="M390.139,462.911,383.2,473.324s2.314,10.7,53.513,10.413,55.249-10.413,55.249-10.413l-9.546-13.884L453.2,439.481Z" transform="translate(-330.868 -359.501)" opacity="0.15"/>
      <path id="Path_712" data-name="Path 712" d="M218.586,110.281,127.47,150.488,16.394,110.281,118.213,64l49.981,23.045,1.79.827Z" transform="translate(-11.648 -45.487)" fill="#5ab6bc"/>
      <path id="Path_713" data-name="Path 713" d="M218.586,110.281,127.47,150.488,16.394,110.281,118.213,64l49.981,23.045,1.79.827Z" transform="translate(-11.648 -45.487)" opacity="0.15"/>
      <path id="Path_714" data-name="Path 714" d="M544.861,176.544l-1.736.1-1.941-32.978,1.791.827Z" transform="translate(-384.638 -102.112)" fill="#f5f5f5"/>
      <path id="Path_715" data-name="Path 715" d="M391.3,372l-8.1,49.174s58.141-18.8,108.761,0l-7.521-52.067S416.462,360.723,391.3,372Z" transform="translate(-330.868 -307.355)" fill="#5ab6bc"/>
      <ellipse id="Ellipse_106" data-name="Ellipse 106" cx="8.389" cy="5.785" rx="8.389" ry="5.785" transform="translate(151.689 72.893)" fill="#f5f5f5"/>
    </g>
  </g>
</svg>
