<svg xmlns="http://www.w3.org/2000/svg" xmlns:xlink="http://www.w3.org/1999/xlink" width="459.691" height="370.799" viewBox="0 0 459.691 370.799">
  <defs>
    <linearGradient id="linear-gradient" y1="0.5" x2="1" y2="0.5" gradientUnits="objectBoundingBox">
      <stop offset="0" stop-color="gray" stop-opacity="0.251"/>
      <stop offset="0.54" stop-color="gray" stop-opacity="0.122"/>
      <stop offset="1" stop-color="gray" stop-opacity="0.102"/>
    </linearGradient>
    <linearGradient id="linear-gradient-2" x1="12.106" y1="0.5" x2="13.106" y2="0.5" xlink:href="#linear-gradient"/>
  </defs>
  <g id="Group_373" data-name="Group 373" transform="translate(-1158 -355)">
    <g id="undraw_warning_cyit" transform="translate(1158 355)">
      <ellipse id="Ellipse_156" data-name="Ellipse 156" cx="207.737" cy="185.399" rx="207.737" ry="185.399" transform="translate(28.728 0)" fill="#258c93" opacity="0.1"/>
      <ellipse id="Ellipse_157" data-name="Ellipse 157" cx="76.597" cy="11.872" rx="76.597" ry="11.872" transform="translate(0 268.364)" fill="#258c93" opacity="0.1"/>
      <ellipse id="Ellipse_158" data-name="Ellipse 158" cx="29.793" cy="6.154" rx="29.793" ry="6.154" transform="translate(83.619 336.362)" fill="#258c93" opacity="0.1"/>
      <ellipse id="Ellipse_159" data-name="Ellipse 159" cx="29.793" cy="6.154" rx="29.793" ry="6.154" transform="translate(287.193 312.683)" fill="#258c93" opacity="0.1"/>
      <ellipse id="Ellipse_160" data-name="Ellipse 160" cx="48.447" cy="8.207" rx="48.447" ry="8.207" transform="translate(167.444 303.412)" fill="#258c93" opacity="0.1"/>
      <ellipse id="Ellipse_161" data-name="Ellipse 161" cx="101.05" cy="15.827" rx="101.05" ry="15.827" transform="translate(257.592 255.165)" fill="#258c93" opacity="0.1"/>
      <path id="Path_968" data-name="Path 968" d="M127.036,523.721a28.118,28.118,0,0,0,1.465,28.229,6.984,6.984,0,0,0,2.365,2.552c3.14,1.234,9.428,4.266,9.428,4.266l15.141-5.95s2.458-13,4.783-24.168h0c1.585-7.615,3.117-14.371,3.745-15.555,1.568-2.917,0-34.673,0-34.673s-15.141-1.015-19.305,10.657l-1.821,3.563Z" transform="translate(-106.092 -280.353)" fill="#a8a8a8"/>
      <path id="Path_969" data-name="Path 969" d="M169.583,527.236c9.2,10.55,13.088,1.425,13.088,1.425h0c1.585-7.615,3.117-14.371,3.745-15.555,1.568-2.917,0-34.673,0-34.673s-15.141-1.015-19.305,10.657l-1.821,3.563C164.123,501.99,162.97,519.643,169.583,527.236Z" transform="translate(-128.537 -280.359)" fill="#fff" opacity="0.1"/>
      <path id="Path_970" data-name="Path 970" d="M180.59,511.788l53.439-6.172,9.535-62.738-7.21-16.295a66.024,66.024,0,0,0-12.469-18.811c-3.629-3.825-8.016-7.5-12.63-9.352a18.956,18.956,0,0,0-1.928-.659,4.992,4.992,0,0,0-4.453.788c-6.591,4.672-8.947,24.533-9.708,34.094a106.693,106.693,0,0,1-1.59,11.708Z" transform="translate(-137.522 -235.506)" fill="#a8a8a8"/>
      <path id="Path_971" data-name="Path 971" d="M246.38,442.2l-11.133,27.388c5.834-4.266,14.478-27.5,14.478-27.5l7.744,26.488L251.3,440.655a87.315,87.315,0,0,0,.784-18.321c-.49-7.009-7.067-18.259-10.639-23.923a18.962,18.962,0,0,0-1.928-.659,4.992,4.992,0,0,0-4.453.788c2.806,5.633,9.82,19.719,11.957,23.905C249.729,427.718,246.38,442.2,246.38,442.2Z" transform="translate(-167.735 -235.5)" fill="#fff" opacity="0.1"/>
      <path id="Path_972" data-name="Path 972" d="M280.89,567.6h29a8.8,8.8,0,0,0,8.786-9.241c-.641-12.434-2.267-34.6-6.132-48.674-2.089-7.593-4.516-11.579-6.742-13.542a6.578,6.578,0,0,0-3.834-1.8,5.032,5.032,0,0,0-3.117.757c-5.384,5.161-11.672,32.322-11.672,32.322Z" transform="translate(-193.156 -289.182)" fill="#a8a8a8"/>
      <path id="Path_973" data-name="Path 973" d="M313.727,590.7a14.235,14.235,0,0,1,0,10.844l-6.462,3.193s-17.368-7.361-15.257-22.449c0,0,.57-3.117,6.551-2.877A16.954,16.954,0,0,1,313.727,590.7Z" transform="translate(-199.224 -336.375)" fill="#fff" opacity="0.1"/>
      <path id="Path_974" data-name="Path 974" d="M315.3,503.872c-.2-5.29,2.672-7.125,5.046-7.709a6.577,6.577,0,0,0-3.834-1.8,10.181,10.181,0,0,0-3.344,5.344l-6.056,29.521S315.638,512.739,315.3,503.872Z" transform="translate(-207.699 -289.206)" fill="#fff" opacity="0.1"/>
      <path id="Path_975" data-name="Path 975" d="M206.607,568.14l14.357,19.639,2.489,16.21-9.227,4.556-13.3,2.939a12.785,12.785,0,0,1-3.906.254l-36.3-3.193,4.939-11.449,17.056-23.945Z" transform="translate(-126.501 -330.129)" fill="#a8a8a8"/>
      <path id="Path_976" data-name="Path 976" d="M207.178,552.99s9.8.672,6.119,17.506-41.527,18.183-41.527,18.183,8.043-14.25,20.414-24.462c1.389-1.144,2.73-2.338,4.008-3.612C199.038,557.76,204.479,552.759,207.178,552.99Z" transform="translate(-132.63 -321.722)" fill="#fff" opacity="0.1"/>
      <path id="Path_977" data-name="Path 977" d="M271.07,581.5s13.275,12.082,12.024,30.674" transform="translate(-187.709 -337.54)" opacity="0.1"/>
      <path id="Path_978" data-name="Path 978" d="M301.923,496.06s-13.93,18.526-15.493,47.031" transform="translate(-196.229 -290.149)" opacity="0.1"/>
      <path id="Path_979" data-name="Path 979" d="M201.291,478.43s6.742,30.616-10.091,53.693" transform="translate(-143.407 -280.37)" opacity="0.1"/>
      <path id="Path_980" data-name="Path 980" d="M484.545,638.892H557.2a4.07,4.07,0,0,0,3.563-6l-36.308-67.458a4.066,4.066,0,0,0-7.161,0l-36.326,67.458a4.07,4.07,0,0,0,3.58,6Zm40.948-12.327h-9.245v-9.241h9.245Zm0-15.4h-9.245V592.676h9.245Z" transform="translate(-303.862 -327.443)" fill="#464353"/>
      <path id="Path_981" data-name="Path 981" d="M484.545,638.892H557.2a4.07,4.07,0,0,0,3.563-6l-36.308-67.458a4.066,4.066,0,0,0-7.161,0l-36.326,67.458a4.07,4.07,0,0,0,3.58,6Zm40.948-12.327h-9.245v-9.241h9.245Zm0-15.4h-9.245V592.676h9.245Z" transform="translate(-303.862 -327.443)" opacity="0.1"/>
      <path id="Path_982" data-name="Path 982" d="M484.545,643.892H557.2a4.07,4.07,0,0,0,3.563-6l-36.308-67.458a4.066,4.066,0,0,0-7.161,0l-36.326,67.458a4.07,4.07,0,0,0,3.58,6Zm40.948-12.327h-9.245v-9.241h9.245Zm0-15.4h-9.245V597.676h9.245Z" transform="translate(-303.862 -330.216)" fill="#22868d"/>
      <path id="Path_983" data-name="Path 983" d="M226.351,419.967a4.988,4.988,0,0,0-1.029-.5c-1.194-.445-2.467-.561-3.661-.989a5.242,5.242,0,0,1-1.839-1.087c-.089-.089-.174-.178-.254-.272.445-.281.851-.561,1.291-.824a15.3,15.3,0,0,0-5.371-5.344c.717-1.055,2.333-.971,3.278-1.821a3.117,3.117,0,0,0,.891-1.75,12.1,12.1,0,0,0-.521-5.286,65.163,65.163,0,0,0-3.073-9.953,39.221,39.221,0,0,1-1.666-4.035c-1.153-3.839-.347-8.016-1.22-11.939a8.375,8.375,0,0,1-.419-3.808c.485-1.933,2.645-3.077,3.117-5.01,1.71-6.88,2.017-14.019,2.988-21.042a27.085,27.085,0,0,0,.361-4.039c0-1.421-.254-2.828-.356-4.244-.276-3.977.521-7.949.864-11.921a12.468,12.468,0,0,1,1.617,3.986,16.09,16.09,0,0,1,.094,3.954,18.577,18.577,0,0,1-.281,2.632c-.218,1.033-.6,2.022-.855,3.055a9.445,9.445,0,0,0,.423,6.128c.606,1.336,1.937,2.574,3.322,2.173a3.588,3.588,0,0,0,1.964-2.133c1.336-2.832,2.08-6.114,1.18-9.125-.592-2-1.893-3.816-2.013-5.91a15.273,15.273,0,0,1,.2-2.5c.557-4.836-.646-9.695-.913-14.558a28.4,28.4,0,0,0-.245-4.253c-.036-.165-.076-.33-.125-.485a1.041,1.041,0,0,1,.321.147,2.9,2.9,0,0,0-.062-2.489,6.333,6.333,0,0,1-.419-.784c-.169-.445-.138-.962-.347-1.389a5.923,5.923,0,0,0-.445-.646,5.183,5.183,0,0,1-.619-2.921q-.1-7.909-.445-15.8a25.876,25.876,0,0,0-1.207-7.913,11.864,11.864,0,0,0-4.186-5.553,9.762,9.762,0,0,0-.94-.588,3.26,3.26,0,0,0,.267-1.2,2.88,2.88,0,0,0,0-.392l-.027-.223h0a9.4,9.4,0,0,0-.891-2.672,7.508,7.508,0,0,1-.851-2.921,4.543,4.543,0,0,1,.031-.552h0c.151-1.283.819-2.485,1.055-3.767a6.463,6.463,0,0,0,.1-1.207c0-.138,0-.281,0-.423a12.139,12.139,0,0,0-1.429-4.5c-.223-.445-.445-.891-.695-1.336-.116-.833-.245-1.666-.374-2.494-.071-.481-.147-.962-.249-1.438q-.076-.356-.174-.695c.69-.65.289-1.6-.151-2.485-.851-1.674-.672-3.674-1.033-5.518a16.672,16.672,0,0,0-1.309-3.705,8.256,8.256,0,0,0-1.421-2.334,8.711,8.711,0,0,0-1.839-1.336,5.856,5.856,0,0,0-1.826-.824c-.405-.08-.819-.076-1.22-.169a3.866,3.866,0,0,1-.748-.272,5.09,5.09,0,0,0-1.6-.583,3.563,3.563,0,0,0-1.541.294,5.669,5.669,0,0,1-1.657.445h-.628a1.394,1.394,0,0,0-.851.2,3.218,3.218,0,0,0-.365.374,4.929,4.929,0,0,1-1.073.735,10.577,10.577,0,0,0-5.193,9.04,4.479,4.479,0,0,1-.129,1.465c-.129.374-.383.7-.49,1.082a3.036,3.036,0,0,0-.049,1.015c.036.521.089,1.038.147,1.559h0a3.278,3.278,0,0,0-.65,1.438h0a1.959,1.959,0,0,0-.04.276v.036h0a8.065,8.065,0,0,0,.677,2.672,9.495,9.495,0,0,1-.134,5.242,20.64,20.64,0,0,0-.891,3.563h0v.08a4.306,4.306,0,0,0,.2,1.781c.147.405.365.784.5,1.193.472,1.452-.214,2.975-1.122,4.248h0c-.142.2-.289.392-.445.579h.022l-.022.022.926.655c-.272.142-.543.3-.819.445a8.425,8.425,0,0,0-3.019,1.118,12.273,12.273,0,0,0-2.449,1.63,10.39,10.39,0,0,0-1.933,2.672,33.582,33.582,0,0,0-1.639,3.456,10.822,10.822,0,0,0-.837,3c-.383.815-.7,1.692-1.051,2.48-.178.405-.352.81-.525,1.216l-15.328-37.532-2.378.989.187.445-.494.209.672,1.639c-.1.067-.2.134-.289.2l-.125.1-.249.2-.125.1-.254.214-.094.08-.316.289h0c-.338.307-.664.632-.98.957l-.815.842-.156.165-.272.276-.151.156-.387.387-.027.027-.24.232-.151.143c-.062.062-.129.12-.2.178l-.187.174-.3.258-.089.08-.414.33a11.61,11.61,0,0,1-1.781,1.145c-2.436,1.26-5.014,2.316-7.392,3.665a21.285,21.285,0,0,0-3.661,2.565c-1.572,1.394-2.9,3.117-4.725,4.128l-.2.107c-3.224,1.657-7.023.664-10.688.592-.548,0-1.087,0-1.621.036a20.472,20.472,0,0,0-8.328,2.908c-1.853,1.038-3.661,2.2-5.478,3.26-1.149.664-2.3,1.385-3.46,2.124a78.2,78.2,0,0,1-8.991,5.237,18.9,18.9,0,0,1-8.907,1.982h-.04a7.433,7.433,0,0,1-.891-.076c-.289,2.338,1.581,4.222,2.828,6.279a6.364,6.364,0,0,1,1.055,2.975,5.344,5.344,0,0,1-.089,1.193c-.249,1.443-.917,2.859-.735,4.311a4.992,4.992,0,0,0,.949,2.342c.793,1.131,1.893,2.138,2.641,3.318,1.131,1.781,1.425,3.95,1.866,6.048a12.723,12.723,0,0,0,1.465,4.191,17.9,17.9,0,0,0,3.812,3.861c.254.218.5.445.744.668.178.16.352.33.517.5,1.617,1.652,2.819,4.2,1.844,6.266-.031.071-.067.134-.1.2a1.783,1.783,0,0,0,.245.147c1.242.606,2.8-.365,3.821-1.394.5-.5.98-1.038,1.443-1.581,1.242-1.381,2.383-2.877,3.563-4.311.321-.387.641-.766.971-1.14a16.477,16.477,0,0,1,4.4-3.563,16.162,16.162,0,0,1,2.7-1.1c1.381-.445,2.806-.775,4.191-1.211A34.431,34.431,0,0,0,130.6,308.6a84.858,84.858,0,0,0,8.907-5.522l.445-.289a15.266,15.266,0,0,0,2.65-2.115c.142-.156.281-.316.41-.481.695-.891,1.144-1.946,1.781-2.872a9.24,9.24,0,0,1,2.5-2.409c2.748-1.848,6.395-2.552,9.659-3.563h.036a37.542,37.542,0,0,0,15.217-9.036l2.44,5.976q-.379,1.06-.717,2.142a17.415,17.415,0,0,1-2.053,5.121,3.821,3.821,0,0,0-.775,1.376,4.453,4.453,0,0,1-.183,1.1c-.151.3-.468.5-.6.815-.187.445.058,1.02-.191,1.438a2.263,2.263,0,0,1-.423.445A2.956,2.956,0,0,0,168.9,303a7.94,7.94,0,0,1-.2,2.458,5.862,5.862,0,0,1,.574-.3,2.675,2.675,0,0,0-.049.445,4.962,4.962,0,0,0,.156,1.251,9.881,9.881,0,0,0,1.3,2.6,18.484,18.484,0,0,0,1.394,2,18.26,18.26,0,0,0,2.948,2.636l4.489,3.465-.445,1.875a52.4,52.4,0,0,0-2.017,11.957,51.522,51.522,0,0,0,.361,5.74l.387,3.91c.312,3.148.623,6.3.966,9.445a24.188,24.188,0,0,0,1.149,5.887c1.06,2.855-.111,6.079.338,9.1.356,2.365,1.06,4.81.352,7.094-.285.891-.784,1.746-1.149,2.627a19.716,19.716,0,0,0-1.082,7,29.748,29.748,0,0,0,.227,6.235c.383,2.129,1.229,4.217,1.064,6.377-.232,3.068-2.476,5.691-2.748,8.76-.218,2.445.846,4.81,1.991,6.978.842,1.6-.334,3.665-.779,5.424-.891,3.451.588,7.058,2.391,10.118a.5.5,0,0,0,.227.241c.2.076.4-.129.53-.3a3.646,3.646,0,0,1,.267-.316c0,.138.027.276.036.41,0,.289.022.579.022.891a8.951,8.951,0,0,0,.606,3.3,5.829,5.829,0,0,0,.249.6,2.753,2.753,0,0,0,.445.717,2.721,2.721,0,0,0,1.781.748,23.069,23.069,0,0,0,4.453-.276c1.568-.134,3.14-.076,4.712-.111a.681.681,0,0,0,.352-.076.6.6,0,0,0,.2-.321,3.563,3.563,0,0,0,.076-1.755,12.447,12.447,0,0,0-.334-1.394c-.209-.735-.4-1.474-.583-2.227-.036-.138-.067-.276-.1-.414l.071.031q1.438-3.233,2.881-6.466a5.822,5.822,0,0,0,.739-3.442,10.122,10.122,0,0,0-1.087-2.311,13.567,13.567,0,0,1-.94-5.941l-.053-11.454a25.091,25.091,0,0,0,4.453-9.722,31.444,31.444,0,0,1,.263,15.141,14.107,14.107,0,0,0-.423,2.307c-.174,3.175,2.3,5.865,2.957,8.973a2.021,2.021,0,0,1,.049.73,2.738,2.738,0,0,1-.365.846c-1.185,2.169-1.055,4.787-.891,7.254l.521.085a1.381,1.381,0,0,0,.552.543h0a2.725,2.725,0,0,0,.69.285,17,17,0,0,0,2.6.4c1.256.125,2.516.249,3.776.33.5.031,1,.058,1.5.071a14.948,14.948,0,0,1,2.1.147,15.144,15.144,0,0,1,2.224.645c3.246,1.087,6.88,1.706,10.024.352a4.516,4.516,0,0,0,1.83-1.3,2.155,2.155,0,0,0-.539-3.349Zm-43.072-126.95c.472.94.944,1.875,1.336,2.85a9.828,9.828,0,0,1,.748,5.976c-.143.579-1.073,1.024-1.069,1.621a1.341,1.341,0,0,0-.071.138l-2.908-7.125a25.417,25.417,0,0,1,1.964-3.46Zm-3.193,15.141a12.323,12.323,0,0,1-1.576-2.721c-.053-.12-.111-.236-.165-.356a1.069,1.069,0,0,0,.423-.316c.445-.561.2-1.381.272-2.1a4.542,4.542,0,0,1,.708-1.781l2.73,6.68q-.414,1.087-.775,2.2a15.588,15.588,0,0,1-1.617-1.6Z" transform="translate(-85.573 -142.62)" fill="url(#linear-gradient)"/>
      <path id="Path_984" data-name="Path 984" d="M316.154,262.694a7.973,7.973,0,0,0,.686,2.672,9.455,9.455,0,0,1-.129,5.228c-.5,1.781-1.336,3.665-.7,5.406.147.41.37.784.5,1.193.552,1.692-.472,3.474-1.594,4.859l4.4,3.086a5.063,5.063,0,0,0,2.227,1.064,1.743,1.743,0,0,0,1.951-1.153c.058-.276,0-.566.053-.846a2.3,2.3,0,0,1,1.234-1.71,4.035,4.035,0,0,1,2.133-.4c2.7.147,5,1.924,7.459,3.064a30.01,30.01,0,0,0,5.019,1.666,4.032,4.032,0,0,0,2.939,0,2.787,2.787,0,0,0,1.22-2.632,8.609,8.609,0,0,0-.935-2.9,7.374,7.374,0,0,1-.859-2.917c0-1.5.819-2.859,1.1-4.329a9.868,9.868,0,0,0-1.363-6.11,25.888,25.888,0,0,1-2.6-5.789,8.463,8.463,0,0,0-.485-1.83,4.168,4.168,0,0,0-.891-1.193,9.97,9.97,0,0,0-6.315-2.578,28.617,28.617,0,0,0-6.925.606,14.479,14.479,0,0,0-2.57.61,16.321,16.321,0,0,0-3.38,1.83A4.4,4.4,0,0,0,316.154,262.694Z" transform="translate(-212.031 -157.276)" fill="#464353"/>
      <g id="Group_370" data-name="Group 370" transform="translate(102.875 105.124)" opacity="0.1">
        <path id="Path_985" data-name="Path 985" d="M375.17,297.313a1.958,1.958,0,0,0,.027.4c.138-1.3.824-2.529,1.069-3.834a6.333,6.333,0,0,0,.085-1.585,4.345,4.345,0,0,1-.085.695C375.985,294.454,375.152,295.817,375.17,297.313Z" transform="translate(-348.325 -282.248)"/>
        <path id="Path_986" data-name="Path 986" d="M318.67,274.487a7.975,7.975,0,0,0-.3-2.672,15.484,15.484,0,0,1-.646-2.075c0,.094-.036.183-.04.276a7.972,7.972,0,0,0,.686,2.672,7.522,7.522,0,0,1,.3,1.8Z" transform="translate(-316.439 -269.74)"/>
        <path id="Path_987" data-name="Path 987" d="M343.5,314.666a2.547,2.547,0,0,1-1.193,1.964,4.032,4.032,0,0,1-2.939,0,29.623,29.623,0,0,1-5.019-1.67c-2.458-1.136-4.756-2.912-7.459-3.059a4.035,4.035,0,0,0-2.133.4,2.3,2.3,0,0,0-1.234,1.71c-.031.281,0,.57-.053.846a1.745,1.745,0,0,1-1.951,1.153,5.064,5.064,0,0,1-2.227-1.064l-3.959-2.779c-.147.2-.294.4-.445.579l4.4,3.091a5.063,5.063,0,0,0,2.227,1.064,1.743,1.743,0,0,0,1.951-1.153c.058-.276,0-.566.053-.846a2.3,2.3,0,0,1,1.234-1.71,4.035,4.035,0,0,1,2.133-.4c2.7.147,5,1.924,7.459,3.059a29.623,29.623,0,0,0,5.019,1.67,4.032,4.032,0,0,0,2.939,0,2.787,2.787,0,0,0,1.22-2.632C343.525,314.813,343.511,314.742,343.5,314.666Z" transform="translate(-314.89 -293.116)"/>
        <path id="Path_988" data-name="Path 988" d="M317.588,299.166a3.45,3.45,0,0,1,.12.548,3.229,3.229,0,0,0-.12-1.438c-.134-.41-.356-.784-.5-1.193a3.724,3.724,0,0,1-.2-.922,4.186,4.186,0,0,0,.2,1.813C317.232,298.382,317.455,298.761,317.588,299.166Z" transform="translate(-315.981 -284.394)"/>
      </g>
      <path id="Path_989" data-name="Path 989" d="M313.919,671.009a.583.583,0,0,1-.2.321.682.682,0,0,1-.352.076c-1.585.036-3.171,0-4.752.111a22.718,22.718,0,0,1-4.489.276,2.3,2.3,0,0,1-2.227-1.465,5.823,5.823,0,0,1-.249-.6,8.866,8.866,0,0,1-.61-3.3v-.891a6.76,6.76,0,0,0-.129-.971,1.474,1.474,0,0,1,.045-1.127c.632-1.153,2.16-1.385,3.336-1.474a27.543,27.543,0,0,1,8.127.6c.209,1.024.445,2.04.695,3.055q.276,1.118.588,2.227a12.468,12.468,0,0,1,.338,1.394A3.563,3.563,0,0,1,313.919,671.009Z" transform="translate(-204.208 -382.133)" fill="#464353"/>
      <path id="Path_990" data-name="Path 990" d="M314.953,680.172a.583.583,0,0,1-.2.321.681.681,0,0,1-.352.076c-1.585.036-3.171,0-4.752.111a22.718,22.718,0,0,1-4.489.276,2.3,2.3,0,0,1-2.227-1.465,5.822,5.822,0,0,1-.249-.6h.57c1.875,0,3.754-.067,5.629-.067a14.384,14.384,0,0,0,1.7-.094c.561-.067,1.02-.16,1.532-.223a20.971,20.971,0,0,1,2.307-.094h.632A3.563,3.563,0,0,1,314.953,680.172Z" transform="translate(-205.242 -391.296)" opacity="0.06"/>
      <path id="Path_991" data-name="Path 991" d="M372.024,654.986a4.556,4.556,0,0,1-1.844,1.3c-3.171,1.336-6.836.735-10.109-.352a15.406,15.406,0,0,0-2.249-.646,15.124,15.124,0,0,0-2.106-.147c-.5,0-1.006-.04-1.51-.071-1.274-.08-2.543-.2-3.808-.329a17.21,17.21,0,0,1-2.619-.4,2.783,2.783,0,0,1-.7-.285h0a1.073,1.073,0,0,1-.641-.958c.036-.566.623-.891,1.14-1.136,4.582-1.982,9.561-2.841,14.5-3.531a5.811,5.811,0,0,0,1.456-.445c.557-.223.615.143.891.552a3.436,3.436,0,0,0,.445.525,5.3,5.3,0,0,0,1.853,1.087c1.2.445,2.489.566,3.692.989a5.055,5.055,0,0,1,1.038.5,2.147,2.147,0,0,1,.543,3.349Z" transform="translate(-229.514 -374.38)" fill="#464353"/>
      <path id="Path_992" data-name="Path 992" d="M381.7,659.619a4.555,4.555,0,0,1-1.844,1.3c-3.171,1.336-6.836.735-10.109-.352a15.406,15.406,0,0,0-2.249-.646,15.162,15.162,0,0,0-2.106-.147c-.5,0-1.006-.04-1.51-.071.41-.387.828-.766,1.256-1.131a3.741,3.741,0,0,1,1.055-.695,3.055,3.055,0,0,1,1.5-.1c2.547.352,4.836,2.138,7.406,1.982a9.114,9.114,0,0,0,3.407-1.1,5.946,5.946,0,0,0,2.227-1.585,2.57,2.57,0,0,0,.414-.8,2.146,2.146,0,0,1,.543,3.349Z" transform="translate(-239.188 -379.013)" opacity="0.06"/>
      <path id="Path_993" data-name="Path 993" d="M389.006,442.645a3.687,3.687,0,0,1-1.977,2.133c-1.4.4-2.743-.855-3.353-2.173a9.387,9.387,0,0,1-.445-6.128c.254-1.029.641-2.017.859-3.051a18.576,18.576,0,0,0,.285-2.632,16.091,16.091,0,0,0-.094-3.955c-.717-3.825-4.008-6.68-5.1-10.439a19.482,19.482,0,0,1-.494-5.825,5.991,5.991,0,0,1,.151-1.47,2.3,2.3,0,0,1,.134-.383c.735-1.63,2.912-1.853,4.427-2.8.837-.521,2.739-2.2,3.442-.668a5.036,5.036,0,0,1,.338,1.064,28.306,28.306,0,0,1,.245,4.248c.272,4.863,1.483,9.717.922,14.553a15.178,15.178,0,0,0-.2,2.494c.12,2.093,1.43,3.906,2.031,5.91C391.1,436.54,390.359,439.822,389.006,442.645Z" transform="translate(-247.391 -239.433)" fill="#fbbebe"/>
      <path id="Path_994" data-name="Path 994" d="M387.431,406.318a1.5,1.5,0,0,0-1.024,0l-3.015.891a18.662,18.662,0,0,0-3.077,1.118,7.218,7.218,0,0,0-1.225.761,2.3,2.3,0,0,1,.134-.383c.735-1.63,2.912-1.853,4.427-2.8.837-.521,2.739-2.2,3.442-.668a5.038,5.038,0,0,1,.338,1.082Z" transform="translate(-247.624 -239.422)" opacity="0.1"/>
      <path id="Path_995" data-name="Path 995" d="M380.194,358.743a1.363,1.363,0,0,0-1.22-.1l-3.015.891a18.666,18.666,0,0,0-3.077,1.118,7.07,7.07,0,0,0-1.465.953c-1.407-2.445-1.781-5.344-2.04-8.15-.143-1.634-.249-3.273-.312-4.9a21.971,21.971,0,0,1,.071-3.509c.169-1.336.557-2.641.8-3.968a18.105,18.105,0,0,0,.276-2.351,22.992,22.992,0,0,0-.236-5.161,31.988,31.988,0,0,0-1.238-5.344c-.285-.8-.628-1.568-.94-2.351l-.107-.276a32.463,32.463,0,0,1-1.376-4.413c-.142-.615-.151-1.26-.623-1.679a8.38,8.38,0,0,1,1.336-.053h.267a9.989,9.989,0,0,1,5.095,1.781,11.9,11.9,0,0,1,4.222,5.584,25.7,25.7,0,0,1,1.216,7.909q.361,7.891.445,15.791a5.042,5.042,0,0,0,.623,2.921,5.956,5.956,0,0,1,.445.646c.209.445.178.94.347,1.389a7.026,7.026,0,0,0,.423.784A2.872,2.872,0,0,1,380.194,358.743Z" transform="translate(-240.192 -192.186)" fill="#1f787f"/>
      <path id="Path_996" data-name="Path 996" d="M330.036,289.755c-.445-.147-.891-.3-1.336-.445l.926.071a1.871,1.871,0,0,1,.41.374Z" transform="translate(-219.675 -175.471)" fill="#fbbebe"/>
      <path id="Path_997" data-name="Path 997" d="M345.52,306.393c-.089.3-.178.606-.276.891a17.017,17.017,0,0,1-.824,2.142,9.967,9.967,0,0,1-2.106,3.055,2.8,2.8,0,0,1-1.051.695,3.34,3.34,0,0,1-1.033.1q-1.781,0-3.563-.053a12.654,12.654,0,0,1-2.752-.272,9.827,9.827,0,0,1-2.806-1.265,16.655,16.655,0,0,1-7.232-8.907,1.476,1.476,0,0,1,.076-1.407,1.723,1.723,0,0,1,1.136-.387h.053a7.175,7.175,0,0,0,2.712-.931,2.788,2.788,0,0,0,1.238-1.265,3.411,3.411,0,0,0-.04-1.968l-.989-4.489a4.649,4.649,0,0,0-.788-2c.289.1.579.2.891.276,2.752.744,5.763.294,8.461,1.269A3.606,3.606,0,0,1,339,294c.521,1.781-1.22,3.629-.721,5.411.334,1.211,1.568,1.91,2.672,2.476l.744.379,2.062,1.047.285.142.045.022a2.8,2.8,0,0,1,1.563,1.438,2.672,2.672,0,0,1-.134,1.483Z" transform="translate(-216.922 -176.036)" fill="#fbbebe"/>
      <path id="Path_998" data-name="Path 998" d="M350.953,329.488a9.616,9.616,0,0,1-.819,3.3,13.462,13.462,0,0,0-1.4,5.789c-.343,6.012-2.627,13.168.646,18.218.08.125.16.249.236.379a7.071,7.071,0,0,0-1.465.953c-1.407-2.445-1.781-5.344-2.04-8.15-.142-1.634-.249-3.273-.312-4.9a21.975,21.975,0,0,1,.071-3.509c.169-1.336.557-2.641.8-3.968a18.116,18.116,0,0,0,.276-2.351,22.992,22.992,0,0,0-.236-5.161,32,32,0,0,0-1.238-5.344c-.285-.8-.628-1.568-.94-2.351l-.107-.276a9.967,9.967,0,0,1-2.106,3.055,2.8,2.8,0,0,1-1.051.695,3.341,3.341,0,0,1-1.033.1q-1.781,0-3.563-.053a12.657,12.657,0,0,1-2.752-.272,9.829,9.829,0,0,1-2.806-1.265,16.655,16.655,0,0,1-7.232-8.907,1.476,1.476,0,0,1,.076-1.407,1.724,1.724,0,0,1,1.136-.387h.053l4.008,4.957a8.017,8.017,0,0,1,1.158,1.732,1.033,1.033,0,0,0,.356.53.913.913,0,0,0,.445.08h12.54a3.256,3.256,0,0,0-.552-1.875c-.116.027-.272.036-.031-.036a12.621,12.621,0,0,0-1.38-4.128,2.882,2.882,0,0,0-.138-.258,4.747,4.747,0,0,1-.659-1.443,1.828,1.828,0,0,1,2.534,1.376c.2.445.41.922.592,1.389,0,.049.045.1.062.151a10.082,10.082,0,0,1,.739,2.89c.027.365.116.828.419.949a.4.4,0,0,0,.151.036,1.683,1.683,0,0,1,1.821.445,4.008,4.008,0,0,1,.891,1.755,9.6,9.6,0,0,0,.632,1.888c.574,1.1-.3,1.585.735,2.258a3.616,3.616,0,0,1,1.22,1.1,3.42,3.42,0,0,1,.267,2.026Z" transform="translate(-216.922 -188.674)" opacity="0.1"/>
      <path id="Path_999" data-name="Path 999" d="M312.324,662.61c.209,1.024.445,2.04.695,3.055l-.027.062a20.672,20.672,0,0,0-6.341-2.017,7.026,7.026,0,0,0-5.7,1.875,6.759,6.759,0,0,0-.129-.971,1.474,1.474,0,0,1,.045-1.127c.632-1.153,2.16-1.385,3.336-1.474a27.543,27.543,0,0,1,8.127.6Z" transform="translate(-204.158 -382.155)" opacity="0.1"/>
      <path id="Path_1000" data-name="Path 1000" d="M366.007,328.37c.209,0,.134,0,.031.036S365.767,328.441,366.007,328.37Z" transform="translate(-240.3 -197.136)" opacity="0.1"/>
      <path id="Path_1001" data-name="Path 1001" d="M364.9,649.064a38.681,38.681,0,0,0-5.576,4.315,5.838,5.838,0,0,1-1.759,1.287,5.138,5.138,0,0,1-2.12.218,72.147,72.147,0,0,1-8.363-.828h0a1.073,1.073,0,0,1-.641-.957c.036-.566.623-.891,1.14-1.136,4.582-1.982,9.561-2.841,14.5-3.531a5.811,5.811,0,0,0,1.456-.445c.557-.223.615.143.891.552a3.437,3.437,0,0,0,.468.526Z" transform="translate(-229.514 -374.38)" opacity="0.1"/>
      <path id="Path_1002" data-name="Path 1002" d="M301.261,314.814c.655.583,1.4,1.055,2.066,1.621a18.693,18.693,0,0,1,4.008,5.678,3.714,3.714,0,0,1-2.044.138,14.661,14.661,0,0,0,.174,5.954,5.522,5.522,0,0,0-1.991,2.472,16.524,16.524,0,0,0-.65,3.117q-.962,6.952-1.933,13.9a2.155,2.155,0,0,1-.445,1.251,2.4,2.4,0,0,0-.338.334,1.848,1.848,0,0,0-.156.957c-.027.325-.24.713-.566.668a.7.7,0,0,1-.4-.258,9.091,9.091,0,0,1-.891-1.1c-2.627,5.041-3.892,10.474-5.282,15.987a38.727,38.727,0,0,0-1.674,17.688l.392,3.91c.316,3.144.632,6.293.975,9.437a23.754,23.754,0,0,0,1.162,5.887c1.069,2.855-.116,6.074.338,9.094.356,2.365,1.064,4.81.352,7.09-.285.913-.784,1.746-1.158,2.627a19.722,19.722,0,0,0-1.091,7,29.392,29.392,0,0,0,.232,6.235c.383,2.133,1.242,4.222,1.073,6.377-.236,3.068-2.5,5.691-2.774,8.755-.218,2.445.855,4.805,2.008,6.974.851,1.6-.334,3.665-.784,5.424-.891,3.447.592,7.054,2.409,10.113a.485.485,0,0,0,.232.24c.209.076.4-.129.534-.3a6.853,6.853,0,0,1,6.012-2.227,20.124,20.124,0,0,1,6.341,2.017l2.89-6.435a5.76,5.76,0,0,0,.744-3.442,9.969,9.969,0,0,0-1.1-2.311,13.494,13.494,0,0,1-.944-5.941l-.053-11.445a25.027,25.027,0,0,0,4.5-9.717,31.173,31.173,0,0,1,.267,15.141,13.737,13.737,0,0,0-.445,2.307c-.174,3.175,2.316,5.861,2.979,8.969a1.928,1.928,0,0,1,.053.73,2.753,2.753,0,0,1-.37.846c-1.193,2.164-1.064,4.787-.891,7.254a72.289,72.289,0,0,0,9.445,1.011,5.308,5.308,0,0,0,2.12-.218,5.852,5.852,0,0,0,1.759-1.291,38.841,38.841,0,0,1,6.622-5.01,15.417,15.417,0,0,0-5.411-5.344c.717-1.055,2.351-.971,3.3-1.817a3.117,3.117,0,0,0,.891-1.755,11.923,11.923,0,0,0-.526-5.277,62.777,62.777,0,0,0-3.117-9.953,38.243,38.243,0,0,1-1.674-4.03c-1.167-3.839-.352-8.016-1.234-11.939a8.226,8.226,0,0,1-.423-3.8c.49-1.928,2.672-3.073,3.153-5.005,1.723-6.88,2.031-14.01,3.01-21.033a27.023,27.023,0,0,0,.352-4.057c0-1.421-.254-2.828-.356-4.244-.4-5.669,1.412-11.325.949-16.989a21.376,21.376,0,0,0-3.349-9.8c-3.273-5.055-.989-12.206-.646-18.218a13.4,13.4,0,0,1,1.4-5.789,9.5,9.5,0,0,0,.824-3.3,3.407,3.407,0,0,0-.249-2.08,3.513,3.513,0,0,0-1.216-1.1c-1.038-.677-.16-1.167-.735-2.262a9.5,9.5,0,0,1-.632-1.888,3.972,3.972,0,0,0-.891-1.75,1.683,1.683,0,0,0-1.821-.445c-.423,0-.539-.561-.574-.984a13.875,13.875,0,0,0-1.389-4.431,2.419,2.419,0,0,0-1.073-1.376,2.454,2.454,0,0,0-1.465,0,4.733,4.733,0,0,0,.664,1.447,12.576,12.576,0,0,1,1.514,4.382c-.445.134.445,0,0,0a3.117,3.117,0,0,1,.583,1.91H312.3a.89.89,0,0,1-.445-.08,1.069,1.069,0,0,1-.361-.53,7.718,7.718,0,0,0-1.158-1.728l-4.409-5.438a1.113,1.113,0,0,0-.379-.343,1.024,1.024,0,0,0-.557,0A10.015,10.015,0,0,0,301.261,314.814Z" transform="translate(-198.551 -188.746)" fill="#258c93"/>
      <path id="Path_1003" data-name="Path 1003" d="M345.374,482.21a4.249,4.249,0,0,1,2.169.561,2.186,2.186,0,0,1,1.078,1.879,4.982,4.982,0,0,1-1.162,2.227,5.967,5.967,0,0,0-.686,1.407.566.566,0,0,0-.036.361c.053.169.236.254.392.33a3.344,3.344,0,0,1,1.964,2.921c-.04,1.737-1.737,3.144-1.643,4.9a10.08,10.08,0,0,0,.187,1.087,8.3,8.3,0,0,1-.6,4.4c-.539,1.4-1.274,2.712-1.853,4.1a29.063,29.063,0,0,0-1.781,12.024c.094,2.779-.891,5.424-1.781,8.069a115.985,115.985,0,0,0,.4-16.032c-.062-1.452-.245-2.823-.178-4.28.107-2.311,1.4-4.413,1.728-6.68a32.9,32.9,0,0,0,.094-3.923c.062-2.672.788-5.308.837-7.989C344.564,485.679,344.39,483.728,345.374,482.21Z" transform="translate(-226.841 -282.466)" opacity="0.1"/>
      <path id="Path_1004" data-name="Path 1004" d="M299.669,317.435a12.212,12.212,0,0,0-2.467,1.63,10.509,10.509,0,0,0-1.951,2.672,34.136,34.136,0,0,0-1.652,3.456,7.7,7.7,0,0,0-.717,4.827c.392,1.447,1.5,2.574,2.267,3.861a32.87,32.87,0,0,1,1.8,4.208c.784,1.884,1.857,3.638,2.632,5.527a9.788,9.788,0,0,1,.753,5.972c-.142.579-1.082,1.029-1.082,1.621,0,.98,1.416,2.044,2.356,2.329a3.525,3.525,0,0,0,3.148-.891,11.581,11.581,0,0,0,3.344-5.157,52.768,52.768,0,0,0,2.369-9.713c.41-2.414.793-4.832,1.011-7.263a18.489,18.489,0,0,0-.316-6.555,11.133,11.133,0,0,0-3.042-5.059c-1.158-1.113-3.055-2.61-4.738-2.65A7.808,7.808,0,0,0,299.669,317.435Z" transform="translate(-199.72 -190.413)" fill="#1f787f"/>
      <path id="Path_1005" data-name="Path 1005" d="M301.55,414.276a2.129,2.129,0,0,1-.993,1.483,5.848,5.848,0,0,1-1.7.695,7.048,7.048,0,0,1-3.665.361,7.357,7.357,0,0,1-2.574-1.465l-13.485-10.323a18.208,18.208,0,0,1-2.97-2.636,18.982,18.982,0,0,1-1.407-2,9.8,9.8,0,0,1-1.309-2.6,4.761,4.761,0,0,1-.16-1.251,2.356,2.356,0,0,1,.285-1.144c.325-.543,1.02-.655,1.59-.806a16.682,16.682,0,0,1,5.865-.445.8.8,0,0,1,.793.539c.3.548.557,1.118.824,1.688a12.2,12.2,0,0,0,1.59,2.721,22.948,22.948,0,0,0,1.982,1.91c1.425,1.336,2.592,2.939,4.11,4.168a34.323,34.323,0,0,0,5.9,3.318,10.9,10.9,0,0,1,4.988,4.431,2.6,2.6,0,0,1,.334,1.358Z" transform="translate(-188.94 -233.571)" fill="#fbbebe"/>
      <path id="Path_1006" data-name="Path 1006" d="M344.332,264.007a11.026,11.026,0,1,1-.307-2.583A11.027,11.027,0,0,1,344.332,264.007Z" transform="translate(-216.112 -155.32)" opacity="0.1"/>
      <path id="Path_1007" data-name="Path 1007" d="M344.332,263.007a11.026,11.026,0,1,1-.307-2.583A11.027,11.027,0,0,1,344.332,263.007Z" transform="translate(-216.112 -154.765)" fill="#fbbebe"/>
      <path id="Path_1008" data-name="Path 1008" d="M282.646,396.352a2.606,2.606,0,0,1-1.888.076c-2.476-.552-5.21-.949-7.468.111a2.356,2.356,0,0,1,.285-1.145c.325-.543,1.02-.655,1.59-.806a16.682,16.682,0,0,1,5.865-.445.8.8,0,0,1,.793.539C282.121,395.212,282.379,395.782,282.646,396.352Z" transform="translate(-188.94 -233.571)" opacity="0.1"/>
      <path id="Path_1009" data-name="Path 1009" d="M277.333,351.051a17.379,17.379,0,0,1-2.071,5.121,3.785,3.785,0,0,0-.784,1.372,4.275,4.275,0,0,1-.183,1.1c-.151.3-.472.5-.6.815-.191.445.058,1.02-.2,1.438a2.137,2.137,0,0,1-.423.445,3.117,3.117,0,0,0-.77,2.285,7.776,7.776,0,0,1-.2,2.454c2.351-1.4,5.344-.984,8.016-.387.744.165,1.666.289,2.146-.307s.2-1.381.272-2.1a8.331,8.331,0,0,1,1.127-2.561,30.477,30.477,0,0,0,.94-3.024c.708-2.1,2.227-3.808,3.2-5.789a5.562,5.562,0,0,0,.632-2.2,6.565,6.565,0,0,0-.761-2.855,39.046,39.046,0,0,0-3.3-5.883c-.566-.833-1.541-2.374-2.418-1.042a24.954,24.954,0,0,0-1.683,3.616,66.179,66.179,0,0,0-2.944,7.495Z" transform="translate(-188.28 -203.264)" fill="#1f787f"/>
      <path id="Path_1010" data-name="Path 1010" d="M342.747,287.2a9,9,0,0,1-7.205-2.846,1.1,1.1,0,0,1-.321-.521,1.046,1.046,0,0,1,.2-.73c.534-.824,1.456-1.367,1.884-2.253a7.155,7.155,0,0,0,.321-2.877c.071-1.741.757-3.465.815-5.179a5.412,5.412,0,0,0-.1-1.309,8.207,8.207,0,0,1-.374-1.973c.058-1.3,1.234-2.32,1.43-3.607.254-1.639-1.1-3.064-2.472-4.008a14.728,14.728,0,0,0-3.367-1.741,10.96,10.96,0,0,0-2.262-.548,8.817,8.817,0,0,0-4.262.477,6.961,6.961,0,0,0-1.585.846,2.146,2.146,0,0,0-.708.735,2.391,2.391,0,0,0-.187,1.064c-.027,1.821.178,3.759-.69,5.344-.445.851-1.2,1.541-1.572,2.44a4.057,4.057,0,0,0-.281,1.171,11.8,11.8,0,0,0-.067,1.256c-.027,2.347,0,4.823,1.193,6.858a17.884,17.884,0,0,1,1.145,1.919,2.186,2.186,0,0,1-.111,2.133,2.427,2.427,0,0,1-.891.668,7.125,7.125,0,0,1-5.7.2,7.219,7.219,0,0,0,1.683-8.052,4.752,4.752,0,0,1-.615-1.781,4.52,4.52,0,0,1,.445-1.63,8.907,8.907,0,0,0,.272-5.219,19.038,19.038,0,0,1-.828-3.175,9.6,9.6,0,0,1,.107-2.467,8.016,8.016,0,0,1,5.491-6.319c.227-.076.445-.147.695-.209a14.812,14.812,0,0,1,3.291-.352,24.984,24.984,0,0,1,7.361.494,9.877,9.877,0,0,1,3.812,1.959,6.88,6.88,0,0,1,1.844,2.436,8.463,8.463,0,0,1,.521,1.683c.1.477.178.957.254,1.438.539,3.425,1.078,6.916.5,10.336-.227,1.336-.623,2.672-.8,4.035C341.192,281.038,341.972,284.16,342.747,287.2Z" transform="translate(-213.512 -156.698)" fill="#464353"/>
      <circle id="Ellipse_162" data-name="Ellipse 162" cx="0.828" cy="0.828" r="0.828" transform="translate(112.584 133.242)" fill="#fff"/>
      <circle id="Ellipse_163" data-name="Ellipse 163" cx="0.828" cy="0.828" r="0.828" transform="translate(126.563 132.851)" fill="#fff"/>
      <path id="Path_1011" data-name="Path 1011" d="M336.331,235.825l-1.781-3.362a3.254,3.254,0,0,1,.37-.374,1.412,1.412,0,0,1,.859-.2Z" transform="translate(-222.919 -143.615)" opacity="0.1"/>
      <path id="Path_1012" data-name="Path 1012" d="M345.636,230.811l-2.017,2.984-1.149-3.273a3.642,3.642,0,0,1,1.554-.294A5.166,5.166,0,0,1,345.636,230.811Z" transform="translate(-227.312 -142.698)" opacity="0.1"/>
      <g id="Group_371" data-name="Group 371" transform="translate(104.078 101.932)" opacity="0.1">
        <path id="Path_1013" data-name="Path 1013" d="M324.176,316.41a2.428,2.428,0,0,1-.891.668,7.157,7.157,0,0,1-5.063.423,6.931,6.931,0,0,1-.632.672,7.125,7.125,0,0,0,5.7-.2,2.427,2.427,0,0,0,.891-.668,1.919,1.919,0,0,0,.285-1.541A1.581,1.581,0,0,1,324.176,316.41Z" transform="translate(-317.59 -292.074)"/>
        <path id="Path_1014" data-name="Path 1014" d="M320.456,278.144a8.771,8.771,0,0,1,.254,1.781,8.874,8.874,0,0,0-.254-2.672,19.044,19.044,0,0,1-.828-3.175,2.669,2.669,0,0,0-.022-.419,9.935,9.935,0,0,0,.022,1.309A19.047,19.047,0,0,0,320.456,278.144Z" transform="translate(-318.701 -268.722)"/>
        <path id="Path_1015" data-name="Path 1015" d="M372.155,292.373a19.483,19.483,0,0,0,.241-3.563,18.56,18.56,0,0,1-.241,2.672c-.227,1.336-.623,2.672-.8,4.035a14.056,14.056,0,0,0-.1,2.2,13.148,13.148,0,0,1,.1-1.314C371.532,295.045,371.928,293.722,372.155,292.373Z" transform="translate(-347.35 -277.125)"/>
        <path id="Path_1016" data-name="Path 1016" d="M320.564,299.386A7.321,7.321,0,0,1,320,298.01a2.014,2.014,0,0,0-.053.49,4.752,4.752,0,0,0,.615,1.781,6.729,6.729,0,0,1,.557,2.36A6.9,6.9,0,0,0,320.564,299.386Z" transform="translate(-318.899 -282.228)"/>
        <path id="Path_1017" data-name="Path 1017" d="M363.717,288.533a5.814,5.814,0,0,1,.085.615v-.2a5.411,5.411,0,0,0-.1-1.309c-.1-.468-.258-.931-.334-1.4a1.971,1.971,0,0,0-.04.321,8.208,8.208,0,0,0,.387,1.973Z" transform="translate(-342.961 -275.7)"/>
        <path id="Path_1018" data-name="Path 1018" d="M357.492,318.007a2.348,2.348,0,0,1-.191-.227.922.922,0,0,0-.129.6,1.1,1.1,0,0,0,.321.521,9,9,0,0,0,7.205,2.846c-.076-.294-.151-.583-.223-.891A8.987,8.987,0,0,1,357.492,318.007Z" transform="translate(-339.541 -293.194)"/>
        <path id="Path_1019" data-name="Path 1019" d="M348.058,269a.191.191,0,0,1,0-.049c.254-1.639-1.1-3.064-2.472-4.008a14.725,14.725,0,0,0-3.367-1.741,10.958,10.958,0,0,0-2.262-.548,8.817,8.817,0,0,0-4.262.477,6.96,6.96,0,0,0-1.585.846,2.147,2.147,0,0,0-.708.735,2.391,2.391,0,0,0-.187,1.064v.891a2.392,2.392,0,0,1,.187-1.064,2.147,2.147,0,0,1,.708-.735,6.962,6.962,0,0,1,1.585-.846,8.818,8.818,0,0,1,4.262-.476,10.961,10.961,0,0,1,2.262.548,14.727,14.727,0,0,1,3.367,1.741A5.319,5.319,0,0,1,348.058,269Z" transform="translate(-326.255 -262.572)"/>
        <path id="Path_1020" data-name="Path 1020" d="M329.3,277.419c-.445.851-1.2,1.541-1.572,2.44a4.057,4.057,0,0,0-.281,1.171,11.8,11.8,0,0,0-.067,1.256v.891a11.809,11.809,0,0,1,.067-1.258,4.057,4.057,0,0,1,.28-1.169,28.017,28.017,0,0,1,1.572-2.44,8.941,8.941,0,0,0,.69-4.4A7.428,7.428,0,0,1,329.3,277.419Z" transform="translate(-323.02 -268.861)"/>
      </g>
      <path id="Path_1021" data-name="Path 1021" d="M342.925,260.192a1.3,1.3,0,0,1-.214.236,2.04,2.04,0,0,1-.521.312c-1.3.561-1.242-1.269-1.919-1.9a2.3,2.3,0,0,0-1.505-.445q-1.955-.1-3.914-.174c-2.178-.08-4.351-.12-6.524-.071q-1.563.027-3.117.129a8.49,8.49,0,0,0-3.518.806,3.728,3.728,0,0,0-.94.735c-.245.267-.5.606-.842.668a8.016,8.016,0,0,1,5.491-6.319,11.022,11.022,0,0,1,15.141,1.893,6.881,6.881,0,0,1,1.844,2.436A8.46,8.46,0,0,1,342.925,260.192Z" transform="translate(-214.799 -154.769)" opacity="0.1"/>
      <path id="Path_1022" data-name="Path 1022" d="M341.62,247.767c-1.3.561-1.242-1.269-1.919-1.9a2.3,2.3,0,0,0-1.505-.445,118.7,118.7,0,0,0-13.556-.116c-1.608.107-3.371.347-4.453,1.541-.276.3-.566.695-.98.681-.138-.891-.236-1.817-.3-2.73a3.037,3.037,0,0,1,.053-1.024c.111-.383.365-.708.494-1.082a4.338,4.338,0,0,0,.134-1.461,10.554,10.554,0,0,1,5.193-8.978,4.716,4.716,0,0,0,1.082-.73,3.253,3.253,0,0,1,.37-.374,1.412,1.412,0,0,1,.859-.2h.632a5.749,5.749,0,0,0,1.67-.445,3.643,3.643,0,0,1,1.554-.294,5.166,5.166,0,0,1,1.612.583,3.9,3.9,0,0,0,.753.272c.405.094.824.089,1.229.169a6,6,0,0,1,1.844.819,8.8,8.8,0,0,1,1.853,1.336,8.2,8.2,0,0,1,1.434,2.334,16.714,16.714,0,0,1,1.336,3.705c.361,1.844.183,3.839,1.038,5.513C342.564,245.99,343.041,247.157,341.62,247.767Z" transform="translate(-214.229 -142.687)" fill="#ecb773"/>
      <path id="Path_1023" data-name="Path 1023" d="M319.25,261.273s9.232-8.4,22.979-1.434C342.229,259.839,326.709,256.307,319.25,261.273Z" transform="translate(-214.433 -157.591)" opacity="0.1"/>
      <path id="Path_1024" data-name="Path 1024" d="M89.782,309.8c-1.256-2.057-3.144-3.941-2.85-6.275a18.351,18.351,0,0,0,9.9-1.91,81.816,81.816,0,0,0,9.071-5.233c1.167-.735,2.329-1.456,3.487-2.124,1.835-1.051,3.656-2.227,5.522-3.255a20.84,20.84,0,0,1,8.4-2.9,15.323,15.323,0,0,1,1.634-.04c3.7.071,7.526,1.064,10.777-.592l.2-.107c1.844-1.011,3.184-2.73,4.765-4.124a21.282,21.282,0,0,1,3.692-2.565c2.4-1.336,5-2.4,7.455-3.665a11.306,11.306,0,0,0,1.781-1.14l.419-.334.094-.08c.1-.085.2-.169.3-.258l.191-.169.2-.178.151-.143.245-.232.027-.031.387-.383.156-.156.272-.281.16-.16c.272-.281.543-.566.819-.842s.65-.65.984-.957h0l.321-.285.094-.08.258-.214.12-.1.254-.2.125-.1c.125-.094.254-.183.383-.272a2.79,2.79,0,0,1,.374-.218l-.833-2.017,2.4-.989,33.043,80.182-2.4.989-18.9-45.869-.134.134a37.942,37.942,0,0,1-15.627,9.3h-.036c-3.291.993-6.974,1.7-9.744,3.54a9.351,9.351,0,0,0-2.516,2.409c-.65.926-1.1,1.982-1.781,2.872-.129.165-.272.325-.414.477a15.486,15.486,0,0,1-2.672,2.12l-.423.289a86.6,86.6,0,0,1-8.951,5.518,35.312,35.312,0,0,1-5.562,2.316c-1.394.445-2.832.77-4.226,1.211a16.549,16.549,0,0,0-2.721,1.1A19.911,19.911,0,0,0,112.561,339c-1.5,1.808-2.926,3.723-4.574,5.371-1.033,1.024-2.605,2-3.852,1.394l-.254-.147c.04-.067.071-.134.107-.2.984-2.062-.227-4.609-1.857-6.261-.169-.174-.343-.343-.521-.5s-.5-.445-.753-.668a18.132,18.132,0,0,1-3.843-3.857,12.58,12.58,0,0,1-1.479-4.191c-.445-2.1-.744-4.257-1.884-6.043-.748-1.18-1.861-2.187-2.672-3.318a5.054,5.054,0,0,1-.98-2.289c-.183-1.447.49-2.863.744-4.306a5.375,5.375,0,0,0,.094-1.193A6.319,6.319,0,0,0,89.782,309.8Z" transform="translate(-85.556 -163.201)" fill="url(#linear-gradient-2)"/>
      <rect id="Rectangle_242" data-name="Rectangle 242" width="2.552" height="85.267" transform="translate(108.117 183.498) rotate(157.6)" fill="#d6d8e1"/>
      <path id="Path_1025" data-name="Path 1025" d="M95.6,327.914c1.118,1.759,1.416,3.879,1.848,5.941a12.514,12.514,0,0,0,1.456,4.124,17.92,17.92,0,0,0,3.776,3.79c.249.218.5.445.739.659.174.156.347.325.512.49,1.6,1.625,2.792,4.133,1.826,6.159a1.7,1.7,0,0,1-.1.2,2.035,2.035,0,0,0,.245.142c1.229.6,2.774-.356,3.79-1.367,1.621-1.621,3.024-3.5,4.5-5.277a19.5,19.5,0,0,1,5.789-5.144,16.028,16.028,0,0,1,2.672-1.078c1.367-.445,2.783-.762,4.155-1.189a34.972,34.972,0,0,0,5.469-2.276,85.739,85.739,0,0,0,8.818-5.429l.419-.285a15.3,15.3,0,0,0,2.627-2.08c.143-.151.281-.307.41-.472.686-.891,1.136-1.91,1.781-2.823a9.2,9.2,0,0,1,2.476-2.369c2.725-1.812,6.341-2.507,9.579-3.482h.036a37.381,37.381,0,0,0,15.364-9.143,2.5,2.5,0,0,0,.77-1.131,2.611,2.611,0,0,0-.525-1.8c-.379-.65-.748-1.3-1.113-1.959a87.507,87.507,0,0,1-4.391-9.232c-.281-.695-.552-1.385-.815-2.084q-1.011-2.672-1.844-5.42c-.183-.606-.361-1.216-.53-1.826-.031-.116-.067-.24-.1-.374-.739-2.97-1.728-9.922-4.774-7.842a17.623,17.623,0,0,0-2.516,2.187c-.592.6-1.171,1.22-1.781,1.817a18.013,18.013,0,0,1-1.572,1.376,11.549,11.549,0,0,1-1.781,1.122c-2.418,1.238-4.974,2.276-7.33,3.6a20.838,20.838,0,0,0-3.634,2.521c-1.554,1.372-2.872,3.064-4.685,4.057l-.2.107c-3.2,1.625-6.96.65-10.6.579a15.993,15.993,0,0,0-1.6.04A20.3,20.3,0,0,0,116.5,295.6c-1.835,1.015-3.625,2.164-5.429,3.2-1.14.655-2.28,1.363-3.429,2.089a78.443,78.443,0,0,1-8.907,5.148A18.3,18.3,0,0,1,89,307.91c-.289,2.293,1.563,4.146,2.8,6.168A6.123,6.123,0,0,1,92.85,317a5.17,5.17,0,0,1-.085,1.171c-.249,1.421-.891,2.81-.73,4.24a4.921,4.921,0,0,0,.957,2.24C93.767,325.763,94.858,326.756,95.6,327.914Z" transform="translate(-86.704 -167.507)" fill="#ecb773"/>
      <path id="Path_1026" data-name="Path 1026" d="M307.01,414.71a38.818,38.818,0,0,0,7.856,5.215c3.955,1.812,1.336,8.314,1.336,8.314a7.17,7.17,0,0,1-7.125-3.117C306.142,421.043,307.01,414.71,307.01,414.71Z" transform="translate(-207.577 -245.026)" fill="#fbbebe"/>
      <path id="Path_1027" data-name="Path 1027" d="M741.992,544.662s-10.332,13.6-18.9,13.707-13.6,5.727-9.535,9.236,48.425-2,48.425-2,.419-16.709-3.425-19.149S741.992,544.662,741.992,544.662Z" transform="translate(-432.346 -317.063)" fill="#444176"/>
      <path id="Path_1028" data-name="Path 1028" d="M1023.224,577.317s1.581,10.768-3.3,18.112,8.826,10.176,8.826,10.176,9.962,2.774,10.688-7.067.49-17.368-.445-18.169-1.714-6.337-1.714-6.337Z" transform="translate(-602.49 -333.396)" fill="#444176"/>
      <path id="Path_1029" data-name="Path 1029" d="M677.45,484.042s-.361-34.829,34.1-48.986l8-15.226,3.839-9.352a22.756,22.756,0,0,1,16.072-13.565l6.208-1.394,1.919-8.087a22.747,22.747,0,0,1,18.174-17.163,63.645,63.645,0,0,1,11.445-1.069,9.851,9.851,0,0,1,8.368,4.9h0s32.651-.361,34.1,17.417c0,0,3.269,16.321,7.985,19.225,0,0,7.98-1.812,15.961,9.8l8.706,29.748s22.854,21.4,15.961,40.97c0,0-9.432,13.422-57.318,4.351,0,0-51.151,15.587-78.378-5.789C732.59,489.844,687.247,498.55,677.45,484.042Z" transform="translate(-413.116 -219.783)" fill="#a8a8a8"/>
      <path id="Path_1030" data-name="Path 1030" d="M728.77,562.105s7.259-10.158,6.894-17.417,1.71-24.938,1.71-24.938" transform="translate(-441.582 -303.289)" fill="none" stroke="#000" stroke-miterlimit="10" stroke-width="1" opacity="0.1"/>
      <path id="Path_1031" data-name="Path 1031" d="M788.24,512.109s7.254-13.422,6.529-20.677c0,0,7.62-13.805,13.422-12.7" transform="translate(-474.568 -280.502)" fill="none" stroke="#000" stroke-miterlimit="10" stroke-width="1" opacity="0.1"/>
      <path id="Path_1032" data-name="Path 1032" d="M877.85,451.957S897.8,444.7,898.892,438.9" transform="translate(-524.272 -258.444)" fill="none" stroke="#000" stroke-miterlimit="10" stroke-width="1" opacity="0.1"/>
      <path id="Path_1033" data-name="Path 1033" d="M894.14,490.785s21.042-9.432,21.042-11.975H925.7s15.239,19.955,13.427,28.661" transform="translate(-533.308 -280.581)" fill="none" stroke="#000" stroke-miterlimit="10" stroke-width="1" opacity="0.1"/>
      <path id="Path_1034" data-name="Path 1034" d="M867.293,538.079s-20.316-1.452-27.575,4.355-20.316,8.706-20.316,8.706-7.62,16.326-10.523,19.225-7.62,13.062-7.62,13.062" transform="translate(-481.79 -313.366)" fill="none" stroke="#000" stroke-miterlimit="10" stroke-width="1" opacity="0.1"/>
      <path id="Path_1035" data-name="Path 1035" d="M949.54,581.46s2.173,7.615,5.077,11.97,7.254,19.951,7.254,19.951" transform="translate(-564.036 -337.518)" fill="none" stroke="#000" stroke-miterlimit="10" stroke-width="1" opacity="0.1"/>
      <path id="Path_1036" data-name="Path 1036" d="M1026.11,631.15s4.6,12.812,8.653,12.937" transform="translate(-606.507 -365.079)" fill="none" stroke="#000" stroke-miterlimit="10" stroke-width="1" opacity="0.1"/>
      <path id="Path_1037" data-name="Path 1037" d="M958.38,507.66s11.962,3.233,16.963,11.066,20.276,14.936,20.276,14.936" transform="translate(-568.94 -296.583)" fill="none" stroke="#000" stroke-miterlimit="10" stroke-width="1" opacity="0.1"/>
      <path id="Path_1038" data-name="Path 1038" d="M969.9,421s0,16.686,4.716,16.686,15.239,1.813,15.239,1.813" transform="translate(-575.329 -248.515)" fill="none" stroke="#000" stroke-miterlimit="10" stroke-width="1" opacity="0.1"/>
      <path id="Path_1039" data-name="Path 1039" d="M908.815,376.5s-1.207,28.826-7.375,36.29" transform="translate(-537.357 -223.832)" fill="none" stroke="#000" stroke-miterlimit="10" stroke-width="1" opacity="0.1"/>
      <g id="Group_372" data-name="Group 372" transform="translate(287.527 149.069)" opacity="0.05">
        <path id="Path_1040" data-name="Path 1040" d="M969.04,449.506l-8.706-29.748c-7.98-11.61-15.961-9.8-15.961-9.8-4.716-2.9-7.98-19.229-7.98-19.229-1.452-17.778-34.1-17.412-34.1-17.412h0a9.851,9.851,0,0,0-8.385-4.9c-1.541,0-3.117.049-4.694.178q1.336.134,2.561.379l2.538,4.355s32.647-.365,34.1,17.412c0,0,3.269,16.326,7.985,19.229,0,0,7.98-1.817,15.961,9.8l8.706,29.748s22.854,21.4,15.961,40.97c0,0-4.654,6.622-24.012,7.424,26.1.957,31.992-7.424,31.992-7.424C991.894,470.908,969.04,449.506,969.04,449.506Z" transform="translate(-818.1 -368.42)"/>
        <path id="Path_1041" data-name="Path 1041" d="M752.772,639.29a169.4,169.4,0,0,1-23.242,2.543,148.21,148.21,0,0,0,24.636-1.474C753.694,640,753.23,639.651,752.772,639.29Z" transform="translate(-729.53 -518.664)"/>
        <path id="Path_1042" data-name="Path 1042" d="M915.015,652.33a149,149,0,0,1-34.255,5.415c16.722.606,32.563-2.881,39.091-4.556C918.275,652.927,916.676,652.628,915.015,652.33Z" transform="translate(-813.413 -525.897)"/>
      </g>
      <path id="Path_1043" data-name="Path 1043" d="M306.73,772.673s9.98-.307,12.986-2.449,15.346-4.7,16.094-1.265,14.994,17.078,3.727,17.172-26.172-1.755-29.174-3.585S306.73,772.673,306.73,772.673Z" transform="translate(-207.488 -440.587)" fill="#a8a8a8"/>
      <path id="Path_1044" data-name="Path 1044" d="M339.742,791.655c-11.267.094-26.176-1.755-29.178-3.563-2.285-1.394-3.2-6.39-3.5-8.693h-.334s.632,8.047,3.634,9.873,17.911,3.674,29.174,3.585c3.255-.027,4.378-1.185,4.315-2.9C343.4,790.992,342.16,791.638,339.742,791.655Z" transform="translate(-207.488 -447.309)" opacity="0.2"/>
      <path id="Path_1045" data-name="Path 1045" d="M795.611,708.813s-11.752-2.351-14.883-5.486-17.234-8.613-18.8-4.7-21.149,17.234-7.833,19.594,31.333,3.117,35.252,1.568S795.611,708.813,795.611,708.813Z" transform="translate(-453.068 -401.754)" fill="#a8a8a8"/>
      <path id="Path_1046" data-name="Path 1046" d="M754.1,731c13.32,2.347,31.333,3.117,35.252,1.563,2.979-1.193,5.055-6.925,5.874-9.592l.392.085s-2.351,9.4-6.266,10.964-21.932.784-35.252-1.568c-3.843-.677-4.943-2.271-4.529-4.284C749.9,729.494,751.238,730.505,754.1,731Z" transform="translate(-453.072 -416.009)" opacity="0.2"/>
      <path id="Path_1047" data-name="Path 1047" d="M564.842,143.649h-2.8a1.959,1.959,0,1,0,0-3.919H539.387a1.959,1.959,0,1,0,0,3.919h2.8a1.959,1.959,0,0,0,0,3.914h-3.914a1.959,1.959,0,1,0,0,3.919h22.658a1.959,1.959,0,0,0,0-3.919h3.914a1.959,1.959,0,1,0,0-3.914Z" transform="translate(-334.83 -92.503)" fill="#258c93" opacity="0.1"/>
      <path id="Path_1048" data-name="Path 1048" d="M762.435,298.462h-2.8a1.959,1.959,0,0,0,0-3.914H736.957a1.959,1.959,0,1,0,0,3.914h2.8a1.959,1.959,0,0,0,0,3.914h-3.914a1.959,1.959,0,1,0,0,3.919h22.654a1.959,1.959,0,0,0,0-3.919h3.941a1.959,1.959,0,1,0,0-3.914Z" transform="translate(-444.416 -178.374)" fill="#258c93" opacity="0.1"/>
      <path id="Path_1049" data-name="Path 1049" d="M469.621,269.822h-2.8a1.959,1.959,0,1,0,0-3.914H444.162a1.959,1.959,0,1,0,0,3.914h2.8a1.959,1.959,0,1,0,0,3.914h-3.919a1.959,1.959,0,1,0,0,3.919H465.7a1.959,1.959,0,1,0,0-3.919h3.914a1.959,1.959,0,1,0,0-3.914Z" transform="translate(-282.008 -162.488)" fill="#258c93" opacity="0.1"/>
    </g>
  </g>
</svg>
