<svg xmlns="http://www.w3.org/2000/svg" width="610.5" height="560.423" viewBox="0 0 610.5 560.423">
  <g id="Group_296" data-name="Group 296" transform="translate(-1063 -3239)">
    <g id="Group_295" data-name="Group 295">
      <g id="Customer_Survey-rafiki" data-name="Customer Survey-rafiki" transform="translate(1006.89 3167.412)">
        <g id="background-simple--inject-92" transform="translate(60.312 71.588)">
          <path id="Path_174" data-name="Path 174" d="M298.428,232.93C348.3,196.72,361.8,127.181,416.157,95.757c47.8-27.63,133.174-34.935,181.585-4.03,53.969,34.447,59.416,103.7,27.646,156.049-34.951,57.59-103.324,64.548-158.883,91.942-97.342,48.065-297.929,213.324-390.06,60.234-28.59-47.514-27.236-149.327,39.831-163.732C180.745,222.492,228.165,283.892,298.428,232.93Z" transform="translate(-58.779 -71.588)" fill="#258c93"/>
          <path id="Path_175" data-name="Path 175" d="M298.428,232.93C348.3,196.72,361.8,127.181,416.157,95.757c47.8-27.63,133.174-34.935,181.585-4.03,53.969,34.447,59.416,103.7,27.646,156.049-34.951,57.59-103.324,64.548-158.883,91.942-97.342,48.065-297.929,213.324-390.06,60.234-28.59-47.514-27.236-149.327,39.831-163.732C180.745,222.492,228.165,283.892,298.428,232.93Z" transform="translate(-58.779 -71.588)" fill="#fff" opacity="0.9"/>
        </g>
        <g id="Shadow--inject-92" transform="translate(56.11 596.368)">
          <ellipse id="path--inject-92" cx="305.25" cy="17.822" rx="305.25" ry="17.822" fill="#f5f5f5"/>
        </g>
        <g id="Survey--inject-92" transform="translate(137.882 99.914)">
          <path id="Path_176" data-name="Path 176" d="M398.989,101.45H108.05l22.608,396.216H421.581Z" transform="translate(-108.05 -82.763)" fill="#263238"/>
          <path id="Path_177" data-name="Path 177" d="M402.579,101.45H111.64l22.608,396.216H425.187Z" transform="translate(-105.988 -82.763)" fill="#258c93"/>
          <path id="Path_178" data-name="Path 178" d="M377.685,109.91H120.09l18.467,358.652H402.843Z" transform="translate(-101.135 -77.904)" opacity="0.5"/>
          <path id="Path_179" data-name="Path 179" d="M120.09,109.91c19.144,119.556,6.014,239.112,25.19,358.652H409.534c-19.144-119.54-6.014-239.1-25.19-358.652Z" transform="translate(-101.135 -77.904)" fill="#fff"/>
          <g id="Group_69" data-name="Group 69" transform="translate(47.72 135.015)" opacity="0.3">
            <path id="Path_180" data-name="Path 180" d="M163.628,179.8A22.781,22.781,0,0,1,186.2,201.569a20.687,20.687,0,0,1-20.876,21.553,22.576,22.576,0,0,1-22.371-21.679,20.829,20.829,0,0,1,5.715-15.255,20.545,20.545,0,0,1,14.956-6.3m-.157-4.55a24.953,24.953,0,0,0-25.079,26.181,27.252,27.252,0,0,0,27,26.181,25.19,25.19,0,0,0,25.378-26.181A27.5,27.5,0,0,0,163.47,175.34Z" transform="translate(-138.361 -175.34)" fill="#258c93"/>
          </g>
          <path id="Path_181" data-name="Path 181" d="M279.29,302.92H195.85a4.392,4.392,0,0,0-4.44,4.88h0a5.526,5.526,0,0,0,5.368,4.9h83.44a4.361,4.361,0,0,0,4.408-4.9h0a5.5,5.5,0,0,0-5.337-4.88Z" transform="translate(-60.188 32.951)" fill="#e0e0e0"/>
          <path id="Path_182" data-name="Path 182" d="M324.563,289.87H194.806a4.455,4.455,0,0,0-4.518,4.88h0a5.353,5.353,0,0,0,5.258,4.9H325.24a4.455,4.455,0,0,0,4.566-4.849h0a5.337,5.337,0,0,0-5.243-4.928Z" transform="translate(-60.829 25.456)" fill="#e0e0e0"/>
          <g id="Group_70" data-name="Group 70" transform="translate(50.16 219.652)" opacity="0.3">
            <path id="Path_183" data-name="Path 183" d="M165.4,233.666a22.45,22.45,0,0,1,22.277,21.679,20.876,20.876,0,0,1-5.809,15.255,20.624,20.624,0,0,1-15.019,6.3,22.592,22.592,0,0,1-22.419-21.679,20.844,20.844,0,0,1,20.97-21.553m0-4.566h0a25.331,25.331,0,0,0-25.473,26.181,27.283,27.283,0,0,0,27.11,26.2,25.19,25.19,0,0,0,25.268-26.2A27.094,27.094,0,0,0,165.4,229.1Z" transform="translate(-139.911 -229.1)" fill="#258c93"/>
          </g>
          <path id="Path_184" data-name="Path 184" d="M235.933,192.057H191.3a5.117,5.117,0,0,1-5.069-4.9h0a4.723,4.723,0,0,1,4.723-4.88h44.617a5.148,5.148,0,0,1,5.1,4.88h0a4.723,4.723,0,0,1-4.739,4.9Z" transform="translate(-63.149 -36.338)" fill="#e0e0e0"/>
          <path id="Path_185" data-name="Path 185" d="M263.4,192.057H233.176a5.132,5.132,0,0,1-5.085-4.9h0a4.723,4.723,0,0,1,4.723-4.88h30.243a5.132,5.132,0,0,1,5.085,4.88h0a4.723,4.723,0,0,1-4.739,4.9Z" transform="translate(-39.106 -36.338)" fill="#e0e0e0"/>
          <path id="Path_186" data-name="Path 186" d="M311.552,205.107H191.745a5.085,5.085,0,0,1-5.054-4.9h0a4.723,4.723,0,0,1,4.723-4.88H311.206a5.069,5.069,0,0,1,5.038,4.88h0a4.723,4.723,0,0,1-4.691,4.9Z" transform="translate(-62.884 -28.843)" fill="#e0e0e0"/>
          <g id="Group_71" data-name="Group 71" transform="translate(54.444 304.301)" opacity="0.3">
            <path id="Path_187" data-name="Path 187" d="M167.251,287.422a23.867,23.867,0,0,1,23.3,21.694,19.915,19.915,0,0,1-4.9,15.24,19.223,19.223,0,0,1-14.578,6.3A24.308,24.308,0,0,1,147.3,308.974a19.648,19.648,0,0,1,5.132-15.255,19.931,19.931,0,0,1,14.815-6.3m-.22-4.55a23.93,23.93,0,0,0-24.292,26.181c1.212,14.452,14.327,26.181,28.779,26.181s24.812-11.729,23.615-26.181a28.716,28.716,0,0,0-28.086-26.181Z" transform="translate(-142.632 -282.867)" fill="#258c93"/>
          </g>
          <path id="Path_188" data-name="Path 188" d="M331.157,249.13H192.914a4.723,4.723,0,0,0-4.723,4.88h0a5.1,5.1,0,0,0,5.054,4.881H331.551a4.723,4.723,0,0,0,4.723-4.881h0a5.069,5.069,0,0,0-5.117-4.88Z" transform="translate(-62.023 2.057)" fill="#e0e0e0"/>
          <path id="Path_189" data-name="Path 189" d="M298.614,236.07H192.534a4.723,4.723,0,0,0-4.723,4.9h0a5.054,5.054,0,0,0,5.022,4.881h106.1a4.723,4.723,0,0,0,4.723-4.88h0a5.038,5.038,0,0,0-5.038-4.9Z" transform="translate(-62.241 -5.444)" fill="#e0e0e0"/>
          <path id="Path_190" data-name="Path 190" d="M162.271,214.982l-1.858-3.054c-4.078-6.659-12.595-12.595-15.523-14.342l2.2-3.9a60.2,60.2,0,0,1,15.24,13.162c6.691-8.99,16.468-18.231,29.708-28.212l2.85,3.684c-14.169,10.658-24.213,20.466-30.653,29.8C163.593,213.077,162.932,214.037,162.271,214.982Z" transform="translate(-86.891 -38.434)" fill="#258c93"/>
          <path id="Path_191" data-name="Path 191" d="M163.765,268.787c-.614-1.023-1.244-2.047-1.873-3.054-4.093-6.659-12.595-12.595-15.492-14.358l2.236-3.9A60.362,60.362,0,0,1,163.8,260.632c6.707-8.974,16.562-18.231,30.007-28.212l2.787,3.684c-14.358,10.658-24.465,20.466-30.873,29.8Z" transform="translate(-86.024 -7.54)" fill="#258c93"/>
          <path id="Path_192" data-name="Path 192" d="M167.58,322.7l-2.078-3.054c-4.534-6.66-13.319-12.595-16.342-14.342l2.047-3.9a66.2,66.2,0,0,1,15.885,13.146c6.171-8.974,15.555-18.231,28.59-28.2l2.944,3.684c-13.917,10.658-23.473,20.467-29.283,29.8Z" transform="translate(-84.439 23.434)" fill="#258c93"/>
          <path id="Path_205" data-name="Path 205" d="M212.782,132.84Z" transform="translate(-52.705 -65.073)" fill="#263238"/>
          <path id="Path_210" data-name="Path 210" d="M316.746,122.61c-4.912-10.343-16.373-17.192-28.732-17.192h-25.19a9.824,9.824,0,0,1-8.738-4.566c-3.511-6.581-11.886-11.272-21.4-11.272S215.373,94.3,212.6,100.852c-1.149,2.771-4.44,4.566-8.218,4.566h-25.19c-12.359,0-23.048,6.848-26.764,17.192a2.55,2.55,0,0,0-.157,1.134,3.149,3.149,0,0,0,3.149,2.991h158.82a2.818,2.818,0,0,0,2.5-4.125Zm-83.031-14.342a7.525,7.525,0,0,1-7.352-7.006,6.549,6.549,0,0,1,6.612-7.006,7.51,7.51,0,0,1,7.415,7.006,6.549,6.549,0,0,1-6.675,7.006Z" transform="translate(-82.656 -89.58)" fill="#263238"/>
          <text id="Simulator_Quiz" data-name="Simulator Quiz" transform="translate(255.228 94.675)" fill="#258c93" font-size="35" font-family="Kalameh-Black, Kalameh" font-weight="800"><tspan x="-190.082" y="0">Simulator Quiz</tspan></text>
        </g>
        <g id="Character--inject-92" transform="translate(405.268 136.596)">
          <path id="Path_211" data-name="Path 211" d="M361.783,410.126a5.037,5.037,0,0,1-3.5-.866,1.086,1.086,0,0,1-.11-1.2,1.165,1.165,0,0,1,.8-.645c1.858-.52,6.156,1.779,6.3,1.889a.268.268,0,0,1,.157.283.236.236,0,0,1-.189.221A20.342,20.342,0,0,1,361.783,410.126ZM359.7,407.89a1.752,1.752,0,0,0-.519,0,.708.708,0,0,0-.5.378.758.758,0,0,0,0,.614c.63.74,3.558.756,5.668.457a13.619,13.619,0,0,0-4.644-1.448Z" transform="translate(-231.852 56.243)" fill="#258c93"/>
          <path id="Path_212" data-name="Path 212" d="M364.286,410.814h-.11c-1.464-.63-4.518-3.149-4.455-4.44,0-.315.189-.693.945-.771a2.236,2.236,0,0,1,1.574.472,8.894,8.894,0,0,1,2.3,4.455.283.283,0,0,1,0,.252.268.268,0,0,1-.252.032Zm-3.353-4.723h-.157c-.488,0-.5.236-.5.3,0,.787,2.062,2.755,3.589,3.605a7.336,7.336,0,0,0-1.936-3.558,1.574,1.574,0,0,0-.992-.315Z" transform="translate(-230.892 55.24)" fill="#258c93"/>
          <path id="Path_213" data-name="Path 213" d="M376.412,418.515H364.84l-4.141-26.8h11.571Z" transform="translate(-230.328 47.271)" fill="#ffc3bd"/>
          <path id="Path_214" data-name="Path 214" d="M370.807,407.89H383.4a1.165,1.165,0,0,1,1.071.787l3.432,10.28A1.574,1.574,0,0,1,386.472,421c-4.566,0-11.178-.331-16.908-.331-6.691,0-6.093.362-13.949.362-4.723,0-6.6-4.8-4.723-5.243,8.832-1.968,9.855-2.188,17.129-7.006a4.865,4.865,0,0,1,2.787-.9Z" transform="translate(-236.374 56.558)" fill="#263238"/>
          <path id="Path_215" data-name="Path 215" d="M360.7,391.73l2.141,13.807h11.571l-2.141-13.807Z" transform="translate(-230.328 47.276)" opacity="0.2"/>
          <path id="Path_216" data-name="Path 216" d="M372.712,225.45l-7.872,7.95,12.06,4.266s4.723-6.486,1.4-10.926Z" transform="translate(-227.951 -48.226)" fill="#ffc3bd"/>
          <path id="Path_217" data-name="Path 217" d="M363.16,241.615l12.044,1.763,2.692-8.612-12.06-4.266Z" transform="translate(-228.915 -45.325)" fill="#ffc3bd"/>
          <path id="Path_218" data-name="Path 218" d="M380.394,163.27c1.023,2.2,1.842,4.078,2.661,6.124s1.574,4.015,2.362,6.03c1.5,4.046,2.834,8.171,4.078,12.343a130.367,130.367,0,0,1,3.149,12.831l.6,3.306.488,3.369c.173,1.118.283,2.283.378,3.432s.252,2.188.252,3.637V218.2l-.094,1.779-.173,1.685c-.2,2.267-.5,4.392-.787,6.549-.63,4.251-1.354,8.407-2.157,12.595-1.669,8.234-3.5,16.279-5.7,24.387l-14.342-2.834c.913-8,1.858-16.121,2.613-24.119.362-4,.756-7.982.976-11.886.094-1.921.2-3.873.2-5.715V216.7l-.11-1.039a23.61,23.61,0,0,0-.346-2.472c-.142-.882-.268-1.763-.472-2.661l-.583-2.692-.677-2.708c-.976-3.621-2.078-7.258-3.338-10.894s-2.661-7.258-4.141-10.847c-.724-1.81-1.48-3.605-2.267-5.369s-1.574-3.605-2.346-5.132Z" transform="translate(-230.374 -83.939)" fill="#263238"/>
          <path id="Path_219" data-name="Path 219" d="M338.65,221.87s1.921,88.541,7.116,123.807c5.416,36.682,25.19,154.742,25.19,154.742H390.54s-7.022-112.361-9.257-148.461c-2.44-39.359-1.9-130.088-1.9-130.088Z" transform="translate(-242.993 -50.282)" fill="#258c93"/>
          <path id="Path_220" data-name="Path 220" d="M356.181,393.84c-.094,0,2.015,8.139,2.015,8.139h23.836l-.173-7.258Z" transform="translate(-232.926 48.488)" fill="#263238"/>
          <ellipse id="Ellipse_19" data-name="Ellipse 19" cx="1.779" cy="1.165" rx="1.779" ry="1.165" transform="matrix(0.061, -0.998, 0.998, 0.061, 88.81, 29.689)" fill="#263238"/>
          <path id="Path_221" data-name="Path 221" d="M337.355,131.78a36.529,36.529,0,0,1-4.975,8.376,5.541,5.541,0,0,0,4.644.882Z" transform="translate(-246.594 -102.025)" fill="#ed847e"/>
          <path id="Path_222" data-name="Path 222" d="M340.064,128a.677.677,0,0,1-.346-.094,4.439,4.439,0,0,0-4.046-.756.567.567,0,0,1-.74-.331.583.583,0,0,1,.362-.74,5.589,5.589,0,0,1,5.132.882.582.582,0,0,1,.11.8.6.6,0,0,1-.472.236Z" transform="translate(-245.147 -105.456)" fill="#263238"/>
          <path id="Path_223" data-name="Path 223" d="M365.24,137.52c-1.952,8.47-4.156,23.977,1.574,29.613,0,0-2.613,8.58-18.341,8.58-17.318,0-7.95-8.58-7.95-8.58,9.446-2.251,9.525-9.241,8.108-15.822Z" transform="translate(-243.37 -98.728)" fill="#ffc3bd"/>
          <path id="Path_224" data-name="Path 224" d="M374.394,162.6c1.7-3.448,3.574-7.415,0-8.643-3.9-1.37-25.489-2.755-33.061-.2a7.872,7.872,0,0,0-5.683,9.572Z" transform="translate(-244.857 -90.225)" fill="#258c93"/>
          <path id="Path_225" data-name="Path 225" d="M375.982,158.946c9.966,4.6,15.035,39.453,15.035,39.453l-20.073,6.3a203.864,203.864,0,0,1-8.706-28.338C359.152,161.811,365.78,154.255,375.982,158.946Z" transform="translate(-229.883 -87.219)" fill="#263238"/>
          <path id="Path_226" data-name="Path 226" d="M298.745,195.8l-9.257-7.966-8.328,12.122s7.478,6,15.743,3.542Z" transform="translate(-276.012 -69.833)" fill="#ffc3bd"/>
          <path id="Path_227" data-name="Path 227" d="M279.165,185.38l-1.275,11.981,5.148,4,8.328-12.122Z" transform="translate(-277.89 -71.24)" fill="#ffc3bd"/>
          <path id="Path_228" data-name="Path 228" d="M369.361,135.783c-1.165,12.028-1.244,19.113-7.541,25.284a15.743,15.743,0,0,1-26.543-8.234c-2.2-10.8,0-28.653,12.012-33.439a15.885,15.885,0,0,1,22.072,16.389Z" transform="translate(-245.365 -109.885)" fill="#ffc3bd"/>
          <path id="Path_229" data-name="Path 229" d="M343.946,142.635c-1.055-8.313-.882-11.461,3.558-13.3-4.613-.913-8.612-1.039-10.517-3.731s-2.362-9.572,6.9-12.721c-.85,1.574,1.842,4.849,10.359,1.889s20.923-3.275,22.041,5.384c4.5-1.574,12.044,12.327,3.149,22.482-7.415,8.5-12.359,14.374-13.823,18.892a1.574,1.574,0,0,1-2.157.945c-3.07-1.433-8.564-.2-11.02.457a1.574,1.574,0,0,1-1.795-.8C349.047,158.851,344.749,149.5,343.946,142.635Z" transform="translate(-244.589 -112.88)" fill="#263238"/>
          <path id="Path_230" data-name="Path 230" d="M360.48,119.168s3.653-5.148,10.658-1.322a31.738,31.738,0,0,0-10.658,1.322Z" transform="translate(-230.455 -110.84)" fill="#263238"/>
          <path id="Path_231" data-name="Path 231" d="M360.86,122.184s5.085-3.149,1.118-9.084A22.874,22.874,0,0,1,360.86,122.184Z" transform="translate(-230.236 -112.754)" fill="#263238"/>
          <path id="Path_232" data-name="Path 232" d="M348.291,133.9a14.405,14.405,0,0,1-4.219,7.793c-2.913,2.755-5.432.8-5.51-2.739-.079-3.149,1.338-8.47,4.723-9.887S348.889,130.346,348.291,133.9Z" transform="translate(-243.046 -103.802)" fill="#ffc3bd"/>
          <path id="Path_233" data-name="Path 233" d="M339.68,253.12c1.134,26.417,2.913,57.086,5.494,74.608.992,6.675,2.44,16.027,4.172,26.874C356.305,316.629,360.461,267.7,339.68,253.12Z" transform="translate(-242.401 -32.334)" opacity="0.3"/>
          <path id="Path_234" data-name="Path 234" d="M335.466,410.126c-1.48,0-2.913-.2-3.369-.866a1.071,1.071,0,0,1,0-1.2,1.575,1.575,0,0,1,.9-.646c1.936-.519,5.9,1.779,6.077,1.889a.236.236,0,0,1,.11.283.283.283,0,0,1-.22.22,21.145,21.145,0,0,1-3.495.315Zm-1.747-2.236a1.858,1.858,0,0,0-.535,0,.834.834,0,0,0-.551.378c-.2.346-.142.519-.079.614.519.74,3.432.756,5.6.457a11.981,11.981,0,0,0-4.44-1.448Z" transform="translate(-246.862 56.243)" fill="#258c93"/>
          <path id="Path_235" data-name="Path 235" d="M337.831,410.817h-.11c-1.37-.63-4.062-3.149-3.794-4.44,0-.315.283-.693,1.039-.771a2.031,2.031,0,0,1,1.574.472c1.433,1.212,1.574,4.329,1.574,4.455a.331.331,0,0,1-.126.252A.3.3,0,0,1,337.831,410.817Zm-2.661-4.723h-.157c-.5,0-.535.236-.551.3-.157.787,1.653,2.755,3.054,3.605a6.3,6.3,0,0,0-1.4-3.558,1.449,1.449,0,0,0-.945-.315Z" transform="translate(-245.716 55.237)" fill="#258c93"/>
          <path id="Path_236" data-name="Path 236" d="M348.776,418.515H337.22l-.22-26.8h11.571Z" transform="translate(-243.94 47.271)" fill="#ffc3bd"/>
          <path id="Path_237" data-name="Path 237" d="M347.533,407.89h12.595a.945.945,0,0,1,.945.787l1.936,10.28A1.748,1.748,0,0,1,361.262,421c-4.55,0-11.131-.331-16.846-.331-6.707,0-12.5.362-20.356.362-4.723,0-5.888-4.8-3.889-5.243,9.115-1.968,16.515-2.188,24.5-7.006a5.62,5.62,0,0,1,2.865-.9Z" transform="translate(-254.143 56.558)" fill="#263238"/>
          <path id="Path_238" data-name="Path 238" d="M337.01,391.73l.094,13.807h11.571l-.094-13.807Z" transform="translate(-243.935 47.276)" opacity="0.2"/>
          <path id="Path_239" data-name="Path 239" d="M327.229,221.87s-4.723,86.479-4.629,121.744c0,36.682,18.577,156.8,18.577,156.8h19.585s-5.1-117.982-2.9-153.971c2.346-39.359,13.713-124.547,13.713-124.547Z" transform="translate(-252.212 -50.282)" fill="#258c93"/>
          <path id="Path_240" data-name="Path 240" d="M332.182,393.84c-.094,0,.8,8.139.8,8.139h23.836l.913-7.258Z" transform="translate(-246.711 48.488)" fill="#263238"/>
          <path id="Path_241" data-name="Path 241" d="M333.07,159.68s-19.711,49.8-11.131,135.866h71.979c.756-9.446-6.77-91.721,3.967-136.464a159.583,159.583,0,0,0-20.624-2.613,228.734,228.734,0,0,0-26.292,0,117.826,117.826,0,0,0-17.9,3.212Z" transform="translate(-253.833 -88.063)" fill="#263238"/>
          <path id="Path_242" data-name="Path 242" d="M322.669,193.6c-1.071,7.872-1.952,16.861-2.519,26.764,13.98-12.847,18.766-44.853,18.766-44.853Z" transform="translate(-253.618 -76.909)" opacity="0.2"/>
          <path id="Path_243" data-name="Path 243" d="M358.822,176.129c-2.834,7.368-5.7,14.468-8.848,21.6S343.566,211.9,339.9,218.952l-1.433,2.629-.724,1.322c-.3.535-.268.567-1.086,1.936a15.4,15.4,0,0,1-5.683,5.29,16.94,16.94,0,0,1-6.156,1.858,25.914,25.914,0,0,1-8.816-.708,48.81,48.81,0,0,1-6.675-2.173,86.826,86.826,0,0,1-11.288-5.668c-1.779-1.023-3.479-2.125-5.164-3.149s-3.212-2.33-5.022-3.589l8.5-13.036a110.618,110.618,0,0,0,19.128,8.3,28.878,28.878,0,0,0,4.3.976,6.046,6.046,0,0,0,2.519,0c.094,0-.2-.094-.724.173A4.235,4.235,0,0,0,320,214.5c-.331.551.094-.268.236-.583l.567-1.244,1.134-2.472c2.991-6.675,5.762-13.587,8.454-20.466s5.306-14.059,7.714-21Z" transform="translate(-272.17 -80.803)" fill="#263238"/>
          <path id="Path_244" data-name="Path 244" d="M351.707,163.867c3.684,10.3-22.387,51.749-22.387,51.749L313.86,200.3s3.952-13.02,9.163-28.7C328.155,156.185,348.2,154.028,351.707,163.867Z" transform="translate(-257.231 -87.024)" fill="#263238"/>
        </g>
      </g>
    </g>
  </g>
</svg>
