<svg xmlns="http://www.w3.org/2000/svg" width="441.986" height="241.17" viewBox="0 0 441.986 241.17">
  <g id="undraw_teacher_35j2_1_" data-name="undraw_teacher_35j2 (1)" transform="translate(0 -0.035)">
    <path id="Path_788" data-name="Path 788" d="M462.3,360.036A72.465,72.465,0,0,1,456,372.165a52.2,52.2,0,0,1-3.82,5.254.268.268,0,0,1-.042.046H25l.058-.046c.384-.3,2.64-2.125,6.149-5.254,2.517-2.241,5.677-5.154,9.224-8.659,29.014-28.537,84.747-96.085,38.33-157.963-43.15-57.524,3.309-67.962,33.956-69.181a87.556,87.556,0,0,1,34.537,5.646A306.847,306.847,0,0,0,221,159.419c1.107.123,2.221.246,3.351.357a322.885,322.885,0,0,0,53.723.976h0c.527-.031,1.057-.069,1.591-.108a319.234,319.234,0,0,0,52.547-8.129c1.118-.273,2.221-.53,3.321-.788,57.508-13.306,110.524,32.042,97.268,83.29-4.9,18.956-3.655,39.16,12.683,55.506C472.239,317.2,469,343.482,462.3,360.036Z" transform="translate(-25 -136.26)" fill="#248b93" opacity="0.1"/>
    <path id="Path_789" data-name="Path 789" d="M462.4,708.072a72.469,72.469,0,0,1-6.307,12.13,52.2,52.2,0,0,1-3.82,5.254H25.15c.384-.3,2.64-2.125,6.149-5.254,2.517-2.241,5.677-5.154,9.224-8.659l45.017-9.3a8.755,8.755,0,0,1,1.768-.181l47.992-.069h.05l23.771-.031h.054l20.062-.023h26.585l55.122-.077h23.717l9.466-.108h3.129l27.534-.038h13.021l31.8-.042h9.47l30.124-.042,25.428-.031a9.014,9.014,0,0,1,2.1.25Z" transform="translate(-25.092 -484.297)" fill="#16666c"/>
    <path id="Path_790" data-name="Path 790" d="M31.3,750H456.089a52.21,52.21,0,0,1-3.82,5.254H25.15C25.527,754.935,27.783,753.109,31.3,750Z" transform="translate(-25.092 -514.095)" fill="none"/>
    <path id="Path_791" data-name="Path 791" d="M31.3,750H456.089a52.21,52.21,0,0,1-3.82,5.254H25.15C25.527,754.935,27.783,753.109,31.3,750Z" transform="translate(-25.092 -514.095)" fill="#22868d" opacity="0.4"/>
    <path id="Path_792" data-name="Path 792" d="M582.161,262.1l-.853.165-38.572,7.41c-11.2,2.152-22.568,4.316-33.949,3.49-8.244-.6-15.946-3.044-23.867-5.189-4.478-1.214-9.224-1.7-10.742-6.711-2.095-6.918,1.314-17.161,2.118-24.171.769-6.88,1.222-13.932-.146-20.731a36.857,36.857,0,0,0-1.2-4.512c-1.372-4.07-3.528-8.3-2.364-12.433.919-3.278,3.72-5.619,6.342-7.787,5.135-4.228,10.377-8.967,12.414-15.3,1-3.075,1.188-6.384,2.264-9.436,2.041-5.8,7.168-10.143,12.871-12.441s11.976-2.786,18.129-2.786a122.814,122.814,0,0,1,16.239,1.079c5.879.77,11.806,2.034,16.968,4.947s9.512,7.687,10.715,13.506c1.7,8.229-3.025,16.992-.488,24.982,1.276,4.039,4.228,7.3,6.276,11a26.2,26.2,0,0,1,1.922,20.37c-2.452,7.6-8.455,15.285-5.381,22.653,1.956,4.685,6.953,7.187,10.435,10.9Q581.758,261.6,582.161,262.1Z" transform="translate(-300.357 -145.719)" fill="#22868d"/>
    <path id="Path_793" data-name="Path 793" d="M583.316,335.832v1.134l-38.572,7.41c-11.2,2.152-22.568,4.316-33.949,3.49-8.244-.6-15.946-3.044-23.867-5.189-4.478-1.214-9.224-1.7-10.742-6.711-2.095-6.918,1.314-17.161,2.118-24.171.769-6.88,12.6-32,11.234-38.8l70.718,3.075c.477,3.755,19.167,22.6,18,26.2-2.452,7.6-8.455,15.285-5.381,22.653C574.838,329.617,579.834,332.119,583.316,335.832Z" transform="translate(-302.365 -220.424)" opacity="0.1"/>
    <path id="Path_794" data-name="Path 794" d="M531.186,350.8c.419,2.379.642,5-.573,7.072-1.618,2.783-5.146,3.67-8.3,4.3l-10.954,2.191a4.251,4.251,0,0,0-2.095.83,3.663,3.663,0,0,0-.976,2.394c-.442,3.966.961,7.875,2.241,11.653,2.587,7.652,4.758,15.466,8.029,22.849s7.76,14.432,14.167,19.367,14.885,7.564,22.73,5.634c6.833-1.68,12.437-6.5,17.268-11.619,3.986-4.228,7.714-8.84,9.647-14.324a51.006,51.006,0,0,0,2.187-11.753l1.945-18.279c.3-2.859.5-6.076-1.353-8.271a9.852,9.852,0,0,0-3.052-2.2c-4.2-2.233-8.632-4.078-12.545-6.768s-7.383-6.4-8.571-10.992c-.711-2.76-.584-5.765-1.795-8.336a11.256,11.256,0,0,0-7.3-5.692,24.907,24.907,0,0,0-9.485-.384c-3.167.357-15.373,1.272-16.684,4.843-.7,1.922,2.214,6.046,2.906,7.937A55.418,55.418,0,0,1,531.186,350.8Z" transform="translate(-322.49 -254.408)" fill="#efb7b9"/>
    <path id="Path_795" data-name="Path 795" d="M531.186,350.8c.419,2.379.642,5-.573,7.072-1.618,2.783-5.146,3.67-8.3,4.3l-10.954,2.191a4.251,4.251,0,0,0-2.095.83,3.663,3.663,0,0,0-.976,2.394c-.442,3.966.961,7.875,2.241,11.653,2.587,7.652,4.758,15.466,8.029,22.849s7.76,14.432,14.167,19.367,14.885,7.564,22.73,5.634c6.833-1.68,12.437-6.5,17.268-11.619,3.986-4.228,7.714-8.84,9.647-14.324a51.006,51.006,0,0,0,2.187-11.753l1.945-18.279c.3-2.859.5-6.076-1.353-8.271a9.852,9.852,0,0,0-3.052-2.2c-4.2-2.233-8.632-4.078-12.545-6.768s-7.383-6.4-8.571-10.992c-.711-2.76-.584-5.765-1.795-8.336a11.256,11.256,0,0,0-7.3-5.692,24.907,24.907,0,0,0-9.485-.384c-3.167.357-15.373,1.272-16.684,4.843-.7,1.922,2.214,6.046,2.906,7.937A55.418,55.418,0,0,1,531.186,350.8Z" transform="translate(-322.49 -254.408)" opacity="0"/>
    <path id="Path_796" data-name="Path 796" d="M549.54,435.3l6.422-13.6c3.009-6.372,6.084-13.068,5.765-20.1-.062-1.4-.077-3.148,1.153-3.782a3.3,3.3,0,0,1,1.687-.215,68.254,68.254,0,0,1,19.8,4,7.854,7.854,0,0,1,3.363,1.945,8.027,8.027,0,0,1,1.51,3.574,104.36,104.36,0,0,1,2.2,13.018c1.153,10.846.58,21.788,0,32.669l-1.706,33.218a3.175,3.175,0,0,1-.281,1.368,2.954,2.954,0,0,1-2.233,1.172,48.481,48.481,0,0,1-10.02.323c-23.521-.892-47.166-2.26-70.534.592q.158-5.185-.165-10.377c-.926-14.947-4.8-29.529-8.605-44.011-2.218-8.455-4.366-17.68-.8-25.647a10.988,10.988,0,0,1,2.225-3.39,12.645,12.645,0,0,1,5.642-2.833A35.908,35.908,0,0,1,515.842,402l24.232,52.758c1.107,2.414,2.018,4.954,3.121,7.337.992-4.116-.2-8.94.992-13.4A84.392,84.392,0,0,1,549.54,435.3Z" transform="translate(-314.483 -297.119)" fill="#fff"/>
    <path id="Path_797" data-name="Path 797" d="M502.595,470.151c4.335.273,8.548-1.949,11.53-5.089s4.95-7.122,6.614-11.146a109.924,109.924,0,0,0,5.684-17.722c1.153-5.15,1.972-10.481,1.176-15.7-1.1-7.206-5.177-13.755-5.873-21.012-.119-1.268-.042-2.752.976-3.517a4.055,4.055,0,0,1,2.245-.584c7.249-.43,15.212-.35,20.827,4.251,1.71,1.4,3.1,3.148,4.77,4.589,3.982,3.459,9.608,5.219,12.164,9.812a34.039,34.039,0,0,1,1.941,5.131c1.468,4.074,4.009,7.656,6.534,11.18-2.448,10.331-5.262,20.67-7.71,31a135.568,135.568,0,0,1-5.131,17.949c-1.476,3.8-3.332,7.687-2.879,11.761a26.858,26.858,0,0,0,1.18,4.681,53.807,53.807,0,0,1,2.264,16.73l-109.667.269c5.254-7.533,6.8-16.772,6.261-25.939a28.344,28.344,0,0,0-3.459-12.614c-3.482-5.957-9.608-9.839-15.646-13.164-4.228-2.306-8.767,10.669-13.336,9.182.738-5.219,1.076-25.366.769-30.62a14.031,14.031,0,0,1,.277-5.135c.361-1.126,1.026-2.133,1.476-3.228,1.8-4.385.085-9.993,3-13.725,2.014-2.594,5.546-3.332,8.417-4.931,2.948-1.645,5.227-4.228,7.794-6.434a34.664,34.664,0,0,1,17.741-7.921,22.345,22.345,0,0,1,3.386,9.993c.2,2.233.054,4.5.365,6.718a33.08,33.08,0,0,0,2.906,8.617c5.139,11.6,10.3,23.241,16.807,34.137a36.159,36.159,0,0,0,6.511,8.544A14.878,14.878,0,0,0,502.595,470.151Z" transform="translate(-270.07 -295.667)" fill="#248b93"/>
    <path id="Path_798" data-name="Path 798" d="M502.595,470.151c4.335.273,8.548-1.949,11.53-5.089s4.95-7.122,6.614-11.146a109.924,109.924,0,0,0,5.684-17.722c1.153-5.15,1.972-10.481,1.176-15.7-1.1-7.206-5.177-13.755-5.873-21.012-.119-1.268-.042-2.752.976-3.517a4.055,4.055,0,0,1,2.245-.584c7.249-.43,15.212-.35,20.827,4.251,1.71,1.4,3.1,3.148,4.77,4.589,3.982,3.459,9.608,5.219,12.164,9.812a34.039,34.039,0,0,1,1.941,5.131c1.468,4.074,4.009,7.656,6.534,11.18-2.448,10.331-5.262,20.67-7.71,31a135.568,135.568,0,0,1-5.131,17.949c-1.476,3.8-3.332,7.687-2.879,11.761a26.858,26.858,0,0,0,1.18,4.681,53.807,53.807,0,0,1,2.264,16.73l-109.667.269c5.254-7.533,6.8-16.772,6.261-25.939a28.344,28.344,0,0,0-3.459-12.614c-3.482-5.957-9.608-9.839-15.646-13.164-4.228-2.306-8.767,10.669-13.336,9.182.738-5.219,1.076-25.366.769-30.62a14.031,14.031,0,0,1,.277-5.135c.361-1.126,1.026-2.133,1.476-3.228,1.8-4.385.085-9.993,3-13.725,2.014-2.594,5.546-3.332,8.417-4.931,2.948-1.645,5.227-4.228,7.794-6.434a34.664,34.664,0,0,1,17.741-7.921,22.345,22.345,0,0,1,3.386,9.993c.2,2.233.054,4.5.365,6.718a33.08,33.08,0,0,0,2.906,8.617c5.139,11.6,10.3,23.241,16.807,34.137a36.159,36.159,0,0,0,6.511,8.544A14.878,14.878,0,0,0,502.595,470.151Z" transform="translate(-270.07 -295.667)" opacity="0.1"/>
    <circle id="Ellipse_112" data-name="Ellipse 112" cx="32.945" cy="32.945" r="32.945" transform="translate(193.779 29.627)" fill="#efb7b9"/>
    <path id="Path_799" data-name="Path 799" d="M528.116,265.352c.9-8.525-2.64-16.865-6.653-24.44-1.922-3.62-3.982-7.229-4.946-11.207s-.688-8.482,1.779-11.753c2.1-2.783,5.427-4.285,8.505-5.919,8.69-4.612,16.634-11.392,20.454-20.458-2.16,1.176-1.6,4.685.307,6.234s4.5,1.849,6.849,2.587c8.548,2.69,13.675,11.215,17.787,19.178a9.166,9.166,0,0,1,1.349,4.135,8.389,8.389,0,0,1-1.376,4.009c-2.029,3.613-4.512,7.083-5.435,11.123-1.057,4.612.058,9.462,1.507,13.986,1.537,4.812,3.578,9.662,7.268,13.114s9.412,5.165,13.951,2.936c-4.531-7.791-9.224-16.5-7.456-25.328.853-4.228,3.148-8.071,4.124-12.276,1.86-8.021-1.238-16.273-4.278-23.929L572.768,184.5c-1.387-3.494-2.967-7.222-6.149-9.2-2.152-1.334-4.758-1.68-7.279-1.922-8.117-.723-16.527-.484-24.083,2.537-13.767,5.5-22.4,19.059-29.248,32.211-2.052,3.939-4.078,8.125-3.993,12.568a34.874,34.874,0,0,0,1.28,7.183c2.252,9.67,2.375,19.69,2.491,29.617.088,7.618-.307,14.8-3.64,21.734,4.566.907,11.188,3.355,15.708,1.564C523.746,278.458,527.374,271.283,528.116,265.352Z" transform="translate(-318.679 -158.876)" fill="#22868d"/>
    <g id="Group_320" data-name="Group 320" transform="translate(183.316 32.091)" opacity="0.1">
      <path id="Path_800" data-name="Path 800" d="M505.738,330.5q.023-1.626,0-3.282c-.115-9.927-.238-19.947-2.491-29.617a49.976,49.976,0,0,1-1.176-5.719,14.941,14.941,0,0,0-.1,1.995,34.872,34.872,0,0,0,1.28,7.183C505.488,310.67,505.626,320.628,505.738,330.5Z" transform="translate(-501.966 -264.138)"/>
      <path id="Path_801" data-name="Path 801" d="M713.661,313.6a23.255,23.255,0,0,0,.5-6.849,21.35,21.35,0,0,1-.5,3.39c-.976,4.228-3.271,8.036-4.124,12.276a20.371,20.371,0,0,0-.307,5.68,20.141,20.141,0,0,1,.307-2.221C710.39,321.635,712.685,317.811,713.661,313.6Z" transform="translate(-629.524 -273.293)"/>
      <path id="Path_802" data-name="Path 802" d="M595.656,250.678a5.539,5.539,0,0,0,.3-1.695,9.261,9.261,0,0,0-1.349-4.135c-4.112-7.963-9.224-16.48-17.787-19.178-2.344-.738-4.939-1.038-6.849-2.587a4.874,4.874,0,0,1-1.683-3.382c-4.166,7.648-11.323,13.5-19.078,17.607-3.075,1.633-6.407,3.136-8.505,5.919a13.11,13.11,0,0,0-2.2,9.3,11.764,11.764,0,0,1,2.2-5.846c2.1-2.783,5.427-4.285,8.505-5.919,7.756-4.109,14.912-9.958,19.079-17.607a4.873,4.873,0,0,0,1.683,3.382c1.922,1.537,4.5,1.849,6.849,2.587,8.548,2.69,13.675,11.215,17.787,19.178A15.143,15.143,0,0,1,595.656,250.678Z" transform="translate(-524.402 -219.7)"/>
      <path id="Path_803" data-name="Path 803" d="M678.533,371.4c-3.69-3.459-5.723-8.3-7.268-13.114a37.96,37.96,0,0,1-1.845-8.344c-.357,3.947.623,7.987,1.845,11.8,1.537,4.812,3.578,9.662,7.268,13.114s9.412,5.165,13.952,2.936c-.546-.934-1.088-1.883-1.626-2.84C686.643,376.14,681.8,374.449,678.533,371.4Z" transform="translate(-605.016 -299.884)"/>
      <path id="Path_804" data-name="Path 804" d="M528.305,402.627c-.742,5.93-4.37,13.106-10.277,15.45-4.1,1.626-9.939-.242-14.393-1.276a33.293,33.293,0,0,1-1.314,3.171c4.566.907,11.188,3.355,15.708,1.564,5.907-2.344,9.535-9.52,10.277-15.45a26.7,26.7,0,0,0,.085-4.466C528.367,401.954,528.332,402.293,528.305,402.627Z" transform="translate(-502.184 -331.701)"/>
    </g>
    <path id="Path_805" data-name="Path 805" d="M647.493,649.062c-5.938-.942-11.964-2.76-17.852-1.537a24.817,24.817,0,0,0-9.37,4.458c1.56,1.249,3.382,2.364,4.374,4.1a16.142,16.142,0,0,1,1.376,3.793,32.279,32.279,0,0,1,1.345,7.056,10.741,10.741,0,0,1-1.814,6.83c7.487.738,14.743-1.107,22.046-2.909a6.037,6.037,0,0,0,2.333-.942,5.008,5.008,0,0,0,1.5-3.993,27.344,27.344,0,0,0-1.487-7.714C649.049,655.181,648.388,652.068,647.493,649.062Z" transform="translate(-391.485 -450.753)" fill="#fff"/>
    <path id="Path_806" data-name="Path 806" d="M723,483.117c2.948.384,5.235,2.763,6.918,5.208,4.724,6.8,6.761,15.051,9.028,23.018a306.346,306.346,0,0,0,9.943,29.256,44.011,44.011,0,0,0,2.983,6.418,17.953,17.953,0,0,1,2.521,4.916c1.015,4.358-2.579,8.455-6.326,10.884a25.04,25.04,0,0,1-6.476,3.121,38.577,38.577,0,0,1-6.887,1.176l-21.335,2.306c-9.82,1.068-19.728,2.137-29.552,1.107-.619-2.152.6-3.674.507-5.915a13.213,13.213,0,0,0-1.4-4.57,29.206,29.206,0,0,1-2.279-8.267,11.209,11.209,0,0,0-.55-3.1,2.907,2.907,0,0,0-2.306-1.922c5.765-.573,10.143-1.66,15.908-2.237a14.2,14.2,0,0,0,6.192-1.6c2.264-1.41,3.532-3.955,4.539-6.422,2.494-6.111,4.1-12.845,2.79-19.317-1.076-5.308-4.078-10.25-4.062-15.666a23.44,23.44,0,0,1,2.4-9.3c1.376-3.121,3.171-6.311,6.192-7.894S719.591,482.656,723,483.117Z" transform="translate(-426.898 -349.634)" fill="#248b93"/>
    <path id="Path_807" data-name="Path 807" d="M723,483.117c2.948.384,5.235,2.763,6.918,5.208,4.724,6.8,6.761,15.051,9.028,23.018a306.346,306.346,0,0,0,9.943,29.256,44.011,44.011,0,0,0,2.983,6.418,17.953,17.953,0,0,1,2.521,4.916c1.015,4.358-2.579,8.455-6.326,10.884a25.04,25.04,0,0,1-6.476,3.121,38.577,38.577,0,0,1-6.887,1.176l-21.335,2.306c-9.82,1.068-19.728,2.137-29.552,1.107-.619-2.152.6-3.674.507-5.915a13.213,13.213,0,0,0-1.4-4.57,29.206,29.206,0,0,1-2.279-8.267,11.209,11.209,0,0,0-.55-3.1,2.907,2.907,0,0,0-2.306-1.922c5.765-.573,10.143-1.66,15.908-2.237a14.2,14.2,0,0,0,6.192-1.6c2.264-1.41,3.532-3.955,4.539-6.422,2.494-6.111,4.1-12.845,2.79-19.317-1.076-5.308-4.078-10.25-4.062-15.666a23.44,23.44,0,0,1,2.4-9.3c1.376-3.121,3.171-6.311,6.192-7.894S719.591,482.656,723,483.117Z" transform="translate(-426.898 -349.634)" opacity="0.08"/>
    <path id="Path_808" data-name="Path 808" d="M443.165,375.123c1.4-3.313,2.813-6.734,2.852-10.327.042-3.886-1.537-7.575-2.744-11.265a65.141,65.141,0,0,1-2.963-13.909,1.922,1.922,0,0,1,.192-1.334,2.291,2.291,0,0,1,1.476-.661c2.66-.607,4.67-2.756,6.33-4.92a53.939,53.939,0,0,0,6.48-10.823c1.272-2.833,2.994-6.288,6.1-6.315a176.169,176.169,0,0,1-4.643,17.391c3.248-.83,6.334-2.037,9.582-2.867a5.738,5.738,0,0,1,1.968-.261,2.97,2.97,0,0,1,2.006,4.431c1.587,1.86,4.228,2.36,6.3,3.636s3.567,4.435,1.722,6.038a5.147,5.147,0,0,0-1.08.93c-.892,1.376,1.291,2.956,1.111,4.585-.146,1.334-1.856,1.956-3.152,1.6a14.183,14.183,0,0,1-3.459-2.033c-1.153-.711-2.66-1.153-3.778-.415-.3,3.617-.623,7.3-2.187,10.6-.573,1.2-1.307,2.329-1.768,3.578a17.635,17.635,0,0,0-.815,4.2l-1.4,12.756C454.645,381.073,448.676,379.078,443.165,375.123Z" transform="translate(-280.663 -246.633)" fill="#efb7b9"/>
    <path id="Path_809" data-name="Path 809" d="M441.3,474.886l-1.226-8.3a10.132,10.132,0,0,1,1.468-7.548c6.784,3.167,14.117,4.293,21.6,4.3a3.373,3.373,0,0,0,2.729-.865c1.272,1.464,1.311,3.82.769,5.68s-1.583,3.536-2.275,5.35a7.627,7.627,0,0,1-1.3,2.629c-1.038,1.118-2.721,1.311-4.251,1.3a27.18,27.18,0,0,1-4.8-.457C449.919,476.216,445.4,474.152,441.3,474.886Z" transform="translate(-280.426 -334.962)" fill="#fff"/>
    <path id="Path_810" data-name="Path 810" d="M449.527,492.993q-7.9-.9-15.693-2.537a31.739,31.739,0,0,0-7.717-1.026c-1.691.069-3.509.407-5-.43a24.055,24.055,0,0,1-.2,14.966c-1.026,2.883-2.59,5.569-3.344,8.536-1.568,6.207.584,12.975-1.376,19.071a4.827,4.827,0,0,1-1.184,2.122c-.6.55-1.418.834-1.972,1.43a4.88,4.88,0,0,0-.869,3.39l-.035,10.589c-.023,6.741.065,13.89,3.624,19.6a18.611,18.611,0,0,0,20.039,7.933,14.9,14.9,0,0,0,5.442-2.663c2.583-2.052,4.228-5.019,5.838-7.91,1.922-3.459,3.843-6.995,4.462-10.888a30.94,30.94,0,0,0-.123-8.34c-1.737-15.374-5.508-30.616-4.7-46.048a13.955,13.955,0,0,1,2.794-7.794Z" transform="translate(-263.35 -353.407)" fill="#248b93"/>
    <path id="Path_811" data-name="Path 811" d="M492.207,662.649a46.583,46.583,0,0,1-8.021,0c-1.922-.231-3.8-.7-5.7-1.026a36.554,36.554,0,0,0-29.436,8.179c-1.476,1.261-2.967,3.194-2.152,4.958.876,1.9,3.555,1.845,5.619,1.491a16.911,16.911,0,0,0-5.765,4.508,3.4,3.4,0,0,0-1.011,2.448c.234,1.9,2.817,2.248,4.727,2.083a1.591,1.591,0,0,0,.588,2.306,3.944,3.944,0,0,0,2.671.2,19.8,19.8,0,0,0,5.673-1.964,2.162,2.162,0,0,0,1.153,2.513,4.749,4.749,0,0,0,2.963.273c4.7-.769,8.617-4.036,13.2-5.319,7.325-2.049,14.989,1.218,22.6,1.449a15.77,15.77,0,0,0,7-1.153c2.663-1.211,4.812-3.482,7.625-4.289,3.125-.892,6.711.134,9.57-1.407,2.079-1.118.2-9.739-.327-11.4-.972-3.036-1.949-5.05-5.189-5.358C509.794,660.336,500.466,662.173,492.207,662.649Z" transform="translate(-284.023 -459.263)" fill="#efb7b9"/>
    <path id="Path_812" data-name="Path 812" d="M619.88,656.974s12.41,10.5,5.25,21.965l13.836-4.777V664.134c0-.477-5.254-7.637-5.254-7.637l-6.207-.957Z" transform="translate(-391.245 -455.939)" fill="#fff"/>
    <path id="Path_813" data-name="Path 813" d="M241.4,521.32h4.654a9.608,9.608,0,0,1,9.608,9.608v14.263H231.79V530.928A9.608,9.608,0,0,1,241.4,521.32Z" transform="translate(-142.704 -320.935)" fill="#3f3d56"/>
    <path id="Path_814" data-name="Path 814" d="M241.4,521.32h4.654a9.608,9.608,0,0,1,9.608,9.608v14.263H231.79V530.928A9.608,9.608,0,0,1,241.4,521.32Z" transform="translate(-142.704 -320.935)" opacity="0.1"/>
    <circle id="Ellipse_113" data-name="Ellipse 113" cx="1.91" cy="1.91" r="1.91" transform="translate(98.156 201.815)" fill="#3f3d56"/>
    <circle id="Ellipse_114" data-name="Ellipse 114" cx="1.91" cy="1.91" r="1.91" transform="translate(98.156 199.428)" fill="#3f3d56"/>
    <circle id="Ellipse_115" data-name="Ellipse 115" cx="1.91" cy="1.91" r="1.91" transform="translate(98.156 197.041)" fill="#3f3d56"/>
    <circle id="Ellipse_116" data-name="Ellipse 116" cx="1.91" cy="1.91" r="1.91" transform="translate(98.156 194.654)" fill="#3f3d56"/>
    <circle id="Ellipse_117" data-name="Ellipse 117" cx="1.91" cy="1.91" r="1.91" transform="translate(98.156 192.268)" fill="#3f3d56"/>
    <circle id="Ellipse_118" data-name="Ellipse 118" cx="1.91" cy="1.91" r="1.91" transform="translate(98.156 189.881)" fill="#3f3d56"/>
    <circle id="Ellipse_119" data-name="Ellipse 119" cx="1.91" cy="1.91" r="1.91" transform="translate(98.156 187.49)" fill="#3f3d56"/>
    <circle id="Ellipse_120" data-name="Ellipse 120" cx="1.91" cy="1.91" r="1.91" transform="translate(101.023 188.447)" fill="#3f3d56"/>
    <circle id="Ellipse_121" data-name="Ellipse 121" cx="1.91" cy="1.91" r="1.91" transform="translate(102.933 187.49)" fill="#3f3d56"/>
    <circle id="Ellipse_122" data-name="Ellipse 122" cx="1.91" cy="1.91" r="1.91" transform="translate(104.844 186.537)" fill="#3f3d56"/>
    <circle id="Ellipse_123" data-name="Ellipse 123" cx="1.91" cy="1.91" r="1.91" transform="translate(98.156 185.104)" fill="#3f3d56"/>
    <circle id="Ellipse_124" data-name="Ellipse 124" cx="1.91" cy="1.91" r="1.91" transform="translate(98.156 182.717)" fill="#3f3d56"/>
    <circle id="Ellipse_125" data-name="Ellipse 125" cx="1.91" cy="1.91" r="1.91" transform="translate(98.156 180.33)" fill="#3f3d56"/>
    <circle id="Ellipse_126" data-name="Ellipse 126" cx="1.91" cy="1.91" r="1.91" transform="translate(98.156 177.943)" fill="#3f3d56"/>
    <path id="Path_815" data-name="Path 815" d="M280.3,577.34q-.715.1-1.43.15a10.978,10.978,0,0,0,1.23-1.261,8.071,8.071,0,0,0-1.153-2.241,3.928,3.928,0,0,1-1.537.484c-.473.069-.949.119-1.426.154A23.818,23.818,0,0,0,277.8,572.7a8.11,8.11,0,1,0,2.663,6,7.947,7.947,0,0,0-.123-1.4Z" transform="translate(-172.296 -403.647)" fill="#248b93"/>
    <path id="Path_816" data-name="Path 816" d="M310.386,611.321a3.705,3.705,0,0,1-1.607.534c-.473.069-.949.123-1.426.154a13.993,13.993,0,0,0,1.414-1.468,4.781,4.781,0,1,0,1.618.769Z" transform="translate(-196.018 -428.139)" fill="#248b93"/>
    <circle id="Ellipse_127" data-name="Ellipse 127" cx="1.91" cy="1.91" r="1.91" transform="translate(95.293 188.447)" fill="#3f3d56"/>
    <circle id="Ellipse_128" data-name="Ellipse 128" cx="1.91" cy="1.91" r="1.91" transform="translate(93.383 187.49)" fill="#3f3d56"/>
    <circle id="Ellipse_129" data-name="Ellipse 129" cx="1.91" cy="1.91" r="1.91" transform="translate(91.472 186.537)" fill="#3f3d56"/>
    <path id="Path_817" data-name="Path 817" d="M245.025,611.321a3.705,3.705,0,0,0,1.607.534c.473.069.949.123,1.426.154a13.616,13.616,0,0,1-1.414-1.468,4.781,4.781,0,1,1-1.618.769Z" transform="translate(-159.256 -428.139)" fill="#248b93"/>
    <path id="Path_818" data-name="Path 818" d="M241.38,525h4.654a9.608,9.608,0,0,1,9.608,9.608v12.633a1.63,1.63,0,0,1-1.63,1.63H233.39a1.63,1.63,0,0,1-1.63-1.63V534.608A9.609,9.609,0,0,1,241.38,525Z" transform="translate(-142.686 -323.201)" fill="#3f3d56"/>
    <g id="Group_321" data-name="Group 321" transform="translate(92.064 167.065)" opacity="0.1">
      <path id="Path_819" data-name="Path 819" d="M305.355,589.49a7.24,7.24,0,0,1-.615.584,6.261,6.261,0,0,0,.653-.058C305.386,589.84,305.374,589.663,305.355,589.49Z" transform="translate(-289.29 -582.339)"/>
      <path id="Path_820" data-name="Path 820" d="M297.28,581c.48-.031.953-.081,1.43-.15a4.611,4.611,0,0,0,1.241-.338,8.422,8.422,0,0,0-.669-1.1,2.888,2.888,0,0,1-.769.327A11.062,11.062,0,0,1,297.28,581Z" transform="translate(-284.697 -576.133)"/>
      <path id="Path_821" data-name="Path 821" d="M265.382,579.853a8.1,8.1,0,0,1,12.491-6.826L278,572.9a8.109,8.109,0,1,0-10.692,12.2A8.071,8.071,0,0,1,265.382,579.853Z" transform="translate(-264.54 -570.885)"/>
    </g>
    <g id="Group_322" data-name="Group 322" transform="translate(106.754 182.24)" opacity="0.1">
      <path id="Path_822" data-name="Path 822" d="M314.68,614.443c.477-.031.953-.081,1.426-.15a3.71,3.71,0,0,0,1.607-.538,4.777,4.777,0,0,1,1.922,3.382,4.369,4.369,0,0,0,.027-.5,4.758,4.758,0,0,0-1.922-3.843,3.705,3.705,0,0,1-1.607.534l-.384.05a9.75,9.75,0,0,1-1.068,1.069Z" transform="translate(-310.099 -611.86)"/>
      <path id="Path_823" data-name="Path 823" d="M307.533,611.323a3.915,3.915,0,0,1,.477.035c.25-.265.5-.55.746-.826a4.766,4.766,0,0,0-6,4.612,3.271,3.271,0,0,0,.023.477A4.773,4.773,0,0,1,307.533,611.323Z" transform="translate(-302.76 -610.37)"/>
    </g>
    <g id="Group_323" data-name="Group 323" transform="translate(83.82 182.24)" opacity="0.1">
      <path id="Path_824" data-name="Path 824" d="M248.071,614.443c-.477-.031-.953-.081-1.426-.15a3.709,3.709,0,0,1-1.607-.538,4.777,4.777,0,0,0-1.922,3.382,4.372,4.372,0,0,1-.027-.5,4.758,4.758,0,0,1,1.922-3.843,3.7,3.7,0,0,0,1.607.534l.384.05A9.1,9.1,0,0,0,248.071,614.443Z" transform="translate(-243.09 -611.86)"/>
      <path id="Path_825" data-name="Path 825" d="M253.592,611.323a4.041,4.041,0,0,0-.48.035c-.246-.265-.492-.549-.742-.826a4.766,4.766,0,0,1,6,4.612,3.279,3.279,0,0,1-.023.477A4.773,4.773,0,0,0,253.592,611.323Z" transform="translate(-248.803 -610.37)"/>
    </g>
    <path id="Path_826" data-name="Path 826" d="M159.145,701.811H121.6a1.6,1.6,0,0,1-1.6-1.595V682.444A1.595,1.595,0,0,1,122.279,681c10.788,5.119,22.411,6.876,36.128.081a1.6,1.6,0,0,1,2.306,1.426v17.68A1.6,1.6,0,0,1,159.145,701.811Z" transform="translate(-83.488 -471.521)" fill="#248b93"/>
    <path id="Path_827" data-name="Path 827" d="M159.145,701.811H121.6a1.6,1.6,0,0,1-1.6-1.595V682.444A1.595,1.595,0,0,1,122.279,681c10.788,5.119,22.411,6.876,36.128.081a1.6,1.6,0,0,1,2.306,1.426v17.68A1.6,1.6,0,0,1,159.145,701.811Z" transform="translate(-83.488 -471.521)" opacity="0.1"/>
    <ellipse id="Ellipse_130" data-name="Ellipse 130" cx="2.221" cy="2.909" rx="2.221" ry="2.909" transform="translate(54.399 210.962)" fill="#3f3d56"/>
    <ellipse id="Ellipse_131" data-name="Ellipse 131" cx="2.221" cy="2.909" rx="2.221" ry="2.909" transform="translate(54.399 207.407)" fill="#3f3d56"/>
    <ellipse id="Ellipse_132" data-name="Ellipse 132" cx="2.221" cy="2.909" rx="2.221" ry="2.909" transform="translate(54.399 203.848)" fill="#3f3d56"/>
    <ellipse id="Ellipse_133" data-name="Ellipse 133" cx="2.221" cy="2.909" rx="2.221" ry="2.909" transform="translate(54.399 200.293)" fill="#3f3d56"/>
    <ellipse id="Ellipse_134" data-name="Ellipse 134" cx="2.221" cy="2.909" rx="2.221" ry="2.909" transform="translate(54.399 196.734)" fill="#3f3d56"/>
    <ellipse id="Ellipse_135" data-name="Ellipse 135" cx="2.221" cy="2.909" rx="2.221" ry="2.909" transform="translate(54.399 193.175)" fill="#3f3d56"/>
    <ellipse id="Ellipse_136" data-name="Ellipse 136" cx="2.221" cy="2.909" rx="2.221" ry="2.909" transform="translate(54.399 189.619)" fill="#3f3d56"/>
    <path id="Path_828" data-name="Path 828" d="M163.532,546.127a11.306,11.306,0,0,0,.826-1.218l-5.842-.961,6.318.046a10.65,10.65,0,0,0,.2-8.455l-8.475,4.4,7.817-5.765a10.65,10.65,0,1,0-17.591,11.915,10.413,10.413,0,0,0-1.215,1.941l7.579,3.982-8.071-2.729a10.662,10.662,0,0,0,1.718,9.993,10.65,10.65,0,1,0,16.742,0,10.65,10.65,0,0,0,0-13.167Z" transform="translate(-98.579 -377.942)" fill="#d5ac76"/>
    <path id="Path_829" data-name="Path 829" d="M144.49,590.679a10.6,10.6,0,0,0,2.279,6.584,10.65,10.65,0,1,0,16.742,0C164.936,595.452,144.49,589.483,144.49,590.679Z" transform="translate(-98.565 -415.91)" fill="#ecb773" opacity="0"/>
    <path id="Path_830" data-name="Path 830" d="M159.145,702.753H121.6a1.6,1.6,0,0,1-1.6-1.595V682.444A1.595,1.595,0,0,1,122.279,681c10.788,5.119,19.344,11.088,36.128.081a1.564,1.564,0,0,1,2.306,1.426v18.64A1.6,1.6,0,0,1,159.145,702.753Z" transform="translate(-83.488 -471.521)" fill="#ecb773"/>
    <path id="Path_831" data-name="Path 831" d="M785.264,556.75l-55.4,7.329-2.771.365L700.01,549.978v-3.386l84.639-9.232Z" transform="translate(-430.97 -330.81)" fill="#9c9ca1"/>
    <path id="Path_832" data-name="Path 832" d="M740.85,562.856l60.014-7.076-.615,11.08L753.5,570.289Z" transform="translate(-456.113 -342.151)" fill="#939498"/>
    <path id="Path_833" data-name="Path 833" d="M754.859,711.488v3.636l-2.771.384L725,701.026V697.64l25.854,13.836S754.244,711.8,754.859,711.488Z" transform="translate(-455.963 -481.859)" opacity="0.4"/>
    <path id="Path_834" data-name="Path 834" d="M810.3,572.555l-12.437,57.67a3.682,3.682,0,0,0,4.082,4.431l78.686-10.416a3.682,3.682,0,0,0,3.013-2.49l16.976-51.194a3.69,3.69,0,0,0-3.674-4.843l-83.217,3.951A3.69,3.69,0,0,0,810.3,572.555Z" transform="translate(-500.772 -400.634)" fill="#3f3d56"/>
    <ellipse id="Ellipse_137" data-name="Ellipse 137" cx="3.344" cy="2.148" rx="3.344" ry="2.148" transform="translate(348.144 196.074) rotate(-84)" fill="#fff"/>
  </g>
</svg>
